<svg xmlns="http://www.w3.org/2000/svg" viewBox="0 0 99.43728540069375 95.1338663837401" preserveAspectRatio="none">
  <path d="M24.6,62.0C24.7,62.1 24.6,62.2 24.9,62.4C25.1,62.5 25.1,62.4 25.4,62.7C25.8,63.0 25.8,63.1 26.2,63.4C26.6,63.8 26.6,63.9 27.0,64.2C27.3,64.4 27.3,64.3 27.5,64.5C27.8,64.7 27.7,64.6 28.0,64.9C28.4,65.1 28.5,65.3 28.9,65.6C29.4,65.8 29.3,65.7 29.7,65.9C30.1,66.0 30.0,65.9 30.4,66.2C30.8,66.4 30.9,66.5 31.3,66.9C31.7,67.2 31.8,67.4 32.2,67.6C32.5,67.7 32.4,67.4 32.8,67.5C33.2,67.6 33.2,67.7 33.7,68.0C34.1,68.2 34.1,68.2 34.5,68.5C35.0,68.8 35.1,68.9 35.5,69.1C36.0,69.4 35.9,69.3 36.3,69.4C36.7,69.6 36.7,69.5 37.2,69.7C37.7,69.9 37.9,70.1 38.4,70.4C38.9,70.6 38.8,70.5 39.2,70.6C39.7,70.8 39.7,70.7 40.1,70.9C40.6,71.2 40.6,71.4 41.1,71.6C41.6,71.8 41.6,71.7 42.1,71.9C42.6,72.0 42.6,72.0 43.0,72.1C43.5,72.3 43.5,72.3 43.9,72.4C44.4,72.5 44.4,72.5 44.8,72.7C45.3,72.8 45.5,72.9 45.7,72.9" fill="none" stroke="#ef4444" stroke-width="0.8" stroke-linecap="round" stroke-linejoin="round" opacity="0.9"/>
  <path d="M29.8,71.1C29.9,71.3 30.1,71.6 30.3,71.9C30.5,72.2 30.5,72.1 30.6,72.3C30.7,72.5 30.7,72.4 30.8,72.7C31.0,73.0 31.1,73.1 31.2,73.5C31.4,73.9 31.3,74.0 31.4,74.4C31.5,74.7 31.6,74.7 31.6,74.8" fill="none" stroke="#ef4444" stroke-width="0.8" stroke-linecap="round" stroke-linejoin="round" opacity="0.9"/>
  <path d="M17.0,78.5C16.9,78.6 16.7,78.6 16.5,79.0C16.4,79.4 16.5,79.5 16.4,79.9C16.3,80.2 16.3,80.1 16.2,80.4C16.1,80.6 16.1,80.5 16.0,80.9C15.9,81.2 15.9,81.4 15.8,81.8C15.8,82.1 15.7,82.1 15.7,82.2" fill="none" stroke="#ef4444" stroke-width="0.8" stroke-linecap="round" stroke-linejoin="round" opacity="0.9"/>
  <path d="M22.3,44.3C22.3,44.4 22.4,44.4 22.4,44.7C22.5,45.1 22.4,45.2 22.5,45.6C22.5,46.0 22.6,46.2 22.5,46.5C22.4,46.7 22.2,46.3 22.2,46.5C22.2,46.8 22.3,47.1 22.4,47.4C22.4,47.7 22.3,47.5 22.3,47.8C22.4,48.2 22.5,48.4 22.5,48.7C22.6,49.0 22.5,48.9 22.4,49.1C22.4,49.4 22.3,49.3 22.3,49.6C22.2,50.0 22.4,50.2 22.3,50.5C22.3,50.8 22.2,50.7 22.1,51.0C22.0,51.2 22.0,51.2 21.9,51.4C21.9,51.7 21.9,51.7 21.8,51.9C21.7,52.2 21.6,52.1 21.6,52.4C21.5,52.7 21.6,52.9 21.6,53.3C21.6,53.6 21.6,53.5 21.6,53.7C21.6,53.9 21.5,53.8 21.6,54.2C21.6,54.5 21.6,54.6 21.6,55.0C21.7,55.5 21.8,55.7 21.7,55.9C21.6,56.1 21.4,55.8 21.4,56.0C21.4,56.2 21.6,56.4 21.7,56.8C21.9,57.1 21.9,57.1 22.0,57.4C22.1,57.7 22.1,57.8 22.2,58.0C22.3,58.3 22.3,58.1 22.4,58.4C22.5,58.7 22.4,58.9 22.6,59.3C22.8,59.7 22.9,59.8 23.2,60.0C23.4,60.3 23.4,60.3 23.5,60.4" fill="none" stroke="#fbbf24" stroke-width="0.6" stroke-linecap="round" stroke-linejoin="round" opacity="0.7"/>
  <path d="M18.5,58.7C18.6,58.8 18.7,58.8 18.9,59.1C19.1,59.4 19.0,59.5 19.3,59.9C19.6,60.3 19.7,60.4 20.0,60.6C20.4,60.9 20.4,60.9 20.6,61.0C20.8,61.1 20.6,60.8 20.8,60.9C21.0,61.1 21.1,61.3 21.3,61.7C21.6,62.1 21.6,62.2 21.9,62.5C22.1,62.8 22.1,62.7 22.3,62.9C22.5,63.0 22.5,63.0 22.8,63.2C23.0,63.4 23.0,63.3 23.3,63.6C23.6,63.8 23.7,64.0 23.9,64.3C24.2,64.6 24.1,64.5 24.3,64.7C24.5,64.9 24.5,64.8 24.7,65.0C25.0,65.3 25.0,65.4 25.4,65.8C25.7,66.2 25.8,66.3 26.0,66.6C26.3,66.8 26.2,66.7 26.4,66.9C26.6,67.1 26.6,67.0 26.8,67.3C27.0,67.6 27.1,67.8 27.3,68.1C27.6,68.4 27.5,68.3 27.8,68.4C28.0,68.6 27.9,68.5 28.2,68.8C28.4,69.1 28.5,69.3 28.7,69.6C28.9,69.9 28.8,69.7 29.0,70.0C29.2,70.2 28.9,69.5 29.5,70.7C30.2,71.9 31.1,73.6 31.6,74.8C32.2,75.9 31.7,74.9 31.7,75.2C31.8,75.5 31.8,75.6 31.9,76.0C31.9,76.5 32.0,76.7 32.0,76.9C32.0,77.1 31.8,76.7 31.7,77.0C31.7,77.2 31.8,77.4 31.8,77.8C31.9,78.2 31.8,78.1 31.8,78.5C31.8,78.8 31.9,79.0 31.7,79.2C31.6,79.3 31.5,79.2 31.4,79.2" fill="none" stroke="#fbbf24" stroke-width="0.6" stroke-linecap="round" stroke-linejoin="round" opacity="0.7"/>
  <path d="M29.2,85.8C29.1,86.0 29.0,86.1 28.9,86.3C28.7,86.6 28.7,86.6 28.6,86.8C28.4,87.1 28.4,87.1 28.1,87.4C27.9,87.6 27.9,87.6 27.7,87.9C27.6,88.1 27.6,88.1 27.5,88.4C27.4,88.6 27.3,88.7 27.3,88.9" fill="none" stroke="#fbbf24" stroke-width="0.6" stroke-linecap="round" stroke-linejoin="round" opacity="0.7"/>
  <path d="M16.9,56.8C16.7,56.9 16.5,56.9 16.2,57.0C15.8,57.0 15.8,57.0 15.4,57.1C15.0,57.2 15.0,57.2 14.6,57.3C14.2,57.3 14.3,57.4 13.9,57.4C13.5,57.4 13.4,57.2 12.9,57.2C12.4,57.1 12.5,57.2 12.1,57.3C11.7,57.4 11.7,57.4 11.3,57.5C10.9,57.5 10.7,57.6 10.5,57.6" fill="none" stroke="#fbbf24" stroke-width="0.6" stroke-linecap="round" stroke-linejoin="round" opacity="0.7"/>
  <path d="M33.3,70.5C33.1,70.6 33.0,70.7 32.8,71.0C32.5,71.3 32.5,71.3 32.3,71.5C32.0,71.8 32.0,71.8 31.7,72.1C31.5,72.4 31.6,72.4 31.3,72.6C31.0,72.8 30.8,72.7 30.4,72.8C30.0,72.9 30.0,73.0 29.6,73.2C29.3,73.3 29.2,73.3 28.9,73.5C28.5,73.8 28.5,73.8 28.2,74.1C27.8,74.4 27.9,74.5 27.5,74.7C27.1,74.9 27.1,74.8 26.6,74.8C26.2,74.9 26.3,74.9 25.8,75.0C25.4,75.1 25.3,75.1 24.8,75.2C24.4,75.3 24.3,75.3 23.9,75.4C23.4,75.5 23.4,75.5 23.0,75.5C22.5,75.6 22.6,75.7 22.2,75.7C21.7,75.7 21.7,75.7 21.1,75.7C20.6,75.7 20.6,75.6 20.1,75.6C19.6,75.7 19.6,75.9 19.1,75.8C18.7,75.8 18.7,75.6 18.3,75.6C17.9,75.5 18.0,75.7 17.5,75.7C16.9,75.7 16.7,75.5 16.3,75.5C15.8,75.5 15.9,75.6 15.5,75.7C15.1,75.7 15.1,75.8 14.7,75.8C14.3,75.8 14.2,75.7 13.9,75.5C13.5,75.4 13.6,75.4 13.2,75.2C12.9,75.0 12.9,74.9 12.5,74.7C12.2,74.4 12.1,74.3 11.8,74.2C11.5,74.1 11.6,74.3 11.3,74.3C11.0,74.2 10.8,74.1 10.6,74.0C10.3,73.8 10.4,73.9 10.2,73.6C9.9,73.3 9.7,73.0 9.6,72.8" fill="none" stroke="#fbbf24" stroke-width="0.6" stroke-linecap="round" stroke-linejoin="round" opacity="0.7"/>
  <path d="M24.6,72.6C24.4,72.7 24.3,72.9 24.0,73.1C23.7,73.4 23.7,73.4 23.4,73.7C23.0,74.0 23.1,74.1 22.7,74.3C22.4,74.4 22.3,74.4 21.9,74.4C21.5,74.5 21.5,74.4 21.1,74.6C20.8,74.7 20.8,74.7 20.5,74.9C20.1,75.1 20.1,75.1 19.8,75.3C19.5,75.5 19.7,75.5 19.4,75.8C19.1,76.1 19.0,76.1 18.7,76.4C18.4,76.6 18.5,76.6 18.2,76.9C18.0,77.2 18.0,77.2 17.8,77.4C17.6,77.7 18.0,76.3 17.4,77.9C16.8,79.6 16.1,82.4 15.5,84.0C14.9,85.7 15.2,84.3 15.0,84.6C14.8,84.8 14.9,84.9 14.7,85.1C14.5,85.2 14.4,85.0 14.2,85.2C14.0,85.4 14.1,85.5 13.9,85.9C13.8,86.3 13.7,86.4 13.7,86.6" fill="none" stroke="#fbbf24" stroke-width="0.6" stroke-linecap="round" stroke-linejoin="round" opacity="0.7"/>
  <path d="M71.5,58.7C71.5,58.9 71.7,59.2 71.7,59.5C71.7,59.9 71.6,59.8 71.5,60.0C71.4,60.3 71.4,60.3 71.3,60.5C71.3,60.7 71.3,60.7 71.3,60.9C71.2,61.2 71.2,61.3 71.1,61.6C71.1,62.0 71.1,62.0 71.0,62.3C70.9,62.6 70.8,62.6 70.7,62.8C70.5,63.1 70.5,63.0 70.4,63.3C70.3,63.7 70.4,63.9 70.3,64.2C70.1,64.6 69.9,64.5 69.7,64.8C69.5,65.0 69.6,65.0 69.4,65.3C69.3,65.5 69.3,65.5 69.2,65.8C69.1,66.0 69.1,66.1 69.0,66.2" fill="none" stroke="#fbbf24" stroke-width="0.6" stroke-linecap="round" stroke-linejoin="round" opacity="0.7"/>
  <ellipse cx="54.9" cy="63.8" rx="3.5" ry="3.7" fill="#0c0c0c" stroke="#ef4444" stroke-width="0.4" opacity="0.95"/>
  <text x="54.9" y="65.1" text-anchor="middle" font-family="sans-serif" font-size="3.5" font-weight="700" fill="#ffffff" opacity="0.95">OR</text>
</svg>