<svg xmlns="http://www.w3.org/2000/svg" viewBox="0 0 106.14050285055407 102.1169759827725" preserveAspectRatio="none">
  <path d="M72.2,26.1C72.2,26.0 72.4,25.7 72.1,25.6C71.9,25.4 71.1,25.3 70.8,25.1C70.4,25.0 70.3,24.8 70.0,24.6C69.8,24.5 69.5,24.3 69.3,24.2C69.0,24.0 68.8,23.8 68.5,23.7C68.3,23.5 68.1,23.3 67.8,23.2C67.6,23.0 67.3,22.8 67.1,22.7C66.8,22.5 66.7,22.3 66.3,22.2C66.0,22.0 65.3,21.9 65.0,21.7C64.6,21.5 64.4,21.4 64.2,21.2C64.1,21.0 64.2,20.7 64.1,20.5C63.9,20.3 63.6,20.2 63.3,20.0C63.1,19.8 63.0,19.7 62.6,19.5C62.3,19.4 61.6,19.3 61.2,19.1C60.9,19.0 60.6,18.7 60.5,18.6" fill="none" stroke="#ef4444" stroke-width="0.8" stroke-linecap="round" stroke-linejoin="round" opacity="0.9"/>
  <path d="M49.7,25.5C49.5,25.5 49.2,25.4 49.0,25.2C48.7,25.1 48.5,24.9 48.2,24.7C48.0,24.6 47.7,24.5 47.5,24.3C47.3,24.2 47.1,24.1 46.8,23.9C46.4,23.8 45.8,23.7 45.4,23.6C45.1,23.4 44.8,23.3 44.7,23.1C44.6,23.0 44.8,22.7 44.6,22.5C44.3,22.3 43.6,22.2 43.2,22.1C42.9,21.9 42.7,21.7 42.5,21.5C42.2,21.3 42.0,21.1 41.7,20.9C41.5,20.7 41.1,20.6 41.0,20.4C40.8,20.1 41.0,19.8 40.8,19.6C40.7,19.4 40.4,19.2 40.1,19.0C39.7,18.8 39.0,18.7 38.7,18.5C38.3,18.3 38.2,18.1 37.9,17.9C37.7,17.7 37.3,17.5 37.1,17.3C37.0,17.0 37.2,16.7 37.0,16.5C36.8,16.3 36.5,16.1 36.2,15.9C36.0,15.7 35.7,15.5 35.5,15.3C35.2,15.1 35.0,14.9 34.7,14.6C34.4,14.4 34.3,14.0 33.9,13.8C33.5,13.6 32.8,13.5 32.5,13.3C32.3,13.1 32.6,12.9 32.4,12.7C32.3,12.5 31.9,12.4 31.7,12.3C31.4,12.1 31.2,11.9 30.9,11.7C30.7,11.5 30.3,11.2 30.2,11.1" fill="none" stroke="#ef4444" stroke-width="0.8" stroke-linecap="round" stroke-linejoin="round" opacity="0.9"/>
  <path d="M7.1,7.8C7.1,7.7 6.9,7.4 7.0,7.2C7.0,6.9 7.3,6.7 7.5,6.5C7.6,6.2 7.9,6.0 8.0,5.8C8.0,5.6 7.9,5.4 7.9,5.2C7.8,5.0 7.7,4.8 7.7,4.5C7.8,4.3 8.1,4.1 8.2,3.9C8.4,3.7 8.6,3.4 8.7,3.2C8.9,3.0 9.2,2.8 9.3,2.6C9.3,2.4 9.1,2.2 9.2,2.0C9.2,1.8 9.5,1.6 9.7,1.4C9.8,1.1 10.1,0.8 10.2,0.7" fill="none" stroke="#ef4444" stroke-width="0.8" stroke-linecap="round" stroke-linejoin="round" opacity="0.9"/>
  <path d="M25.2,24.9C25.0,24.8 24.7,24.6 24.4,24.5C24.2,24.3 24.0,24.1 23.7,23.9C23.3,23.8 22.6,23.6 22.3,23.5C22.1,23.3 22.3,23.1 22.2,22.9C22.1,22.7 21.7,22.5 21.5,22.4C21.2,22.2 21.0,22.0 20.7,21.8C20.5,21.6 20.1,21.4 19.9,21.2C19.8,21.0 20.0,20.7 19.8,20.5C19.7,20.3 19.3,20.1 19.0,19.9C18.8,19.7 18.5,19.5 18.3,19.3C18.0,19.1 17.8,18.9 17.5,18.7C17.3,18.5 16.9,18.2 16.8,18.0C16.6,17.8 16.8,17.5 16.6,17.3C16.5,17.1 16.0,16.8 15.8,16.6C15.7,16.4 15.9,16.2 15.7,16.0C15.6,15.7 15.2,15.5 14.9,15.2C14.7,15.0 14.4,14.8 14.2,14.6C13.9,14.3 13.6,14.1 13.4,13.8C13.1,13.6 12.8,13.4 12.6,13.2C12.5,13.0 12.5,12.8 12.5,12.6C12.5,12.4 12.4,12.1 12.4,12.0" fill="none" stroke="#ef4444" stroke-width="0.8" stroke-linecap="round" stroke-linejoin="round" opacity="0.9"/>
  <path d="M61.8,25.1C61.8,25.0 61.7,24.6 61.6,24.4C61.6,24.2 61.6,24.0 61.5,23.8C61.5,23.5 61.4,23.3 61.4,23.0C61.3,22.8 61.3,22.5 61.2,22.3C61.2,22.1 61.1,21.8 61.1,21.6C61.0,21.4 61.0,21.2 61.0,20.9C60.9,20.7 60.8,20.5 60.8,20.3C60.9,20.0 61.2,19.7 61.3,19.4C61.4,19.2 61.2,19.0 61.2,18.8C61.1,18.6 61.1,18.3 61.0,18.1C61.0,17.8 60.9,17.5 60.9,17.3C60.9,17.1 60.7,16.9 60.8,16.7C60.8,16.4 61.3,16.1 61.3,15.9C61.2,15.7 60.7,15.5 60.5,15.3C60.4,15.1 60.4,14.8 60.4,14.6C60.3,14.3 60.4,14.1 60.2,13.9C60.1,13.7 59.6,13.5 59.5,13.4" fill="none" stroke="#ef4444" stroke-width="0.8" stroke-linecap="round" stroke-linejoin="round" opacity="0.9"/>
  <path d="M30.6,76.1C30.4,76.1 29.8,76.2 29.3,76.3C28.9,76.3 28.4,76.5 28.1,76.6C27.8,76.6 27.8,76.6 27.5,76.6C27.2,76.7 26.6,76.7 26.2,76.7C25.8,76.8 25.3,76.8 25.0,76.9C24.7,77.0 24.6,77.0 24.4,77.1C24.2,77.2 24.1,77.2 23.8,77.3C23.5,77.3 22.7,77.4 22.5,77.4" fill="none" stroke="#ef4444" stroke-width="0.8" stroke-linecap="round" stroke-linejoin="round" opacity="0.9"/>
  <path d="M80.9,31.3C80.9,31.2 81.0,30.9 80.8,30.8C80.7,30.7 80.4,30.6 80.1,30.4C79.9,30.3 79.5,30.2 79.4,30.0C79.3,29.9 79.5,29.8 79.3,29.6C79.2,29.5 79.0,29.4 78.6,29.3C78.3,29.1 77.6,29.0 77.3,28.9C76.9,28.7 76.8,28.6 76.5,28.5C76.3,28.4 76.0,28.2 75.8,28.1C75.7,28.0 75.9,27.8 75.7,27.7C75.6,27.5 75.4,27.4 75.0,27.3C74.7,27.2 74.0,27.1 73.7,26.9C73.3,26.8 73.1,26.6 73.0,26.5" fill="none" stroke="#fbbf24" stroke-width="0.6" stroke-linecap="round" stroke-linejoin="round" opacity="0.7"/>
  <path d="M13.4,17.3C13.3,17.2 12.9,17.1 12.7,16.9C12.5,16.8 12.2,16.6 12.0,16.5C11.7,16.4 11.5,16.4 11.3,16.3C11.0,16.1 10.8,16.0 10.6,15.9C10.3,15.7 10.0,15.6 9.8,15.5C9.7,15.3 9.9,15.1 9.7,14.9C9.6,14.8 9.2,14.7 9.0,14.5C8.9,14.3 9.0,14.1 8.9,14.0C8.8,13.8 8.4,13.7 8.2,13.5C7.9,13.4 7.6,13.3 7.5,13.1C7.3,13.0 7.4,12.7 7.3,12.5C7.3,12.3 7.3,12.2 7.2,12.0C7.2,11.8 7.2,11.6 7.1,11.4C7.1,11.2 7.1,11.0 7.0,10.8C7.0,10.6 7.0,10.5 6.9,10.3C6.9,10.1 6.8,9.9 6.8,9.7C6.8,9.4 6.6,9.3 6.7,9.1C6.8,8.9 7.1,8.6 7.2,8.5" fill="none" stroke="#fbbf24" stroke-width="0.6" stroke-linecap="round" stroke-linejoin="round" opacity="0.7"/>
  <path d="M58.7,9.2C58.8,9.2 59.0,9.3 59.4,9.4C59.7,9.4 60.3,9.4 60.7,9.5C61.0,9.6 61.1,9.7 61.4,9.8C61.6,9.9 61.9,10.0 62.1,10.1C62.2,10.3 61.9,10.5 62.2,10.6C62.4,10.7 63.2,10.7 63.5,10.8C63.8,10.9 64.1,11.0 64.2,11.1C64.3,11.3 64.3,11.6 64.3,11.7" fill="none" stroke="#fbbf24" stroke-width="0.6" stroke-linecap="round" stroke-linejoin="round" opacity="0.7"/>
  <path d="M21.5,15.9C21.4,15.8 21.0,15.7 20.8,15.6C20.5,15.5 20.2,15.4 20.1,15.3C20.0,15.2 20.2,15.1 20.0,15.0C19.9,15.0 19.7,14.9 19.3,14.8C19.0,14.7 18.3,14.7 18.0,14.6C17.7,14.5 17.6,14.3 17.3,14.2C17.0,14.1 16.3,13.9 15.9,13.8C15.6,13.7 15.5,13.6 15.2,13.6C15.0,13.5 14.9,13.4 14.6,13.4C14.2,13.4 13.6,13.4 13.3,13.4C13.0,13.3 12.7,13.2 12.6,13.2C12.5,13.1 12.8,13.0 12.6,12.9C12.3,12.9 11.6,12.9 11.3,12.8C10.9,12.8 10.9,12.6 10.6,12.6C10.2,12.5 9.5,12.6 9.3,12.5C9.1,12.5 9.2,12.3 9.2,12.3" fill="none" stroke="#fbbf24" stroke-width="0.6" stroke-linecap="round" stroke-linejoin="round" opacity="0.7"/>
  <path d="M83.1,29.2C83.2,29.1 83.5,28.8 83.6,28.6C83.7,28.4 83.5,28.3 83.5,28.1C83.6,27.9 84.0,27.6 84.0,27.4C84.1,27.2 83.9,27.0 83.9,26.8C84.0,26.6 84.4,26.4 84.4,26.1C84.5,25.9 84.3,25.7 84.3,25.5C84.3,25.3 84.1,25.1 84.2,24.9C84.3,24.7 84.6,24.4 84.7,24.2C84.8,24.0 84.5,23.8 84.6,23.6C84.6,23.4 85.0,23.1 85.1,22.9C85.1,22.7 85.0,22.4 85.0,22.2C84.9,22.0 84.9,21.9 84.9,21.7C84.8,21.5 84.8,21.3 84.7,21.1C84.7,20.9 84.6,20.6 84.6,20.4C84.6,20.2 84.4,20.0 84.5,19.8C84.6,19.6 84.9,19.4 85.0,19.2C85.1,18.9 84.8,18.8 84.9,18.6C85.0,18.3 85.3,18.1 85.4,17.9C85.5,17.6 85.3,17.4 85.3,17.2C85.2,17.0 85.2,16.8 85.1,16.6C85.1,16.4 85.0,16.2 85.0,16.0C85.1,15.8 85.5,15.5 85.5,15.3C85.6,15.1 85.5,14.9 85.4,14.7C85.4,14.5 85.3,14.2 85.3,14.0C85.2,13.8 85.1,13.6 85.2,13.4C85.2,13.2 85.6,12.9 85.7,12.7C85.7,12.5 85.6,12.3 85.5,12.1C85.5,11.8 85.5,11.6 85.4,11.4C85.4,11.2 85.2,11.1 85.3,10.8C85.4,10.6 85.9,10.3 85.8,10.1C85.8,9.9 85.1,9.8 85.1,9.6C85.0,9.4 85.5,9.1 85.6,8.9C85.6,8.6 85.5,8.4 85.4,8.2C85.4,8.0 85.4,7.9 85.3,7.6C85.3,7.4 85.2,7.2 85.2,6.9C85.2,6.7 85.1,6.5 85.1,6.3C85.0,6.1 85.0,5.9 85.0,5.7C84.9,5.5 84.9,5.3 84.8,5.1C84.8,4.9 84.8,4.7 84.7,4.5C84.7,4.3 84.6,4.1 84.6,3.9C84.6,3.7 84.5,3.5 84.5,3.3C84.4,3.1 84.4,2.9 84.4,2.7C84.3,2.6 84.3,2.4 84.3,2.2C84.2,2.0 84.1,1.8 84.2,1.6C84.2,1.4 84.6,1.2 84.7,1.1" fill="none" stroke="#fbbf24" stroke-width="0.6" stroke-linecap="round" stroke-linejoin="round" opacity="0.7"/>
  <path d="M65.0,21.9C65.0,21.8 65.0,21.6 64.9,21.4C64.8,21.2 64.3,21.0 64.2,20.9C64.0,20.7 64.1,20.5 64.0,20.3C64.0,20.1 64.0,20.0 63.9,19.8C63.9,19.6 63.9,19.4 63.8,19.2C63.8,19.1 63.9,18.8 63.7,18.7C63.6,18.5 63.2,18.3 63.0,18.2C62.7,18.0 62.5,17.8 62.3,17.7C62.0,17.5 61.8,17.4 61.5,17.3C61.3,17.1 60.9,17.0 60.8,16.8C60.7,16.6 60.8,16.4 60.7,16.3C60.6,16.1 60.1,16.1 60.0,15.9C59.9,15.8 59.9,15.5 59.9,15.4" fill="none" stroke="#fbbf24" stroke-width="0.6" stroke-linecap="round" stroke-linejoin="round" opacity="0.7"/>
  <path d="M30.1,27.2C30.0,27.1 29.6,27.0 29.4,26.9C29.2,26.9 28.9,26.7 28.7,26.6C28.5,26.5 28.2,26.5 28.0,26.4C27.8,26.3 27.6,26.2 27.3,26.1C27.0,26.0 26.3,25.9 26.0,25.7C25.6,25.6 25.4,25.4 25.2,25.4" fill="none" stroke="#fbbf24" stroke-width="0.6" stroke-linecap="round" stroke-linejoin="round" opacity="0.7"/>
  <path d="M34.8,5.3C34.9,5.2 35.2,4.9 35.3,4.7C35.5,4.5 35.8,4.4 35.9,4.2C36.0,4.0 35.8,3.7 35.8,3.5C35.7,3.3 35.6,3.2 35.7,2.9C35.7,2.7 36.1,2.5 36.2,2.2C36.2,2.0 36.1,1.7 36.0,1.5C36.0,1.3 35.9,1.0 35.9,0.9" fill="none" stroke="#fbbf24" stroke-width="0.6" stroke-linecap="round" stroke-linejoin="round" opacity="0.7"/>
  <path d="M34.2,35.3C34.2,35.2 34.2,35.0 34.1,34.8C34.1,34.6 34.1,34.5 34.0,34.3C34.0,34.1 34.0,33.9 33.9,33.7C33.9,33.5 34.0,33.3 33.8,33.1C33.7,33.0 33.2,32.8 33.1,32.6C32.9,32.5 33.0,32.3 33.0,32.1C32.9,31.9 32.9,31.7 32.9,31.6C32.8,31.4 32.9,31.2 32.8,31.0C32.6,30.9 32.2,30.7 32.0,30.6C31.9,30.4 32.1,30.3 31.9,30.1C31.8,30.0 31.3,29.8 31.2,29.7C31.1,29.5 31.2,29.3 31.1,29.1C31.0,29.0 30.5,28.8 30.4,28.7" fill="none" stroke="#fbbf24" stroke-width="0.6" stroke-linecap="round" stroke-linejoin="round" opacity="0.7"/>
  <path d="M43.0,30.9C42.9,30.9 42.6,30.8 42.3,30.8C42.1,30.7 41.9,30.7 41.7,30.6C41.4,30.6 41.3,30.5 41.0,30.5C40.7,30.5 39.9,30.5 39.7,30.5C39.5,30.4 39.8,30.3 39.7,30.3C39.6,30.2 39.3,30.1 39.0,30.1C38.7,30.0 38.0,30.0 37.7,29.9C37.3,29.9 37.2,29.7 37.0,29.6C36.7,29.5 36.5,29.5 36.3,29.4C36.1,29.3 35.8,29.2 35.6,29.1C35.4,29.0 35.1,28.9 34.9,28.8C34.7,28.7 34.4,28.6 34.2,28.5C34.0,28.4 33.7,28.2 33.5,28.1C33.2,28.0 33.0,27.8 32.8,27.7C32.5,27.6 32.2,27.5 32.0,27.4C31.9,27.2 32.0,27.0 32.0,26.9C31.9,26.7 32.0,26.5 31.9,26.4C31.7,26.2 31.4,26.1 31.1,25.9C30.9,25.8 30.5,25.6 30.4,25.5C30.3,25.3 30.4,25.1 30.3,24.9C30.2,24.8 30.0,24.6 29.9,24.4C29.7,24.3 29.5,24.1 29.5,23.9C29.4,23.7 29.4,23.5 29.3,23.3C29.3,23.1 29.3,23.0 29.2,22.8C29.2,22.7 29.2,22.5 29.1,22.4C29.1,22.2 29.1,21.9 29.0,21.8" fill="none" stroke="#fbbf24" stroke-width="0.6" stroke-linecap="round" stroke-linejoin="round" opacity="0.7"/>
  <path d="M43.6,30.5C43.7,30.4 44.0,30.2 44.1,30.0C44.2,29.8 44.0,29.7 44.0,29.5C44.0,29.3 43.8,29.1 43.9,29.0C44.0,28.8 44.3,28.6 44.4,28.4C44.6,28.2 44.6,28.0 44.7,27.8C44.7,27.6 44.7,27.5 44.9,27.3C45.0,27.1 45.3,26.9 45.4,26.7C45.5,26.5 45.3,26.3 45.3,26.2C45.3,26.0 45.1,25.8 45.2,25.6C45.3,25.5 45.5,25.3 45.7,25.1C45.9,24.9 46.1,24.7 46.3,24.5C46.4,24.3 46.6,24.1 46.8,23.9C47.0,23.7 47.1,23.6 47.3,23.4C47.5,23.2 47.7,23.0 47.8,22.8C48.0,22.6 48.0,22.5 48.1,22.3C48.1,22.1 48.2,21.9 48.3,21.7C48.4,21.6 48.6,21.4 48.8,21.2C49.0,21.0 49.2,20.9 49.4,20.7C49.6,20.6 49.7,20.4 49.9,20.2C50.1,20.0 50.3,19.9 50.5,19.7C50.6,19.5 50.9,19.4 51.0,19.2C51.1,19.0 50.8,18.7 50.9,18.5C50.9,18.3 51.3,18.0 51.4,17.9" fill="none" stroke="#fbbf24" stroke-width="0.6" stroke-linecap="round" stroke-linejoin="round" opacity="0.7"/>
  <path d="M50.7,7.8C50.8,7.8 51.1,7.7 51.3,7.6C51.5,7.5 51.7,7.4 51.9,7.3C52.2,7.3 52.5,7.2 52.8,7.2C53.1,7.1 53.5,7.0 53.8,7.0C54.0,7.0 54.2,7.0 54.4,7.0C54.6,6.9 54.7,6.9 55.0,6.9C55.3,6.8 56.0,6.7 56.3,6.7C56.6,6.6 56.6,6.6 56.9,6.6C57.2,6.6 57.9,6.6 58.2,6.6C58.5,6.6 58.6,6.6 58.8,6.7C59.1,6.7 59.2,6.7 59.5,6.7C59.8,6.7 60.4,6.7 60.8,6.7C61.1,6.7 61.4,6.7 61.7,6.7C62.1,6.7 62.4,6.7 62.7,6.8C63.0,6.8 63.0,6.9 63.4,6.9C63.7,7.0 64.3,7.0 64.7,7.0C65.0,7.0 65.1,7.1 65.3,7.1C65.6,7.2 65.8,7.2 66.0,7.2C66.2,7.2 66.3,7.3 66.7,7.3C67.0,7.4 67.6,7.4 68.0,7.4C68.3,7.5 68.4,7.6 68.6,7.6C68.9,7.7 69.1,7.8 69.3,7.9C69.6,7.9 70.0,8.0 70.3,8.0C70.7,8.1 71.0,8.1 71.3,8.2C71.6,8.3 71.9,8.4 72.0,8.5C72.2,8.6 72.0,8.7 72.1,8.8C72.2,8.9 72.5,9.1 72.8,9.2C73.1,9.3 73.8,9.4 74.1,9.5C74.5,9.6 74.6,9.7 74.8,9.8C75.1,9.9 75.4,10.0 75.6,10.1C75.7,10.3 75.5,10.5 75.6,10.6C75.8,10.8 76.2,10.9 76.4,11.0C76.5,11.1 76.6,11.3 76.8,11.4C76.9,11.6 77.0,11.7 77.2,11.8C77.3,12.0 77.6,12.1 77.9,12.2C78.1,12.3 78.5,12.5 78.6,12.7C78.7,12.8 78.7,13.1 78.7,13.1" fill="none" stroke="#fbbf24" stroke-width="0.6" stroke-linecap="round" stroke-linejoin="round" opacity="0.7"/>
  <path d="M72.3,19.9C72.1,19.9 71.2,19.8 71.0,19.7C70.8,19.6 71.0,19.4 70.9,19.3C70.8,19.2 70.4,19.1 70.2,19.0C70.0,18.9 69.7,18.8 69.5,18.7C69.3,18.6 69.0,18.5 68.8,18.4C68.6,18.3 68.3,18.2 68.1,18.0C67.9,17.9 68.0,17.9 67.7,17.7C67.5,17.5 66.9,17.1 66.6,16.9C66.3,16.7 66.1,16.6 65.9,16.5C65.6,16.4 65.4,16.3 65.2,16.2C64.9,16.1 64.7,16.0 64.5,15.9C64.2,15.7 64.0,15.6 63.7,15.4C63.5,15.3 63.2,15.2 63.0,15.1C62.9,15.0 63.1,14.8 63.0,14.7C62.8,14.6 62.5,14.5 62.3,14.4C62.0,14.3 61.6,14.2 61.2,14.1C60.9,14.0 60.5,13.9 60.2,13.8C59.9,13.7 59.6,13.6 59.5,13.5C59.4,13.4 59.7,13.3 59.5,13.2C59.2,13.1 58.5,13.1 58.1,13.0C57.8,12.9 57.6,12.8 57.5,12.8" fill="none" stroke="#fbbf24" stroke-width="0.6" stroke-linecap="round" stroke-linejoin="round" opacity="0.7"/>
  <path d="M40.9,13.7C41.1,13.6 41.9,13.5 42.2,13.4C42.5,13.3 42.7,13.2 42.8,13.1C42.9,13.1 42.6,13.0 42.7,12.9C42.9,12.9 43.3,12.8 43.6,12.7C43.9,12.6 43.8,12.7 44.5,12.4C45.3,12.1 47.3,11.0 48.1,10.6C48.8,10.3 49.1,10.3 49.3,10.2C49.4,10.1 49.1,10.0 49.2,9.9C49.3,9.8 49.6,9.6 49.8,9.5C49.9,9.4 50.1,9.3 50.3,9.1C50.5,9.0 50.7,8.8 50.9,8.7C51.1,8.5 51.2,8.4 51.4,8.2C51.6,8.0 51.9,7.9 52.0,7.7C52.0,7.5 51.8,7.3 51.9,7.1C51.9,7.0 52.2,6.8 52.4,6.6C52.6,6.5 52.8,6.3 52.9,6.1C53.1,5.9 53.3,5.7 53.5,5.5C53.6,5.3 53.9,5.1 54.0,4.9C54.1,4.7 54.1,4.5 54.2,4.4C54.3,4.2 54.3,4.0 54.4,3.8C54.6,3.6 54.8,3.5 55.0,3.3C55.1,3.1 55.3,2.9 55.5,2.7C55.7,2.5 55.9,2.3 56.0,2.2C56.2,2.0 56.4,1.8 56.6,1.6C56.7,1.4 57.0,1.2 57.1,1.0C57.2,0.9 57.0,0.7 57.0,0.6" fill="none" stroke="#fbbf24" stroke-width="0.6" stroke-linecap="round" stroke-linejoin="round" opacity="0.7"/>
  <path d="M64.3,8.3C64.4,8.3 64.8,8.4 65.0,8.5C65.2,8.6 65.2,8.8 65.4,8.9C65.5,9.0 65.6,9.1 65.8,9.3C65.9,9.4 66.2,9.5 66.5,9.6C66.7,9.7 66.9,9.8 67.2,9.9C67.4,10.0 67.7,10.1 67.9,10.2" fill="none" stroke="#fbbf24" stroke-width="0.6" stroke-linecap="round" stroke-linejoin="round" opacity="0.7"/>
  <path d="M51.5,41.9C51.5,41.8 51.5,41.5 51.4,41.3C51.4,41.1 51.4,41.0 51.3,40.8C51.3,40.7 51.3,40.5 51.2,40.3C51.2,40.1 51.1,40.0 51.1,39.8C51.2,39.6 51.6,39.3 51.7,39.1C51.7,38.9 51.5,38.8 51.5,38.6C51.6,38.4 52.0,38.2 52.1,38.0C52.1,37.7 51.9,37.5 51.9,37.3C52.0,37.1 52.4,36.8 52.5,36.6C52.5,36.4 52.3,36.2 52.3,36.0C52.4,35.8 52.7,35.5 52.8,35.3C53.0,35.1 53.3,35.0 53.4,34.8C53.5,34.6 53.5,34.4 53.6,34.2C53.7,34.0 53.8,33.8 53.8,33.6C53.8,33.4 53.6,33.2 53.7,33.0C53.7,32.8 54.0,32.5 54.2,32.3C54.4,32.1 54.5,32.0 54.7,31.8C54.9,31.6 55.2,31.3 55.2,31.1C55.3,30.9 55.1,30.7 55.1,30.5C55.2,30.3 55.5,30.1 55.7,30.0C55.8,29.8 56.1,29.6 56.2,29.4C56.3,29.3 56.1,29.1 56.1,28.9C56.1,28.7 56.2,28.6 56.3,28.4C56.4,28.2 56.4,28.1 56.5,27.9C56.7,27.7 57.0,27.4 57.1,27.3" fill="none" stroke="#fbbf24" stroke-width="0.6" stroke-linecap="round" stroke-linejoin="round" opacity="0.7"/>
  <path d="M62.6,29.3C62.6,29.2 62.5,29.0 62.5,28.8C62.5,28.7 62.4,28.5 62.4,28.3C62.3,28.1 62.3,27.8 62.3,27.6C62.2,27.5 62.2,27.3 62.2,27.1C62.1,26.9 62.1,26.6 62.0,26.4C62.0,26.2 61.9,25.9 61.9,25.8" fill="none" stroke="#fbbf24" stroke-width="0.6" stroke-linecap="round" stroke-linejoin="round" opacity="0.7"/>
  <path d="M67.0,38.8C67.0,38.7 67.2,38.5 67.2,38.4C67.3,38.3 67.2,38.2 67.5,38.0C67.7,37.9 68.4,37.8 68.7,37.6C69.0,37.5 69.1,37.4 69.3,37.2C69.4,37.0 69.6,36.8 69.8,36.7C70.0,36.5 70.2,36.4 70.4,36.3C70.5,36.1 70.8,35.9 70.9,35.7C71.0,35.5 70.7,35.4 70.8,35.2C70.9,35.1 71.2,34.9 71.3,34.7C71.5,34.5 71.7,34.3 71.9,34.1C72.0,33.9 72.2,33.7 72.4,33.5C72.6,33.3 72.8,33.1 72.9,32.9C73.0,32.7 72.7,32.6 72.8,32.4C72.9,32.2 73.3,32.0 73.4,31.9C73.4,31.7 73.2,31.6 73.3,31.4C73.3,31.2 73.7,31.0 73.8,30.8C73.9,30.6 73.7,30.4 73.7,30.4" fill="none" stroke="#fbbf24" stroke-width="0.6" stroke-linecap="round" stroke-linejoin="round" opacity="0.7"/>
  <path d="M23.7,53.8C23.7,53.7 23.5,53.5 23.6,53.3C23.7,53.1 23.9,52.9 24.1,52.7C24.3,52.4 24.4,52.2 24.6,52.0C24.9,51.9 25.5,51.7 25.8,51.5C26.1,51.4 26.2,51.2 26.4,51.1C26.6,51.0 26.9,50.8 26.9,50.7C27.0,50.5 26.8,50.4 26.9,50.3C26.9,50.1 27.1,50.0 27.4,49.8C27.7,49.7 28.3,49.6 28.6,49.5C28.9,49.3 29.0,49.2 29.2,49.1C29.4,49.0 29.6,49.0 29.8,48.9C30.0,48.8 30.1,48.6 30.4,48.5C30.7,48.3 31.3,48.2 31.6,48.2C31.9,48.1 32.0,48.1 32.2,48.0C32.4,48.0 32.7,48.0 32.8,48.0" fill="none" stroke="#fbbf24" stroke-width="0.6" stroke-linecap="round" stroke-linejoin="round" opacity="0.7"/>
  <path d="M57.2,47.6C57.4,47.7 58.2,47.8 58.5,47.9C58.8,48.0 59.0,48.1 59.2,48.2C59.4,48.3 59.7,48.5 59.9,48.6C60.1,48.7 60.4,48.9 60.6,49.0C60.9,49.1 61.1,49.3 61.4,49.4C61.6,49.5 61.8,49.7 62.1,49.8C62.3,50.0 62.6,50.1 62.8,50.3C63.0,50.4 63.4,50.5 63.5,50.6C63.6,50.8 63.4,50.9 63.6,51.1C63.8,51.2 64.7,51.3 65.0,51.4C65.2,51.6 64.9,51.8 65.0,51.9C65.2,52.0 65.4,52.1 65.7,52.2C66.1,52.3 66.9,52.4 67.1,52.4" fill="none" stroke="#fbbf24" stroke-width="0.6" stroke-linecap="round" stroke-linejoin="round" opacity="0.7"/>
  <path d="M38.1,75.2C37.9,75.2 37.2,75.3 36.9,75.3C36.5,75.3 36.5,75.3 36.2,75.3C35.9,75.3 35.3,75.4 35.0,75.5C34.6,75.6 34.4,75.6 34.0,75.7C33.7,75.7 33.4,75.8 33.1,75.9C32.9,75.9 32.7,75.9 32.5,75.9C32.3,75.9 33.5,75.7 31.9,76.0C30.2,76.2 24.2,77.2 22.5,77.4C20.8,77.7 22.1,77.5 21.9,77.5C21.7,77.5 21.6,77.4 21.2,77.5C20.9,77.5 20.4,77.6 20.0,77.7C19.6,77.7 19.0,77.9 18.8,77.9C18.5,77.9 19.0,77.8 18.7,77.8C18.5,77.8 17.9,77.9 17.5,77.9C17.0,77.9 16.5,78.0 16.2,78.0C15.9,78.0 15.8,78.0 15.6,78.1C15.4,78.1 15.2,78.2 15.0,78.2C14.7,78.2 14.6,78.1 14.3,78.2C14.0,78.2 13.4,78.2 13.0,78.2C12.7,78.2 12.6,78.2 12.4,78.2C12.2,78.2 12.0,78.2 11.8,78.2C11.6,78.3 11.2,78.3 11.1,78.3" fill="none" stroke="#fbbf24" stroke-width="0.6" stroke-linecap="round" stroke-linejoin="round" opacity="0.7"/>
  <circle cx="48.6" cy="28.4" r="3.5" fill="#0c0c0c" stroke="#ef4444" stroke-width="0.4" opacity="0.95"/>
  <text x="48.6" y="29.6" text-anchor="middle" font-family="sans-serif" font-size="3.5" font-weight="700" fill="#ffffff" opacity="0.95">OR</text>
</svg>