<svg xmlns="http://www.w3.org/2000/svg" viewBox="0 0 106.14050285055407 102.1169759827725" preserveAspectRatio="none">
  <path d="M72.2,26.1L72.2,26.1L72.2,26.1L72.2,26.0L72.2,26.0L72.2,26.0L72.2,25.9L72.2,25.9L72.2,25.8L72.1,25.7L72.1,25.7L72.0,25.6L71.9,25.6L71.8,25.5L71.7,25.4L71.5,25.4L71.4,25.3L71.2,25.3L71.0,25.2L70.9,25.2L70.8,25.1L70.7,25.0L70.5,25.0L70.4,24.9L70.3,24.9L70.3,24.8L70.2,24.7L70.1,24.7L70.0,24.6L69.9,24.6L69.8,24.5L69.7,24.4L69.6,24.4L69.5,24.3L69.4,24.3L69.3,24.2L69.2,24.1L69.2,24.1L69.1,24.0L69.0,23.9L68.9,23.9L68.8,23.8L68.7,23.8L68.6,23.7L68.5,23.6L68.4,23.6L68.3,23.5L68.2,23.4L68.1,23.4L68.0,23.3L67.9,23.3L67.9,23.2L67.8,23.1L67.7,23.1L67.6,23.0L67.5,23.0L67.4,22.9L67.3,22.8L67.2,22.8L67.1,22.7L67.0,22.6L66.9,22.6L66.8,22.5L66.7,22.5L66.7,22.4L66.6,22.3L66.4,22.3L66.3,22.2L66.2,22.1L66.0,22.1L65.9,22.0L65.7,22.0L65.6,21.9L65.4,21.8L65.2,21.8L65.1,21.7L65.0,21.7L64.9,21.6L64.7,21.5L64.6,21.5L64.5,21.4L64.5,21.3L64.4,21.3L64.3,21.2L64.3,21.1L64.2,21.1L64.2,21.0L64.2,20.9L64.1,20.8L64.1,20.7L64.1,20.7L64.0,20.6L64.0,20.5L63.9,20.4L63.8,20.4L63.8,20.3L63.7,20.2L63.6,20.2L63.5,20.1L63.4,20.0L63.3,20.0L63.2,19.9L63.1,19.8L63.0,19.8L62.9,19.7L62.8,19.7L62.7,19.6L62.6,19.6L62.5,19.5L62.3,19.4L62.2,19.4L62.0,19.3L61.8,19.3L61.7,19.2L61.5,19.2L61.4,19.1L61.3,19.1L61.1,19.0L61.0,18.9L60.9,18.9L60.8,18.8L60.8,18.8L60.7,18.7L60.6,18.7L60.6,18.7L60.5,18.6L60.5,18.6L60.5,18.6" fill="none" stroke="#ef4444" stroke-width="0.8" stroke-linecap="round" stroke-linejoin="round" opacity="0.9"/>
  <path d="M49.7,25.5L49.6,25.5L49.6,25.5L49.6,25.5L49.5,25.5L49.5,25.5L49.4,25.4L49.4,25.4L49.3,25.4L49.2,25.3L49.1,25.3L49.0,25.2L48.9,25.2L48.8,25.1L48.7,25.1L48.6,25.0L48.5,24.9L48.5,24.9L48.4,24.8L48.3,24.8L48.2,24.7L48.1,24.7L48.0,24.6L47.9,24.6L47.8,24.5L47.7,24.5L47.6,24.4L47.5,24.4L47.5,24.3L47.4,24.3L47.3,24.2L47.2,24.2L47.1,24.1L47.0,24.1L46.9,24.0L46.8,24.0L46.6,23.9L46.5,23.9L46.4,23.8L46.2,23.8L46.0,23.7L45.9,23.7L45.7,23.6L45.6,23.6L45.4,23.5L45.3,23.5L45.2,23.4L45.1,23.4L45.0,23.3L44.9,23.3L44.9,23.2L44.8,23.1L44.8,23.1L44.7,23.0L44.7,22.9L44.6,22.9L44.6,22.8L44.6,22.7L44.5,22.6L44.5,22.6L44.4,22.5L44.3,22.4L44.1,22.4L44.0,22.3L43.8,22.3L43.6,22.2L43.5,22.1L43.4,22.1L43.2,22.0L43.1,21.9L43.0,21.9L42.9,21.8L42.8,21.7L42.7,21.7L42.6,21.6L42.5,21.5L42.4,21.5L42.3,21.4L42.2,21.3L42.1,21.2L42.0,21.2L41.9,21.1L41.8,21.0L41.8,21.0L41.7,20.9L41.6,20.8L41.5,20.8L41.4,20.7L41.3,20.6L41.2,20.5L41.1,20.5L41.1,20.4L41.0,20.3L41.0,20.2L40.9,20.1L40.9,20.0L40.9,19.9L40.8,19.9L40.8,19.8L40.8,19.7L40.7,19.6L40.6,19.5L40.6,19.4L40.5,19.4L40.4,19.3L40.3,19.2L40.2,19.1L40.0,19.1L39.9,19.0L39.8,18.9L39.6,18.9L39.5,18.8L39.3,18.7L39.1,18.7L39.0,18.6L38.8,18.5L38.7,18.5L38.6,18.4L38.4,18.3L38.3,18.3L38.2,18.2L38.2,18.1L38.1,18.0L38.0,18.0L37.9,17.9L37.8,17.8L37.7,17.7L37.6,17.6L37.5,17.6L37.4,17.5L37.3,17.4L37.3,17.3L37.2,17.2L37.1,17.1L37.1,17.0L37.1,16.9L37.1,16.8L37.0,16.7L37.0,16.7L36.9,16.6L36.9,16.5L36.8,16.4L36.7,16.3L36.7,16.2L36.6,16.1L36.5,16.1L36.4,16.0L36.3,15.9L36.2,15.8L36.1,15.8L36.0,15.7L35.9,15.6L35.8,15.5L35.7,15.5L35.6,15.4L35.5,15.3L35.4,15.2L35.3,15.2L35.2,15.1L35.1,15.0L35.0,14.9L34.9,14.8L34.8,14.7L34.8,14.6L34.7,14.6L34.6,14.5L34.5,14.4L34.4,14.3L34.3,14.2L34.2,14.1L34.0,14.0L33.9,13.9L33.8,13.8L33.6,13.7L33.5,13.7L33.3,13.6L33.1,13.5L33.0,13.5L32.8,13.4L32.7,13.3L32.6,13.3L32.6,13.2L32.5,13.1L32.5,13.1L32.5,13.0L32.4,12.9L32.4,12.8L32.4,12.8L32.3,12.7L32.2,12.6L32.2,12.6L32.1,12.5L32.0,12.5L31.9,12.4L31.8,12.3L31.7,12.3L31.6,12.2L31.5,12.2L31.4,12.1L31.4,12.0L31.3,12.0L31.2,11.9L31.1,11.8L31.0,11.8L30.9,11.7L30.8,11.6L30.7,11.5L30.6,11.5L30.5,11.4L30.4,11.3L30.4,11.3L30.3,11.2L30.2,11.2L30.2,11.1L30.2,11.1L30.2,11.1" fill="none" stroke="#ef4444" stroke-width="0.8" stroke-linecap="round" stroke-linejoin="round" opacity="0.9"/>
  <path d="M7.1,7.8L7.1,7.8L7.1,7.8L7.1,7.8L7.1,7.7L7.0,7.7L7.0,7.6L7.0,7.5L7.0,7.5L7.0,7.4L7.0,7.3L7.0,7.2L7.0,7.1L7.1,7.0L7.1,7.0L7.2,6.9L7.2,6.8L7.3,6.7L7.4,6.6L7.4,6.5L7.5,6.4L7.6,6.3L7.6,6.3L7.7,6.2L7.7,6.1L7.8,6.0L7.8,5.9L7.9,5.9L7.9,5.8L7.9,5.7L7.9,5.6L7.9,5.6L7.9,5.5L7.9,5.4L7.9,5.3L7.9,5.2L7.8,5.2L7.8,5.1L7.8,5.0L7.8,4.9L7.8,4.8L7.8,4.7L7.8,4.7L7.8,4.6L7.8,4.5L7.8,4.4L7.9,4.3L7.9,4.3L8.0,4.2L8.1,4.1L8.1,4.0L8.2,3.9L8.3,3.8L8.3,3.8L8.4,3.7L8.5,3.6L8.5,3.5L8.6,3.4L8.6,3.3L8.7,3.2L8.8,3.1L8.8,3.1L8.9,3.0L9.0,2.9L9.0,2.8L9.1,2.8L9.1,2.7L9.2,2.6L9.2,2.5L9.2,2.5L9.2,2.4L9.2,2.3L9.2,2.3L9.2,2.2L9.2,2.1L9.2,2.0L9.2,2.0L9.3,1.9L9.3,1.8L9.4,1.7L9.4,1.6L9.5,1.6L9.6,1.5L9.6,1.4L9.7,1.3L9.8,1.2L9.8,1.2L9.9,1.1L10.0,1.0L10.0,0.9L10.1,0.9L10.1,0.8L10.1,0.8L10.2,0.8L10.2,0.7L10.2,0.7" fill="none" stroke="#ef4444" stroke-width="0.8" stroke-linecap="round" stroke-linejoin="round" opacity="0.9"/>
  <path d="M25.2,24.9L25.1,24.9L25.1,24.9L25.1,24.9L25.0,24.8L25.0,24.8L24.9,24.8L24.8,24.7L24.7,24.7L24.7,24.6L24.6,24.6L24.5,24.5L24.4,24.4L24.3,24.4L24.2,24.3L24.1,24.3L24.0,24.2L23.9,24.1L23.8,24.1L23.7,24.0L23.5,23.9L23.4,23.9L23.2,23.8L23.1,23.7L22.9,23.7L22.8,23.6L22.6,23.6L22.5,23.5L22.4,23.4L22.3,23.4L22.3,23.3L22.3,23.2L22.2,23.2L22.2,23.1L22.2,23.0L22.1,22.9L22.1,22.9L22.0,22.8L22.0,22.7L21.9,22.7L21.8,22.6L21.7,22.5L21.6,22.5L21.5,22.4L21.4,22.3L21.3,22.3L21.2,22.2L21.1,22.1L21.0,22.1L20.9,22.0L20.8,21.9L20.8,21.9L20.7,21.8L20.6,21.7L20.5,21.6L20.4,21.5L20.3,21.5L20.2,21.4L20.1,21.3L20.0,21.2L20.0,21.1L19.9,21.1L19.9,21.0L19.9,20.9L19.9,20.8L19.8,20.7L19.8,20.7L19.8,20.6L19.7,20.5L19.6,20.4L19.6,20.3L19.5,20.3L19.4,20.2L19.3,20.1L19.2,20.0L19.1,19.9L19.0,19.9L18.9,19.8L18.8,19.7L18.7,19.6L18.6,19.6L18.5,19.5L18.4,19.4L18.3,19.3L18.2,19.3L18.1,19.2L18.1,19.1L18.0,19.0L17.9,19.0L17.8,18.9L17.7,18.8L17.6,18.7L17.5,18.6L17.4,18.6L17.3,18.5L17.2,18.4L17.1,18.3L17.0,18.2L16.9,18.1L16.9,18.0L16.8,18.0L16.8,17.9L16.7,17.8L16.7,17.7L16.7,17.6L16.7,17.5L16.6,17.4L16.6,17.4L16.5,17.3L16.4,17.2L16.4,17.1L16.3,17.0L16.2,16.9L16.1,16.8L16.0,16.7L16.0,16.7L15.9,16.6L15.8,16.5L15.8,16.4L15.8,16.3L15.8,16.2L15.7,16.2L15.7,16.1L15.7,16.0L15.6,15.9L15.5,15.8L15.5,15.7L15.4,15.6L15.3,15.5L15.2,15.5L15.1,15.4L15.0,15.3L14.9,15.2L14.8,15.1L14.7,15.0L14.6,14.9L14.5,14.8L14.4,14.8L14.3,14.7L14.2,14.6L14.1,14.5L14.0,14.4L13.9,14.3L13.8,14.2L13.7,14.1L13.6,14.1L13.5,14.0L13.4,13.9L13.3,13.8L13.2,13.7L13.1,13.6L13.0,13.5L12.9,13.5L12.9,13.4L12.8,13.3L12.7,13.2L12.7,13.1L12.6,13.1L12.6,13.0L12.6,12.9L12.5,12.8L12.5,12.8L12.5,12.7L12.5,12.6L12.5,12.5L12.5,12.5L12.5,12.4L12.4,12.3L12.4,12.2L12.4,12.2L12.4,12.1L12.4,12.1L12.4,12.0L12.4,12.0L12.4,12.0L12.4,12.0" fill="none" stroke="#ef4444" stroke-width="0.8" stroke-linecap="round" stroke-linejoin="round" opacity="0.9"/>
  <path d="M61.8,25.1L61.8,25.1L61.8,25.1L61.8,25.1L61.8,25.0L61.7,25.0L61.7,24.9L61.7,24.8L61.7,24.7L61.7,24.6L61.7,24.6L61.6,24.5L61.6,24.4L61.6,24.3L61.6,24.2L61.6,24.1L61.6,24.1L61.6,24.0L61.5,23.9L61.5,23.8L61.5,23.7L61.5,23.6L61.5,23.5L61.4,23.5L61.4,23.4L61.4,23.3L61.4,23.2L61.4,23.1L61.4,23.0L61.3,22.9L61.3,22.8L61.3,22.7L61.3,22.6L61.3,22.5L61.3,22.4L61.2,22.4L61.2,22.3L61.2,22.2L61.2,22.1L61.2,22.0L61.1,21.9L61.1,21.8L61.1,21.7L61.1,21.6L61.1,21.6L61.1,21.5L61.0,21.4L61.0,21.3L61.0,21.2L61.0,21.1L61.0,21.1L61.0,21.0L61.0,20.9L60.9,20.8L60.9,20.7L60.9,20.6L60.9,20.6L60.9,20.5L60.9,20.4L60.9,20.3L60.9,20.2L60.9,20.1L61.0,20.0L61.0,19.9L61.1,19.8L61.1,19.7L61.2,19.6L61.2,19.5L61.2,19.4L61.3,19.3L61.3,19.2L61.3,19.1L61.2,19.1L61.2,19.0L61.2,18.9L61.2,18.8L61.2,18.7L61.2,18.7L61.1,18.6L61.1,18.5L61.1,18.4L61.1,18.3L61.1,18.2L61.1,18.1L61.0,18.0L61.0,17.9L61.0,17.8L61.0,17.7L61.0,17.6L60.9,17.5L60.9,17.5L60.9,17.4L60.9,17.3L60.9,17.2L60.9,17.1L60.8,17.0L60.8,16.9L60.8,16.9L60.8,16.8L60.8,16.7L60.9,16.6L60.9,16.5L60.9,16.4L61.0,16.3L61.0,16.2L61.1,16.1L61.1,16.0L61.1,15.9L61.1,15.9L61.1,15.8L61.0,15.7L60.9,15.6L60.8,15.5L60.8,15.5L60.7,15.4L60.6,15.3L60.6,15.2L60.5,15.1L60.5,15.1L60.4,15.0L60.4,14.9L60.4,14.8L60.4,14.7L60.4,14.6L60.4,14.5L60.3,14.4L60.3,14.4L60.3,14.3L60.3,14.2L60.3,14.1L60.2,14.0L60.2,13.9L60.1,13.9L60.1,13.8L60.0,13.7L59.9,13.7L59.8,13.6L59.7,13.6L59.7,13.5L59.6,13.5L59.6,13.4L59.5,13.4L59.5,13.4L59.5,13.4" fill="none" stroke="#ef4444" stroke-width="0.8" stroke-linecap="round" stroke-linejoin="round" opacity="0.9"/>
  <path d="M30.6,76.1L30.6,76.1L30.5,76.1L30.5,76.1L30.4,76.1L30.3,76.2L30.2,76.2L30.1,76.2L29.9,76.2L29.7,76.2L29.6,76.2L29.4,76.3L29.3,76.3L29.1,76.3L29.0,76.4L28.8,76.4L28.7,76.4L28.5,76.5L28.4,76.5L28.3,76.5L28.1,76.5L28.0,76.6L27.9,76.6L27.8,76.6L27.8,76.6L27.7,76.6L27.6,76.6L27.5,76.6L27.4,76.6L27.2,76.7L27.1,76.7L26.9,76.7L26.8,76.7L26.6,76.7L26.5,76.7L26.3,76.7L26.1,76.7L26.0,76.8L25.8,76.8L25.7,76.8L25.5,76.8L25.4,76.8L25.2,76.9L25.1,76.9L25.0,76.9L24.9,76.9L24.8,77.0L24.7,77.0L24.6,77.0L24.6,77.0L24.5,77.1L24.4,77.1L24.3,77.1L24.3,77.1L24.2,77.2L24.1,77.2L24.0,77.2L23.9,77.2L23.9,77.3L23.7,77.3L23.6,77.3L23.5,77.3L23.4,77.3L23.2,77.3L23.1,77.4L22.9,77.4L22.8,77.4L22.7,77.4L22.6,77.4L22.6,77.4L22.5,77.4L22.5,77.4" fill="none" stroke="#ef4444" stroke-width="0.8" stroke-linecap="round" stroke-linejoin="round" opacity="0.9"/>
  <path d="M80.9,31.3L80.9,31.3L80.9,31.3L80.9,31.3L80.9,31.2L80.9,31.2L80.9,31.1L80.9,31.1L80.9,31.0L80.9,31.0L80.8,30.9L80.8,30.8L80.7,30.8L80.7,30.7L80.6,30.7L80.5,30.6L80.4,30.6L80.4,30.6L80.3,30.5L80.2,30.5L80.1,30.4L80.0,30.4L79.9,30.3L79.8,30.3L79.7,30.2L79.6,30.2L79.6,30.1L79.5,30.1L79.5,30.0L79.4,30.0L79.4,29.9L79.4,29.9L79.4,29.8L79.3,29.8L79.3,29.7L79.3,29.7L79.2,29.6L79.2,29.6L79.1,29.5L79.0,29.5L78.9,29.4L78.8,29.4L78.7,29.3L78.6,29.3L78.5,29.2L78.3,29.2L78.2,29.1L78.0,29.1L77.9,29.0L77.7,29.0L77.5,28.9L77.4,28.9L77.3,28.9L77.2,28.8L77.0,28.8L76.9,28.7L76.9,28.7L76.8,28.6L76.7,28.6L76.6,28.5L76.5,28.5L76.4,28.4L76.3,28.4L76.2,28.3L76.1,28.3L76.1,28.2L76.0,28.2L75.9,28.1L75.9,28.1L75.8,28.0L75.8,28.0L75.8,27.9L75.8,27.8L75.8,27.8L75.7,27.7L75.7,27.7L75.6,27.6L75.6,27.6L75.5,27.6L75.4,27.5L75.3,27.5L75.2,27.4L75.1,27.4L75.0,27.3L74.9,27.3L74.7,27.2L74.6,27.2L74.4,27.2L74.3,27.1L74.1,27.1L74.0,27.0L73.8,27.0L73.7,26.9L73.6,26.9L73.5,26.8L73.4,26.8L73.3,26.7L73.2,26.7L73.1,26.6L73.1,26.6L73.0,26.6L73.0,26.6L73.0,26.5L73.0,26.5" fill="none" stroke="#fbbf24" stroke-width="0.6" stroke-linecap="round" stroke-linejoin="round" opacity="0.7"/>
  <path d="M13.4,17.3L13.4,17.3L13.4,17.3L13.3,17.3L13.3,17.2L13.2,17.2L13.2,17.2L13.1,17.1L13.0,17.1L12.9,17.0L12.8,17.0L12.7,17.0L12.7,16.9L12.6,16.9L12.5,16.8L12.4,16.8L12.3,16.7L12.2,16.7L12.1,16.6L12.0,16.6L11.9,16.5L11.8,16.5L11.8,16.4L11.7,16.4L11.6,16.4L11.5,16.3L11.4,16.3L11.3,16.3L11.2,16.2L11.1,16.2L11.1,16.1L11.0,16.1L10.9,16.0L10.8,16.0L10.7,15.9L10.6,15.9L10.5,15.8L10.4,15.8L10.3,15.7L10.2,15.7L10.2,15.6L10.1,15.6L10.0,15.5L9.9,15.5L9.9,15.4L9.9,15.4L9.8,15.3L9.8,15.2L9.8,15.2L9.8,15.1L9.7,15.0L9.7,15.0L9.6,14.9L9.6,14.9L9.5,14.8L9.4,14.7L9.3,14.7L9.3,14.6L9.2,14.6L9.1,14.5L9.1,14.5L9.0,14.4L9.0,14.3L9.0,14.3L9.0,14.2L8.9,14.1L8.9,14.1L8.9,14.0L8.8,13.9L8.7,13.9L8.7,13.8L8.6,13.8L8.5,13.7L8.4,13.7L8.3,13.6L8.2,13.6L8.1,13.5L8.1,13.5L8.0,13.4L7.9,13.4L7.8,13.3L7.7,13.3L7.6,13.2L7.6,13.1L7.5,13.1L7.5,13.0L7.4,12.9L7.4,12.9L7.4,12.8L7.4,12.7L7.4,12.6L7.4,12.6L7.3,12.5L7.3,12.4L7.3,12.4L7.3,12.3L7.3,12.2L7.3,12.1L7.3,12.1L7.2,12.0L7.2,11.9L7.2,11.9L7.2,11.8L7.2,11.7L7.2,11.7L7.2,11.6L7.2,11.5L7.1,11.4L7.1,11.4L7.1,11.3L7.1,11.2L7.1,11.2L7.1,11.1L7.1,11.0L7.0,10.9L7.0,10.9L7.0,10.8L7.0,10.7L7.0,10.7L7.0,10.6L7.0,10.5L7.0,10.5L6.9,10.4L6.9,10.3L6.9,10.3L6.9,10.2L6.9,10.1L6.9,10.0L6.8,9.9L6.8,9.9L6.8,9.8L6.8,9.7L6.8,9.6L6.8,9.6L6.8,9.5L6.7,9.4L6.7,9.3L6.7,9.3L6.7,9.2L6.7,9.1L6.8,9.1L6.8,9.0L6.9,8.9L6.9,8.8L7.0,8.7L7.0,8.7L7.1,8.6L7.1,8.6L7.2,8.5L7.2,8.5L7.2,8.5L7.2,8.5" fill="none" stroke="#fbbf24" stroke-width="0.6" stroke-linecap="round" stroke-linejoin="round" opacity="0.7"/>
  <path d="M58.7,9.2L58.7,9.2L58.7,9.2L58.7,9.2L58.8,9.2L58.8,9.2L58.9,9.3L59.0,9.3L59.1,9.3L59.2,9.3L59.3,9.4L59.4,9.4L59.5,9.4L59.6,9.4L59.8,9.4L59.9,9.4L60.1,9.5L60.3,9.5L60.4,9.5L60.5,9.5L60.7,9.6L60.8,9.6L60.9,9.6L61.0,9.7L61.1,9.7L61.2,9.7L61.2,9.8L61.3,9.8L61.4,9.9L61.5,9.9L61.6,9.9L61.7,10.0L61.8,10.0L61.8,10.1L61.9,10.1L62.0,10.1L62.0,10.2L62.1,10.2L62.1,10.3L62.1,10.3L62.1,10.4L62.2,10.4L62.2,10.5L62.3,10.5L62.4,10.6L62.5,10.6L62.6,10.7L62.7,10.7L62.9,10.7L63.1,10.7L63.2,10.8L63.3,10.8L63.5,10.9L63.6,10.9L63.7,10.9L63.8,11.0L63.9,11.0L64.0,11.0L64.0,11.1L64.1,11.1L64.1,11.2L64.2,11.2L64.2,11.3L64.2,11.4L64.2,11.4L64.3,11.5L64.3,11.5L64.3,11.6L64.3,11.6L64.3,11.6L64.3,11.7L64.3,11.7" fill="none" stroke="#fbbf24" stroke-width="0.6" stroke-linecap="round" stroke-linejoin="round" opacity="0.7"/>
  <path d="M21.5,15.9L21.5,15.9L21.4,15.8L21.4,15.8L21.4,15.8L21.3,15.8L21.2,15.8L21.2,15.7L21.1,15.7L21.0,15.7L20.9,15.6L20.8,15.6L20.7,15.6L20.6,15.6L20.6,15.5L20.5,15.5L20.4,15.5L20.3,15.4L20.2,15.4L20.2,15.4L20.1,15.3L20.1,15.3L20.1,15.2L20.1,15.2L20.1,15.2L20.0,15.1L20.0,15.1L20.0,15.1L19.9,15.0L19.9,15.0L19.8,15.0L19.7,14.9L19.6,14.9L19.5,14.9L19.4,14.8L19.3,14.8L19.2,14.8L19.1,14.8L18.9,14.7L18.8,14.7L18.6,14.7L18.4,14.6L18.3,14.6L18.2,14.6L18.0,14.5L17.9,14.5L17.8,14.4L17.7,14.4L17.6,14.4L17.5,14.3L17.4,14.3L17.3,14.2L17.2,14.2L17.0,14.1L16.9,14.1L16.7,14.0L16.5,14.0L16.4,13.9L16.2,13.9L16.1,13.8L16.0,13.8L15.8,13.8L15.7,13.7L15.6,13.7L15.6,13.7L15.5,13.6L15.4,13.6L15.3,13.6L15.2,13.6L15.1,13.5L15.0,13.5L15.0,13.5L14.9,13.5L14.8,13.4L14.7,13.4L14.6,13.4L14.4,13.4L14.3,13.4L14.2,13.4L14.0,13.4L13.8,13.4L13.7,13.4L13.6,13.4L13.4,13.3L13.3,13.3L13.2,13.3L13.1,13.3L13.0,13.3L12.9,13.3L12.8,13.2L12.8,13.2L12.7,13.2L12.7,13.2L12.6,13.1L12.6,13.1L12.6,13.1L12.6,13.0L12.6,13.0L12.5,13.0L12.4,13.0L12.4,12.9L12.3,12.9L12.1,12.9L12.0,12.9L11.8,12.9L11.7,12.9L11.5,12.8L11.4,12.8L11.3,12.8L11.2,12.8L11.0,12.7L11.0,12.7L10.9,12.7L10.8,12.7L10.7,12.6L10.6,12.6L10.4,12.6L10.3,12.6L10.2,12.6L10.0,12.6L9.8,12.6L9.7,12.5L9.6,12.5L9.5,12.5L9.4,12.5L9.3,12.5L9.3,12.5L9.3,12.4L9.2,12.4L9.2,12.4L9.2,12.4L9.2,12.3L9.2,12.3L9.2,12.3L9.2,12.3L9.2,12.3" fill="none" stroke="#fbbf24" stroke-width="0.6" stroke-linecap="round" stroke-linejoin="round" opacity="0.7"/>
  <path d="M83.1,29.2L83.1,29.2L83.1,29.1L83.1,29.1L83.2,29.1L83.2,29.0L83.3,29.0L83.3,28.9L83.4,28.8L83.4,28.8L83.5,28.7L83.5,28.6L83.6,28.6L83.6,28.5L83.6,28.4L83.6,28.4L83.6,28.3L83.6,28.2L83.6,28.2L83.6,28.1L83.6,28.0L83.6,27.9L83.7,27.9L83.7,27.8L83.8,27.7L83.9,27.6L83.9,27.5L83.9,27.4L84.0,27.4L84.0,27.3L84.0,27.2L84.0,27.1L84.0,27.1L84.0,27.0L84.0,26.9L84.0,26.8L84.0,26.8L84.0,26.7L84.1,26.6L84.1,26.5L84.2,26.4L84.3,26.4L84.3,26.3L84.3,26.2L84.4,26.1L84.4,26.0L84.4,25.9L84.4,25.9L84.4,25.8L84.3,25.7L84.3,25.6L84.3,25.5L84.3,25.5L84.3,25.4L84.3,25.3L84.3,25.2L84.2,25.2L84.2,25.1L84.2,25.0L84.3,24.9L84.3,24.9L84.3,24.8L84.4,24.7L84.4,24.6L84.5,24.5L84.5,24.4L84.6,24.3L84.6,24.2L84.6,24.2L84.6,24.1L84.6,24.0L84.6,23.9L84.6,23.9L84.6,23.8L84.6,23.7L84.6,23.6L84.7,23.5L84.7,23.5L84.7,23.4L84.8,23.3L84.9,23.2L84.9,23.1L85.0,23.0L85.0,22.9L85.0,22.9L85.0,22.8L85.0,22.7L85.0,22.6L85.0,22.5L85.0,22.4L85.0,22.4L85.0,22.3L84.9,22.2L84.9,22.1L84.9,22.1L84.9,22.0L84.9,21.9L84.9,21.9L84.9,21.8L84.9,21.7L84.8,21.6L84.8,21.6L84.8,21.5L84.8,21.4L84.8,21.3L84.8,21.3L84.8,21.2L84.7,21.1L84.7,21.0L84.7,21.0L84.7,20.9L84.7,20.8L84.7,20.7L84.6,20.6L84.6,20.5L84.6,20.5L84.6,20.4L84.6,20.3L84.6,20.2L84.6,20.2L84.5,20.1L84.5,20.0L84.5,19.9L84.6,19.9L84.6,19.8L84.6,19.7L84.7,19.6L84.7,19.5L84.8,19.4L84.8,19.4L84.9,19.3L84.9,19.2L84.9,19.1L84.9,19.0L85.0,19.0L84.9,18.9L84.9,18.8L84.9,18.7L84.9,18.7L85.0,18.6L85.0,18.5L85.0,18.4L85.1,18.3L85.1,18.3L85.2,18.2L85.2,18.1L85.3,18.0L85.3,17.9L85.3,17.8L85.3,17.7L85.3,17.6L85.3,17.6L85.3,17.5L85.3,17.4L85.3,17.3L85.3,17.2L85.3,17.1L85.2,17.1L85.2,17.0L85.2,16.9L85.2,16.8L85.2,16.8L85.2,16.7L85.1,16.6L85.1,16.5L85.1,16.5L85.1,16.4L85.1,16.3L85.1,16.2L85.1,16.2L85.1,16.1L85.1,16.0L85.1,15.9L85.2,15.8L85.2,15.8L85.2,15.7L85.3,15.6L85.4,15.5L85.4,15.4L85.4,15.3L85.5,15.2L85.5,15.2L85.5,15.1L85.5,15.0L85.5,14.9L85.4,14.9L85.4,14.8L85.4,14.7L85.4,14.6L85.4,14.5L85.4,14.5L85.4,14.4L85.3,14.3L85.3,14.2L85.3,14.1L85.3,14.0L85.3,14.0L85.3,13.9L85.2,13.8L85.2,13.7L85.2,13.6L85.2,13.6L85.2,13.5L85.2,13.4L85.3,13.3L85.3,13.2L85.3,13.2L85.4,13.1L85.5,13.0L85.5,12.9L85.5,12.8L85.6,12.8L85.6,12.7L85.6,12.6L85.6,12.5L85.6,12.4L85.6,12.3L85.6,12.3L85.6,12.2L85.6,12.1L85.5,12.0L85.5,11.9L85.5,11.9L85.5,11.8L85.5,11.7L85.5,11.6L85.4,11.5L85.4,11.5L85.4,11.4L85.4,11.3L85.4,11.2L85.4,11.2L85.4,11.1L85.4,11.0L85.4,10.9L85.4,10.9L85.4,10.8L85.4,10.7L85.5,10.6L85.5,10.5L85.6,10.4L85.6,10.3L85.7,10.3L85.7,10.2L85.6,10.1L85.6,10.0L85.6,9.9L85.5,9.9L85.4,9.8L85.3,9.7L85.3,9.7L85.2,9.6L85.2,9.5L85.2,9.4L85.2,9.3L85.3,9.3L85.3,9.2L85.4,9.1L85.4,9.0L85.5,8.9L85.5,8.8L85.5,8.7L85.5,8.7L85.5,8.6L85.5,8.5L85.5,8.4L85.5,8.3L85.5,8.3L85.4,8.2L85.4,8.1L85.4,8.0L85.4,8.0L85.4,7.9L85.4,7.8L85.4,7.7L85.3,7.7L85.3,7.6L85.3,7.5L85.3,7.4L85.3,7.3L85.3,7.2L85.2,7.2L85.2,7.1L85.2,7.0L85.2,6.9L85.2,6.8L85.2,6.8L85.1,6.7L85.1,6.6L85.1,6.5L85.1,6.5L85.1,6.4L85.1,6.3L85.1,6.2L85.0,6.2L85.0,6.1L85.0,6.0L85.0,5.9L85.0,5.8L85.0,5.8L85.0,5.7L84.9,5.6L84.9,5.5L84.9,5.5L84.9,5.4L84.9,5.3L84.9,5.2L84.8,5.2L84.8,5.1L84.8,5.0L84.8,4.9L84.8,4.9L84.8,4.8L84.8,4.7L84.7,4.6L84.7,4.6L84.7,4.5L84.7,4.4L84.7,4.3L84.7,4.2L84.7,4.2L84.6,4.1L84.6,4.0L84.6,3.9L84.6,3.9L84.6,3.8L84.6,3.7L84.6,3.6L84.5,3.6L84.5,3.5L84.5,3.4L84.5,3.3L84.5,3.3L84.5,3.2L84.5,3.1L84.4,3.0L84.4,3.0L84.4,2.9L84.4,2.8L84.4,2.8L84.4,2.7L84.4,2.6L84.3,2.6L84.3,2.5L84.3,2.4L84.3,2.4L84.3,2.3L84.3,2.2L84.3,2.2L84.3,2.1L84.2,2.0L84.2,1.9L84.2,1.9L84.2,1.8L84.2,1.7L84.2,1.7L84.3,1.6L84.3,1.5L84.3,1.4L84.4,1.4L84.5,1.3L84.5,1.2L84.6,1.2L84.6,1.1L84.6,1.1L84.7,1.1L84.7,1.1L84.7,1.1" fill="none" stroke="#fbbf24" stroke-width="0.6" stroke-linecap="round" stroke-linejoin="round" opacity="0.7"/>
  <path d="M65.0,21.9L65.0,21.9L65.0,21.9L65.0,21.9L65.0,21.8L65.0,21.8L65.0,21.8L65.0,21.7L64.9,21.6L64.9,21.6L64.9,21.5L64.8,21.4L64.8,21.4L64.7,21.3L64.7,21.2L64.6,21.2L64.5,21.1L64.4,21.0L64.3,21.0L64.3,20.9L64.2,20.8L64.2,20.8L64.1,20.7L64.1,20.6L64.1,20.5L64.1,20.5L64.1,20.4L64.1,20.3L64.0,20.3L64.0,20.2L64.0,20.1L64.0,20.1L64.0,20.0L64.0,20.0L64.0,19.9L64.0,19.8L63.9,19.8L63.9,19.7L63.9,19.6L63.9,19.6L63.9,19.5L63.9,19.4L63.9,19.3L63.8,19.3L63.8,19.2L63.8,19.1L63.8,19.1L63.8,19.0L63.8,18.9L63.8,18.8L63.7,18.8L63.7,18.7L63.6,18.6L63.6,18.6L63.5,18.5L63.4,18.4L63.3,18.4L63.2,18.3L63.1,18.3L63.0,18.2L62.9,18.1L62.9,18.1L62.8,18.0L62.7,18.0L62.6,17.9L62.5,17.8L62.4,17.8L62.3,17.7L62.2,17.7L62.1,17.6L62.0,17.6L61.9,17.5L61.8,17.4L61.8,17.4L61.7,17.3L61.6,17.3L61.5,17.2L61.4,17.2L61.3,17.1L61.2,17.1L61.1,17.0L61.0,17.0L61.0,16.9L60.9,16.8L60.9,16.8L60.8,16.7L60.8,16.6L60.8,16.6L60.7,16.5L60.7,16.4L60.7,16.4L60.6,16.3L60.6,16.3L60.5,16.2L60.5,16.2L60.4,16.1L60.3,16.1L60.2,16.0L60.1,16.0L60.1,15.9L60.0,15.9L60.0,15.8L60.0,15.8L59.9,15.7L59.9,15.6L59.9,15.6L59.9,15.6L59.9,15.5L59.9,15.5L59.9,15.5L59.9,15.4L59.9,15.4" fill="none" stroke="#fbbf24" stroke-width="0.6" stroke-linecap="round" stroke-linejoin="round" opacity="0.7"/>
  <path d="M30.1,27.2L30.1,27.2L30.1,27.2L30.0,27.2L30.0,27.1L29.9,27.1L29.9,27.1L29.8,27.1L29.7,27.0L29.6,27.0L29.5,27.0L29.4,27.0L29.4,26.9L29.3,26.9L29.2,26.9L29.1,26.8L29.0,26.8L28.9,26.7L28.8,26.7L28.7,26.7L28.7,26.6L28.6,26.6L28.5,26.6L28.4,26.5L28.3,26.5L28.2,26.5L28.1,26.4L28.0,26.4L28.0,26.4L27.9,26.3L27.8,26.3L27.7,26.2L27.6,26.2L27.5,26.2L27.4,26.1L27.3,26.1L27.2,26.1L27.0,26.0L26.9,26.0L26.7,25.9L26.5,25.9L26.4,25.9L26.2,25.8L26.1,25.8L26.0,25.7L25.9,25.7L25.7,25.6L25.6,25.6L25.6,25.5L25.5,25.5L25.4,25.4L25.4,25.4L25.3,25.4L25.3,25.4L25.3,25.4L25.2,25.4" fill="none" stroke="#fbbf24" stroke-width="0.6" stroke-linecap="round" stroke-linejoin="round" opacity="0.7"/>
  <path d="M34.8,5.3L34.8,5.3L34.8,5.3L34.9,5.2L34.9,5.2L34.9,5.2L35.0,5.1L35.1,5.0L35.1,5.0L35.2,4.9L35.2,4.8L35.3,4.7L35.4,4.7L35.4,4.6L35.5,4.5L35.6,4.5L35.7,4.4L35.7,4.3L35.8,4.3L35.8,4.2L35.8,4.1L35.8,4.1L35.8,4.0L35.8,3.9L35.8,3.8L35.8,3.7L35.8,3.7L35.8,3.6L35.8,3.5L35.7,3.4L35.7,3.3L35.7,3.3L35.7,3.2L35.7,3.1L35.7,3.1L35.7,3.0L35.7,2.9L35.8,2.8L35.8,2.7L35.9,2.6L35.9,2.5L36.0,2.4L36.0,2.4L36.1,2.3L36.1,2.2L36.1,2.1L36.1,2.0L36.1,1.9L36.1,1.8L36.1,1.7L36.0,1.6L36.0,1.5L36.0,1.5L36.0,1.4L36.0,1.3L36.0,1.2L35.9,1.1L35.9,1.1L35.9,1.0L35.9,1.0L35.9,0.9L35.9,0.9L35.9,0.9L35.9,0.9" fill="none" stroke="#fbbf24" stroke-width="0.6" stroke-linecap="round" stroke-linejoin="round" opacity="0.7"/>
  <path d="M34.2,35.3L34.2,35.3L34.2,35.3L34.2,35.3L34.2,35.2L34.2,35.2L34.2,35.1L34.2,35.1L34.2,35.0L34.2,35.0L34.1,34.9L34.1,34.8L34.1,34.8L34.1,34.7L34.1,34.6L34.1,34.6L34.1,34.5L34.1,34.4L34.1,34.4L34.0,34.3L34.0,34.3L34.0,34.2L34.0,34.1L34.0,34.1L34.0,34.0L34.0,33.9L33.9,33.8L33.9,33.8L33.9,33.7L33.9,33.6L33.9,33.5L33.9,33.5L33.9,33.4L33.8,33.3L33.8,33.3L33.8,33.2L33.7,33.1L33.6,33.1L33.6,33.0L33.5,32.9L33.4,32.9L33.3,32.8L33.2,32.7L33.2,32.7L33.1,32.6L33.1,32.5L33.0,32.5L33.0,32.4L33.0,32.3L33.0,32.3L33.0,32.2L33.0,32.1L33.0,32.0L32.9,32.0L32.9,31.9L32.9,31.8L32.9,31.8L32.9,31.7L32.9,31.7L32.9,31.6L32.9,31.5L32.8,31.5L32.8,31.4L32.8,31.3L32.8,31.3L32.8,31.2L32.7,31.1L32.7,31.1L32.7,31.0L32.6,31.0L32.5,30.9L32.4,30.8L32.3,30.8L32.3,30.7L32.2,30.6L32.1,30.6L32.1,30.5L32.0,30.5L32.0,30.4L32.0,30.4L32.0,30.3L32.0,30.2L31.9,30.2L31.9,30.1L31.8,30.1L31.8,30.0L31.7,30.0L31.6,29.9L31.5,29.9L31.4,29.8L31.4,29.7L31.3,29.7L31.3,29.6L31.2,29.6L31.2,29.5L31.2,29.4L31.2,29.4L31.1,29.3L31.1,29.2L31.1,29.2L31.0,29.1L30.9,29.1L30.9,29.0L30.8,28.9L30.7,28.9L30.6,28.8L30.6,28.8L30.5,28.8L30.5,28.7L30.4,28.7L30.4,28.7L30.4,28.7" fill="none" stroke="#fbbf24" stroke-width="0.6" stroke-linecap="round" stroke-linejoin="round" opacity="0.7"/>
  <path d="M43.0,30.9L43.0,30.9L43.0,30.9L42.9,30.9L42.9,30.9L42.8,30.9L42.8,30.8L42.7,30.8L42.6,30.8L42.5,30.8L42.5,30.8L42.4,30.8L42.3,30.7L42.2,30.7L42.1,30.7L42.0,30.7L42.0,30.7L41.9,30.7L41.8,30.6L41.7,30.6L41.6,30.6L41.5,30.6L41.5,30.6L41.4,30.6L41.3,30.6L41.2,30.5L41.1,30.5L41.0,30.5L40.9,30.5L40.7,30.5L40.6,30.5L40.4,30.5L40.3,30.5L40.1,30.5L40.0,30.5L39.9,30.5L39.8,30.4L39.8,30.4L39.7,30.4L39.7,30.4L39.7,30.4L39.7,30.3L39.6,30.3L39.6,30.3L39.6,30.3L39.5,30.2L39.4,30.2L39.4,30.2L39.3,30.2L39.2,30.1L39.1,30.1L39.0,30.1L38.9,30.1L38.7,30.1L38.6,30.0L38.4,30.0L38.3,30.0L38.1,30.0L38.0,30.0L37.8,29.9L37.7,29.9L37.6,29.9L37.5,29.8L37.4,29.8L37.3,29.8L37.2,29.7L37.1,29.7L37.0,29.7L36.9,29.6L36.9,29.6L36.8,29.6L36.7,29.5L36.6,29.5L36.5,29.5L36.4,29.4L36.3,29.4L36.2,29.4L36.2,29.3L36.1,29.3L36.0,29.3L35.9,29.2L35.8,29.2L35.7,29.2L35.6,29.1L35.6,29.1L35.5,29.1L35.4,29.0L35.3,29.0L35.2,29.0L35.1,28.9L35.0,28.9L34.9,28.8L34.9,28.8L34.8,28.7L34.7,28.7L34.6,28.7L34.5,28.6L34.4,28.6L34.3,28.5L34.2,28.5L34.1,28.4L34.1,28.4L34.0,28.4L33.9,28.3L33.8,28.3L33.7,28.2L33.6,28.2L33.5,28.1L33.4,28.1L33.3,28.0L33.2,28.0L33.2,27.9L33.1,27.9L33.0,27.8L32.9,27.8L32.8,27.7L32.7,27.7L32.6,27.6L32.5,27.6L32.4,27.5L32.4,27.5L32.3,27.5L32.2,27.4L32.1,27.4L32.1,27.3L32.1,27.3L32.0,27.2L32.0,27.1L32.0,27.1L32.0,27.0L32.0,27.0L32.0,26.9L31.9,26.8L31.9,26.8L31.9,26.7L31.9,26.6L31.9,26.6L31.9,26.5L31.8,26.5L31.8,26.4L31.7,26.3L31.7,26.3L31.6,26.2L31.5,26.2L31.4,26.1L31.4,26.1L31.3,26.0L31.2,26.0L31.1,25.9L31.0,25.8L30.9,25.8L30.8,25.7L30.7,25.7L30.6,25.6L30.6,25.5L30.5,25.5L30.4,25.4L30.4,25.4L30.4,25.3L30.3,25.2L30.3,25.2L30.3,25.1L30.3,25.0L30.3,25.0L30.2,24.9L30.2,24.8L30.2,24.8L30.1,24.7L30.1,24.6L30.0,24.6L30.0,24.5L29.9,24.5L29.8,24.4L29.8,24.3L29.7,24.3L29.7,24.2L29.6,24.1L29.6,24.1L29.5,24.0L29.5,23.9L29.5,23.9L29.4,23.8L29.4,23.7L29.4,23.7L29.4,23.6L29.4,23.5L29.4,23.4L29.3,23.4L29.3,23.3L29.3,23.2L29.3,23.2L29.3,23.1L29.3,23.0L29.3,23.0L29.3,22.9L29.3,22.9L29.2,22.8L29.2,22.8L29.2,22.7L29.2,22.6L29.2,22.6L29.2,22.5L29.2,22.4L29.2,22.4L29.1,22.3L29.1,22.2L29.1,22.2L29.1,22.1L29.1,22.0L29.1,22.0L29.1,21.9L29.1,21.9L29.1,21.9L29.0,21.8L29.0,21.8L29.0,21.8" fill="none" stroke="#fbbf24" stroke-width="0.6" stroke-linecap="round" stroke-linejoin="round" opacity="0.7"/>
  <path d="M43.6,30.5L43.6,30.5L43.6,30.5L43.6,30.5L43.7,30.4L43.7,30.4L43.7,30.3L43.8,30.3L43.9,30.2L43.9,30.2L44.0,30.1L44.0,30.0L44.0,30.0L44.1,29.9L44.1,29.8L44.1,29.8L44.1,29.7L44.0,29.7L44.0,29.6L44.0,29.5L44.0,29.5L44.0,29.4L44.0,29.3L44.0,29.3L44.0,29.2L44.0,29.1L44.0,29.1L44.0,29.0L44.0,28.9L44.0,28.9L44.1,28.8L44.1,28.7L44.2,28.6L44.3,28.6L44.3,28.5L44.4,28.4L44.4,28.4L44.5,28.3L44.5,28.2L44.5,28.2L44.6,28.1L44.6,28.0L44.6,27.9L44.6,27.9L44.7,27.8L44.7,27.7L44.7,27.7L44.7,27.6L44.8,27.5L44.8,27.4L44.8,27.4L44.9,27.3L44.9,27.2L45.0,27.2L45.0,27.1L45.1,27.0L45.2,26.9L45.2,26.9L45.3,26.8L45.3,26.7L45.3,26.6L45.3,26.6L45.3,26.5L45.3,26.5L45.3,26.4L45.3,26.3L45.3,26.3L45.3,26.2L45.3,26.1L45.3,26.1L45.3,26.0L45.2,25.9L45.2,25.9L45.2,25.8L45.2,25.7L45.3,25.7L45.3,25.6L45.3,25.5L45.4,25.5L45.4,25.4L45.5,25.3L45.6,25.3L45.6,25.2L45.7,25.1L45.8,25.1L45.8,25.0L45.9,24.9L46.0,24.8L46.0,24.8L46.1,24.7L46.2,24.6L46.2,24.6L46.3,24.5L46.4,24.4L46.4,24.3L46.5,24.2L46.5,24.2L46.6,24.1L46.7,24.0L46.7,24.0L46.8,23.9L46.9,23.8L46.9,23.7L47.0,23.7L47.1,23.6L47.1,23.5L47.2,23.5L47.3,23.4L47.3,23.3L47.4,23.3L47.5,23.2L47.5,23.1L47.6,23.1L47.7,23.0L47.7,22.9L47.8,22.8L47.8,22.8L47.9,22.7L47.9,22.6L47.9,22.6L48.0,22.5L48.0,22.4L48.0,22.4L48.1,22.3L48.1,22.2L48.1,22.2L48.1,22.1L48.2,22.0L48.2,22.0L48.2,21.9L48.3,21.8L48.3,21.8L48.3,21.7L48.4,21.6L48.5,21.6L48.5,21.5L48.6,21.4L48.7,21.4L48.7,21.3L48.8,21.2L48.9,21.2L48.9,21.1L49.0,21.1L49.1,21.0L49.1,20.9L49.2,20.9L49.3,20.8L49.3,20.8L49.4,20.7L49.5,20.6L49.5,20.6L49.6,20.5L49.7,20.4L49.7,20.4L49.8,20.3L49.9,20.3L49.9,20.2L50.0,20.1L50.1,20.1L50.1,20.0L50.2,19.9L50.3,19.9L50.4,19.8L50.4,19.7L50.5,19.7L50.6,19.6L50.6,19.6L50.7,19.5L50.8,19.4L50.8,19.4L50.9,19.3L50.9,19.2L50.9,19.2L50.9,19.1L50.9,19.0L50.9,18.9L50.9,18.8L50.9,18.7L50.9,18.7L50.9,18.6L51.0,18.5L51.0,18.4L51.0,18.4L51.1,18.3L51.2,18.2L51.2,18.1L51.3,18.1L51.3,18.0L51.3,18.0L51.4,18.0L51.4,18.0L51.4,17.9" fill="none" stroke="#fbbf24" stroke-width="0.6" stroke-linecap="round" stroke-linejoin="round" opacity="0.7"/>
  <path d="M50.7,7.8L50.7,7.8L50.7,7.8L50.8,7.8L50.8,7.8L50.9,7.8L50.9,7.8L51.0,7.7L51.1,7.7L51.1,7.7L51.2,7.7L51.3,7.6L51.4,7.6L51.4,7.6L51.5,7.5L51.6,7.5L51.6,7.5L51.7,7.4L51.8,7.4L51.9,7.4L52.0,7.3L52.1,7.3L52.2,7.3L52.3,7.3L52.4,7.2L52.5,7.2L52.7,7.2L52.8,7.2L52.9,7.2L53.0,7.1L53.1,7.1L53.2,7.1L53.4,7.1L53.5,7.0L53.6,7.0L53.7,7.0L53.8,7.0L53.9,7.0L54.0,7.0L54.0,7.0L54.1,7.0L54.2,7.0L54.3,7.0L54.4,7.0L54.4,7.0L54.5,6.9L54.6,6.9L54.7,6.9L54.7,6.9L54.8,6.9L54.9,6.9L55.0,6.9L55.2,6.9L55.3,6.8L55.4,6.8L55.6,6.8L55.7,6.8L55.9,6.7L56.0,6.7L56.1,6.7L56.2,6.7L56.4,6.7L56.5,6.7L56.5,6.6L56.6,6.6L56.7,6.6L56.8,6.6L56.9,6.6L57.0,6.6L57.2,6.6L57.3,6.6L57.5,6.6L57.6,6.6L57.8,6.6L57.9,6.6L58.0,6.6L58.2,6.6L58.3,6.6L58.4,6.6L58.5,6.6L58.5,6.6L58.6,6.6L58.7,6.6L58.8,6.7L58.9,6.7L59.0,6.7L59.0,6.7L59.1,6.7L59.2,6.7L59.3,6.7L59.4,6.7L59.5,6.7L59.6,6.7L59.8,6.7L59.9,6.7L60.0,6.7L60.2,6.7L60.4,6.7L60.5,6.7L60.6,6.7L60.8,6.7L60.9,6.7L61.1,6.7L61.2,6.7L61.3,6.7L61.4,6.7L61.5,6.7L61.7,6.7L61.8,6.7L61.9,6.7L62.0,6.7L62.2,6.7L62.3,6.8L62.4,6.8L62.5,6.8L62.6,6.8L62.7,6.8L62.8,6.8L62.9,6.8L63.0,6.8L63.1,6.9L63.2,6.9L63.3,6.9L63.4,6.9L63.5,6.9L63.6,6.9L63.8,6.9L63.9,7.0L64.1,7.0L64.3,7.0L64.4,7.0L64.5,7.0L64.7,7.0L64.8,7.0L64.9,7.0L65.0,7.1L65.0,7.1L65.1,7.1L65.2,7.1L65.3,7.1L65.4,7.1L65.5,7.1L65.5,7.2L65.6,7.2L65.7,7.2L65.8,7.2L65.9,7.2L66.0,7.2L66.0,7.2L66.1,7.2L66.2,7.2L66.3,7.3L66.4,7.3L66.5,7.3L66.6,7.3L66.7,7.3L66.8,7.3L66.9,7.3L67.1,7.4L67.2,7.4L67.4,7.4L67.5,7.4L67.7,7.4L67.8,7.4L68.0,7.5L68.1,7.5L68.2,7.5L68.3,7.5L68.3,7.6L68.4,7.6L68.5,7.6L68.6,7.6L68.7,7.7L68.8,7.7L68.9,7.7L68.9,7.7L69.0,7.8L69.1,7.8L69.2,7.8L69.3,7.9L69.4,7.9L69.5,7.9L69.7,7.9L69.8,7.9L69.9,8.0L70.0,8.0L70.1,8.0L70.3,8.0L70.4,8.0L70.5,8.1L70.6,8.1L70.8,8.1L70.9,8.1L71.0,8.1L71.1,8.2L71.2,8.2L71.3,8.2L71.4,8.3L71.5,8.3L71.6,8.3L71.7,8.4L71.8,8.4L71.9,8.4L71.9,8.5L72.0,8.5L72.0,8.6L72.0,8.6L72.1,8.6L72.1,8.7L72.1,8.7L72.1,8.8L72.1,8.8L72.2,8.9L72.3,8.9L72.3,8.9L72.4,9.0L72.5,9.0L72.6,9.1L72.7,9.1L72.8,9.2L72.9,9.2L73.1,9.2L73.2,9.3L73.4,9.3L73.6,9.4L73.7,9.4L73.9,9.4L74.0,9.5L74.1,9.5L74.2,9.5L74.3,9.6L74.4,9.6L74.5,9.7L74.6,9.7L74.7,9.7L74.8,9.8L74.9,9.8L75.0,9.9L75.1,9.9L75.2,9.9L75.2,10.0L75.3,10.0L75.4,10.1L75.4,10.1L75.5,10.2L75.5,10.2L75.6,10.3L75.6,10.4L75.6,10.4L75.6,10.5L75.7,10.5L75.7,10.6L75.8,10.7L75.8,10.7L75.9,10.8L76.0,10.8L76.0,10.9L76.1,10.9L76.2,10.9L76.3,11.0L76.4,11.0L76.4,11.1L76.5,11.1L76.5,11.2L76.6,11.2L76.6,11.3L76.7,11.3L76.7,11.4L76.8,11.5L76.8,11.5L76.9,11.6L76.9,11.6L77.0,11.7L77.0,11.7L77.1,11.8L77.2,11.8L77.2,11.9L77.3,11.9L77.4,11.9L77.5,12.0L77.6,12.0L77.7,12.1L77.7,12.1L77.8,12.2L77.9,12.2L78.0,12.3L78.1,12.3L78.2,12.4L78.3,12.5L78.4,12.5L78.4,12.6L78.5,12.6L78.6,12.7L78.6,12.8L78.6,12.8L78.6,12.9L78.7,12.9L78.7,13.0L78.7,13.0L78.7,13.1L78.7,13.1L78.7,13.1L78.7,13.1L78.7,13.1" fill="none" stroke="#fbbf24" stroke-width="0.6" stroke-linecap="round" stroke-linejoin="round" opacity="0.7"/>
  <path d="M72.3,19.9L72.3,19.9L72.3,19.9L72.2,19.9L72.1,19.9L72.0,19.9L71.9,19.9L71.7,19.8L71.6,19.8L71.4,19.8L71.3,19.7L71.2,19.7L71.1,19.7L71.0,19.6L71.0,19.6L71.0,19.5L70.9,19.5L70.9,19.4L70.9,19.4L70.9,19.4L70.8,19.3L70.8,19.3L70.7,19.2L70.6,19.2L70.5,19.2L70.4,19.1L70.3,19.1L70.3,19.0L70.2,19.0L70.1,18.9L70.0,18.9L69.9,18.9L69.8,18.8L69.7,18.8L69.6,18.7L69.5,18.7L69.5,18.6L69.4,18.6L69.3,18.6L69.2,18.5L69.1,18.5L69.0,18.5L68.9,18.4L68.9,18.4L68.8,18.4L68.7,18.3L68.6,18.3L68.5,18.2L68.4,18.2L68.3,18.2L68.2,18.1L68.2,18.1L68.1,18.0L68.0,18.0L68.0,17.9L67.9,17.9L67.9,17.8L67.8,17.8L67.7,17.7L67.7,17.6L67.6,17.6L67.5,17.5L67.3,17.4L67.2,17.3L67.1,17.2L66.9,17.1L66.8,17.0L66.7,17.0L66.6,16.9L66.5,16.8L66.4,16.8L66.3,16.7L66.2,16.7L66.1,16.6L66.0,16.6L65.9,16.5L65.8,16.5L65.7,16.4L65.7,16.4L65.6,16.4L65.5,16.3L65.4,16.3L65.3,16.2L65.2,16.2L65.1,16.2L65.0,16.1L65.0,16.1L64.9,16.0L64.8,16.0L64.7,16.0L64.6,15.9L64.5,15.9L64.4,15.8L64.3,15.8L64.2,15.7L64.2,15.7L64.1,15.6L64.0,15.6L63.9,15.5L63.8,15.5L63.7,15.4L63.6,15.4L63.5,15.3L63.4,15.3L63.3,15.2L63.3,15.2L63.2,15.1L63.1,15.1L63.1,15.1L63.0,15.0L63.0,15.0L63.0,14.9L63.0,14.9L63.0,14.8L62.9,14.8L62.9,14.7L62.9,14.7L62.8,14.7L62.7,14.6L62.7,14.6L62.6,14.5L62.5,14.5L62.4,14.5L62.3,14.4L62.2,14.4L62.1,14.4L61.9,14.3L61.8,14.3L61.7,14.2L61.6,14.2L61.4,14.2L61.3,14.1L61.2,14.1L61.0,14.1L60.9,14.0L60.8,14.0L60.7,13.9L60.5,13.9L60.4,13.9L60.3,13.8L60.2,13.8L60.1,13.8L60.0,13.7L59.9,13.7L59.8,13.6L59.7,13.6L59.7,13.6L59.6,13.5L59.6,13.5L59.5,13.5L59.5,13.4L59.5,13.4L59.5,13.3L59.5,13.3L59.4,13.3L59.3,13.2L59.3,13.2L59.2,13.2L59.0,13.1L58.9,13.1L58.7,13.1L58.6,13.1L58.4,13.0L58.3,13.0L58.2,13.0L58.0,13.0L57.9,12.9L57.8,12.9L57.8,12.9L57.7,12.9L57.6,12.9L57.6,12.8L57.5,12.8L57.5,12.8L57.5,12.8L57.5,12.8" fill="none" stroke="#fbbf24" stroke-width="0.6" stroke-linecap="round" stroke-linejoin="round" opacity="0.7"/>
  <path d="M40.9,13.7L41.0,13.7L41.0,13.7L41.1,13.7L41.1,13.6L41.2,13.6L41.3,13.6L41.5,13.6L41.6,13.5L41.8,13.5L41.9,13.5L42.0,13.4L42.1,13.4L42.3,13.3L42.3,13.3L42.4,13.3L42.5,13.3L42.6,13.2L42.6,13.2L42.7,13.2L42.7,13.1L42.7,13.1L42.7,13.1L42.7,13.1L42.7,13.0L42.8,13.0L42.8,13.0L42.8,13.0L42.9,12.9L42.9,12.9L43.0,12.9L43.1,12.8L43.2,12.8L43.4,12.8L43.5,12.7L43.6,12.7L43.7,12.7L43.8,12.6L43.9,12.6L44.0,12.6L44.1,12.5L44.3,12.5L44.5,12.4L44.7,12.3L45.0,12.2L45.3,12.0L45.7,11.8L46.1,11.6L46.5,11.4L46.9,11.2L47.3,11.0L47.6,10.9L47.9,10.7L48.2,10.6L48.4,10.5L48.6,10.5L48.7,10.4L48.9,10.4L49.0,10.3L49.1,10.3L49.1,10.2L49.2,10.2L49.2,10.1L49.2,10.1L49.2,10.0L49.2,10.0L49.2,10.0L49.3,9.9L49.3,9.9L49.3,9.8L49.4,9.8L49.4,9.7L49.5,9.7L49.6,9.6L49.7,9.6L49.7,9.5L49.8,9.5L49.9,9.4L49.9,9.4L50.0,9.3L50.1,9.3L50.1,9.2L50.2,9.2L50.3,9.1L50.4,9.1L50.4,9.0L50.5,9.0L50.6,8.9L50.6,8.9L50.7,8.8L50.8,8.8L50.8,8.7L50.9,8.6L51.0,8.6L51.1,8.5L51.1,8.5L51.2,8.4L51.3,8.4L51.3,8.3L51.4,8.2L51.5,8.2L51.5,8.1L51.6,8.0L51.7,8.0L51.7,7.9L51.8,7.8L51.8,7.8L51.9,7.7L51.9,7.6L51.9,7.6L51.9,7.5L51.9,7.4L51.9,7.4L51.9,7.3L51.9,7.2L51.9,7.2L52.0,7.1L52.0,7.0L52.0,7.0L52.1,6.9L52.2,6.9L52.2,6.8L52.3,6.7L52.4,6.7L52.4,6.6L52.5,6.5L52.6,6.5L52.6,6.4L52.7,6.3L52.8,6.2L52.8,6.2L52.9,6.1L53.0,6.0L53.0,6.0L53.1,5.9L53.2,5.8L53.2,5.7L53.3,5.7L53.4,5.6L53.4,5.5L53.5,5.4L53.6,5.4L53.6,5.3L53.7,5.2L53.8,5.2L53.8,5.1L53.9,5.0L53.9,4.9L54.0,4.9L54.0,4.8L54.1,4.7L54.1,4.7L54.1,4.6L54.1,4.5L54.2,4.5L54.2,4.4L54.2,4.3L54.3,4.3L54.3,4.2L54.3,4.1L54.3,4.1L54.4,4.0L54.4,3.9L54.4,3.9L54.5,3.8L54.5,3.7L54.6,3.6L54.7,3.6L54.7,3.5L54.8,3.4L54.9,3.4L54.9,3.3L55.0,3.2L55.1,3.2L55.1,3.1L55.2,3.0L55.3,3.0L55.3,2.9L55.4,2.8L55.5,2.8L55.5,2.7L55.6,2.6L55.7,2.5L55.7,2.5L55.8,2.4L55.9,2.3L55.9,2.3L56.0,2.2L56.1,2.1L56.1,2.1L56.2,2.0L56.3,1.9L56.3,1.8L56.4,1.8L56.5,1.7L56.5,1.6L56.6,1.6L56.7,1.5L56.7,1.4L56.8,1.4L56.9,1.3L56.9,1.2L57.0,1.1L57.0,1.1L57.0,1.0L57.1,1.0L57.1,0.9L57.1,0.9L57.1,0.8L57.0,0.8L57.0,0.7L57.0,0.7L57.0,0.7L57.0,0.7L57.0,0.7L57.0,0.6" fill="none" stroke="#fbbf24" stroke-width="0.6" stroke-linecap="round" stroke-linejoin="round" opacity="0.7"/>
  <path d="M64.3,8.3L64.3,8.3L64.3,8.3L64.3,8.3L64.4,8.3L64.4,8.4L64.5,8.4L64.6,8.4L64.7,8.4L64.8,8.5L64.8,8.5L64.9,8.5L65.0,8.6L65.0,8.6L65.1,8.7L65.1,8.7L65.2,8.7L65.2,8.8L65.3,8.8L65.3,8.9L65.4,8.9L65.4,9.0L65.5,9.0L65.5,9.1L65.6,9.1L65.6,9.1L65.7,9.2L65.8,9.2L65.8,9.3L65.9,9.3L66.0,9.4L66.1,9.4L66.1,9.4L66.2,9.5L66.3,9.5L66.4,9.6L66.5,9.6L66.6,9.6L66.7,9.7L66.8,9.7L66.9,9.8L66.9,9.8L67.0,9.8L67.1,9.9L67.2,9.9L67.3,9.9L67.4,10.0L67.5,10.0L67.6,10.1L67.6,10.1L67.7,10.1L67.8,10.1L67.8,10.2L67.8,10.2L67.8,10.2L67.9,10.2" fill="none" stroke="#fbbf24" stroke-width="0.6" stroke-linecap="round" stroke-linejoin="round" opacity="0.7"/>
  <path d="M51.5,41.9L51.5,41.9L51.5,41.9L51.5,41.8L51.5,41.8L51.5,41.7L51.5,41.7L51.5,41.6L51.5,41.6L51.5,41.5L51.5,41.4L51.4,41.4L51.4,41.3L51.4,41.2L51.4,41.2L51.4,41.1L51.4,41.1L51.4,41.0L51.4,40.9L51.4,40.9L51.3,40.8L51.3,40.7L51.3,40.7L51.3,40.6L51.3,40.5L51.3,40.5L51.3,40.4L51.3,40.3L51.2,40.3L51.2,40.2L51.2,40.2L51.2,40.1L51.2,40.0L51.2,40.0L51.2,39.9L51.2,39.8L51.2,39.7L51.3,39.7L51.3,39.6L51.4,39.5L51.4,39.4L51.5,39.3L51.5,39.2L51.6,39.2L51.6,39.1L51.6,39.0L51.6,38.9L51.6,38.9L51.6,38.8L51.6,38.7L51.6,38.7L51.6,38.6L51.6,38.5L51.7,38.4L51.7,38.4L51.8,38.3L51.8,38.2L51.9,38.1L51.9,38.1L52.0,38.0L52.0,37.9L52.0,37.8L52.0,37.7L52.0,37.7L52.0,37.6L52.0,37.5L52.0,37.4L52.0,37.3L52.0,37.3L52.1,37.2L52.1,37.1L52.2,37.0L52.2,36.9L52.3,36.8L52.3,36.8L52.4,36.7L52.4,36.6L52.4,36.5L52.4,36.4L52.4,36.4L52.4,36.3L52.4,36.2L52.4,36.1L52.4,36.1L52.4,36.0L52.5,35.9L52.5,35.8L52.6,35.7L52.6,35.6L52.7,35.6L52.8,35.5L52.8,35.4L52.9,35.3L52.9,35.2L53.0,35.2L53.1,35.1L53.1,35.0L53.2,35.0L53.3,34.9L53.3,34.8L53.4,34.7L53.4,34.7L53.4,34.6L53.5,34.5L53.5,34.4L53.5,34.4L53.5,34.3L53.6,34.2L53.6,34.2L53.6,34.1L53.7,34.0L53.7,33.9L53.7,33.9L53.7,33.8L53.7,33.7L53.7,33.6L53.8,33.6L53.8,33.5L53.8,33.4L53.7,33.3L53.7,33.3L53.7,33.2L53.7,33.1L53.7,33.0L53.8,32.9L53.8,32.9L53.8,32.8L53.9,32.7L54.0,32.6L54.0,32.5L54.1,32.4L54.2,32.4L54.2,32.3L54.3,32.2L54.4,32.1L54.4,32.1L54.5,32.0L54.6,31.9L54.6,31.9L54.7,31.8L54.8,31.7L54.8,31.6L54.9,31.6L54.9,31.5L55.0,31.4L55.1,31.3L55.1,31.2L55.1,31.2L55.2,31.1L55.2,31.0L55.2,30.9L55.2,30.9L55.2,30.8L55.2,30.7L55.2,30.7L55.2,30.6L55.2,30.5L55.3,30.4L55.3,30.4L55.4,30.3L55.4,30.2L55.5,30.1L55.6,30.1L55.6,30.0L55.7,29.9L55.8,29.9L55.8,29.8L55.9,29.7L56.0,29.7L56.0,29.6L56.1,29.5L56.1,29.5L56.1,29.4L56.1,29.3L56.1,29.3L56.1,29.2L56.1,29.1L56.1,29.1L56.1,29.0L56.1,28.9L56.1,28.9L56.1,28.8L56.2,28.7L56.2,28.7L56.2,28.6L56.2,28.5L56.3,28.5L56.3,28.4L56.3,28.4L56.4,28.3L56.4,28.2L56.4,28.2L56.4,28.1L56.5,28.0L56.5,28.0L56.6,27.9L56.6,27.8L56.6,27.8L56.7,27.7L56.8,27.6L56.8,27.6L56.9,27.5L56.9,27.4L57.0,27.4L57.0,27.4L57.0,27.3L57.1,27.3L57.1,27.3" fill="none" stroke="#fbbf24" stroke-width="0.6" stroke-linecap="round" stroke-linejoin="round" opacity="0.7"/>
  <path d="M62.6,29.3L62.6,29.3L62.6,29.3L62.6,29.3L62.6,29.2L62.6,29.2L62.6,29.2L62.5,29.1L62.5,29.0L62.5,29.0L62.5,28.9L62.5,28.9L62.5,28.8L62.5,28.7L62.5,28.7L62.4,28.6L62.4,28.5L62.4,28.5L62.4,28.4L62.4,28.3L62.4,28.2L62.4,28.2L62.3,28.1L62.3,28.0L62.3,27.9L62.3,27.9L62.3,27.8L62.3,27.7L62.3,27.6L62.2,27.6L62.2,27.5L62.2,27.4L62.2,27.4L62.2,27.3L62.2,27.2L62.2,27.1L62.1,27.1L62.1,27.0L62.1,26.9L62.1,26.8L62.1,26.7L62.1,26.6L62.1,26.6L62.0,26.5L62.0,26.4L62.0,26.3L62.0,26.2L62.0,26.2L62.0,26.1L61.9,26.0L61.9,26.0L61.9,25.9L61.9,25.9L61.9,25.9L61.9,25.8L61.9,25.8" fill="none" stroke="#fbbf24" stroke-width="0.6" stroke-linecap="round" stroke-linejoin="round" opacity="0.7"/>
  <path d="M67.0,38.8L67.0,38.7L67.0,38.7L67.0,38.7L67.0,38.7L67.0,38.7L67.1,38.6L67.1,38.6L67.1,38.5L67.2,38.5L67.2,38.5L67.2,38.4L67.3,38.4L67.3,38.3L67.3,38.3L67.3,38.2L67.4,38.2L67.4,38.1L67.5,38.1L67.6,38.1L67.7,38.0L67.8,38.0L67.9,37.9L68.0,37.9L68.2,37.8L68.3,37.7L68.4,37.7L68.6,37.6L68.7,37.6L68.8,37.5L68.9,37.5L68.9,37.4L69.0,37.4L69.1,37.3L69.1,37.3L69.2,37.2L69.3,37.2L69.4,37.1L69.4,37.0L69.5,37.0L69.6,36.9L69.6,36.8L69.7,36.8L69.8,36.7L69.8,36.7L69.9,36.6L70.0,36.5L70.0,36.5L70.1,36.4L70.2,36.4L70.2,36.3L70.3,36.3L70.4,36.2L70.5,36.1L70.5,36.1L70.6,36.0L70.7,36.0L70.7,35.9L70.8,35.8L70.8,35.8L70.8,35.7L70.8,35.6L70.8,35.6L70.8,35.5L70.8,35.4L70.8,35.4L70.8,35.3L70.9,35.3L70.9,35.2L70.9,35.1L71.0,35.1L71.0,35.0L71.1,34.9L71.2,34.9L71.2,34.8L71.3,34.7L71.4,34.7L71.4,34.6L71.5,34.5L71.6,34.4L71.6,34.4L71.7,34.3L71.8,34.2L71.8,34.1L71.9,34.1L72.0,34.0L72.0,33.9L72.1,33.9L72.2,33.8L72.2,33.7L72.3,33.6L72.4,33.6L72.4,33.5L72.5,33.4L72.6,33.3L72.6,33.3L72.7,33.2L72.7,33.1L72.8,33.0L72.8,33.0L72.8,32.9L72.9,32.8L72.9,32.8L72.9,32.7L72.9,32.6L72.9,32.6L72.9,32.5L72.9,32.4L72.9,32.4L72.9,32.3L73.0,32.2L73.0,32.2L73.1,32.1L73.2,32.0L73.2,32.0L73.3,31.9L73.3,31.8L73.3,31.8L73.3,31.7L73.3,31.7L73.3,31.6L73.3,31.5L73.3,31.5L73.3,31.4L73.3,31.3L73.4,31.3L73.4,31.2L73.5,31.1L73.6,31.1L73.6,31.0L73.7,30.9L73.7,30.8L73.7,30.8L73.7,30.7L73.7,30.7L73.7,30.6L73.7,30.6L73.7,30.5L73.7,30.5L73.7,30.4L73.7,30.4L73.7,30.4L73.7,30.4L73.7,30.4" fill="none" stroke="#fbbf24" stroke-width="0.6" stroke-linecap="round" stroke-linejoin="round" opacity="0.7"/>
  <path d="M23.7,53.8L23.7,53.8L23.7,53.8L23.7,53.8L23.7,53.7L23.7,53.7L23.7,53.6L23.7,53.6L23.6,53.5L23.6,53.5L23.7,53.4L23.7,53.3L23.7,53.2L23.7,53.2L23.8,53.1L23.8,53.0L23.9,52.9L24.0,52.9L24.0,52.8L24.1,52.7L24.2,52.6L24.2,52.5L24.3,52.5L24.4,52.4L24.4,52.3L24.5,52.2L24.6,52.2L24.7,52.1L24.8,52.0L24.9,52.0L25.0,51.9L25.2,51.8L25.3,51.8L25.4,51.7L25.6,51.6L25.7,51.6L25.8,51.5L25.9,51.5L26.0,51.4L26.1,51.3L26.1,51.3L26.2,51.2L26.3,51.2L26.4,51.1L26.4,51.1L26.5,51.0L26.6,51.0L26.6,50.9L26.7,50.9L26.8,50.8L26.8,50.8L26.9,50.7L26.9,50.6L26.9,50.6L26.9,50.5L26.9,50.5L26.9,50.4L26.9,50.4L26.9,50.3L26.9,50.3L27.0,50.2L27.0,50.2L27.1,50.1L27.1,50.1L27.2,50.0L27.3,50.0L27.4,49.9L27.5,49.9L27.6,49.8L27.7,49.8L27.8,49.7L28.0,49.7L28.1,49.6L28.2,49.6L28.4,49.5L28.5,49.5L28.6,49.4L28.7,49.4L28.8,49.3L28.9,49.3L29.0,49.3L29.0,49.2L29.1,49.2L29.2,49.1L29.2,49.1L29.3,49.1L29.4,49.0L29.5,49.0L29.5,49.0L29.6,48.9L29.7,48.9L29.8,48.9L29.8,48.8L29.9,48.8L30.0,48.7L30.1,48.7L30.1,48.6L30.2,48.6L30.3,48.5L30.4,48.5L30.5,48.5L30.6,48.4L30.8,48.4L30.9,48.3L31.1,48.3L31.2,48.3L31.3,48.2L31.5,48.2L31.6,48.2L31.7,48.1L31.8,48.1L31.9,48.1L31.9,48.1L32.0,48.1L32.1,48.1L32.2,48.1L32.3,48.0L32.3,48.0L32.4,48.0L32.5,48.0L32.6,48.0L32.6,48.0L32.7,48.0L32.7,48.0L32.8,48.0L32.8,48.0L32.8,48.0L32.8,48.0" fill="none" stroke="#fbbf24" stroke-width="0.6" stroke-linecap="round" stroke-linejoin="round" opacity="0.7"/>
  <path d="M57.2,47.6L57.2,47.6L57.2,47.6L57.3,47.6L57.4,47.7L57.5,47.7L57.6,47.7L57.7,47.8L57.9,47.8L58.1,47.8L58.2,47.9L58.4,47.9L58.5,48.0L58.6,48.0L58.7,48.0L58.8,48.1L58.9,48.1L59.0,48.1L59.1,48.2L59.2,48.2L59.2,48.3L59.3,48.3L59.4,48.3L59.5,48.4L59.6,48.4L59.7,48.5L59.8,48.5L59.9,48.6L60.0,48.6L60.0,48.7L60.1,48.7L60.2,48.8L60.3,48.8L60.4,48.9L60.5,48.9L60.6,49.0L60.7,49.0L60.8,49.1L60.9,49.1L60.9,49.2L61.0,49.2L61.1,49.3L61.2,49.3L61.3,49.4L61.4,49.4L61.5,49.5L61.6,49.5L61.7,49.6L61.8,49.6L61.8,49.7L61.9,49.7L62.0,49.8L62.1,49.8L62.2,49.9L62.3,50.0L62.4,50.0L62.5,50.1L62.6,50.1L62.7,50.2L62.8,50.2L62.8,50.3L62.9,50.3L63.0,50.4L63.1,50.4L63.2,50.5L63.3,50.5L63.4,50.6L63.4,50.6L63.5,50.7L63.5,50.7L63.5,50.8L63.6,50.8L63.6,50.9L63.6,50.9L63.6,51.0L63.7,51.0L63.8,51.1L63.9,51.1L64.0,51.2L64.2,51.2L64.4,51.3L64.5,51.3L64.6,51.4L64.7,51.4L64.8,51.5L64.9,51.5L65.0,51.6L65.0,51.6L65.0,51.7L65.0,51.7L65.1,51.8L65.1,51.8L65.1,51.9L65.2,51.9L65.3,52.0L65.3,52.0L65.4,52.0L65.5,52.1L65.6,52.1L65.8,52.2L65.9,52.2L66.0,52.2L66.2,52.3L66.3,52.3L66.5,52.3L66.6,52.3L66.8,52.4L66.9,52.4L66.9,52.4L67.0,52.4L67.1,52.4L67.1,52.4" fill="none" stroke="#fbbf24" stroke-width="0.6" stroke-linecap="round" stroke-linejoin="round" opacity="0.7"/>
  <path d="M38.1,75.2L38.1,75.2L38.1,75.2L38.0,75.2L37.9,75.2L37.8,75.3L37.7,75.3L37.6,75.3L37.4,75.3L37.3,75.3L37.1,75.3L37.0,75.3L36.9,75.3L36.8,75.3L36.7,75.3L36.6,75.3L36.5,75.3L36.4,75.3L36.3,75.3L36.2,75.3L36.1,75.3L36.0,75.4L35.8,75.4L35.7,75.4L35.5,75.4L35.4,75.4L35.2,75.5L35.1,75.5L34.9,75.5L34.8,75.5L34.7,75.6L34.6,75.6L34.5,75.6L34.3,75.6L34.2,75.6L34.1,75.7L34.0,75.7L33.9,75.7L33.8,75.7L33.6,75.8L33.5,75.8L33.4,75.8L33.3,75.8L33.2,75.8L33.1,75.8L33.0,75.9L32.9,75.9L32.8,75.9L32.8,75.9L32.7,75.9L32.6,75.9L32.5,75.9L32.4,75.9L32.4,75.9L32.3,75.9L32.2,75.9L32.1,76.0L31.9,76.0L31.6,76.0L31.1,76.1L30.5,76.2L29.7,76.3L28.8,76.4L27.8,76.6L26.6,76.8L25.6,76.9L24.7,77.1L23.9,77.2L23.3,77.3L22.8,77.4L22.4,77.4L22.2,77.4L22.2,77.4L22.1,77.4L22.0,77.4L21.9,77.5L21.8,77.5L21.8,77.5L21.7,77.5L21.6,77.5L21.5,77.5L21.4,77.5L21.3,77.5L21.2,77.5L21.1,77.5L21.0,77.5L20.8,77.5L20.7,77.6L20.5,77.6L20.4,77.6L20.2,77.6L20.1,77.7L19.9,77.7L19.8,77.7L19.6,77.7L19.5,77.8L19.3,77.8L19.2,77.8L19.0,77.8L18.9,77.9L18.9,77.9L18.8,77.9L18.8,77.9L18.7,77.9L18.7,77.9L18.7,77.9L18.7,77.9L18.6,77.9L18.5,77.9L18.4,77.9L18.3,77.9L18.2,77.9L18.0,77.9L17.9,77.9L17.7,77.9L17.5,77.9L17.4,77.9L17.2,77.9L17.1,77.9L16.9,77.9L16.8,77.9L16.6,78.0L16.5,78.0L16.3,78.0L16.2,78.0L16.1,78.0L16.0,78.0L15.9,78.0L15.9,78.0L15.8,78.0L15.7,78.1L15.6,78.1L15.5,78.1L15.5,78.1L15.4,78.1L15.3,78.1L15.2,78.1L15.1,78.1L15.1,78.1L15.0,78.1L14.9,78.2L14.8,78.2L14.8,78.2L14.7,78.2L14.6,78.2L14.5,78.2L14.4,78.2L14.3,78.2L14.2,78.2L14.0,78.2L13.9,78.2L13.8,78.2L13.6,78.2L13.4,78.2L13.3,78.2L13.2,78.2L13.1,78.2L12.9,78.2L12.8,78.2L12.8,78.2L12.7,78.2L12.6,78.2L12.5,78.2L12.4,78.2L12.4,78.2L12.3,78.2L12.2,78.2L12.1,78.2L12.0,78.2L12.0,78.2L11.9,78.2L11.8,78.2L11.7,78.3L11.6,78.3L11.6,78.3L11.5,78.3L11.4,78.3L11.3,78.3L11.3,78.3L11.2,78.3L11.2,78.3L11.2,78.3L11.1,78.3L11.1,78.3" fill="none" stroke="#fbbf24" stroke-width="0.6" stroke-linecap="round" stroke-linejoin="round" opacity="0.7"/>
  <ellipse cx="48.6" cy="28.4" rx="3.5" ry="2.2" fill="#0c0c0c" stroke="#ef4444" stroke-width="0.4" opacity="0.95"/>
  <text x="48.6" y="29.3" text-anchor="middle" font-family="sans-serif" font-size="2.4" font-weight="700" fill="#ffffff" opacity="0.95">OR</text>
</svg>