<svg xmlns="http://www.w3.org/2000/svg" viewBox="0 0 106.14050285055407 102.1169759827725" preserveAspectRatio="none">
  <path d="M67.0,58.1L67.0,58.1L67.0,58.1L67.1,58.0L67.1,58.0L67.1,58.0L67.2,57.9L67.2,57.8L67.3,57.8L67.4,57.7L67.4,57.6L67.4,57.5L67.5,57.4L67.5,57.4L67.5,57.3L67.5,57.2L67.5,57.1L67.5,57.0L67.5,57.0L67.5,56.9L67.5,56.8L67.5,56.7L67.6,56.6L67.6,56.5L67.7,56.5L67.7,56.4L67.8,56.3L67.8,56.2L67.9,56.1L67.9,56.1L67.9,56.0L67.9,55.9L67.8,55.8L67.9,55.7L67.9,55.6L67.9,55.6L68.0,55.5L68.1,55.4L68.2,55.3L68.3,55.2L68.4,55.1L68.6,55.0L68.7,54.9L68.7,54.8L68.8,54.7L68.8,54.7L68.9,54.6L68.9,54.5L68.9,54.4L68.9,54.3L68.9,54.3L68.9,54.2L68.9,54.1L68.9,54.0L69.0,54.0L69.0,53.9L69.1,53.8L69.2,53.7L69.2,53.6L69.3,53.6L69.4,53.5L69.4,53.4L69.5,53.3L69.6,53.2L69.6,53.2L69.7,53.1L69.7,53.0L69.8,52.9L69.8,52.8L69.8,52.7L69.8,52.7L69.8,52.6L69.8,52.5L69.8,52.4L69.7,52.3L69.7,52.2L69.7,52.1L69.7,52.1L69.7,52.0L69.7,51.9L69.6,51.8L69.6,51.7L69.6,51.7L69.6,51.6L69.6,51.5L69.6,51.4L69.5,51.3L69.5,51.3L69.5,51.2L69.5,51.1L69.5,51.1L69.5,51.0L69.5,51.0L69.5,50.9L69.5,50.9L69.5,50.9" fill="none" stroke="#ef4444" stroke-width="0.8" stroke-linecap="round" stroke-linejoin="round" opacity="0.9"/>
  <path d="M46.5,41.7L46.5,41.7L46.5,41.7L46.6,41.6L46.6,41.6L46.6,41.6L46.7,41.5L46.7,41.4L46.8,41.3L46.8,41.2L46.9,41.1L46.9,41.1L46.9,41.0L47.0,40.9L47.0,40.8L46.9,40.7L46.9,40.6L46.9,40.5L46.9,40.4L46.9,40.3L46.9,40.3L46.8,40.2L46.8,40.1L46.8,40.0L46.8,39.9L46.8,39.8L46.8,39.8L46.7,39.7L46.7,39.6L46.7,39.5L46.7,39.4L46.7,39.3L46.7,39.3L46.7,39.2L46.6,39.1L46.6,39.0L46.6,38.9L46.6,38.8L46.6,38.8L46.6,38.7L46.5,38.6L46.5,38.5L46.5,38.4L46.5,38.3L46.5,38.2L46.5,38.2L46.5,38.1L46.6,38.0L46.6,37.9L46.6,37.8L46.6,37.7L46.7,37.6L46.7,37.5L46.7,37.5L46.7,37.4L46.7,37.3L46.8,37.2L46.8,37.1L46.8,37.0L46.8,36.9L46.8,36.9L46.8,36.8L46.8,36.7L46.8,36.6L46.8,36.6L46.8,36.5L46.8,36.4L46.7,36.3L46.7,36.3L46.7,36.2L46.7,36.1L46.7,36.0L46.7,36.0L46.7,35.9L46.6,35.8L46.6,35.8L46.6,35.7L46.6,35.7L46.6,35.7L46.6,35.7" fill="none" stroke="#ef4444" stroke-width="0.8" stroke-linecap="round" stroke-linejoin="round" opacity="0.9"/>
  <path d="M70.8,44.7L70.8,44.7L70.9,44.7L70.9,44.7L70.9,44.6L71.0,44.6L71.0,44.5L71.1,44.5L71.1,44.4L71.2,44.3L71.2,44.2L71.3,44.2L71.3,44.1L71.3,44.0L71.3,43.9L71.3,43.8L71.3,43.7L71.3,43.7L71.3,43.6L71.3,43.5L71.3,43.4L71.4,43.3L71.4,43.3L71.5,43.2L71.5,43.1L71.6,43.0L71.6,42.9L71.7,42.9L71.7,42.8L71.7,42.7L71.7,42.6L71.7,42.5L71.7,42.5L71.7,42.4L71.7,42.3L71.7,42.2L71.7,42.1L71.7,42.0L71.8,42.0L71.8,41.9L71.9,41.8L72.0,41.7L72.0,41.6L72.1,41.5L72.2,41.4L72.2,41.3L72.3,41.2L72.3,41.1L72.4,41.1L72.5,41.0L72.5,40.9L72.6,40.8L72.7,40.7L72.7,40.6L72.8,40.5L72.8,40.4L72.9,40.3L72.9,40.2L73.0,40.1L73.0,40.0L73.0,39.9L73.1,39.8L73.1,39.8L73.1,39.7L73.0,39.6L73.0,39.5L73.0,39.4L73.1,39.3L73.1,39.3L73.1,39.2L73.2,39.1L73.2,39.0L73.3,38.9L73.3,38.8L73.4,38.7L73.4,38.6L73.4,38.5L73.4,38.4L73.4,38.4L73.4,38.3L73.4,38.2L73.4,38.1L73.4,38.0L73.4,37.9L73.4,37.8L73.5,37.7L73.5,37.6L73.6,37.6L73.6,37.5L73.7,37.4L73.8,37.3L73.8,37.2L73.9,37.2L74.0,37.1L74.0,37.0L74.1,36.9L74.1,36.8L74.2,36.7L74.2,36.6L74.3,36.5L74.3,36.4L74.3,36.4L74.3,36.3L74.3,36.2L74.3,36.1L74.3,36.0L74.3,35.9L74.3,35.8L74.3,35.8L74.4,35.7L74.4,35.6L74.5,35.5L74.5,35.4L74.6,35.3L74.6,35.2L74.7,35.1L74.8,35.0L74.8,35.0L74.9,34.9L75.0,34.8L75.0,34.7L75.1,34.6L75.1,34.5L75.2,34.5L75.2,34.4L75.3,34.3L75.3,34.2L75.3,34.1L75.4,34.0L75.4,33.9L75.4,33.8L75.4,33.8L75.4,33.7L75.5,33.6L75.5,33.5L75.5,33.4L75.5,33.3L75.6,33.2L75.6,33.1L75.6,33.1L75.6,33.0L75.6,32.9L75.6,32.8L75.6,32.7L75.6,32.7L75.5,32.6L75.5,32.5L75.5,32.4L75.5,32.4L75.5,32.3L75.5,32.2L75.5,32.2L75.4,32.1L75.4,32.0L75.4,32.0L75.5,31.9L75.5,31.8L75.5,31.7L75.6,31.7L75.6,31.6L75.7,31.5L75.7,31.4L75.8,31.4L75.8,31.3L75.9,31.3L75.9,31.2L75.9,31.2L75.9,31.2" fill="none" stroke="#ef4444" stroke-width="0.8" stroke-linecap="round" stroke-linejoin="round" opacity="0.9"/>
  <path d="M74.2,25.6L74.2,25.6L74.2,25.5L74.2,25.5L74.2,25.5L74.1,25.4L74.1,25.4L74.1,25.3L74.1,25.2L74.1,25.2L74.1,25.1L74.1,25.0L74.1,25.0L74.0,24.9L74.0,24.8L74.0,24.8L74.0,24.7L74.0,24.7L74.0,24.6L73.9,24.5L73.9,24.5L73.8,24.4L73.7,24.4L73.6,24.3L73.6,24.2L73.5,24.2L73.4,24.1L73.3,24.1L73.2,24.0L73.2,23.9L73.1,23.9L73.0,23.8L73.0,23.7L72.9,23.7L72.9,23.6L72.8,23.5L72.8,23.5L72.7,23.4L72.7,23.3L72.6,23.2L72.6,23.2L72.5,23.1L72.5,23.0L72.4,23.0L72.4,22.9L72.4,22.8L72.4,22.8L72.3,22.7L72.3,22.6L72.3,22.6L72.3,22.5L72.3,22.4L72.3,22.4L72.3,22.3L72.2,22.2L72.2,22.1L72.2,22.1L72.2,22.0L72.1,21.9L72.1,21.8L72.0,21.8L72.0,21.7L71.9,21.6L71.8,21.5L71.7,21.5L71.7,21.4L71.6,21.4L71.5,21.3L71.5,21.2L71.4,21.2L71.4,21.1L71.4,21.0L71.4,21.0L71.3,20.9L71.3,20.8L71.3,20.8L71.3,20.7L71.3,20.6L71.3,20.6L71.3,20.5L71.3,20.4L71.2,20.4L71.2,20.3L71.2,20.2L71.1,20.2L71.0,20.1L71.0,20.1L70.9,20.0L70.8,19.9L70.7,19.9L70.6,19.8L70.6,19.8L70.5,19.7L70.5,19.6L70.5,19.6L70.4,19.5L70.4,19.5L70.4,19.4L70.4,19.4L70.4,19.4L70.4,19.3L70.4,19.3L70.4,19.3L70.4,19.3" fill="none" stroke="#fbbf24" stroke-width="0.6" stroke-linecap="round" stroke-linejoin="round" opacity="0.7"/>
  <path d="M64.8,30.0L64.8,30.0L64.8,30.0L64.8,30.0L64.8,29.9L64.7,29.9L64.7,29.8L64.7,29.8L64.7,29.7L64.7,29.7L64.7,29.6L64.7,29.5L64.7,29.4L64.7,29.4L64.7,29.3L64.8,29.2L64.8,29.2L64.8,29.1L64.8,29.0L64.9,28.9L64.9,28.9L64.9,28.8L64.9,28.7L65.0,28.6L65.0,28.6L65.0,28.5L65.0,28.4L65.0,28.3L65.0,28.3L65.0,28.2L65.0,28.1L65.0,28.1L65.0,28.0L65.0,27.9L65.0,27.9L65.0,27.8L65.0,27.7L65.0,27.7L64.9,27.6L64.9,27.5L64.9,27.5L64.9,27.4L64.9,27.3L64.9,27.3L64.9,27.2L64.8,27.1L64.8,27.0L64.8,27.0L64.8,26.9L64.8,26.8L64.8,26.7L64.8,26.7L64.7,26.6L64.7,26.5L64.7,26.5L64.7,26.4L64.7,26.3L64.7,26.3L64.7,26.2L64.7,26.1L64.7,26.1L64.8,26.0L64.8,25.9L64.9,25.9L64.9,25.8L65.0,25.7L65.0,25.6L65.1,25.5L65.1,25.5L65.1,25.4L65.1,25.3L65.1,25.3L65.1,25.2L65.1,25.1L65.1,25.1L65.1,25.0L65.2,24.9L65.2,24.9L65.2,24.8L65.3,24.7L65.4,24.7L65.4,24.6L65.5,24.5L65.6,24.4L65.6,24.4L65.7,24.3L65.8,24.2L65.8,24.2L65.9,24.1L66.0,24.0L66.0,24.0L66.1,23.9L66.2,23.8L66.2,23.8L66.3,23.7L66.4,23.6L66.4,23.6L66.5,23.5L66.6,23.4L66.6,23.4L66.7,23.3L66.8,23.3L66.9,23.2L66.9,23.1L67.0,23.1L67.0,23.0L67.1,22.9L67.1,22.9L67.2,22.8L67.2,22.7L67.2,22.7L67.2,22.6L67.2,22.6L67.2,22.5L67.2,22.4L67.2,22.4L67.2,22.3L67.3,22.2L67.3,22.2L67.4,22.1L67.4,22.0L67.5,22.0L67.6,21.9L67.6,21.8L67.7,21.7L67.8,21.7L67.8,21.6L67.9,21.5L68.0,21.4L68.0,21.4L68.1,21.3L68.2,21.2L68.2,21.2L68.3,21.1L68.4,21.0L68.4,20.9L68.5,20.9L68.6,20.8L68.6,20.7L68.7,20.6L68.7,20.6L68.8,20.5L68.9,20.4L68.9,20.4L69.0,20.3L69.1,20.2L69.1,20.1L69.2,20.1L69.2,20.0L69.2,19.9L69.2,19.9L69.2,19.8L69.2,19.7L69.2,19.7L69.2,19.6L69.2,19.5L69.2,19.5L69.3,19.4L69.3,19.3L69.4,19.3L69.4,19.2L69.5,19.1L69.6,19.1L69.6,19.0L69.6,18.9L69.6,18.9L69.6,18.8L69.6,18.7L69.6,18.7L69.6,18.6L69.6,18.5L69.6,18.5L69.6,18.4L69.6,18.3L69.6,18.3L69.7,18.2L69.7,18.1L69.7,18.1L69.8,18.0L69.8,17.9L69.8,17.9L69.8,17.8L69.9,17.7L69.9,17.7L69.9,17.6L70.0,17.5L70.0,17.5L70.0,17.4L70.1,17.3L70.1,17.3L70.2,17.2L70.2,17.1L70.3,17.0L70.4,17.0L70.4,16.9L70.5,16.9L70.5,16.8L70.5,16.8L70.5,16.8L70.5,16.8" fill="none" stroke="#fbbf24" stroke-width="0.6" stroke-linecap="round" stroke-linejoin="round" opacity="0.7"/>
  <path d="M36.2,57.9L36.2,57.9L36.2,57.9L36.3,57.9L36.4,57.9L36.5,57.9L36.6,57.9L36.7,57.9L36.9,57.9L37.0,57.9L37.2,58.0L37.3,58.0L37.4,58.0L37.4,58.0L37.5,58.0L37.5,58.1L37.5,58.1L37.5,58.1L37.6,58.1L37.6,58.1L37.7,58.1L37.8,58.1L37.9,58.1L38.1,58.2L38.2,58.2L38.4,58.2L38.5,58.2L38.7,58.2L38.8,58.2L38.9,58.2L39.0,58.2L39.1,58.2L39.2,58.2L39.3,58.2L39.4,58.3L39.5,58.3L39.6,58.3L39.7,58.3L39.9,58.3L40.0,58.3L40.2,58.3L40.3,58.3L40.5,58.3L40.6,58.3L40.7,58.3L40.8,58.4L40.9,58.4L41.0,58.4L41.1,58.4L41.2,58.4L41.3,58.5L41.4,58.5L41.5,58.5L41.5,58.5L41.6,58.6L41.7,58.6L41.8,58.6L41.9,58.6L42.0,58.6L42.1,58.7L42.2,58.7L42.4,58.7L42.5,58.7L42.7,58.7L42.8,58.7L43.0,58.7L43.1,58.8L43.3,58.8L43.4,58.8L43.5,58.8L43.6,58.8L43.7,58.8L43.8,58.9L43.9,58.9L43.9,58.9L44.0,58.9L44.1,58.9L44.2,59.0L44.3,59.0L44.4,59.0L44.5,59.1L44.5,59.1L44.6,59.1L44.7,59.2L44.8,59.2L44.9,59.2L45.0,59.2L45.1,59.3L45.1,59.3L45.2,59.3L45.3,59.4L45.4,59.4L45.5,59.4L45.6,59.5L45.7,59.5L45.8,59.6L45.8,59.6L45.9,59.6L46.0,59.7L46.2,59.7L46.3,59.7L46.4,59.8L46.6,59.8L46.7,59.9L46.9,59.9L47.1,59.9L47.2,60.0L47.3,60.0L47.4,60.1L47.4,60.1L47.5,60.2L47.5,60.2L47.5,60.2L47.6,60.3L47.6,60.3L47.6,60.4L47.7,60.4L47.7,60.5L47.8,60.5L47.9,60.6L48.0,60.6L48.1,60.7L48.1,60.7L48.2,60.8L48.3,60.8L48.4,60.9L48.5,60.9L48.6,61.0L48.7,61.0L48.8,61.1L48.9,61.1L49.0,61.2L49.0,61.2L49.1,61.3L49.2,61.3L49.3,61.4L49.4,61.4L49.5,61.5L49.6,61.5L49.7,61.6L49.9,61.6L50.0,61.7L50.2,61.7L50.3,61.8L50.5,61.8L50.6,61.9L50.8,61.9L50.9,62.0L51.0,62.0L51.0,62.1L51.1,62.1L51.1,62.2L51.1,62.2L51.2,62.3L51.2,62.4L51.2,62.4L51.3,62.5L51.3,62.5L51.4,62.6L51.5,62.6L51.6,62.7L51.7,62.8L51.7,62.8L51.8,62.9L51.8,62.9L51.9,63.0L51.9,63.0L51.9,63.1L51.9,63.1L52.0,63.2L52.0,63.2L52.0,63.3L52.1,63.3L52.1,63.4L52.2,63.4L52.3,63.5L52.4,63.5L52.5,63.6L52.5,63.6L52.6,63.6L52.6,63.6L52.7,63.7L52.7,63.7L52.7,63.7" fill="none" stroke="#fbbf24" stroke-width="0.6" stroke-linecap="round" stroke-linejoin="round" opacity="0.7"/>
  <path d="M63.4,62.5L63.4,62.4L63.4,62.4L63.4,62.4L63.4,62.4L63.5,62.3L63.5,62.3L63.6,62.2L63.7,62.2L63.7,62.1L63.8,62.1L63.9,62.0L63.9,61.9L64.0,61.9L64.1,61.8L64.2,61.8L64.2,61.7L64.3,61.6L64.3,61.6L64.4,61.5L64.4,61.5L64.4,61.4L64.4,61.3L64.4,61.3L64.4,61.2L64.4,61.2L64.4,61.1L64.4,61.0L64.5,61.0L64.5,60.9L64.5,60.8L64.6,60.8L64.7,60.7L64.7,60.6L64.8,60.6L64.9,60.5L64.9,60.4L65.0,60.4L65.1,60.3L65.1,60.2L65.2,60.1L65.3,60.1L65.3,60.0L65.4,59.9L65.5,59.8L65.5,59.8L65.6,59.7L65.7,59.6L65.7,59.5L65.8,59.5L65.9,59.4L65.9,59.3L66.0,59.2L66.1,59.2L66.1,59.1L66.2,59.0L66.3,58.9L66.3,58.9L66.4,58.8L66.4,58.8L66.4,58.7L66.5,58.7L66.5,58.7L66.5,58.7" fill="none" stroke="#fbbf24" stroke-width="0.6" stroke-linecap="round" stroke-linejoin="round" opacity="0.7"/>
  <path d="M44.7,15.9L44.7,15.9L44.7,15.9L44.7,15.9L44.7,15.8L44.7,15.8L44.7,15.8L44.7,15.7L44.7,15.7L44.6,15.6L44.6,15.5L44.6,15.5L44.5,15.4L44.5,15.4L44.4,15.3L44.3,15.3L44.2,15.2L44.1,15.2L44.0,15.1L43.9,15.1L43.9,15.0L43.8,15.0L43.7,14.9L43.6,14.9L43.5,14.8L43.4,14.7L43.3,14.7L43.2,14.6L43.1,14.6L43.0,14.5L42.9,14.5L42.8,14.4L42.8,14.4L42.7,14.3L42.6,14.3L42.5,14.2L42.4,14.2L42.3,14.1L42.2,14.1L42.1,14.0L42.0,14.0L42.0,13.9L41.9,13.9L41.8,13.8L41.8,13.8L41.8,13.8L41.7,13.8L41.7,13.8" fill="none" stroke="#fbbf24" stroke-width="0.6" stroke-linecap="round" stroke-linejoin="round" opacity="0.7"/>
  <path d="M36.0,37.4L36.0,37.4L36.0,37.4L35.9,37.4L35.8,37.4L35.7,37.4L35.6,37.4L35.5,37.4L35.3,37.4L35.2,37.3L35.0,37.3L34.9,37.3L34.8,37.3L34.7,37.3L34.6,37.3L34.5,37.3L34.4,37.3L34.3,37.3L34.2,37.3L34.1,37.3L34.1,37.3L34.0,37.3L33.9,37.3L33.8,37.3L33.7,37.3L33.7,37.3L33.6,37.3L33.4,37.4L33.3,37.4L33.2,37.4L33.1,37.4L32.9,37.4L32.8,37.4L32.6,37.4L32.5,37.5L32.3,37.5L32.2,37.5L32.1,37.5L32.0,37.5L31.9,37.5L31.9,37.6L31.8,37.6L31.7,37.6L31.6,37.6L31.5,37.6L31.4,37.6L31.3,37.7L31.2,37.7L31.1,37.7L31.0,37.7L30.8,37.8L30.7,37.8L30.6,37.8L30.5,37.8L30.4,37.9L30.3,37.9L30.1,37.9L30.0,37.9L29.9,38.0L29.8,38.0L29.7,38.0L29.6,38.0L29.6,38.1L29.5,38.1L29.4,38.1L29.3,38.1L29.2,38.2L29.2,38.2L29.1,38.2L29.0,38.2L28.9,38.2L28.9,38.3L28.8,38.3L28.7,38.3L28.6,38.3L28.5,38.4L28.4,38.4L28.3,38.4L28.1,38.4L28.0,38.5L27.8,38.5L27.7,38.5L27.5,38.5L27.4,38.6L27.3,38.6L27.2,38.6L27.1,38.6L27.0,38.7L26.9,38.7L26.9,38.7L26.8,38.7L26.8,38.7L26.7,38.7L26.7,38.8L26.7,38.8L26.7,38.8" fill="none" stroke="#fbbf24" stroke-width="0.6" stroke-linecap="round" stroke-linejoin="round" opacity="0.7"/>
  <path d="M44.5,48.0L44.5,48.0L44.5,48.0L44.6,48.0L44.6,47.9L44.6,47.9L44.7,47.8L44.7,47.8L44.8,47.7L44.9,47.6L44.9,47.5L45.0,47.5L45.0,47.4L45.0,47.3L45.0,47.3L45.0,47.2L45.0,47.1L45.0,47.1L45.0,47.0L45.0,46.9L44.9,46.9L44.9,46.8L44.9,46.7L44.9,46.7L44.9,46.6L44.9,46.5L44.9,46.4L44.9,46.4L44.9,46.3L44.9,46.2L44.9,46.1L44.9,46.1L44.9,46.0L45.0,45.9L45.0,45.8L45.0,45.7L45.0,45.7L45.1,45.6L45.1,45.5L45.1,45.4L45.1,45.3L45.2,45.3L45.2,45.2L45.2,45.1L45.3,45.0L45.3,44.9L45.4,44.9L45.5,44.8L45.5,44.7L45.6,44.6L45.6,44.5L45.7,44.5L45.7,44.4L45.7,44.3L45.7,44.2L45.7,44.2L45.7,44.1L45.7,44.0L45.7,43.9L45.7,43.8L45.7,43.8L45.8,43.7L45.8,43.6L45.8,43.5L45.9,43.4L46.0,43.3L46.0,43.2L46.1,43.1L46.2,43.0L46.2,43.0L46.3,42.9L46.4,42.8L46.4,42.7L46.5,42.6L46.5,42.6L46.6,42.5L46.6,42.5L46.6,42.5L46.6,42.4L46.6,42.4" fill="none" stroke="#fbbf24" stroke-width="0.6" stroke-linecap="round" stroke-linejoin="round" opacity="0.7"/>
  <path d="M45.7,30.9L45.7,30.9L45.7,30.9L45.7,30.9L45.8,30.8L45.8,30.8L45.9,30.7L45.9,30.7L46.0,30.6L46.1,30.5L46.1,30.5L46.2,30.4L46.3,30.4L46.3,30.3L46.4,30.2L46.5,30.2L46.5,30.1L46.6,30.1L46.7,30.0L46.8,30.0L46.8,29.9L46.9,29.9L47.0,29.8L47.0,29.7L47.1,29.7L47.2,29.6L47.2,29.6L47.3,29.5L47.4,29.5L47.4,29.4L47.5,29.3L47.6,29.3L47.7,29.2L47.7,29.2L47.8,29.1L47.8,29.1L47.9,29.0L47.9,29.0L48.0,28.9L48.0,28.8L48.0,28.8L48.1,28.7L48.1,28.7L48.1,28.6L48.1,28.6L48.2,28.5L48.2,28.4L48.2,28.4L48.3,28.3L48.3,28.3L48.3,28.2L48.3,28.2L48.3,28.2L48.3,28.2L48.4,28.1L48.4,28.1" fill="none" stroke="#fbbf24" stroke-width="0.6" stroke-linecap="round" stroke-linejoin="round" opacity="0.7"/>
  <path d="M51.4,23.9L51.4,23.9L51.4,23.9L51.4,23.9L51.4,23.8L51.4,23.8L51.4,23.7L51.3,23.7L51.3,23.6L51.3,23.5L51.3,23.5L51.3,23.4L51.4,23.3L51.4,23.2L51.5,23.2L51.5,23.1L51.6,23.0L51.6,22.9L51.7,22.9L51.8,22.8L51.8,22.7L51.9,22.6L52.0,22.6L52.0,22.5L52.1,22.4L52.2,22.3L52.2,22.3L52.2,22.2L52.3,22.1L52.3,22.1L52.3,22.0L52.3,21.9L52.3,21.9L52.3,21.8L52.3,21.7L52.3,21.6L52.3,21.6L52.4,21.5L52.4,21.4L52.5,21.3L52.5,21.2L52.6,21.1L52.6,21.1L52.6,21.0L52.7,20.9L52.7,20.8L52.7,20.8L52.7,20.7L52.7,20.6L52.7,20.6L52.7,20.5L52.7,20.4L52.7,20.4L52.8,20.3L52.8,20.2L52.9,20.1L52.9,20.1L53.0,20.0L53.0,19.9L53.1,19.9L53.1,19.8L53.1,19.8L53.1,19.7L53.1,19.7L53.1,19.6L53.1,19.6L53.1,19.6L53.1,19.5L53.1,19.5L53.1,19.5L53.1,19.4L53.1,19.4L53.1,19.4L53.1,19.3L53.1,19.3L53.1,19.2L53.1,19.1L53.2,19.0L53.2,18.9L53.2,18.7L53.3,18.6L53.3,18.5L53.4,18.3L53.4,18.2L53.4,18.1L53.4,18.1L53.4,18.0L53.4,17.9L53.4,17.9L53.4,17.8L53.4,17.8L53.5,17.7L53.5,17.7L53.5,17.6L53.6,17.6L53.6,17.5L53.7,17.5L53.8,17.4L53.8,17.4L53.9,17.3L54.0,17.3L54.1,17.2L54.1,17.2L54.2,17.1L54.3,17.1L54.4,17.0L54.4,16.9L54.5,16.9L54.6,16.8L54.8,16.8L54.9,16.7L55.0,16.6L55.2,16.6L55.3,16.5L55.4,16.4L55.5,16.4L55.6,16.3L55.6,16.3L55.7,16.2L55.7,16.2L55.7,16.1L55.6,16.1L55.6,16.0L55.6,16.0L55.6,16.0L55.6,16.0L55.6,16.0L55.6,16.0" fill="none" stroke="#fbbf24" stroke-width="0.6" stroke-linecap="round" stroke-linejoin="round" opacity="0.7"/>
  <path d="M17.0,51.8L17.0,51.7L17.0,51.7L16.9,51.7L16.9,51.7L16.8,51.7L16.8,51.6L16.7,51.6L16.6,51.6L16.5,51.5L16.4,51.5L16.3,51.5L16.3,51.4L16.2,51.4L16.1,51.4L16.0,51.3L15.9,51.3L15.8,51.3L15.7,51.2L15.7,51.2L15.6,51.2L15.5,51.2L15.4,51.1L15.3,51.1L15.2,51.1L15.1,51.1L15.0,51.0L14.9,51.0L14.8,51.0L14.7,51.0L14.5,50.9L14.4,50.9L14.2,50.9L14.0,50.9L13.9,50.8L13.8,50.8L13.6,50.8L13.5,50.7L13.4,50.7L13.3,50.7L13.2,50.6L13.1,50.6L13.1,50.6L13.0,50.5L12.9,50.5L12.9,50.5L12.8,50.4L12.8,50.4L12.7,50.4L12.7,50.3L12.6,50.3L12.6,50.3L12.6,50.3L12.6,50.2L12.5,50.2L12.5,50.2" fill="none" stroke="#fbbf24" stroke-width="0.6" stroke-linecap="round" stroke-linejoin="round" opacity="0.7"/>
  <path d="M68.4,48.7L68.4,48.7L68.4,48.7L68.5,48.7L68.5,48.7L68.5,48.6L68.6,48.6L68.6,48.5L68.7,48.5L68.8,48.4L68.8,48.4L68.9,48.3L68.9,48.2L68.9,48.2L68.9,48.1L68.9,48.0L68.9,48.0L68.9,47.9L68.9,47.8L68.9,47.8L68.9,47.7L68.9,47.6L68.9,47.5L68.9,47.5L69.0,47.4L69.0,47.3L69.0,47.3L69.0,47.2L69.1,47.1L69.1,47.0L69.1,47.0L69.1,46.9L69.2,46.8L69.2,46.8L69.2,46.7L69.3,46.6L69.3,46.5L69.4,46.5L69.4,46.4L69.5,46.3L69.6,46.2L69.6,46.1L69.7,46.0L69.8,46.0L69.8,45.9L69.9,45.8L69.9,45.7L70.0,45.7L70.1,45.6L70.1,45.5L70.2,45.5L70.2,45.4L70.3,45.4L70.3,45.4L70.3,45.3L70.3,45.3" fill="none" stroke="#fbbf24" stroke-width="0.6" stroke-linecap="round" stroke-linejoin="round" opacity="0.7"/>
  <ellipse cx="54.1" cy="42.4" rx="3.5" ry="2.2" fill="#0c0c0c" stroke="#ef4444" stroke-width="0.4" opacity="0.95"/>
  <text x="54.1" y="43.3" text-anchor="middle" font-family="sans-serif" font-size="2.4" font-weight="700" fill="#ffffff" opacity="0.95">OR</text>
</svg>