<svg xmlns="http://www.w3.org/2000/svg" viewBox="0 0 106.14050285055407 102.1169759827725" preserveAspectRatio="none">
  <path d="M39.1,44.0C39.0,44.2 38.7,44.3 38.6,44.6C38.5,44.9 38.8,45.0 38.7,45.3C38.6,45.6 38.3,45.6 38.2,45.9C38.1,46.3 38.6,46.2 38.3,46.6C38.1,46.9 37.5,47.0 37.2,47.4C37.0,47.7 37.4,47.7 37.3,48.0C37.2,48.3 37.1,48.3 36.8,48.6C36.6,48.9 36.4,48.9 36.3,49.2C36.2,49.6 36.4,49.6 36.4,49.9C36.5,50.3 36.5,50.3 36.6,50.6C36.6,50.9 36.6,51.0 36.7,51.2" fill="none" stroke="#ef4444" stroke-width="0.8" stroke-linecap="round" stroke-linejoin="round" opacity="0.9"/>
  <path d="M59.6,60.4C59.5,60.6 59.2,60.7 59.1,61.1C59.0,61.5 59.2,61.5 59.3,61.8C59.3,62.2 59.3,62.1 59.4,62.5C59.5,62.8 59.5,62.8 59.5,63.2C59.6,63.5 59.7,63.5 59.7,63.8C59.6,64.2 59.6,64.2 59.5,64.5C59.4,64.9 59.3,64.9 59.3,65.2C59.3,65.6 59.3,65.5 59.4,65.8C59.5,66.1 59.5,66.3 59.5,66.4" fill="none" stroke="#ef4444" stroke-width="0.8" stroke-linecap="round" stroke-linejoin="round" opacity="0.9"/>
  <path d="M35.3,57.4C35.2,57.5 34.9,57.7 34.8,58.0C34.7,58.3 35.0,58.3 34.9,58.7C34.8,59.0 34.5,59.0 34.4,59.3C34.3,59.6 34.6,59.6 34.5,59.9C34.4,60.3 34.3,60.3 34.0,60.6C33.8,61.0 33.8,61.0 33.5,61.4C33.3,61.8 33.1,61.8 33.0,62.2C32.9,62.5 33.2,62.5 33.1,62.8C33.1,63.1 32.7,63.2 32.6,63.5C32.6,63.9 32.9,63.9 32.8,64.3C32.7,64.6 32.5,64.6 32.3,64.9C32.0,65.3 31.9,65.3 31.8,65.6C31.7,66.0 32.0,66.0 31.9,66.3C31.8,66.7 31.7,66.7 31.4,67.0C31.2,67.4 31.1,67.4 30.9,67.7C30.7,68.0 30.8,68.1 30.7,68.4C30.6,68.8 30.5,68.8 30.5,69.1C30.5,69.4 30.6,69.4 30.6,69.7C30.7,70.0 30.9,70.0 30.7,70.3C30.6,70.6 30.4,70.7 30.2,70.9" fill="none" stroke="#ef4444" stroke-width="0.8" stroke-linecap="round" stroke-linejoin="round" opacity="0.9"/>
  <path d="M32.0,76.6C32.0,76.7 32.0,76.9 32.1,77.1C32.1,77.4 32.0,77.4 32.2,77.6C32.4,77.8 32.6,77.8 32.9,78.1C33.2,78.3 33.1,78.4 33.3,78.6C33.5,78.9 33.6,78.9 33.8,79.2C33.9,79.4 33.8,79.4 33.9,79.7C33.9,80.0 33.8,80.1 34.0,80.3C34.2,80.6 34.5,80.6 34.7,80.9C34.9,81.1 34.8,81.1 34.8,81.4C34.9,81.6 34.7,81.7 34.9,81.9C35.1,82.2 35.5,82.2 35.7,82.4C35.9,82.6 35.7,82.7 35.8,82.8" fill="none" stroke="#fbbf24" stroke-width="0.6" stroke-linecap="round" stroke-linejoin="round" opacity="0.7"/>
  <path d="M41.4,72.1C41.4,72.2 41.5,72.4 41.5,72.6C41.5,72.9 41.4,72.9 41.3,73.2C41.2,73.5 41.1,73.5 41.1,73.8C41.0,74.1 41.1,74.1 41.2,74.4C41.2,74.6 41.2,74.6 41.3,74.9C41.3,75.2 41.3,75.2 41.4,75.5C41.4,75.8 41.6,75.7 41.5,76.0C41.4,76.3 41.1,76.3 41.0,76.6C40.9,76.9 41.2,76.9 41.1,77.1C41.0,77.4 40.8,77.4 40.5,77.7C40.3,78.0 40.3,78.0 40.0,78.3C39.7,78.5 39.7,78.5 39.5,78.8C39.2,79.0 39.0,79.0 38.9,79.3C38.8,79.5 39.1,79.5 39.0,79.8C38.9,80.0 38.7,80.0 38.5,80.3C38.2,80.6 38.2,80.6 38.0,80.9C37.7,81.2 37.7,81.2 37.4,81.5C37.2,81.8 37.0,81.8 36.9,82.1C36.8,82.4 37.1,82.3 37.0,82.6C36.9,82.9 36.6,82.9 36.5,83.2C36.4,83.4 36.6,83.4 36.6,83.7C36.5,84.0 36.5,84.0 36.3,84.2C36.2,84.5 36.3,84.5 36.1,84.7C35.9,85.0 35.7,85.2 35.6,85.4" fill="none" stroke="#fbbf24" stroke-width="0.6" stroke-linecap="round" stroke-linejoin="round" opacity="0.7"/>
  <path d="M70.0,44.3C69.7,44.2 69.0,44.2 68.7,44.1C68.3,44.1 69.0,44.0 68.6,44.0C68.3,43.9 67.8,44.0 67.4,43.9C66.9,43.9 67.2,43.9 66.7,43.8C66.2,43.8 65.9,43.8 65.4,43.8C64.9,43.7 65.1,43.7 64.7,43.6C64.4,43.5 64.5,43.5 64.0,43.4C63.6,43.4 63.2,43.4 62.7,43.4C62.3,43.3 62.4,43.3 62.1,43.2C61.7,43.1 61.7,43.1 61.4,43.0C61.0,42.8 61.0,42.8 60.7,42.7C60.3,42.6 60.5,42.6 60.0,42.4C59.5,42.2 59.0,42.3 58.6,42.1C58.3,41.9 58.8,41.9 58.6,41.7C58.4,41.5 58.2,41.5 57.9,41.3C57.5,41.1 57.5,41.1 57.1,40.9C56.8,40.7 56.9,40.7 56.4,40.5C55.9,40.3 55.4,40.3 55.1,40.1C54.7,39.9 55.2,39.9 55.0,39.7C54.8,39.4 54.4,39.4 54.2,39.2C54.0,39.0 54.4,39.0 54.2,38.8C54.0,38.6 53.6,38.5 53.4,38.4" fill="none" stroke="#fbbf24" stroke-width="0.6" stroke-linecap="round" stroke-linejoin="round" opacity="0.7"/>
  <path d="M42.8,39.7C42.6,39.8 42.5,39.9 42.2,40.1C42.0,40.4 41.8,40.4 41.7,40.6C41.6,40.9 41.9,40.9 41.8,41.1C41.7,41.4 41.5,41.4 41.2,41.7C41.0,41.9 41.0,42.0 40.7,42.2C40.4,42.5 40.4,42.6 40.2,42.8C39.9,43.1 39.8,43.3 39.7,43.4" fill="none" stroke="#fbbf24" stroke-width="0.6" stroke-linecap="round" stroke-linejoin="round" opacity="0.7"/>
  <path d="M61.4,86.2C61.5,86.3 61.3,86.4 61.5,86.7C61.7,86.9 61.9,86.8 62.2,87.0C62.6,87.3 62.6,87.3 63.0,87.5C63.3,87.8 63.3,87.7 63.7,87.9C64.1,88.1 64.2,88.2 64.4,88.3" fill="none" stroke="#fbbf24" stroke-width="0.6" stroke-linecap="round" stroke-linejoin="round" opacity="0.7"/>
  <path d="M70.1,64.7C70.4,64.7 70.9,64.8 71.4,64.8C71.9,64.8 71.7,64.8 72.0,64.8C72.4,64.8 72.2,64.8 72.7,64.8C73.2,64.7 73.5,64.7 73.9,64.6C74.4,64.6 74.2,64.6 74.6,64.5C74.9,64.4 75.0,64.4 75.5,64.3C75.9,64.2 76.0,64.2 76.4,64.1C76.8,64.0 76.7,64.0 77.0,63.9C77.3,63.8 77.2,63.9 77.6,63.8C78.1,63.7 78.4,63.6 78.9,63.5C79.3,63.4 79.3,63.4 79.5,63.4" fill="none" stroke="#fbbf24" stroke-width="0.6" stroke-linecap="round" stroke-linejoin="round" opacity="0.7"/>
  <path d="M61.6,54.1C61.5,54.3 61.2,54.4 61.1,54.7C61.0,55.0 61.1,54.9 61.2,55.2C61.2,55.5 61.3,55.5 61.3,55.8C61.3,56.1 61.2,56.1 61.1,56.4C61.0,56.7 61.1,56.7 60.9,57.0C60.7,57.4 60.5,57.4 60.4,57.7C60.3,58.0 60.6,58.0 60.5,58.3C60.4,58.6 60.3,58.7 60.0,59.0C59.8,59.4 59.6,59.5 59.5,59.7" fill="none" stroke="#fbbf24" stroke-width="0.6" stroke-linecap="round" stroke-linejoin="round" opacity="0.7"/>
  <path d="M60.4,71.2C60.3,71.3 60.2,71.5 59.9,71.8C59.6,72.0 59.6,71.9 59.4,72.2C59.1,72.4 59.1,72.4 58.8,72.6C58.5,72.9 58.4,72.8 58.2,73.1C58.0,73.3 58.1,73.3 58.0,73.5C57.9,73.8 57.8,73.9 57.8,74.0" fill="none" stroke="#fbbf24" stroke-width="0.6" stroke-linecap="round" stroke-linejoin="round" opacity="0.7"/>
  <path d="M54.8,78.2C54.8,78.3 55.0,78.5 54.9,78.8C54.8,79.0 54.6,79.1 54.3,79.4C54.1,79.7 53.9,79.7 53.8,79.9C53.7,80.2 54.0,80.2 53.9,80.5C53.8,80.8 53.5,80.9 53.4,81.2C53.3,81.5 53.6,81.4 53.5,81.7C53.4,82.0 53.1,82.1 53.0,82.3C52.9,82.5 53.0,82.5 53.0,82.6C53.1,82.7 53.2,82.5 53.1,82.9C53.0,83.2 52.8,83.6 52.7,84.0C52.6,84.4 52.9,84.2 52.7,84.4C52.6,84.6 52.5,84.6 52.2,84.8C51.9,85.1 52.1,85.0 51.6,85.2C51.2,85.5 50.7,85.5 50.4,85.8C50.2,86.0 50.5,86.1 50.5,86.2" fill="none" stroke="#fbbf24" stroke-width="0.6" stroke-linecap="round" stroke-linejoin="round" opacity="0.7"/>
  <path d="M89.1,50.4C89.3,50.4 89.5,50.6 89.8,50.7C90.2,50.8 90.2,50.8 90.5,50.9C90.9,51.0 90.7,51.0 91.2,51.1C91.7,51.2 92.0,51.2 92.5,51.3C93.0,51.4 93.0,51.5 93.2,51.6C93.5,51.7 93.5,51.8 93.6,51.9" fill="none" stroke="#fbbf24" stroke-width="0.6" stroke-linecap="round" stroke-linejoin="round" opacity="0.7"/>
  <path d="M37.7,53.4C37.6,53.5 37.3,53.6 37.2,53.8C37.1,54.1 37.3,54.1 37.3,54.4C37.3,54.7 37.2,54.7 37.1,55.0C37.0,55.2 37.1,55.2 36.9,55.5C36.7,55.8 36.6,55.9 36.4,56.2C36.1,56.5 36.0,56.6 35.8,56.8" fill="none" stroke="#fbbf24" stroke-width="0.6" stroke-linecap="round" stroke-linejoin="round" opacity="0.7"/>
  <ellipse cx="52.0" cy="59.8" rx="3.5" ry="3.6" fill="#0c0c0c" stroke="#ef4444" stroke-width="0.4" opacity="0.95"/>
  <text x="52.0" y="61.1" text-anchor="middle" font-family="sans-serif" font-size="3.4" font-weight="700" fill="#ffffff" opacity="0.95">OR</text>
</svg>