<svg xmlns="http://www.w3.org/2000/svg" viewBox="0 0 99.43728540069375 95.1338663837401" preserveAspectRatio="none">
  <path d="M74.9,33.2L74.8,33.1L74.8,33.1L74.7,33.0L74.7,32.9L74.6,32.8L74.5,32.7L74.4,32.6L74.2,32.6L74.1,32.5L73.9,32.3L73.7,32.2L73.5,32.0L73.3,31.8L73.1,31.6L72.9,31.4L72.8,31.2L72.6,31.1L72.4,30.9L72.3,30.8L72.1,30.8L72.0,30.7L71.9,30.6L71.7,30.5L71.6,30.4L71.5,30.3L71.3,30.2L71.1,30.0L70.8,29.8L70.6,29.7L70.4,29.6L70.2,29.5L70.0,29.4L69.8,29.3L69.7,29.2L69.5,29.2L69.3,29.1L69.1,29.0L68.9,28.9L68.7,28.7L68.5,28.5L68.3,28.3L68.0,28.2L67.8,28.0L67.6,27.8L67.4,27.7L67.2,27.6L67.0,27.6L66.9,27.6L66.7,27.6L66.5,27.6L66.3,27.5L66.1,27.4L65.9,27.2L65.7,27.1L65.4,27.0L65.2,26.9L65.0,26.7L64.8,26.6L64.5,26.4L64.3,26.2L64.0,26.1L63.8,26.0L63.6,25.9L63.4,25.8L63.2,25.7L63.0,25.7L62.8,25.6L62.6,25.5L62.3,25.4L62.1,25.3L61.8,25.2L61.5,25.0L61.2,24.9L61.0,24.8L60.7,24.7L60.5,24.6L60.3,24.5L60.1,24.5L59.9,24.4L59.6,24.3L59.4,24.2L59.2,24.1L58.9,24.0L58.7,23.8L58.4,23.6L58.2,23.5L58.0,23.4L57.7,23.4L57.5,23.3L57.2,23.2L57.0,23.2L56.8,23.1L56.5,23.0L56.3,23.0L56.1,22.9L55.8,22.8L55.6,22.8L55.4,22.7L55.2,22.6L54.9,22.6L54.7,22.5L54.5,22.4L54.3,22.4L54.1,22.3L53.9,22.2L53.8,22.2L53.7,22.2" fill="none" stroke="#ef4444" stroke-width="0.8" stroke-linecap="round" stroke-linejoin="round" opacity="0.9"/>
  <path d="M69.7,24.0L69.6,23.9L69.6,23.8L69.5,23.7L69.3,23.5L69.2,23.3L69.1,23.2L69.0,23.1L68.9,23.0L68.9,22.9L68.8,22.8L68.8,22.7L68.7,22.6L68.6,22.5L68.5,22.3L68.5,22.1L68.4,21.9L68.3,21.7L68.2,21.5L68.1,21.3L68.1,21.1L68.0,20.9L68.0,20.8L67.9,20.6L67.9,20.5L67.8,20.5L67.8,20.4L67.8,20.4" fill="none" stroke="#ef4444" stroke-width="0.8" stroke-linecap="round" stroke-linejoin="round" opacity="0.9"/>
  <path d="M82.4,16.7L82.5,16.6L82.5,16.6L82.6,16.5L82.7,16.3L82.8,16.2L82.9,16.0L82.9,15.8L83.0,15.6L83.0,15.4L83.0,15.2L83.1,15.1L83.2,14.9L83.2,14.8L83.3,14.7L83.3,14.6L83.4,14.5L83.4,14.3L83.5,14.1L83.5,13.9L83.5,13.7L83.6,13.5L83.6,13.3L83.7,13.2L83.7,13.1L83.7,13.0L83.8,12.9L83.8,12.9" fill="none" stroke="#ef4444" stroke-width="0.8" stroke-linecap="round" stroke-linejoin="round" opacity="0.9"/>
  <path d="M77.1,50.8L77.1,50.8L77.1,50.7L77.1,50.7L77.1,50.6L77.0,50.4L77.0,50.3L77.0,50.1L77.0,49.9L77.0,49.6L77.0,49.4L77.0,49.2L76.9,49.0L77.0,48.8L77.0,48.7L77.0,48.6L77.1,48.6L77.2,48.6L77.2,48.4L77.2,48.3L77.1,48.1L77.1,47.9L77.1,47.7L77.1,47.6L77.1,47.5L77.1,47.3L77.1,47.2L77.0,47.0L77.0,46.8L76.9,46.6L76.9,46.4L76.9,46.3L77.0,46.2L77.0,46.0L77.0,45.9L77.1,45.8L77.1,45.7L77.1,45.6L77.2,45.4L77.2,45.2L77.1,45.0L77.1,44.8L77.2,44.6L77.2,44.5L77.3,44.3L77.3,44.2L77.4,44.1L77.4,44.0L77.4,43.9L77.5,43.7L77.5,43.6L77.6,43.5L77.6,43.4L77.6,43.3L77.7,43.2L77.7,43.0L77.8,42.9L77.8,42.8L77.8,42.6L77.9,42.4L77.9,42.2L77.9,42.0L77.9,41.8L77.9,41.7L77.9,41.6L77.9,41.5L77.9,41.4L77.9,41.2L77.9,41.1L77.9,41.0L77.9,40.8L77.8,40.6L77.8,40.4L77.8,40.2L77.8,40.0L77.8,39.8L77.8,39.6L77.8,39.4L77.8,39.3L77.9,39.2L77.9,39.2L78.0,39.1L78.0,39.0L77.9,38.9L77.8,38.7L77.8,38.5L77.7,38.3L77.6,38.1L77.5,38.0L77.5,37.8L77.4,37.7L77.4,37.5L77.3,37.4L77.2,37.2L77.2,37.1L77.1,37.0L77.1,36.9L77.1,36.7L77.0,36.6L77.0,36.4L76.9,36.2L76.8,36.0L76.7,35.8L76.6,35.6L76.5,35.4L76.4,35.2L76.3,35.1L76.2,34.9L76.1,34.8L76.0,34.8L76.0,34.7L76.0,34.7" fill="none" stroke="#fbbf24" stroke-width="0.6" stroke-linecap="round" stroke-linejoin="round" opacity="0.7"/>
  <path d="M80.9,36.4L80.9,36.4L80.8,36.3L80.8,36.3L80.7,36.2L80.6,36.0L80.5,35.9L80.4,35.7L80.3,35.5L80.1,35.3L80.0,35.1L79.8,35.0L79.7,34.8L79.5,34.6L79.3,34.5L79.2,34.4L79.1,34.3L78.9,34.2L78.9,34.2L78.8,34.2L78.7,34.2L78.7,34.1L78.6,34.0L78.5,33.9L78.3,33.7L78.2,33.5L78.0,33.3L77.9,33.1L77.8,32.9L77.6,32.8L77.5,32.6L77.4,32.5L77.3,32.4L77.2,32.3L77.1,32.2L76.9,32.1L76.8,32.1L76.7,32.0L76.6,31.9L76.5,31.8L76.4,31.7L76.2,31.6L76.1,31.5L75.9,31.3L75.7,31.1L75.6,30.9L75.5,30.8L75.3,30.7L75.2,30.6L75.1,30.5L75.1,30.4L75.0,30.3L74.9,30.2L74.7,30.1L74.6,30.0L74.5,29.8L74.3,29.6L74.1,29.4L74.0,29.2L73.8,29.0L73.7,28.9L73.5,28.7L73.4,28.5L73.3,28.4L73.2,28.3L73.1,28.2L73.0,28.2L72.9,28.1L72.8,28.0L72.7,27.9L72.6,27.7L72.4,27.5L72.3,27.3L72.2,27.2L72.1,27.0L72.0,26.9L71.8,26.8L71.7,26.7L71.6,26.7L71.5,26.6L71.4,26.5L71.3,26.4L71.2,26.2L71.1,26.0L70.9,25.8L70.8,25.7L70.7,25.5L70.6,25.4L70.5,25.3L70.4,25.2L70.3,25.1L70.2,24.9L70.1,24.7L69.9,24.3L69.6,23.7L69.1,22.9L68.6,21.9L68.2,21.1L67.9,20.5L67.8,20.2L67.7,20.1L67.7,20.0L67.7,19.8L67.6,19.6L67.6,19.4L67.6,19.2L67.6,19.0L67.5,18.8L67.5,18.6L67.5,18.4L67.5,18.3L67.5,18.2L67.6,18.2L67.7,18.1L67.7,18.0L67.7,17.9L67.6,17.6L67.6,17.4L67.6,17.2L67.6,17.1L67.6,16.9L67.6,16.7L67.7,16.6L67.7,16.4L67.7,16.2L67.7,16.1L67.8,16.0L67.8,16.0L67.9,15.9L68.0,15.9L68.1,15.9L68.1,15.9" fill="none" stroke="#fbbf24" stroke-width="0.6" stroke-linecap="round" stroke-linejoin="round" opacity="0.7"/>
  <path d="M70.3,9.3L70.3,9.3L70.3,9.2L70.4,9.1L70.5,9.0L70.5,8.9L70.6,8.7L70.7,8.6L70.8,8.5L70.8,8.4L70.9,8.2L71.0,8.1L71.1,8.0L71.2,7.8L71.3,7.7L71.4,7.6L71.5,7.5L71.6,7.3L71.7,7.2L71.8,7.1L71.9,7.0L71.9,6.8L72.0,6.7L72.0,6.6L72.1,6.5L72.1,6.4L72.2,6.3L72.2,6.3" fill="none" stroke="#fbbf24" stroke-width="0.6" stroke-linecap="round" stroke-linejoin="round" opacity="0.7"/>
  <path d="M82.5,38.3L82.6,38.3L82.7,38.3L82.8,38.2L83.0,38.2L83.2,38.2L83.4,38.1L83.5,38.1L83.7,38.1L83.9,38.0L84.1,38.0L84.3,38.0L84.5,37.9L84.7,37.9L84.9,37.8L85.1,37.8L85.3,37.8L85.5,37.8L85.7,37.8L85.9,37.8L86.1,37.9L86.4,37.9L86.6,37.9L86.8,37.9L87.0,37.9L87.3,37.8L87.5,37.8L87.6,37.8L87.8,37.7L88.0,37.7L88.2,37.6L88.4,37.6L88.6,37.6L88.8,37.5L88.9,37.5L88.9,37.5" fill="none" stroke="#fbbf24" stroke-width="0.6" stroke-linecap="round" stroke-linejoin="round" opacity="0.7"/>
  <path d="M66.2,24.7L66.2,24.6L66.3,24.6L66.4,24.5L66.5,24.3L66.6,24.2L66.7,24.1L66.9,23.9L67.0,23.8L67.1,23.7L67.2,23.5L67.4,23.4L67.5,23.2L67.6,23.1L67.8,23.0L67.9,22.8L68.0,22.7L68.1,22.6L68.3,22.5L68.5,22.5L68.7,22.4L68.9,22.4L69.1,22.3L69.3,22.2L69.5,22.1L69.7,22.0L69.9,21.9L70.1,21.8L70.3,21.7L70.5,21.6L70.6,21.5L70.8,21.4L71.0,21.3L71.2,21.1L71.3,21.0L71.5,20.8L71.7,20.7L71.9,20.6L72.0,20.5L72.3,20.4L72.5,20.4L72.7,20.3L72.9,20.3L73.1,20.2L73.3,20.2L73.5,20.2L73.8,20.1L74.0,20.1L74.2,20.0L74.5,20.0L74.7,19.9L75.0,19.9L75.2,19.8L75.4,19.8L75.7,19.7L75.9,19.7L76.1,19.7L76.3,19.6L76.6,19.6L76.8,19.5L77.0,19.5L77.2,19.5L77.4,19.5L77.7,19.4L77.9,19.5L78.2,19.5L78.4,19.5L78.7,19.5L78.9,19.5L79.2,19.5L79.4,19.4L79.7,19.4L79.9,19.4L80.2,19.3L80.4,19.4L80.6,19.4L80.8,19.5L81.0,19.5L81.2,19.5L81.4,19.5L81.7,19.5L81.9,19.5L82.1,19.5L82.4,19.5L82.7,19.5L83.0,19.6L83.2,19.6L83.5,19.6L83.6,19.5L83.8,19.5L84.0,19.5L84.2,19.4L84.4,19.4L84.7,19.4L84.9,19.4L85.1,19.4L85.3,19.5L85.5,19.6L85.6,19.6L85.8,19.7L86.0,19.8L86.1,19.9L86.3,20.0L86.5,20.1L86.6,20.3L86.8,20.4L87.0,20.5L87.2,20.6L87.4,20.8L87.5,20.9L87.7,20.9L87.8,20.9L88.0,20.9L88.1,20.9L88.3,20.9L88.4,21.0L88.6,21.1L88.8,21.1L88.9,21.2L89.0,21.3L89.1,21.4L89.2,21.5L89.4,21.7L89.5,21.8L89.6,22.0L89.7,22.2L89.8,22.3L89.8,22.3" fill="none" stroke="#fbbf24" stroke-width="0.6" stroke-linecap="round" stroke-linejoin="round" opacity="0.7"/>
  <path d="M74.8,22.6L74.9,22.5L75.0,22.4L75.1,22.3L75.2,22.2L75.4,22.1L75.5,21.9L75.7,21.8L75.8,21.6L76.0,21.5L76.2,21.4L76.3,21.2L76.5,21.1L76.6,21.0L76.8,20.9L77.0,20.8L77.2,20.8L77.5,20.7L77.7,20.7L77.8,20.7L78.0,20.6L78.2,20.6L78.4,20.5L78.6,20.4L78.7,20.3L78.9,20.3L79.1,20.2L79.2,20.1L79.4,20.0L79.5,19.9L79.7,19.8L79.8,19.7L79.9,19.5L80.0,19.4L80.2,19.3L80.3,19.1L80.5,19.0L80.6,18.8L80.8,18.7L80.9,18.6L81.0,18.4L81.1,18.3L81.3,18.2L81.4,18.0L81.5,17.9L81.6,17.8L81.7,17.6L81.8,17.5L81.9,17.4L82.1,16.9L82.4,16.1L82.8,14.9L83.2,13.4L83.6,12.2L83.9,11.4L84.1,10.9L84.2,10.8L84.3,10.6L84.4,10.5L84.5,10.4L84.6,10.2L84.7,10.1L84.8,10.1L84.9,10.0L85.1,10.0L85.2,9.9L85.3,9.8L85.3,9.7L85.4,9.5L85.5,9.3L85.5,9.1L85.6,9.0L85.7,8.8L85.7,8.7L85.8,8.6L85.8,8.5" fill="none" stroke="#fbbf24" stroke-width="0.6" stroke-linecap="round" stroke-linejoin="round" opacity="0.7"/>
  <path d="M27.9,36.4L27.9,36.4L27.9,36.3L27.9,36.1L27.8,35.9L27.8,35.7L27.8,35.6L27.8,35.4L27.9,35.3L27.9,35.2L28.0,35.1L28.0,34.9L28.0,34.8L28.1,34.7L28.1,34.6L28.1,34.5L28.1,34.4L28.2,34.2L28.2,34.1L28.2,33.9L28.2,33.8L28.3,33.6L28.3,33.4L28.3,33.2L28.4,33.1L28.4,32.9L28.5,32.8L28.5,32.6L28.6,32.5L28.7,32.4L28.8,32.2L28.9,32.1L28.9,32.0L29.0,31.8L29.1,31.7L29.1,31.5L29.1,31.2L29.2,31.0L29.3,30.9L29.4,30.7L29.5,30.6L29.6,30.4L29.7,30.3L29.8,30.2L29.9,30.0L30.0,29.9L30.0,29.8L30.1,29.7L30.2,29.6L30.2,29.4L30.3,29.3L30.3,29.2L30.3,29.1L30.4,29.0L30.4,28.9L30.4,28.9" fill="none" stroke="#fbbf24" stroke-width="0.6" stroke-linecap="round" stroke-linejoin="round" opacity="0.7"/>
  <ellipse cx="44.5" cy="31.3" rx="3.5" ry="2.2" fill="#0c0c0c" stroke="#ef4444" stroke-width="0.4" opacity="0.95"/>
  <text x="44.5" y="32.2" text-anchor="middle" font-family="sans-serif" font-size="2.4" font-weight="700" fill="#ffffff" opacity="0.95">OR</text>
</svg>