<svg xmlns="http://www.w3.org/2000/svg" viewBox="0 0 106.14050285055407 102.1169759827725" preserveAspectRatio="none">
  <path d="M72.2,76.0L72.1,76.5L70.8,77.0L70.0,77.5L69.3,77.9L68.5,78.5L67.8,78.9L67.1,79.4L66.3,80.0L65.0,80.4L64.2,80.9L64.1,81.6L63.3,82.1L62.6,82.6L61.2,83.0L60.5,83.5" fill="none" stroke="#ef4444" stroke-width="0.8" stroke-linecap="round" opacity="0.9"/>
  <path d="M49.7,76.6L49.0,76.9L48.2,77.4L47.5,77.8L46.8,78.2L45.4,78.5L44.7,79.0L44.6,79.6L43.2,80.1L42.5,80.6L41.7,81.2L41.0,81.8L40.8,82.5L40.1,83.1L38.7,83.6L37.9,84.2L37.1,84.9L37.0,85.6L36.2,86.3L35.5,86.8L34.7,87.5L33.9,88.3L32.5,88.8L32.4,89.4L31.7,89.9L30.9,90.4L30.2,91.0" fill="none" stroke="#ef4444" stroke-width="0.8" stroke-linecap="round" opacity="0.9"/>
  <path d="M7.1,94.3L7.0,94.9L7.5,95.7L8.0,96.3L7.9,96.9L7.7,97.6L8.2,98.2L8.7,98.9L9.3,99.5L9.2,100.1L9.7,100.8L10.2,101.4" fill="none" stroke="#ef4444" stroke-width="0.8" stroke-linecap="round" opacity="0.9"/>
  <path d="M25.2,77.2L24.4,77.6L23.7,78.2L22.3,78.7L22.2,79.2L21.5,79.7L20.7,80.3L19.9,80.9L19.8,81.6L19.0,82.2L18.3,82.8L17.5,83.4L16.8,84.1L16.6,84.8L15.8,85.5L15.7,86.2L14.9,86.9L14.2,87.6L13.4,88.3L12.6,89.0L12.5,89.5L12.4,90.1" fill="none" stroke="#ef4444" stroke-width="0.8" stroke-linecap="round" opacity="0.9"/>
  <path d="M61.8,77.0L61.6,77.7L61.5,78.3L61.4,79.1L61.2,79.8L61.1,80.5L61.0,81.2L60.8,81.9L61.3,82.7L61.2,83.3L61.0,84.1L60.9,84.8L60.8,85.5L61.3,86.2L60.5,86.8L60.4,87.5L60.2,88.2L59.5,88.7" fill="none" stroke="#ef4444" stroke-width="0.8" stroke-linecap="round" opacity="0.9"/>
  <path d="M30.6,26.0L29.3,25.9L28.1,25.6L27.5,25.5L26.2,25.4L25.0,25.2L24.4,25.0L23.8,24.8L22.5,24.7" fill="none" stroke="#ef4444" stroke-width="0.8" stroke-linecap="round" opacity="0.9"/>
  <path d="M80.9,70.8L80.8,71.3L80.1,71.7L79.4,72.1L79.3,72.5L78.6,72.9L77.3,73.2L76.5,73.6L75.8,74.0L75.7,74.5L75.0,74.8L73.7,75.2L73.0,75.6" fill="none" stroke="#fbbf24" stroke-width="0.6" stroke-linecap="round" opacity="0.7"/>
  <path d="M13.4,84.8L12.7,85.2L12.0,85.6L11.3,85.9L10.6,86.3L9.8,86.6L9.7,87.2L9.0,87.6L8.9,88.2L8.2,88.6L7.5,89.0L7.3,89.6L7.2,90.1L7.1,90.7L7.0,91.3L6.9,91.8L6.8,92.5L6.7,93.0L7.2,93.7" fill="none" stroke="#fbbf24" stroke-width="0.6" stroke-linecap="round" opacity="0.7"/>
  <path d="M58.7,92.9L59.4,92.7L60.7,92.6L61.4,92.3L62.1,92.0L62.2,91.5L63.5,91.3L64.2,91.0L64.3,90.5" fill="none" stroke="#fbbf24" stroke-width="0.6" stroke-linecap="round" opacity="0.7"/>
  <path d="M21.5,86.3L20.8,86.5L20.1,86.8L20.0,87.1L19.3,87.3L18.0,87.6L17.3,87.9L15.9,88.3L15.2,88.6L14.6,88.7L13.3,88.8L12.6,88.9L12.6,89.2L11.3,89.3L10.6,89.5L9.3,89.6L9.2,89.8" fill="none" stroke="#fbbf24" stroke-width="0.6" stroke-linecap="round" opacity="0.7"/>
  <path d="M83.1,72.9L83.6,73.5L83.5,74.0L84.0,74.7L83.9,75.3L84.4,76.0L84.3,76.6L84.2,77.2L84.7,77.9L84.6,78.5L85.1,79.2L85.0,79.9L84.9,80.4L84.7,81.0L84.6,81.7L84.5,82.3L85.0,83.0L84.9,83.6L85.4,84.3L85.3,84.9L85.1,85.5L85.0,86.1L85.5,86.8L85.4,87.5L85.3,88.1L85.2,88.8L85.7,89.4L85.5,90.1L85.4,90.7L85.3,91.3L85.8,92.0L85.1,92.6L85.6,93.3L85.4,93.9L85.3,94.5L85.2,95.2L85.1,95.8L85.0,96.4L84.8,97.0L84.7,97.6L84.6,98.2L84.5,98.8L84.4,99.4L84.3,99.9L84.2,100.5L84.7,101.1" fill="none" stroke="#fbbf24" stroke-width="0.6" stroke-linecap="round" opacity="0.7"/>
  <path d="M65.0,80.2L64.9,80.7L64.2,81.3L64.0,81.8L63.9,82.3L63.8,82.9L63.7,83.5L63.0,83.9L62.3,84.4L61.5,84.8L60.8,85.3L60.7,85.8L60.0,86.2L59.9,86.7" fill="none" stroke="#fbbf24" stroke-width="0.6" stroke-linecap="round" opacity="0.7"/>
  <path d="M30.1,74.9L29.4,75.2L28.7,75.5L28.0,75.7L27.3,76.0L26.0,76.4L25.2,76.8" fill="none" stroke="#fbbf24" stroke-width="0.6" stroke-linecap="round" opacity="0.7"/>
  <path d="M34.8,96.8L35.3,97.4L35.9,97.9L35.8,98.6L35.7,99.2L36.2,99.9L36.0,100.6L35.9,101.2" fill="none" stroke="#fbbf24" stroke-width="0.6" stroke-linecap="round" opacity="0.7"/>
  <path d="M34.2,66.8L34.1,67.3L34.0,67.8L33.9,68.4L33.8,69.0L33.1,69.5L33.0,70.0L32.9,70.6L32.8,71.1L32.0,71.6L31.9,72.0L31.2,72.5L31.1,73.0L30.4,73.4" fill="none" stroke="#fbbf24" stroke-width="0.6" stroke-linecap="round" opacity="0.7"/>
  <path d="M43.0,71.2L42.3,71.4L41.7,71.5L41.0,71.6L39.7,71.6L39.7,71.8L39.0,72.0L37.7,72.2L37.0,72.5L36.3,72.7L35.6,73.0L34.9,73.3L34.2,73.6L33.5,74.0L32.8,74.4L32.0,74.8L32.0,75.2L31.9,75.8L31.1,76.2L30.4,76.7L30.3,77.2L29.9,77.7L29.5,78.2L29.3,78.8L29.2,79.3L29.1,79.8L29.0,80.3" fill="none" stroke="#fbbf24" stroke-width="0.6" stroke-linecap="round" opacity="0.7"/>
  <path d="M43.6,71.6L44.1,72.1L44.0,72.6L43.9,73.2L44.4,73.7L44.7,74.3L44.9,74.9L45.4,75.4L45.3,75.9L45.2,76.5L45.7,77.0L46.3,77.6L46.8,78.2L47.3,78.7L47.8,79.3L48.1,79.8L48.3,80.4L48.8,80.9L49.4,81.4L49.9,81.9L50.5,82.4L51.0,82.9L50.9,83.6L51.4,84.2" fill="none" stroke="#fbbf24" stroke-width="0.6" stroke-linecap="round" opacity="0.7"/>
  <path d="M50.7,94.3L51.3,94.5L51.9,94.8L52.8,95.0L53.8,95.1L54.4,95.2L55.0,95.2L56.3,95.4L56.9,95.5L58.2,95.5L58.8,95.5L59.5,95.4L60.8,95.5L61.7,95.4L62.7,95.3L63.4,95.2L64.7,95.1L65.3,95.0L66.0,94.9L66.7,94.8L68.0,94.7L68.6,94.5L69.3,94.2L70.3,94.1L71.3,93.9L72.0,93.6L72.1,93.3L72.8,92.9L74.1,92.6L74.8,92.3L75.6,92.0L75.6,91.5L76.4,91.1L76.8,90.7L77.2,90.3L77.9,89.9L78.6,89.5L78.7,89.0" fill="none" stroke="#fbbf24" stroke-width="0.6" stroke-linecap="round" opacity="0.7"/>
  <path d="M72.3,82.2L71.0,82.4L70.9,82.8L70.2,83.1L69.5,83.5L68.8,83.7L68.1,84.1L67.7,84.5L66.6,85.3L65.9,85.6L65.2,85.9L64.5,86.3L63.7,86.7L63.0,87.0L63.0,87.4L62.3,87.7L61.2,88.0L60.2,88.3L59.5,88.6L59.5,88.9L58.1,89.1L57.5,89.3" fill="none" stroke="#fbbf24" stroke-width="0.6" stroke-linecap="round" opacity="0.7"/>
  <path d="M40.9,88.4L42.2,88.7L42.8,89.0L42.7,89.2L43.6,89.4L44.5,89.7L48.1,91.5L49.3,91.9L49.2,92.2L49.8,92.6L50.3,93.0L50.9,93.4L51.4,93.9L52.0,94.4L51.9,95.0L52.4,95.5L52.9,96.0L53.5,96.6L54.0,97.2L54.2,97.8L54.4,98.3L55.0,98.8L55.5,99.4L56.0,100.0L56.6,100.5L57.1,101.1L57.0,101.5" fill="none" stroke="#fbbf24" stroke-width="0.6" stroke-linecap="round" opacity="0.7"/>
  <path d="M64.3,93.8L65.0,93.6L65.4,93.2L65.8,92.9L66.5,92.5L67.2,92.2L67.9,91.9" fill="none" stroke="#fbbf24" stroke-width="0.6" stroke-linecap="round" opacity="0.7"/>
  <path d="M51.5,60.2L51.4,60.8L51.3,61.3L51.2,61.8L51.1,62.3L51.7,63.0L51.5,63.6L52.1,64.2L51.9,64.8L52.5,65.5L52.3,66.1L52.8,66.8L53.4,67.3L53.6,67.9L53.8,68.5L53.7,69.1L54.2,69.8L54.7,70.4L55.2,71.0L55.1,71.6L55.7,72.2L56.2,72.7L56.1,73.2L56.3,73.7L56.5,74.2L57.1,74.8" fill="none" stroke="#fbbf24" stroke-width="0.6" stroke-linecap="round" opacity="0.7"/>
  <path d="M62.6,72.8L62.5,73.3L62.4,73.8L62.3,74.5L62.2,75.0L62.0,75.7L61.9,76.3" fill="none" stroke="#fbbf24" stroke-width="0.6" stroke-linecap="round" opacity="0.7"/>
  <path d="M67.0,63.4L67.2,63.7L67.5,64.1L68.7,64.5L69.3,64.9L69.8,65.5L70.4,65.9L70.9,66.4L70.8,66.9L71.3,67.4L71.9,68.0L72.4,68.6L72.9,69.2L72.8,69.7L73.4,70.2L73.3,70.7L73.8,71.3L73.7,71.7" fill="none" stroke="#fbbf24" stroke-width="0.6" stroke-linecap="round" opacity="0.7"/>
  <path d="M23.7,48.3L23.6,48.8L24.1,49.5L24.6,50.1L25.8,50.6L26.4,51.0L26.9,51.4L26.9,51.8L27.4,52.3L28.6,52.7L29.2,53.0L29.8,53.3L30.4,53.7L31.6,54.0L32.2,54.1L32.8,54.1" fill="none" stroke="#fbbf24" stroke-width="0.6" stroke-linecap="round" opacity="0.7"/>
  <path d="M57.2,54.5L58.5,54.2L59.2,53.9L59.9,53.5L60.6,53.1L61.4,52.7L62.1,52.3L62.8,51.9L63.5,51.5L63.6,51.1L65.0,50.7L65.0,50.2L65.7,49.9L67.1,49.7" fill="none" stroke="#fbbf24" stroke-width="0.6" stroke-linecap="round" opacity="0.7"/>
  <path d="M38.1,26.9L36.9,26.8L36.2,26.8L35.0,26.6L34.0,26.4L33.1,26.3L32.5,26.2L31.9,26.1L22.5,24.7L21.9,24.7L21.2,24.6L20.0,24.4L18.8,24.2L18.7,24.3L17.5,24.2L16.2,24.1L15.6,24.0L15.0,24.0L14.3,24.0L13.0,23.9L12.4,23.9L11.8,23.9L11.1,23.8" fill="none" stroke="#fbbf24" stroke-width="0.6" stroke-linecap="round" opacity="0.7"/>
  <circle cx="48.6" cy="73.8" r="2" fill="#ffffff" stroke="#ef4444" stroke-width="0.5" opacity="0.9"/>
</svg>