<svg xmlns="http://www.w3.org/2000/svg" viewBox="0 0 99.43728540069375 95.1338663837401" preserveAspectRatio="none">
  <path d="M24.6,33.2L24.9,32.8L25.4,32.4L26.2,31.7L27.0,31.0L27.5,30.6L28.0,30.3L28.9,29.6L29.7,29.3L30.4,29.0L31.3,28.3L32.2,27.5L32.8,27.7L33.7,27.2L34.5,26.7L35.5,26.0L36.3,25.7L37.2,25.4L38.4,24.8L39.2,24.5L40.1,24.2L41.1,23.5L42.1,23.3L43.0,23.0L43.9,22.7L44.8,22.5L45.7,22.2" fill="none" stroke="#ef4444" stroke-width="0.8" stroke-linecap="round" opacity="0.9"/>
  <path d="M29.8,24.0L30.3,23.2L30.6,22.8L30.8,22.4L31.2,21.6L31.4,20.8L31.6,20.4" fill="none" stroke="#ef4444" stroke-width="0.8" stroke-linecap="round" opacity="0.9"/>
  <path d="M17.0,16.7L16.5,16.1L16.4,15.2L16.2,14.8L16.0,14.3L15.8,13.4L15.7,12.9" fill="none" stroke="#ef4444" stroke-width="0.8" stroke-linecap="round" opacity="0.9"/>
  <path d="M22.3,50.8L22.4,50.4L22.5,49.5L22.5,48.7L22.2,48.6L22.4,47.7L22.3,47.3L22.5,46.5L22.4,46.0L22.3,45.5L22.3,44.6L22.1,44.2L21.9,43.7L21.8,43.2L21.6,42.7L21.6,41.9L21.6,41.4L21.6,41.0L21.6,40.1L21.7,39.2L21.4,39.2L21.7,38.3L22.0,37.7L22.2,37.1L22.4,36.7L22.6,35.9L23.2,35.1L23.5,34.7" fill="none" stroke="#fbbf24" stroke-width="0.6" stroke-linecap="round" opacity="0.7"/>
  <path d="M18.5,36.4L18.9,36.0L19.3,35.2L20.0,34.5L20.6,34.2L20.8,34.2L21.3,33.4L21.9,32.6L22.3,32.3L22.8,31.9L23.3,31.6L23.9,30.8L24.3,30.5L24.7,30.1L25.4,29.3L26.0,28.6L26.4,28.2L26.8,27.8L27.3,27.1L27.8,26.7L28.2,26.3L28.7,25.6L29.0,25.2L29.5,24.4L31.6,20.4L31.7,20.0L31.9,19.1L32.0,18.2L31.7,18.2L31.8,17.3L31.8,16.6L31.7,16.0L31.4,15.9" fill="none" stroke="#fbbf24" stroke-width="0.6" stroke-linecap="round" opacity="0.7"/>
  <path d="M29.2,9.3L28.9,8.8L28.6,8.3L28.1,7.8L27.7,7.3L27.5,6.8L27.3,6.3" fill="none" stroke="#fbbf24" stroke-width="0.6" stroke-linecap="round" opacity="0.7"/>
  <path d="M16.9,38.3L16.2,38.2L15.4,38.0L14.6,37.9L13.9,37.7L12.9,38.0L12.1,37.8L11.3,37.7L10.5,37.5" fill="none" stroke="#fbbf24" stroke-width="0.6" stroke-linecap="round" opacity="0.7"/>
  <path d="M33.3,24.7L32.8,24.1L32.3,23.6L31.7,23.0L31.3,22.5L30.4,22.3L29.6,22.0L28.9,21.6L28.2,21.0L27.5,20.5L26.6,20.3L25.8,20.1L24.8,20.0L23.9,19.8L23.0,19.6L22.2,19.4L21.1,19.5L20.1,19.5L19.1,19.3L18.3,19.6L17.5,19.4L16.3,19.6L15.5,19.5L14.7,19.3L13.9,19.6L13.2,19.9L12.5,20.5L11.8,21.0L11.3,20.9L10.6,21.2L10.2,21.5L9.6,22.3" fill="none" stroke="#fbbf24" stroke-width="0.6" stroke-linecap="round" opacity="0.7"/>
  <path d="M24.6,22.6L24.0,22.0L23.4,21.4L22.7,20.9L21.9,20.7L21.1,20.6L20.5,20.2L19.8,19.9L19.4,19.3L18.7,18.8L18.2,18.2L17.8,17.7L17.4,17.2L15.5,11.1L15.0,10.6L14.7,10.0L14.2,10.0L13.9,9.2L13.7,8.5" fill="none" stroke="#fbbf24" stroke-width="0.6" stroke-linecap="round" opacity="0.7"/>
  <path d="M71.5,36.4L71.7,35.6L71.5,35.1L71.3,34.6L71.3,34.2L71.1,33.5L71.0,32.8L70.7,32.3L70.4,31.8L70.3,30.9L69.7,30.4L69.4,29.9L69.2,29.4L69.0,28.9" fill="none" stroke="#fbbf24" stroke-width="0.6" stroke-linecap="round" opacity="0.7"/>
  <circle cx="54.9" cy="31.3" r="2" fill="#ffffff" stroke="#ef4444" stroke-width="0.5" opacity="0.9"/>
</svg>