<svg xmlns="http://www.w3.org/2000/svg" viewBox="0 0 106.14050285055407 102.1169759827725" preserveAspectRatio="none">
  <path d="M39.1,58.1L38.6,57.5L38.7,56.8L38.2,56.2L38.3,55.5L37.2,54.8L37.3,54.2L36.8,53.5L36.3,52.9L36.4,52.2L36.6,51.5L36.7,50.9" fill="none" stroke="#ef4444" stroke-width="0.8" stroke-linecap="round" opacity="0.9"/>
  <path d="M59.6,41.7L59.1,41.0L59.3,40.3L59.4,39.6L59.5,39.0L59.7,38.3L59.5,37.6L59.3,36.9L59.4,36.3L59.5,35.7" fill="none" stroke="#ef4444" stroke-width="0.8" stroke-linecap="round" opacity="0.9"/>
  <path d="M35.3,44.7L34.8,44.1L34.9,43.5L34.4,42.8L34.5,42.2L34.0,41.5L33.5,40.7L33.0,39.9L33.1,39.3L32.6,38.6L32.8,37.8L32.3,37.2L31.8,36.5L31.9,35.8L31.4,35.1L30.9,34.4L30.7,33.7L30.5,33.0L30.6,32.4L30.7,31.8L30.2,31.2" fill="none" stroke="#ef4444" stroke-width="0.8" stroke-linecap="round" opacity="0.9"/>
  <path d="M32.0,25.6L32.1,25.0L32.2,24.5L32.9,24.0L33.3,23.5L33.8,22.9L33.9,22.4L34.0,21.8L34.7,21.3L34.8,20.8L34.9,20.2L35.7,19.7L35.8,19.3" fill="none" stroke="#fbbf24" stroke-width="0.6" stroke-linecap="round" opacity="0.7"/>
  <path d="M41.4,30.0L41.5,29.5L41.3,28.9L41.1,28.3L41.2,27.7L41.3,27.2L41.4,26.6L41.5,26.1L41.0,25.5L41.1,25.0L40.5,24.4L40.0,23.9L39.5,23.4L38.9,22.8L39.0,22.4L38.5,21.8L38.0,21.2L37.4,20.6L36.9,20.0L37.0,19.5L36.5,19.0L36.6,18.4L36.3,17.9L36.1,17.4L35.6,16.8" fill="none" stroke="#fbbf24" stroke-width="0.6" stroke-linecap="round" opacity="0.7"/>
  <path d="M70.0,57.9L68.7,58.0L68.6,58.1L67.4,58.2L66.7,58.3L65.4,58.3L64.7,58.5L64.0,58.7L62.7,58.8L62.1,58.9L61.4,59.2L60.7,59.4L60.0,59.7L58.6,60.0L58.6,60.4L57.9,60.8L57.1,61.2L56.4,61.6L55.1,62.0L55.0,62.4L54.2,62.9L54.2,63.3L53.4,63.7" fill="none" stroke="#fbbf24" stroke-width="0.6" stroke-linecap="round" opacity="0.7"/>
  <path d="M42.8,62.5L42.2,62.0L41.7,61.5L41.8,61.0L41.2,60.5L40.7,59.9L40.2,59.3L39.7,58.7" fill="none" stroke="#fbbf24" stroke-width="0.6" stroke-linecap="round" opacity="0.7"/>
  <path d="M61.4,15.9L61.5,15.5L62.2,15.1L63.0,14.6L63.7,14.2L64.4,13.8" fill="none" stroke="#fbbf24" stroke-width="0.6" stroke-linecap="round" opacity="0.7"/>
  <path d="M70.1,37.4L71.4,37.3L72.0,37.3L72.7,37.3L73.9,37.5L74.6,37.6L75.5,37.8L76.4,38.0L77.0,38.2L77.6,38.4L78.9,38.6L79.5,38.8" fill="none" stroke="#fbbf24" stroke-width="0.6" stroke-linecap="round" opacity="0.7"/>
  <path d="M61.6,48.0L61.1,47.4L61.2,46.9L61.3,46.3L61.1,45.7L60.9,45.1L60.4,44.4L60.5,43.8L60.0,43.1L59.5,42.4" fill="none" stroke="#fbbf24" stroke-width="0.6" stroke-linecap="round" opacity="0.7"/>
  <path d="M60.4,30.9L59.9,30.4L59.4,30.0L58.8,29.5L58.2,29.0L58.0,28.6L57.8,28.1" fill="none" stroke="#fbbf24" stroke-width="0.6" stroke-linecap="round" opacity="0.7"/>
  <path d="M54.8,23.9L54.9,23.4L54.3,22.7L53.8,22.2L53.9,21.6L53.4,20.9L53.5,20.4L53.0,19.8L53.0,19.5L53.1,19.2L52.7,18.1L52.7,17.7L52.2,17.3L51.6,16.9L50.4,16.3L50.5,16.0" fill="none" stroke="#fbbf24" stroke-width="0.6" stroke-linecap="round" opacity="0.7"/>
  <path d="M89.1,51.8L89.8,51.4L90.5,51.2L91.2,51.0L92.5,50.8L93.2,50.5L93.6,50.2" fill="none" stroke="#fbbf24" stroke-width="0.6" stroke-linecap="round" opacity="0.7"/>
  <path d="M37.7,48.7L37.2,48.3L37.3,47.7L37.1,47.2L36.9,46.6L36.4,45.9L35.8,45.3" fill="none" stroke="#fbbf24" stroke-width="0.6" stroke-linecap="round" opacity="0.7"/>
  <circle cx="52.0" cy="42.4" r="2" fill="#ffffff" stroke="#ef4444" stroke-width="0.5" opacity="0.9"/>
</svg>