<svg xmlns="http://www.w3.org/2000/svg" viewBox="0 0 106.14050285055407 102.1169759827725" preserveAspectRatio="none">
  <path d="M72.2,26.1C72.2,26.0 72.5,25.8 72.1,25.6C71.8,25.3 71.3,25.4 70.8,25.1C70.2,24.9 70.4,24.9 70.0,24.6C69.7,24.4 69.7,24.4 69.3,24.2C68.9,23.9 68.9,23.9 68.5,23.7C68.2,23.4 68.2,23.4 67.8,23.2C67.4,22.9 67.4,22.9 67.1,22.7C66.7,22.4 66.9,22.4 66.3,22.2C65.8,21.9 65.5,22.0 65.0,21.7C64.4,21.5 64.4,21.5 64.2,21.2C64.0,20.9 64.3,20.8 64.1,20.5C63.9,20.2 63.7,20.2 63.3,20.0C63.0,19.7 63.1,19.7 62.6,19.5C62.1,19.3 61.8,19.3 61.2,19.1C60.7,18.9 60.7,18.7 60.5,18.6" fill="none" stroke="#ef4444" stroke-width="0.8" stroke-linecap="round" stroke-linejoin="round" opacity="0.9"/>
  <path d="M49.7,25.5C49.5,25.5 49.3,25.4 49.0,25.2C48.6,25.0 48.6,25.0 48.2,24.7C47.9,24.5 47.9,24.5 47.5,24.3C47.1,24.1 47.3,24.1 46.8,23.9C46.3,23.7 45.9,23.8 45.4,23.6C44.9,23.4 44.9,23.4 44.7,23.1C44.5,22.9 45.0,22.8 44.6,22.5C44.2,22.2 43.7,22.3 43.2,22.1C42.7,21.8 42.8,21.8 42.5,21.5C42.1,21.2 42.1,21.2 41.7,20.9C41.3,20.6 41.2,20.7 41.0,20.4C40.7,20.0 41.0,20.0 40.8,19.6C40.6,19.3 40.6,19.3 40.1,19.0C39.5,18.8 39.2,18.8 38.7,18.5C38.1,18.2 38.3,18.2 37.9,17.9C37.5,17.6 37.4,17.6 37.1,17.3C36.9,16.9 37.2,16.9 37.0,16.5C36.8,16.2 36.6,16.2 36.2,15.9C35.9,15.6 35.9,15.6 35.5,15.3C35.1,15.0 35.1,15.0 34.7,14.6C34.3,14.2 34.5,14.1 33.9,13.8C33.4,13.5 32.9,13.6 32.5,13.3C32.2,13.0 32.6,13.0 32.4,12.7C32.2,12.5 32.1,12.5 31.7,12.3C31.3,12.0 31.3,12.0 30.9,11.7C30.6,11.4 30.4,11.3 30.2,11.1" fill="none" stroke="#ef4444" stroke-width="0.8" stroke-linecap="round" stroke-linejoin="round" opacity="0.9"/>
  <path d="M7.1,7.8C7.0,7.7 6.9,7.5 7.0,7.2C7.0,6.8 7.2,6.8 7.5,6.5C7.7,6.1 7.9,6.1 8.0,5.8C8.1,5.5 7.9,5.5 7.9,5.2C7.8,4.9 7.6,4.9 7.7,4.5C7.8,4.2 8.0,4.2 8.2,3.9C8.5,3.5 8.5,3.5 8.7,3.2C9.0,2.8 9.2,2.9 9.3,2.6C9.4,2.3 9.1,2.3 9.2,2.0C9.3,1.7 9.4,1.7 9.7,1.4C9.9,1.0 10.1,0.9 10.2,0.7" fill="none" stroke="#ef4444" stroke-width="0.8" stroke-linecap="round" stroke-linejoin="round" opacity="0.9"/>
  <path d="M25.2,24.9C25.0,24.8 24.8,24.7 24.4,24.5C24.1,24.2 24.2,24.2 23.7,23.9C23.2,23.7 22.7,23.7 22.3,23.5C21.9,23.2 22.4,23.2 22.2,22.9C22.0,22.6 21.8,22.6 21.5,22.4C21.1,22.1 21.1,22.1 20.7,21.8C20.3,21.5 20.2,21.5 19.9,21.2C19.7,20.9 20.0,20.9 19.8,20.5C19.6,20.2 19.4,20.2 19.0,19.9C18.7,19.6 18.7,19.6 18.3,19.3C17.9,19.0 17.9,19.0 17.5,18.7C17.1,18.4 17.0,18.3 16.8,18.0C16.5,17.6 16.8,17.7 16.6,17.3C16.4,17.0 16.1,17.0 15.8,16.6C15.6,16.3 15.9,16.3 15.7,16.0C15.5,15.6 15.3,15.6 14.9,15.2C14.5,14.9 14.5,14.9 14.2,14.6C13.8,14.2 13.8,14.2 13.4,13.8C13.0,13.5 12.8,13.5 12.6,13.2C12.4,12.8 12.5,12.9 12.5,12.6C12.4,12.3 12.4,12.1 12.4,12.0" fill="none" stroke="#ef4444" stroke-width="0.8" stroke-linecap="round" stroke-linejoin="round" opacity="0.9"/>
  <path d="M61.8,25.1C61.7,25.0 61.7,24.8 61.6,24.4C61.6,24.1 61.6,24.1 61.5,23.8C61.4,23.4 61.4,23.4 61.4,23.0C61.3,22.7 61.3,22.7 61.2,22.3C61.2,22.0 61.2,21.9 61.1,21.6C61.0,21.2 61.0,21.3 61.0,20.9C60.9,20.6 60.7,20.6 60.8,20.3C60.9,19.9 61.2,19.8 61.3,19.4C61.4,19.1 61.3,19.1 61.2,18.8C61.1,18.5 61.1,18.4 61.0,18.1C61.0,17.7 61.0,17.7 60.9,17.3C60.8,17.0 60.7,17.0 60.8,16.7C60.9,16.3 61.3,16.2 61.3,15.9C61.2,15.5 60.7,15.6 60.5,15.3C60.3,14.9 60.4,14.9 60.4,14.6C60.3,14.2 60.5,14.2 60.2,13.9C60.0,13.6 59.7,13.5 59.5,13.4" fill="none" stroke="#ef4444" stroke-width="0.8" stroke-linecap="round" stroke-linejoin="round" opacity="0.9"/>
  <path d="M30.6,76.1C30.3,76.2 30.0,76.2 29.3,76.3C28.7,76.4 28.6,76.5 28.1,76.6C27.7,76.6 28.0,76.6 27.5,76.6C27.0,76.7 26.9,76.7 26.2,76.7C25.6,76.8 25.4,76.8 25.0,76.9C24.5,77.0 24.7,77.0 24.4,77.1C24.1,77.2 24.2,77.2 23.8,77.3C23.3,77.4 22.8,77.4 22.5,77.4" fill="none" stroke="#ef4444" stroke-width="0.8" stroke-linecap="round" stroke-linejoin="round" opacity="0.9"/>
  <path d="M80.9,31.3C80.9,31.2 81.0,31.0 80.8,30.8C80.6,30.6 80.5,30.6 80.1,30.4C79.8,30.3 79.6,30.2 79.4,30.0C79.2,29.8 79.5,29.8 79.3,29.6C79.1,29.5 79.1,29.5 78.6,29.3C78.1,29.1 77.8,29.1 77.3,28.9C76.7,28.7 76.9,28.7 76.5,28.5C76.2,28.3 76.0,28.3 75.8,28.1C75.6,27.9 75.9,27.8 75.7,27.7C75.5,27.5 75.6,27.5 75.0,27.3C74.5,27.1 74.2,27.1 73.7,26.9C73.2,26.7 73.1,26.6 73.0,26.5" fill="none" stroke="#fbbf24" stroke-width="0.6" stroke-linecap="round" stroke-linejoin="round" opacity="0.7"/>
  <path d="M13.4,17.3C13.2,17.2 13.1,17.1 12.7,16.9C12.3,16.7 12.3,16.7 12.0,16.5C11.6,16.4 11.6,16.4 11.3,16.3C10.9,16.1 10.9,16.0 10.6,15.9C10.2,15.7 10.1,15.7 9.8,15.5C9.6,15.2 9.9,15.2 9.7,14.9C9.5,14.7 9.2,14.7 9.0,14.5C8.8,14.2 9.1,14.2 8.9,14.0C8.7,13.7 8.5,13.7 8.2,13.5C7.8,13.3 7.7,13.4 7.5,13.1C7.3,12.9 7.4,12.8 7.3,12.5C7.3,12.2 7.3,12.3 7.2,12.0C7.2,11.7 7.2,11.7 7.1,11.4C7.1,11.1 7.1,11.1 7.0,10.8C7.0,10.5 7.0,10.6 6.9,10.3C6.9,10.0 6.8,10.0 6.8,9.7C6.7,9.3 6.6,9.4 6.7,9.1C6.8,8.8 7.1,8.6 7.2,8.5" fill="none" stroke="#fbbf24" stroke-width="0.6" stroke-linecap="round" stroke-linejoin="round" opacity="0.7"/>
  <path d="M58.7,9.2C58.9,9.3 58.9,9.3 59.4,9.4C59.9,9.5 60.2,9.4 60.7,9.5C61.2,9.6 61.0,9.7 61.4,9.8C61.7,10.0 61.9,10.0 62.1,10.1C62.3,10.3 61.8,10.4 62.2,10.6C62.5,10.7 63.0,10.7 63.5,10.8C64.0,11.0 64.0,10.9 64.2,11.1C64.4,11.3 64.3,11.5 64.3,11.7" fill="none" stroke="#fbbf24" stroke-width="0.6" stroke-linecap="round" stroke-linejoin="round" opacity="0.7"/>
  <path d="M21.5,15.9C21.3,15.8 21.1,15.7 20.8,15.6C20.4,15.5 20.3,15.5 20.1,15.3C19.9,15.2 20.2,15.2 20.0,15.0C19.8,14.9 19.8,14.9 19.3,14.8C18.8,14.7 18.5,14.7 18.0,14.6C17.5,14.4 17.8,14.4 17.3,14.2C16.8,14.0 16.5,14.0 15.9,13.8C15.4,13.6 15.6,13.7 15.2,13.6C14.9,13.4 15.1,13.4 14.6,13.4C14.1,13.3 13.8,13.4 13.3,13.4C12.8,13.3 12.8,13.3 12.6,13.2C12.4,13.1 12.9,13.0 12.6,12.9C12.2,12.9 11.8,12.9 11.3,12.8C10.8,12.7 11.1,12.7 10.6,12.6C10.1,12.5 9.6,12.6 9.3,12.5C8.9,12.5 9.2,12.4 9.2,12.3" fill="none" stroke="#fbbf24" stroke-width="0.6" stroke-linecap="round" stroke-linejoin="round" opacity="0.7"/>
  <path d="M83.1,29.2C83.2,29.0 83.5,28.8 83.6,28.6C83.7,28.3 83.4,28.4 83.5,28.1C83.6,27.8 83.9,27.7 84.0,27.4C84.1,27.1 83.8,27.1 83.9,26.8C84.0,26.5 84.3,26.5 84.4,26.1C84.5,25.8 84.4,25.8 84.3,25.5C84.2,25.2 84.1,25.2 84.2,24.9C84.3,24.6 84.6,24.5 84.7,24.2C84.8,23.9 84.5,23.9 84.6,23.6C84.7,23.3 85.0,23.2 85.1,22.9C85.2,22.5 85.0,22.5 85.0,22.2C84.9,21.9 84.9,22.0 84.9,21.7C84.8,21.4 84.8,21.4 84.7,21.1C84.7,20.8 84.7,20.7 84.6,20.4C84.5,20.1 84.4,20.1 84.5,19.8C84.6,19.5 84.9,19.5 85.0,19.2C85.1,18.8 84.8,18.9 84.9,18.6C85.0,18.2 85.3,18.2 85.4,17.9C85.5,17.5 85.3,17.5 85.3,17.2C85.2,16.9 85.2,16.9 85.1,16.6C85.1,16.3 84.9,16.3 85.0,16.0C85.1,15.7 85.4,15.6 85.5,15.3C85.6,14.9 85.5,15.0 85.4,14.7C85.4,14.3 85.3,14.3 85.3,14.0C85.2,13.7 85.1,13.7 85.2,13.4C85.3,13.0 85.6,13.0 85.7,12.7C85.8,12.4 85.6,12.4 85.5,12.1C85.5,11.7 85.5,11.7 85.4,11.4C85.4,11.1 85.2,11.2 85.3,10.8C85.4,10.5 85.9,10.4 85.8,10.1C85.8,9.8 85.1,9.9 85.1,9.6C85.0,9.2 85.5,9.2 85.6,8.9C85.7,8.5 85.5,8.5 85.4,8.2C85.4,7.9 85.4,8.0 85.3,7.6C85.3,7.3 85.3,7.3 85.2,6.9C85.1,6.6 85.1,6.6 85.1,6.3C85.0,6.0 85.0,6.0 85.0,5.7C84.9,5.4 84.9,5.4 84.8,5.1C84.8,4.8 84.8,4.8 84.7,4.5C84.7,4.2 84.7,4.2 84.6,3.9C84.5,3.6 84.5,3.6 84.5,3.3C84.4,3.0 84.4,3.0 84.4,2.7C84.3,2.5 84.3,2.5 84.3,2.2C84.2,1.9 84.1,1.9 84.2,1.6C84.3,1.3 84.6,1.2 84.7,1.1" fill="none" stroke="#fbbf24" stroke-width="0.6" stroke-linecap="round" stroke-linejoin="round" opacity="0.7"/>
  <path d="M65.0,21.9C65.0,21.8 65.1,21.7 64.9,21.4C64.7,21.1 64.4,21.1 64.2,20.9C63.9,20.6 64.1,20.6 64.0,20.3C64.0,20.0 64.0,20.1 63.9,19.8C63.9,19.5 63.9,19.5 63.8,19.2C63.8,19.0 63.9,18.9 63.7,18.7C63.5,18.4 63.4,18.4 63.0,18.2C62.6,17.9 62.6,17.9 62.3,17.7C61.9,17.4 61.9,17.5 61.5,17.3C61.2,17.1 61.0,17.1 60.8,16.8C60.6,16.6 60.9,16.5 60.7,16.3C60.5,16.0 60.2,16.1 60.0,15.9C59.8,15.7 59.9,15.6 59.9,15.4" fill="none" stroke="#fbbf24" stroke-width="0.6" stroke-linecap="round" stroke-linejoin="round" opacity="0.7"/>
  <path d="M30.1,27.2C29.9,27.1 29.7,27.1 29.4,26.9C29.1,26.8 29.0,26.8 28.7,26.6C28.3,26.5 28.4,26.5 28.0,26.4C27.7,26.2 27.8,26.3 27.3,26.1C26.8,25.9 26.5,25.9 26.0,25.7C25.4,25.6 25.4,25.5 25.2,25.4" fill="none" stroke="#fbbf24" stroke-width="0.6" stroke-linecap="round" stroke-linejoin="round" opacity="0.7"/>
  <path d="M34.8,5.3C35.0,5.1 35.1,5.0 35.3,4.7C35.6,4.4 35.8,4.5 35.9,4.2C36.0,3.9 35.8,3.8 35.8,3.5C35.7,3.2 35.6,3.3 35.7,2.9C35.7,2.6 36.1,2.6 36.2,2.2C36.2,1.9 36.1,1.8 36.0,1.5C35.9,1.1 35.9,1.0 35.9,0.9" fill="none" stroke="#fbbf24" stroke-width="0.6" stroke-linecap="round" stroke-linejoin="round" opacity="0.7"/>
  <path d="M34.2,35.3C34.2,35.2 34.2,35.0 34.1,34.8C34.1,34.5 34.1,34.6 34.0,34.3C34.0,34.0 34.0,34.0 33.9,33.7C33.9,33.4 34.0,33.4 33.8,33.1C33.6,32.9 33.3,32.9 33.1,32.6C32.9,32.4 33.0,32.4 33.0,32.1C32.9,31.8 32.9,31.8 32.9,31.6C32.8,31.3 33.0,31.3 32.8,31.0C32.6,30.8 32.2,30.8 32.0,30.6C31.8,30.3 32.1,30.3 31.9,30.1C31.7,29.9 31.4,29.9 31.2,29.7C31.0,29.4 31.3,29.4 31.1,29.1C30.9,28.9 30.6,28.8 30.4,28.7" fill="none" stroke="#fbbf24" stroke-width="0.6" stroke-linecap="round" stroke-linejoin="round" opacity="0.7"/>
  <path d="M43.0,30.9C42.8,30.9 42.7,30.8 42.3,30.8C42.0,30.7 42.0,30.7 41.7,30.6C41.3,30.6 41.5,30.5 41.0,30.5C40.5,30.5 40.0,30.5 39.7,30.5C39.4,30.4 39.9,30.4 39.7,30.3C39.5,30.2 39.5,30.2 39.0,30.1C38.5,30.0 38.2,30.1 37.7,29.9C37.2,29.8 37.3,29.8 37.0,29.6C36.6,29.5 36.6,29.5 36.3,29.4C35.9,29.3 35.9,29.3 35.6,29.1C35.3,29.0 35.2,29.0 34.9,28.8C34.5,28.6 34.5,28.7 34.2,28.5C33.8,28.3 33.8,28.3 33.5,28.1C33.1,27.9 33.1,27.9 32.8,27.7C32.4,27.5 32.2,27.6 32.0,27.4C31.8,27.2 32.0,27.1 32.0,26.9C31.9,26.6 32.1,26.6 31.9,26.4C31.6,26.1 31.5,26.2 31.1,25.9C30.8,25.7 30.6,25.7 30.4,25.5C30.2,25.2 30.4,25.2 30.3,24.9C30.2,24.7 30.1,24.7 29.9,24.4C29.7,24.2 29.6,24.2 29.5,23.9C29.3,23.6 29.4,23.6 29.3,23.3C29.3,23.0 29.3,23.1 29.2,22.8C29.2,22.6 29.2,22.6 29.1,22.4C29.1,22.1 29.1,21.9 29.0,21.8" fill="none" stroke="#fbbf24" stroke-width="0.6" stroke-linecap="round" stroke-linejoin="round" opacity="0.7"/>
  <path d="M43.6,30.5C43.7,30.4 44.0,30.2 44.1,30.0C44.2,29.7 44.1,29.8 44.0,29.5C44.0,29.3 43.8,29.2 43.9,29.0C44.0,28.7 44.3,28.7 44.4,28.4C44.6,28.1 44.5,28.1 44.7,27.8C44.8,27.6 44.7,27.6 44.9,27.3C45.0,27.0 45.3,26.9 45.4,26.7C45.5,26.4 45.3,26.4 45.3,26.2C45.2,25.9 45.1,25.9 45.2,25.6C45.3,25.4 45.5,25.4 45.7,25.1C46.0,24.8 46.0,24.8 46.3,24.5C46.5,24.2 46.5,24.2 46.8,23.9C47.0,23.6 47.0,23.6 47.3,23.4C47.6,23.1 47.7,23.1 47.8,22.8C48.0,22.5 48.0,22.5 48.1,22.3C48.2,22.0 48.1,22.0 48.3,21.7C48.5,21.5 48.5,21.5 48.8,21.2C49.1,20.9 49.1,21.0 49.4,20.7C49.6,20.5 49.6,20.5 49.9,20.2C50.2,20.0 50.2,20.0 50.5,19.7C50.7,19.5 50.9,19.5 51.0,19.2C51.1,18.9 50.8,18.8 50.9,18.5C51.0,18.2 51.3,18.1 51.4,17.9" fill="none" stroke="#fbbf24" stroke-width="0.6" stroke-linecap="round" stroke-linejoin="round" opacity="0.7"/>
  <path d="M50.7,7.8C50.9,7.8 51.0,7.7 51.3,7.6C51.6,7.5 51.5,7.5 51.9,7.3C52.3,7.2 52.4,7.3 52.8,7.2C53.3,7.1 53.4,7.0 53.8,7.0C54.2,6.9 54.1,7.0 54.4,7.0C54.7,6.9 54.6,6.9 55.0,6.9C55.5,6.8 55.8,6.7 56.3,6.7C56.7,6.6 56.4,6.6 56.9,6.6C57.4,6.6 57.7,6.6 58.2,6.6C58.7,6.6 58.5,6.6 58.8,6.7C59.2,6.7 59.0,6.7 59.5,6.7C60.0,6.7 60.2,6.7 60.8,6.7C61.3,6.7 61.2,6.7 61.7,6.7C62.2,6.7 62.3,6.7 62.7,6.8C63.1,6.8 62.9,6.9 63.4,6.9C63.9,7.0 64.2,7.0 64.7,7.0C65.2,7.1 65.0,7.1 65.3,7.1C65.7,7.2 65.7,7.1 66.0,7.2C66.3,7.2 66.2,7.3 66.7,7.3C67.2,7.4 67.5,7.4 68.0,7.4C68.5,7.5 68.3,7.5 68.6,7.6C69.0,7.7 68.9,7.8 69.3,7.9C69.8,8.0 69.8,8.0 70.3,8.0C70.8,8.1 70.9,8.1 71.3,8.2C71.7,8.3 71.8,8.3 72.0,8.5C72.2,8.7 71.9,8.7 72.1,8.8C72.3,9.0 72.3,9.0 72.8,9.2C73.3,9.4 73.6,9.3 74.1,9.5C74.6,9.6 74.5,9.6 74.8,9.8C75.2,10.0 75.4,9.9 75.6,10.1C75.8,10.4 75.4,10.4 75.6,10.6C75.9,10.9 76.1,10.8 76.4,11.0C76.6,11.2 76.6,11.2 76.8,11.4C77.0,11.6 76.9,11.6 77.2,11.8C77.4,12.0 77.5,12.0 77.9,12.2C78.2,12.4 78.4,12.4 78.6,12.7C78.8,12.9 78.7,13.0 78.7,13.1" fill="none" stroke="#fbbf24" stroke-width="0.6" stroke-linecap="round" stroke-linejoin="round" opacity="0.7"/>
  <path d="M72.3,19.9C72.0,19.9 71.3,19.8 71.0,19.7C70.6,19.5 71.1,19.5 70.9,19.3C70.7,19.2 70.6,19.2 70.2,19.0C69.9,18.8 69.9,18.8 69.5,18.7C69.2,18.5 69.2,18.6 68.8,18.4C68.5,18.2 68.4,18.2 68.1,18.0C67.8,17.9 68.1,17.9 67.7,17.7C67.3,17.4 67.0,17.2 66.6,16.9C66.1,16.6 66.2,16.7 65.9,16.5C65.5,16.3 65.5,16.3 65.2,16.2C64.8,16.0 64.8,16.0 64.5,15.9C64.1,15.7 64.1,15.6 63.7,15.4C63.4,15.2 63.2,15.3 63.0,15.1C62.8,14.9 63.2,14.9 63.0,14.7C62.8,14.5 62.7,14.6 62.3,14.4C61.8,14.3 61.8,14.3 61.2,14.1C60.7,14.0 60.6,14.0 60.2,13.8C59.8,13.7 59.7,13.7 59.5,13.5C59.3,13.4 59.8,13.3 59.5,13.2C59.1,13.1 58.6,13.1 58.1,13.0C57.6,12.9 57.6,12.9 57.5,12.8" fill="none" stroke="#fbbf24" stroke-width="0.6" stroke-linecap="round" stroke-linejoin="round" opacity="0.7"/>
  <path d="M40.9,13.7C41.2,13.6 41.7,13.5 42.2,13.4C42.6,13.3 42.6,13.3 42.8,13.1C42.9,13.0 42.5,13.1 42.7,12.9C42.9,12.8 43.2,12.8 43.6,12.7C44.1,12.5 43.4,12.9 44.5,12.4C45.6,11.9 46.9,11.2 48.1,10.6C49.2,10.1 49.0,10.4 49.3,10.2C49.5,10.0 49.1,10.1 49.2,9.9C49.3,9.7 49.5,9.7 49.8,9.5C50.0,9.3 50.0,9.3 50.3,9.1C50.6,8.9 50.6,8.9 50.9,8.7C51.2,8.4 51.2,8.5 51.4,8.2C51.7,8.0 51.9,7.9 52.0,7.7C52.1,7.4 51.8,7.4 51.9,7.1C52.0,6.9 52.1,6.9 52.4,6.6C52.7,6.4 52.7,6.4 52.9,6.1C53.2,5.8 53.2,5.8 53.5,5.5C53.7,5.2 53.8,5.2 54.0,4.9C54.2,4.6 54.1,4.6 54.2,4.4C54.3,4.1 54.2,4.1 54.4,3.8C54.6,3.5 54.7,3.6 55.0,3.3C55.2,3.0 55.2,3.0 55.5,2.7C55.8,2.4 55.8,2.4 56.0,2.2C56.3,1.9 56.3,1.9 56.6,1.6C56.8,1.3 57.0,1.3 57.1,1.0C57.2,0.8 57.0,0.7 57.0,0.6" fill="none" stroke="#fbbf24" stroke-width="0.6" stroke-linecap="round" stroke-linejoin="round" opacity="0.7"/>
  <path d="M64.3,8.3C64.5,8.4 64.7,8.4 65.0,8.5C65.2,8.7 65.2,8.7 65.4,8.9C65.6,9.1 65.5,9.1 65.8,9.3C66.0,9.4 66.1,9.4 66.5,9.6C66.8,9.7 66.8,9.7 67.2,9.9C67.5,10.0 67.7,10.1 67.9,10.2" fill="none" stroke="#fbbf24" stroke-width="0.6" stroke-linecap="round" stroke-linejoin="round" opacity="0.7"/>
  <path d="M51.5,41.9C51.5,41.7 51.5,41.6 51.4,41.3C51.4,41.1 51.4,41.1 51.3,40.8C51.3,40.6 51.3,40.6 51.2,40.3C51.2,40.1 51.0,40.1 51.1,39.8C51.2,39.5 51.6,39.4 51.7,39.1C51.8,38.8 51.4,38.9 51.5,38.6C51.7,38.3 52.0,38.3 52.1,38.0C52.2,37.6 51.8,37.6 51.9,37.3C52.0,37.0 52.4,36.9 52.5,36.6C52.6,36.3 52.2,36.3 52.3,36.0C52.4,35.7 52.6,35.7 52.8,35.3C53.1,35.0 53.2,35.1 53.4,34.8C53.6,34.5 53.5,34.5 53.6,34.2C53.7,33.9 53.8,33.9 53.8,33.6C53.8,33.3 53.6,33.3 53.7,33.0C53.8,32.7 53.9,32.6 54.2,32.3C54.4,32.0 54.5,32.1 54.7,31.8C55.0,31.5 55.1,31.4 55.2,31.1C55.3,30.8 55.0,30.8 55.1,30.5C55.2,30.3 55.4,30.2 55.7,30.0C55.9,29.7 56.1,29.7 56.2,29.4C56.3,29.2 56.1,29.1 56.1,28.9C56.1,28.6 56.2,28.6 56.3,28.4C56.4,28.1 56.3,28.2 56.5,27.9C56.7,27.6 56.9,27.5 57.1,27.3" fill="none" stroke="#fbbf24" stroke-width="0.6" stroke-linecap="round" stroke-linejoin="round" opacity="0.7"/>
  <path d="M62.6,29.3C62.6,29.2 62.5,29.1 62.5,28.8C62.4,28.6 62.4,28.6 62.4,28.3C62.3,28.0 62.3,27.9 62.3,27.6C62.2,27.4 62.2,27.4 62.2,27.1C62.1,26.8 62.1,26.8 62.0,26.4C62.0,26.1 61.9,26.0 61.9,25.8" fill="none" stroke="#fbbf24" stroke-width="0.6" stroke-linecap="round" stroke-linejoin="round" opacity="0.7"/>
  <path d="M67.0,38.8C67.0,38.7 67.1,38.6 67.2,38.4C67.4,38.2 67.1,38.2 67.5,38.0C67.9,37.8 68.2,37.8 68.7,37.6C69.1,37.4 69.0,37.4 69.3,37.2C69.5,37.0 69.5,36.9 69.8,36.7C70.1,36.4 70.1,36.5 70.4,36.3C70.6,36.0 70.8,36.0 70.9,35.7C71.0,35.5 70.7,35.5 70.8,35.2C70.9,35.0 71.1,35.0 71.3,34.7C71.6,34.4 71.6,34.4 71.9,34.1C72.1,33.8 72.1,33.8 72.4,33.5C72.7,33.2 72.8,33.2 72.9,32.9C73.0,32.7 72.7,32.7 72.8,32.4C72.9,32.1 73.2,32.1 73.4,31.9C73.5,31.6 73.1,31.6 73.3,31.4C73.4,31.1 73.7,31.1 73.8,30.8C73.9,30.5 73.7,30.5 73.7,30.4" fill="none" stroke="#fbbf24" stroke-width="0.6" stroke-linecap="round" stroke-linejoin="round" opacity="0.7"/>
  <path d="M23.7,53.8C23.7,53.7 23.5,53.6 23.6,53.3C23.7,53.0 23.9,53.0 24.1,52.7C24.4,52.3 24.2,52.3 24.6,52.0C25.1,51.8 25.4,51.8 25.8,51.5C26.3,51.3 26.1,51.3 26.4,51.1C26.7,50.9 26.8,50.9 26.9,50.7C27.1,50.5 26.7,50.5 26.9,50.3C27.0,50.1 27.0,50.0 27.4,49.8C27.9,49.6 28.2,49.6 28.6,49.5C29.1,49.3 28.9,49.3 29.2,49.1C29.5,49.0 29.5,49.0 29.8,48.9C30.1,48.7 29.9,48.6 30.4,48.5C30.8,48.3 31.1,48.3 31.6,48.2C32.1,48.1 31.9,48.1 32.2,48.0C32.5,48.0 32.7,48.0 32.8,48.0" fill="none" stroke="#fbbf24" stroke-width="0.6" stroke-linecap="round" stroke-linejoin="round" opacity="0.7"/>
  <path d="M57.2,47.6C57.5,47.7 58.0,47.8 58.5,47.9C59.0,48.1 58.8,48.1 59.2,48.2C59.6,48.4 59.6,48.4 59.9,48.6C60.3,48.8 60.3,48.8 60.6,49.0C61.0,49.2 61.0,49.2 61.4,49.4C61.7,49.6 61.7,49.6 62.1,49.8C62.4,50.0 62.4,50.1 62.8,50.3C63.2,50.5 63.3,50.4 63.5,50.6C63.7,50.8 63.2,50.9 63.6,51.1C64.0,51.3 64.6,51.2 65.0,51.4C65.3,51.6 64.8,51.7 65.0,51.9C65.2,52.1 65.2,52.0 65.7,52.2C66.2,52.3 66.7,52.4 67.1,52.4" fill="none" stroke="#fbbf24" stroke-width="0.6" stroke-linecap="round" stroke-linejoin="round" opacity="0.7"/>
  <path d="M38.1,75.2C37.8,75.3 37.3,75.3 36.9,75.3C36.4,75.3 36.7,75.3 36.2,75.3C35.7,75.4 35.5,75.4 35.0,75.5C34.4,75.6 34.5,75.6 34.0,75.7C33.6,75.8 33.5,75.8 33.1,75.9C32.7,75.9 32.8,75.9 32.5,75.9C32.2,76.0 34.4,75.6 31.9,76.0C29.4,76.3 25.0,77.0 22.5,77.4C20.0,77.8 22.2,77.4 21.9,77.5C21.6,77.5 21.7,77.4 21.2,77.5C20.8,77.5 20.6,77.6 20.0,77.7C19.4,77.8 19.1,77.9 18.8,77.9C18.4,77.9 19.1,77.8 18.7,77.8C18.4,77.8 18.1,77.9 17.5,77.9C16.8,77.9 16.7,77.9 16.2,78.0C15.7,78.0 15.9,78.0 15.6,78.1C15.3,78.1 15.3,78.1 15.0,78.2C14.6,78.2 14.8,78.1 14.3,78.2C13.8,78.2 13.5,78.2 13.0,78.2C12.6,78.2 12.7,78.2 12.4,78.2C12.1,78.2 12.1,78.2 11.8,78.2C11.4,78.3 11.3,78.3 11.1,78.3" fill="none" stroke="#fbbf24" stroke-width="0.6" stroke-linecap="round" stroke-linejoin="round" opacity="0.7"/>
  <ellipse cx="48.6" cy="28.4" rx="3.5" ry="3.6" fill="#0c0c0c" stroke="#ef4444" stroke-width="0.4" opacity="0.95"/>
  <text x="48.6" y="29.7" text-anchor="middle" font-family="sans-serif" font-size="3.4" font-weight="700" fill="#ffffff" opacity="0.95">OR</text>
</svg>