<svg xmlns="http://www.w3.org/2000/svg" viewBox="0 0 102.44941145180643 98.08150433173446" preserveAspectRatio="none">
  <path d="M19.7,23.2L19.7,23.1L19.7,23.1L19.6,23.1L19.6,23.0L19.5,23.0L19.5,22.9L19.4,22.8L19.3,22.7L19.2,22.6L19.1,22.5L19.0,22.4L18.9,22.3L18.8,22.2L18.8,22.2L18.7,22.1L18.6,22.1L18.5,22.0L18.4,21.9L18.4,21.9L18.3,21.8L18.2,21.8L18.1,21.7L18.0,21.7L18.0,21.6L17.9,21.6L17.8,21.5L17.7,21.5L17.6,21.4L17.5,21.3L17.5,21.3L17.4,21.2L17.3,21.2L17.2,21.1L17.1,21.1L17.0,21.0L16.9,20.9L16.9,20.9L16.8,20.8L16.7,20.7L16.6,20.6L16.5,20.5L16.4,20.5L16.3,20.4L16.2,20.3L16.1,20.2L16.0,20.1L15.9,20.1L15.9,20.0L15.8,19.9L15.7,19.8L15.6,19.7L15.5,19.7L15.4,19.6L15.3,19.6L15.2,19.5L15.2,19.4L15.1,19.4L15.0,19.3L14.9,19.3L14.8,19.2L14.7,19.2L14.7,19.1L14.6,19.1L14.5,19.0L14.4,18.9L14.4,18.9L14.3,18.8L14.2,18.7L14.1,18.5L13.9,18.4L13.8,18.2L13.7,18.1L13.6,17.9L13.5,17.8L13.4,17.7L13.3,17.6L13.2,17.5L13.1,17.4L13.0,17.3L12.9,17.3L12.8,17.2L12.7,17.1L12.7,17.1L12.6,17.0L12.5,16.9L12.5,16.8L12.4,16.7L12.3,16.6L12.3,16.5L12.2,16.4L12.2,16.3L12.1,16.2L12.1,16.1L12.0,16.0L11.9,15.8L11.9,15.7L11.8,15.6L11.8,15.5L11.8,15.5L11.7,15.4L11.7,15.3L11.6,15.2L11.6,15.2L11.5,15.1L11.5,15.1L11.4,15.0L11.4,14.9L11.3,14.9L11.3,14.8L11.2,14.7L11.2,14.7L11.1,14.6L11.1,14.5L11.0,14.4L11.0,14.3L10.9,14.3L10.8,14.2L10.8,14.1L10.7,14.0L10.7,13.9L10.6,13.8L10.6,13.8L10.5,13.7L10.5,13.6L10.4,13.5L10.3,13.4L10.3,13.3L10.2,13.2L10.2,13.1L10.1,13.0L10.0,12.9L10.0,12.8L9.9,12.7L9.9,12.7L9.9,12.6L9.8,12.5L9.8,12.5L9.7,12.4L9.7,12.3L9.7,12.3L9.6,12.2L9.6,12.1L9.5,12.0L9.5,11.9L9.5,11.8L9.4,11.7L9.4,11.6L9.3,11.5L9.3,11.4L9.3,11.4L9.2,11.3L9.2,11.3L9.1,11.2L9.1,11.1L9.1,11.1L9.0,11.0L9.0,10.9L8.9,10.8L8.9,10.7L8.9,10.6L8.8,10.5L8.8,10.4L8.8,10.3L8.7,10.2L8.7,10.2L8.6,10.1L8.6,10.0L8.5,10.0L8.5,9.9L8.4,9.8L8.4,9.8L8.3,9.7L8.3,9.6L8.3,9.5L8.2,9.4L8.2,9.3L8.2,9.2L8.1,9.1L8.1,9.1L8.1,9.0L8.1,9.0L8.1,8.9L8.1,8.9" fill="none" stroke="#ef4444" stroke-width="0.8" stroke-linecap="round" stroke-linejoin="round" opacity="0.9"/>
  <path d="M44.7,55.5L44.7,55.5L44.7,55.5L44.7,55.6L44.7,55.6L44.7,55.7L44.7,55.8L44.7,55.9L44.7,56.0L44.7,56.1L44.7,56.2L44.7,56.3L44.7,56.4L44.7,56.4L44.6,56.5L44.6,56.6L44.6,56.7L44.6,56.8L44.6,56.8L44.6,56.9L44.6,57.0L44.6,57.1L44.6,57.2L44.6,57.2L44.6,57.3L44.6,57.4L44.6,57.5L44.6,57.5L44.6,57.6L44.6,57.7L44.6,57.7L44.6,57.8L44.6,57.8L44.6,57.9L44.6,57.9L44.6,58.0L44.6,58.1L44.6,58.1L44.6,58.2L44.6,58.2L44.6,58.3L44.7,58.3L44.7,58.4L44.7,58.5L44.7,58.5L44.7,58.6L44.7,58.7L44.7,58.8L44.7,58.9L44.7,59.0L44.7,59.1L44.7,59.2L44.7,59.2L44.7,59.3L44.7,59.3L44.7,59.3" fill="none" stroke="#fbbf24" stroke-width="0.6" stroke-linecap="round" stroke-linejoin="round" opacity="0.7"/>
  <path d="M28.5,65.4L28.5,65.4L28.5,65.4L28.5,65.4L28.6,65.4L28.6,65.5L28.6,65.5L28.7,65.5L28.7,65.6L28.8,65.7L28.8,65.7L28.9,65.8L28.9,65.8L29.0,65.9L29.1,65.9L29.1,66.0L29.2,66.0L29.2,66.1L29.3,66.1L29.3,66.2L29.4,66.2L29.4,66.3L29.4,66.4L29.5,66.4L29.5,66.5L29.6,66.5L29.6,66.6L29.7,66.6L29.7,66.7L29.8,66.7L29.8,66.8L29.9,66.8L30.0,66.9L30.0,67.0L30.1,67.0L30.1,67.1L30.2,67.1L30.3,67.2L30.3,67.2L30.4,67.3L30.4,67.3L30.5,67.4L30.5,67.4L30.6,67.5L30.6,67.5L30.6,67.5L30.6,67.5L30.7,67.5" fill="none" stroke="#fbbf24" stroke-width="0.6" stroke-linecap="round" stroke-linejoin="round" opacity="0.7"/>
  <path d="M26.2,29.7L26.2,29.7L26.2,29.7L26.1,29.7L26.1,29.7L26.0,29.8L26.0,29.8L25.9,29.8L25.8,29.9L25.7,29.9L25.6,30.0L25.5,30.0L25.4,30.0L25.3,30.0L25.2,30.1L25.1,30.1L25.0,30.1L24.9,30.1L24.8,30.1L24.8,30.1L24.7,30.1L24.6,30.1L24.5,30.2L24.4,30.2L24.3,30.3L24.2,30.3L24.2,30.4L24.1,30.4L24.0,30.4L23.9,30.4L23.8,30.5L23.7,30.5L23.6,30.5L23.5,30.5L23.4,30.5L23.3,30.4L23.2,30.4L23.1,30.4L23.1,30.4L23.0,30.4L22.9,30.4L22.8,30.4L22.7,30.5L22.6,30.5L22.5,30.5L22.5,30.5L22.4,30.6L22.3,30.6L22.2,30.7L22.1,30.7L22.1,30.8L22.0,30.8L21.9,30.9L21.8,30.9L21.7,31.0L21.7,31.0L21.6,31.1L21.5,31.1L21.4,31.2L21.3,31.2L21.3,31.3L21.2,31.3L21.1,31.4L21.0,31.4L20.9,31.5L20.9,31.5L20.8,31.6L20.7,31.6L20.6,31.7L20.5,31.7L20.5,31.8L20.4,31.9L20.3,31.9L20.2,32.0L20.1,32.0L20.0,32.1L20.0,32.1L19.9,32.2L19.8,32.2L19.7,32.3L19.6,32.3L19.5,32.4L19.4,32.4L19.3,32.5L19.3,32.5L19.2,32.6L19.1,32.6L19.0,32.7L18.9,32.7L18.8,32.8L18.7,32.8L18.7,32.8L18.6,32.9L18.5,32.9L18.4,32.9L18.4,32.9L18.3,32.9L18.2,32.9L18.1,32.9L18.1,32.9L18.0,33.0L17.9,33.0L17.8,33.0L17.7,33.1L17.6,33.1L17.6,33.2L17.5,33.2L17.4,33.3L17.3,33.3L17.3,33.4L17.2,33.4L17.1,33.5L17.0,33.5L17.0,33.6L16.9,33.6L16.8,33.7L16.7,33.7L16.7,33.8L16.6,33.8L16.5,33.9L16.4,33.9L16.3,34.0L16.3,34.0L16.2,34.1L16.2,34.1L16.1,34.1L16.1,34.1L16.1,34.1" fill="none" stroke="#fbbf24" stroke-width="0.6" stroke-linecap="round" stroke-linejoin="round" opacity="0.7"/>
  <path d="M28.3,46.7L28.3,46.7L28.3,46.7L28.3,46.7L28.2,46.7L28.2,46.8L28.1,46.8L28.0,46.9L27.9,46.9L27.8,47.0L27.7,47.0L27.7,47.0L27.6,47.0L27.5,47.1L27.4,47.1L27.3,47.1L27.2,47.1L27.1,47.1L27.0,47.1L26.9,47.1L26.8,47.1L26.7,47.2L26.7,47.2L26.6,47.3L26.5,47.3L26.4,47.4L26.3,47.4L26.3,47.5L26.2,47.5L26.1,47.6L26.0,47.6L25.9,47.7L25.8,47.7L25.8,47.8L25.7,47.8L25.6,47.8L25.5,47.9L25.4,47.9L25.3,48.0L25.2,48.0L25.2,48.0L25.1,48.0L25.0,48.1L24.9,48.1L24.8,48.1L24.7,48.1L24.7,48.2L24.6,48.2L24.5,48.2L24.4,48.2L24.3,48.3L24.2,48.3L24.2,48.3L24.1,48.4L24.0,48.4L23.9,48.5L23.8,48.5L23.7,48.6L23.7,48.6L23.6,48.6L23.6,48.7L23.5,48.7L23.5,48.7L23.5,48.7" fill="none" stroke="#fbbf24" stroke-width="0.6" stroke-linecap="round" stroke-linejoin="round" opacity="0.7"/>
  <path d="M67.2,40.6L67.2,40.6L67.2,40.6L67.2,40.6L67.2,40.6L67.2,40.5L67.2,40.5L67.1,40.5L67.1,40.4L67.1,40.3L67.1,40.3L67.0,40.2L67.0,40.2L67.0,40.1L67.0,40.1L66.9,40.0L66.9,40.0L66.9,39.9L66.9,39.8L66.8,39.8L66.8,39.7L66.8,39.6L66.8,39.5L66.8,39.4L66.7,39.3L66.7,39.2L66.7,39.1L66.7,39.0L66.7,38.9L66.6,38.9L66.6,38.8L66.6,38.7L66.6,38.7L66.6,38.6L66.6,38.6L66.5,38.5L66.5,38.5L66.5,38.4L66.4,38.4L66.4,38.3L66.4,38.3L66.3,38.2L66.3,38.2L66.3,38.1L66.2,38.0L66.2,38.0L66.1,37.9L66.1,37.9L66.1,37.8L66.1,37.8L66.0,37.7L66.0,37.7L65.9,37.6L65.9,37.6L65.9,37.5L65.8,37.5L65.8,37.4L65.7,37.3L65.7,37.3L65.6,37.2L65.6,37.1L65.6,37.0L65.5,36.9L65.5,36.8L65.4,36.7L65.4,36.6L65.4,36.5L65.3,36.5L65.3,36.4L65.2,36.3L65.2,36.3L65.2,36.3L65.1,36.2L65.1,36.2L65.1,36.1L65.0,36.1L64.9,36.0L64.9,35.9L64.8,35.8L64.7,35.7L64.6,35.5L64.5,35.4L64.4,35.3L64.4,35.2L64.3,35.1L64.2,35.0L64.1,34.9L64.1,34.9L64.0,34.8L64.0,34.8L63.9,34.7L63.8,34.7L63.8,34.6L63.7,34.5L63.7,34.5L63.6,34.4L63.5,34.4L63.5,34.3L63.4,34.3L63.4,34.2L63.3,34.2L63.2,34.1L63.2,34.1L63.1,34.0L63.1,34.0L63.0,33.9L62.9,33.8L62.9,33.8L62.8,33.7L62.7,33.7L62.7,33.6L62.6,33.6L62.6,33.5L62.5,33.5L62.5,33.4L62.4,33.4L62.4,33.3L62.3,33.2L62.3,33.2L62.2,33.1L62.2,33.1L62.1,33.0L62.1,33.0L62.0,32.9L61.9,32.9L61.9,32.8L61.8,32.8L61.7,32.7L61.7,32.7L61.6,32.6L61.5,32.5L61.5,32.5L61.4,32.4L61.3,32.4L61.2,32.3L61.2,32.3L61.1,32.2L61.0,32.2L61.0,32.1L60.9,32.1L60.8,32.0L60.8,31.9L60.7,31.9L60.7,31.8L60.6,31.8L60.6,31.7L60.5,31.7L60.5,31.6L60.5,31.6L60.4,31.5L60.4,31.5L60.3,31.4L60.3,31.4L60.2,31.3L60.2,31.3L60.2,31.2L60.1,31.2L60.1,31.2L60.1,31.2L60.1,31.2" fill="none" stroke="#fbbf24" stroke-width="0.6" stroke-linecap="round" stroke-linejoin="round" opacity="0.7"/>
  <path d="M37.1,56.6L37.1,56.6L37.1,56.6L37.1,56.5L37.1,56.5L37.1,56.4L37.1,56.3L37.1,56.2L37.1,56.1L37.1,56.0L37.1,55.9L37.1,55.9L37.1,55.8L37.1,55.7L37.1,55.6L37.1,55.6L37.1,55.5L37.1,55.5L37.1,55.4L37.2,55.4L37.2,55.3L37.2,55.3L37.2,55.2L37.2,55.2L37.2,55.1L37.2,55.0L37.2,55.0L37.2,54.9L37.2,54.9L37.3,54.8L37.3,54.8L37.3,54.7L37.3,54.7L37.3,54.6L37.3,54.6L37.3,54.5L37.3,54.4L37.4,54.3L37.4,54.2L37.4,54.1L37.4,54.0L37.4,53.9L37.5,53.8L37.5,53.7L37.5,53.7L37.5,53.6L37.5,53.5L37.5,53.5L37.6,53.4L37.6,53.4L37.6,53.3L37.6,53.3L37.6,53.2L37.6,53.2L37.6,53.2L37.6,53.1L37.6,53.1L37.6,53.1L37.6,53.1L37.6,53.0L37.6,53.0L37.7,53.0L37.7,52.9L37.7,52.9L37.7,52.9L37.7,52.9L37.7,52.8L37.7,52.8L37.7,52.8L37.7,52.8L37.7,52.8L37.7,52.8" fill="none" stroke="#fbbf24" stroke-width="0.6" stroke-linecap="round" stroke-linejoin="round" opacity="0.7"/>
  <path d="M46.0,39.4L46.0,39.4L45.9,39.4L45.9,39.3L45.9,39.3L45.8,39.3L45.8,39.2L45.7,39.2L45.7,39.1L45.6,39.1L45.5,39.0L45.5,39.0L45.4,38.9L45.3,38.9L45.3,38.8L45.2,38.8L45.2,38.7L45.1,38.6L45.0,38.6L45.0,38.5L44.9,38.5L44.8,38.4L44.8,38.4L44.7,38.3L44.6,38.3L44.5,38.2L44.5,38.2L44.4,38.1L44.3,38.1L44.2,38.0L44.2,38.0L44.1,38.0L44.0,37.9L43.9,37.9L43.8,37.9L43.8,37.9L43.7,37.8L43.6,37.8L43.5,37.8L43.4,37.8L43.4,37.7L43.3,37.7L43.2,37.6L43.1,37.6L43.0,37.5L43.0,37.4L42.9,37.3L42.8,37.2L42.7,37.1L42.7,37.0L42.6,37.0L42.6,36.9L42.5,36.8L42.5,36.8L42.5,36.8L42.5,36.8" fill="none" stroke="#fbbf24" stroke-width="0.6" stroke-linecap="round" stroke-linejoin="round" opacity="0.7"/>
  <ellipse cx="38.6" cy="42.0" rx="3.5" ry="2.2" fill="#0c0c0c" stroke="#ef4444" stroke-width="0.4" opacity="0.95"/>
  <text x="38.6" y="42.9" text-anchor="middle" font-family="sans-serif" font-size="2.4" font-weight="700" fill="#ffffff" opacity="0.95">OR</text>
</svg>