<svg xmlns="http://www.w3.org/2000/svg" viewBox="0 0 102.44941145180643 98.08150433173446" preserveAspectRatio="none">
  <path d="M57.7,29.4C57.6,29.3 57.6,29.3 57.5,29.0C57.5,28.7 57.4,28.6 57.4,28.2C57.4,27.7 57.4,27.6 57.4,27.3C57.4,27.0 57.4,27.2 57.4,26.9C57.3,26.6 57.3,26.5 57.3,26.0C57.2,25.6 57.2,25.5 57.1,25.2C56.9,24.9 56.9,25.1 56.8,24.8C56.7,24.4 56.8,24.2 56.7,23.9C56.7,23.6 56.7,23.7 56.6,23.5C56.5,23.3 56.5,23.4 56.4,23.0C56.3,22.7 56.3,22.6 56.2,22.2C56.1,21.8 56.1,21.8 56.0,21.3C55.9,20.9 55.9,20.8 55.9,20.5C55.8,20.2 55.8,20.3 55.7,20.1C55.7,19.8 55.7,20.0 55.6,19.6C55.5,19.3 55.5,19.0 55.4,18.8" fill="none" stroke="#ef4444" stroke-width="0.8" stroke-linecap="round" stroke-linejoin="round" opacity="0.9"/>
  <path d="M42.8,6.2C43.1,6.2 43.4,6.2 43.9,6.2C44.4,6.3 44.4,6.2 44.9,6.3C45.4,6.4 45.4,6.6 45.9,6.7C46.4,6.8 46.4,6.7 46.9,6.7C47.5,6.7 47.5,6.7 48.0,6.8C48.6,6.8 48.7,6.7 49.2,6.8C49.7,6.9 49.6,7.1 50.1,7.2C50.6,7.3 50.7,7.2 51.2,7.2C51.7,7.3 51.7,7.2 52.2,7.3C52.7,7.3 52.7,7.3 53.2,7.3C53.8,7.3 53.8,7.3 54.3,7.3C54.8,7.3 54.8,7.2 55.3,7.3C55.7,7.4 55.8,7.6 56.0,7.8" fill="none" stroke="#ef4444" stroke-width="0.8" stroke-linecap="round" stroke-linejoin="round" opacity="0.9"/>
  <path d="M85.1,12.9C85.2,12.8 85.2,12.8 85.4,12.4C85.5,12.0 85.6,11.7 85.8,11.3C86.0,10.9 86.0,11.2 86.1,10.9C86.3,10.6 86.3,10.4 86.5,10.0C86.7,9.7 86.7,9.9 86.9,9.6C87.1,9.3 87.1,9.2 87.2,8.8C87.4,8.4 87.3,8.2 87.4,7.9C87.6,7.7 87.6,8.2 87.7,7.9C87.9,7.7 87.9,7.4 88.0,7.1C88.1,6.8 88.1,6.9 88.2,6.7C88.3,6.5 88.3,6.6 88.4,6.3C88.5,5.9 88.6,5.6 88.6,5.4" fill="none" stroke="#ef4444" stroke-width="0.8" stroke-linecap="round" stroke-linejoin="round" opacity="0.9"/>
  <path d="M30.1,33.1C30.0,32.9 29.8,32.6 29.5,32.3C29.1,32.0 29.1,32.2 28.8,31.8C28.4,31.5 28.3,31.2 27.9,31.0C27.5,30.8 27.5,31.1 27.2,31.0C26.8,30.9 26.9,30.9 26.6,30.5C26.2,30.2 26.2,30.0 25.9,29.7C25.6,29.3 25.5,29.3 25.4,29.2" fill="none" stroke="#ef4444" stroke-width="0.8" stroke-linecap="round" stroke-linejoin="round" opacity="0.9"/>
  <path d="M60.5,18.9C60.7,18.8 60.9,18.7 61.3,18.5C61.7,18.3 61.6,18.3 62.1,18.1C62.5,17.9 62.5,17.9 63.0,17.7C63.4,17.5 63.4,17.6 63.8,17.2C64.2,16.9 64.2,16.6 64.7,16.4C65.1,16.2 65.1,16.5 65.6,16.4C66.0,16.3 66.0,16.3 66.4,16.0C66.8,15.7 66.8,15.5 67.2,15.2C67.6,14.9 67.5,15.0 68.0,14.8C68.4,14.6 68.5,14.6 68.9,14.4C69.4,14.1 69.4,14.1 69.8,13.8C70.2,13.4 70.3,13.5 70.7,13.1C71.1,12.8 71.1,12.5 71.4,12.3C71.8,12.1 71.8,12.5 72.2,12.3C72.5,12.1 72.6,11.8 73.0,11.5C73.5,11.2 73.5,11.4 73.9,11.1C74.3,10.8 74.3,10.6 74.7,10.2C75.1,9.9 75.0,10.0 75.4,9.8C75.7,9.6 75.7,9.7 76.0,9.4C76.4,9.1 76.5,8.9 76.8,8.6C77.2,8.3 77.1,8.4 77.5,8.2C77.8,8.0 77.8,8.1 78.1,7.8C78.5,7.5 78.4,7.2 78.7,6.9C79.0,6.6 79.0,6.8 79.3,6.5C79.6,6.2 79.7,5.9 80.0,5.7C80.3,5.5 80.4,5.7 80.5,5.7" fill="none" stroke="#ef4444" stroke-width="0.8" stroke-linecap="round" stroke-linejoin="round" opacity="0.9"/>
  <path d="M22.9,26.6C22.8,26.4 22.6,26.1 22.3,25.8C22.1,25.5 22.1,25.7 21.9,25.3C21.7,25.0 21.7,24.8 21.6,24.5C21.4,24.2 21.4,24.3 21.3,24.1C21.2,23.8 21.1,23.7 21.0,23.6" fill="none" stroke="#ef4444" stroke-width="0.8" stroke-linecap="round" stroke-linejoin="round" opacity="0.9"/>
  <path d="M56.5,37.9C56.5,37.7 56.6,37.4 56.7,37.1C56.9,36.7 56.8,36.9 56.9,36.6C57.0,36.4 57.0,36.5 57.1,36.2C57.2,35.9 57.2,35.8 57.3,35.4C57.3,34.9 57.3,34.8 57.4,34.5C57.4,34.2 57.5,34.3 57.6,34.1C57.6,33.9 57.7,34.0 57.7,33.7C57.7,33.4 57.7,33.3 57.7,32.8C57.7,32.4 57.8,32.3 57.8,32.0C57.8,31.7 57.7,31.9 57.7,31.6C57.7,31.2 57.8,31.0 57.8,30.7C57.8,30.4 57.8,30.4 57.8,30.3" fill="none" stroke="#fbbf24" stroke-width="0.6" stroke-linecap="round" stroke-linejoin="round" opacity="0.7"/>
  <path d="M72.4,20.8C72.5,20.8 72.6,20.9 72.8,20.8C73.0,20.7 73.0,20.7 73.2,20.4C73.4,20.1 73.4,19.9 73.5,19.6C73.7,19.2 73.7,19.4 73.9,19.1C74.0,18.9 74.0,18.9 74.1,18.7C74.2,18.5 74.4,18.4 74.4,18.3" fill="none" stroke="#fbbf24" stroke-width="0.6" stroke-linecap="round" stroke-linejoin="round" opacity="0.7"/>
  <path d="M25.6,38.6C25.4,38.5 25.2,38.4 24.8,38.1C24.5,37.9 24.5,37.8 24.1,37.7C23.8,37.6 23.8,37.7 23.4,37.7C23.0,37.7 22.9,37.8 22.6,37.7C22.2,37.6 22.3,37.5 21.9,37.2C21.6,37.0 21.4,36.9 21.3,36.8" fill="none" stroke="#fbbf24" stroke-width="0.6" stroke-linecap="round" stroke-linejoin="round" opacity="0.7"/>
  <path d="M11.4,28.1C11.4,28.0 11.3,28.0 11.1,27.7C10.9,27.4 10.9,27.2 10.7,26.8C10.5,26.5 10.6,26.6 10.5,26.4C10.3,26.2 10.3,26.3 10.2,26.0C10.2,25.7 10.3,25.5 10.2,25.1C10.2,24.7 10.2,24.5 10.0,24.3C9.9,24.1 9.8,24.5 9.7,24.3C9.7,24.1 9.8,23.7 9.9,23.4C9.9,23.1 9.9,23.3 10.0,23.0C10.1,22.7 10.2,22.5 10.2,22.1C10.2,21.8 10.1,21.9 10.1,21.7C10.2,21.5 10.2,21.6 10.3,21.3C10.4,21.0 10.5,20.9 10.6,20.5C10.7,20.0 10.7,19.8 10.7,19.6C10.8,19.4 10.8,19.8 10.9,19.6C10.9,19.4 11.0,19.2 11.0,18.8C11.1,18.3 11.1,18.2 11.1,17.9C11.1,17.6 11.1,17.7 11.1,17.5C11.1,17.3 11.2,17.4 11.2,17.1C11.2,16.8 11.1,16.5 11.1,16.2C11.1,15.9 11.2,16.0 11.2,15.8C11.2,15.6 11.1,15.7 11.0,15.4C11.0,15.1 11.0,14.8 11.0,14.5C11.0,14.2 11.1,14.3 11.0,14.1C10.9,13.9 10.7,13.8 10.7,13.7" fill="none" stroke="#fbbf24" stroke-width="0.6" stroke-linecap="round" stroke-linejoin="round" opacity="0.7"/>
  <path d="M31.3,7.7C31.5,7.7 31.7,7.8 32.1,7.7C32.5,7.6 32.5,7.5 32.9,7.3C33.3,7.1 33.3,7.0 33.7,6.9C34.1,6.8 34.2,6.9 34.6,6.9C34.9,6.9 34.9,7.0 35.3,6.9C35.7,6.8 35.7,6.6 36.2,6.5C36.6,6.4 36.6,6.5 37.1,6.5C37.5,6.6 37.5,6.7 38.0,6.6C38.5,6.5 38.5,6.3 39.0,6.2C39.4,6.1 39.4,6.2 39.9,6.2C40.3,6.2 40.4,6.2 40.9,6.2C41.3,6.2 41.6,6.2 41.8,6.2" fill="none" stroke="#fbbf24" stroke-width="0.6" stroke-linecap="round" stroke-linejoin="round" opacity="0.7"/>
  <path d="M56.0,7.8C56.2,7.8 56.4,7.7 56.8,7.8C57.3,7.9 57.3,8.1 57.8,8.2C58.2,8.3 58.2,8.1 58.6,8.2C59.1,8.3 59.0,8.5 59.4,8.7C59.9,8.9 59.9,8.9 60.3,9.1C60.7,9.3 60.6,9.4 61.0,9.6C61.4,9.7 61.5,9.6 61.9,9.6C62.4,9.6 62.4,9.5 62.8,9.6C63.2,9.7 63.2,9.9 63.7,10.0C64.1,10.1 64.1,9.9 64.5,10.0C65.0,10.2 65.0,10.4 65.4,10.5C65.9,10.6 65.8,10.5 66.3,10.5C66.8,10.5 66.8,10.4 67.4,10.5C67.9,10.6 67.9,10.9 68.4,11.0C68.8,11.1 68.8,10.9 69.2,11.0C69.7,11.1 69.6,11.3 70.1,11.4C70.5,11.5 70.4,11.4 71.0,11.4C71.6,11.5 71.8,11.4 72.4,11.5C73.1,11.6 73.1,11.8 73.6,11.9C74.1,12.0 74.2,11.8 74.6,11.9C74.9,12.1 74.8,12.3 75.1,12.4C75.5,12.5 75.5,12.4 76.0,12.4C76.4,12.4 76.6,12.3 77.0,12.4C77.5,12.5 77.4,12.7 77.8,12.8C78.1,13.0 78.1,12.8 78.5,12.9C78.8,13.0 78.8,13.1 79.2,13.3C79.5,13.5 79.6,13.6 80.0,13.7C80.4,13.9 80.4,13.6 80.8,13.8C81.2,13.9 81.3,14.1 81.5,14.2" fill="none" stroke="#fbbf24" stroke-width="0.6" stroke-linecap="round" stroke-linejoin="round" opacity="0.7"/>
  <path d="M56.1,22.6C56.2,22.4 56.3,22.1 56.5,21.8C56.6,21.5 56.6,21.7 56.7,21.4C56.8,21.0 56.8,20.8 56.9,20.5C57.0,20.2 56.9,20.4 57.0,20.1C57.1,19.8 57.2,19.6 57.3,19.2C57.4,18.9 57.3,19.0 57.4,18.8C57.6,18.6 57.7,18.7 57.9,18.4C58.0,18.1 58.0,18.0 58.1,17.6C58.2,17.1 58.2,17.0 58.3,16.7C58.5,16.4 58.6,16.5 58.8,16.3C58.9,16.1 58.9,16.1 59.0,15.9C59.1,15.7 59.2,15.6 59.3,15.5" fill="none" stroke="#fbbf24" stroke-width="0.6" stroke-linecap="round" stroke-linejoin="round" opacity="0.7"/>
  <path d="M66.4,11.4C66.6,11.3 66.9,11.0 67.3,10.9C67.7,10.9 67.6,10.8 68.0,11.0C68.4,11.1 68.5,11.3 68.9,11.4C69.3,11.5 69.3,11.4 69.7,11.4C70.1,11.4 70.1,11.4 70.5,11.4C70.9,11.4 70.9,11.4 71.3,11.5C71.7,11.5 71.7,11.5 72.1,11.5C72.5,11.5 72.7,11.5 72.9,11.5" fill="none" stroke="#fbbf24" stroke-width="0.6" stroke-linecap="round" stroke-linejoin="round" opacity="0.7"/>
  <path d="M74.3,32.7C74.3,32.6 74.4,32.5 74.4,32.3C74.5,32.1 74.5,32.2 74.6,31.9C74.7,31.6 74.7,31.4 74.9,31.0C75.0,30.7 75.0,30.8 75.1,30.6C75.2,30.4 75.2,30.4 75.3,30.2C75.3,30.0 75.3,30.0 75.4,29.8C75.5,29.6 75.5,29.7 75.5,29.4C75.6,29.0 75.6,28.8 75.8,28.5C75.9,28.2 75.9,28.3 76.0,28.1C76.2,27.9 76.2,27.9 76.3,27.7C76.4,27.5 76.4,27.6 76.5,27.3C76.6,26.9 76.5,26.7 76.6,26.4C76.8,26.1 76.1,27.2 77.0,26.0C77.9,24.7 79.4,22.6 80.3,21.4C81.2,20.1 80.4,21.1 80.6,21.0C80.7,20.9 80.7,21.2 80.8,21.0C81.0,20.8 81.0,20.4 81.2,20.1C81.3,19.8 81.3,19.9 81.5,19.7C81.7,19.5 81.7,19.5 81.9,19.3C82.0,19.1 81.9,19.4 82.1,18.9C82.3,18.3 82.4,17.7 82.7,17.2C82.9,16.7 82.8,17.0 83.0,16.8C83.2,16.6 83.2,16.6 83.4,16.4C83.5,16.1 83.5,16.3 83.7,15.9C83.8,15.6 83.8,15.4 83.9,15.1C84.1,14.8 84.1,15.0 84.2,14.7C84.3,14.4 84.3,14.1 84.5,13.8C84.7,13.5 84.8,13.5 84.9,13.4" fill="none" stroke="#fbbf24" stroke-width="0.6" stroke-linecap="round" stroke-linejoin="round" opacity="0.7"/>
  <path d="M88.6,5.4C88.7,5.2 88.7,5.0 88.7,4.6C88.8,4.1 88.8,3.9 88.8,3.7C88.9,3.5 88.9,3.9 88.9,3.7C89.0,3.5 89.1,3.3 89.1,2.9C89.1,2.5 89.1,2.5 89.0,2.0C89.0,1.6 89.0,1.4 89.0,1.2C88.9,1.0 88.9,1.2 88.8,1.2" fill="none" stroke="#fbbf24" stroke-width="0.6" stroke-linecap="round" stroke-linejoin="round" opacity="0.7"/>
  <path d="M60.7,50.7C60.9,50.6 61.2,50.4 61.6,50.3C61.9,50.2 61.9,50.4 62.3,50.3C62.7,50.2 62.7,50.0 63.2,49.9C63.6,49.8 63.6,49.9 64.0,49.9C64.5,49.9 64.4,50.0 64.8,50.0C65.2,49.9 65.2,49.6 65.7,49.5C66.1,49.4 66.2,49.6 66.6,49.6C67.0,49.6 66.9,49.6 67.4,49.6C67.8,49.6 67.9,49.6 68.3,49.6C68.7,49.6 68.7,49.7 69.1,49.6C69.5,49.5 69.6,49.4 70.0,49.2C70.4,49.0 70.4,48.9 70.8,48.8C71.2,48.7 71.2,48.9 71.6,48.8C71.9,48.7 71.9,48.5 72.3,48.4C72.7,48.3 72.7,48.5 73.1,48.4C73.5,48.3 73.5,48.1 73.9,48.0C74.3,47.9 74.2,48.1 74.6,48.0C74.9,47.9 75.0,47.7 75.3,47.6C75.7,47.5 75.8,47.6 75.9,47.6" fill="none" stroke="#fbbf24" stroke-width="0.6" stroke-linecap="round" stroke-linejoin="round" opacity="0.7"/>
  <path d="M51.4,56.9C51.2,57.0 51.0,57.2 50.6,57.3C50.2,57.4 50.2,57.3 49.8,57.3C49.4,57.3 49.4,57.2 48.9,57.3C48.5,57.4 48.5,57.6 48.0,57.7C47.6,57.8 47.7,57.7 47.3,57.7C46.8,57.7 46.8,57.6 46.4,57.7C45.9,57.8 45.9,58.0 45.5,58.1C45.1,58.2 45.2,58.1 44.8,58.1C44.3,58.0 44.3,58.0 43.9,58.0C43.5,58.0 43.5,58.0 43.0,58.0C42.6,58.0 42.7,58.0 42.3,58.0C41.9,58.0 41.8,58.0 41.4,58.0C41.0,58.0 41.0,58.0 40.6,58.0C40.1,58.0 40.1,58.0 39.7,58.0C39.3,57.9 39.3,57.9 38.9,57.9C38.5,57.9 38.5,57.9 38.1,57.9C37.7,57.9 37.7,57.9 37.3,57.9C36.9,57.9 36.8,57.9 36.5,57.9C36.1,57.9 35.9,57.9 35.7,57.9" fill="none" stroke="#fbbf24" stroke-width="0.6" stroke-linecap="round" stroke-linejoin="round" opacity="0.7"/>
  <path d="M76.3,39.1C76.1,39.1 75.9,39.1 75.5,39.1C75.1,39.1 75.1,39.1 74.7,39.1C74.3,39.1 74.3,39.1 73.8,39.1C73.4,39.1 73.3,39.1 72.9,39.1C72.5,39.1 72.6,39.1 72.1,39.1C71.7,39.0 71.7,39.2 71.3,39.0C70.9,38.9 70.9,38.7 70.5,38.6C70.1,38.5 70.1,38.6 69.7,38.6C69.3,38.6 69.3,38.6 68.8,38.6C68.4,38.6 68.4,38.6 68.0,38.6C67.6,38.5 67.6,38.5 67.2,38.5C66.8,38.5 66.8,38.5 66.4,38.5C66.0,38.5 66.0,38.5 65.6,38.5C65.1,38.5 65.1,38.5 64.7,38.5C64.2,38.5 64.2,38.5 63.8,38.5C63.3,38.5 63.4,38.6 63.0,38.5C62.5,38.3 62.5,38.1 62.1,38.0C61.7,37.9 61.7,38.0 61.3,38.0C60.9,38.0 60.9,38.1 60.5,38.0C60.1,37.9 59.9,37.7 59.7,37.5" fill="none" stroke="#fbbf24" stroke-width="0.6" stroke-linecap="round" stroke-linejoin="round" opacity="0.7"/>
  <path d="M39.1,38.0C38.9,38.0 38.7,38.1 38.3,38.0C38.0,37.9 38.0,37.8 37.6,37.5C37.3,37.3 37.3,37.3 37.0,37.1C36.6,36.9 36.6,36.9 36.3,36.7C36.0,36.4 36.0,36.4 35.7,36.2C35.3,36.0 35.3,35.9 34.9,35.8C34.5,35.7 34.5,35.9 34.2,35.8C33.8,35.7 33.8,35.7 33.5,35.3C33.2,35.0 33.2,34.8 32.9,34.5C32.6,34.2 32.6,34.3 32.2,34.0C31.9,33.8 31.9,33.7 31.5,33.6C31.1,33.5 32.3,34.7 30.8,33.6C29.2,32.5 26.9,30.4 25.4,29.2C23.9,28.0 25.0,29.0 24.8,28.8C24.6,28.6 24.6,28.6 24.5,28.4C24.3,28.2 24.4,28.3 24.2,27.9C24.1,27.6 24.0,27.4 23.9,27.1C23.8,26.8 23.8,26.9 23.7,26.7C23.6,26.4 23.6,26.4 23.5,26.2C23.3,26.0 23.2,26.1 23.1,25.8C23.0,25.5 23.1,25.3 23.0,24.9C23.0,24.6 23.0,24.7 22.9,24.5C22.9,24.3 22.9,24.3 22.8,24.1C22.7,23.9 22.6,23.8 22.5,23.7" fill="none" stroke="#fbbf24" stroke-width="0.6" stroke-linecap="round" stroke-linejoin="round" opacity="0.7"/>
  <path d="M50.7,23.8C50.8,23.7 50.9,23.6 51.3,23.4C51.6,23.2 51.6,23.1 52.0,23.0C52.3,22.9 52.3,23.1 52.7,23.0C53.1,22.9 53.1,22.8 53.5,22.6C53.8,22.4 53.8,22.5 54.2,22.2C54.6,21.8 54.6,21.6 55.0,21.3C55.3,21.0 55.3,21.1 55.6,20.9C56.0,20.7 56.0,20.6 56.4,20.5C56.9,20.4 56.9,20.6 57.4,20.5C57.8,20.4 57.7,20.3 58.1,20.1C58.5,19.9 58.6,19.9 59.0,19.7C59.4,19.5 59.6,19.4 59.7,19.3" fill="none" stroke="#fbbf24" stroke-width="0.6" stroke-linecap="round" stroke-linejoin="round" opacity="0.7"/>
  <path d="M80.5,5.7C80.6,5.5 80.8,5.2 81.0,4.8C81.2,4.5 81.1,4.7 81.3,4.4C81.6,4.1 81.6,3.8 81.8,3.6C82.0,3.4 82.1,3.8 82.3,3.6C82.4,3.4 82.4,3.3 82.5,3.0C82.6,2.7 82.7,2.6 82.7,2.3C82.8,2.1 82.8,2.2 82.8,1.9C82.9,1.6 83.0,1.3 83.1,1.1C83.1,0.9 83.1,1.1 83.2,1.1" fill="none" stroke="#fbbf24" stroke-width="0.6" stroke-linecap="round" stroke-linejoin="round" opacity="0.7"/>
  <path d="M28.1,32.7C28.0,32.5 27.9,32.1 27.6,31.8C27.4,31.5 27.4,31.6 27.1,31.4C26.9,31.2 26.8,31.1 26.5,31.0C26.3,30.8 26.4,31.1 26.1,30.9C25.9,30.8 25.9,30.8 25.7,30.5C25.5,30.2 25.5,30.0 25.3,29.7C25.1,29.3 25.1,29.4 24.9,29.2C24.7,29.0 24.6,29.0 24.3,28.8C24.1,28.6 24.2,28.7 24.0,28.4C23.8,28.0 23.7,27.8 23.5,27.5C23.4,27.2 23.8,28.0 23.2,27.1C22.5,26.1 21.7,24.7 21.0,23.6C20.4,22.6 20.8,23.1 20.6,22.8C20.4,22.5 20.4,22.6 20.2,22.3C20.1,22.1 20.1,22.1 20.0,21.9C19.8,21.7 19.9,21.7 19.7,21.5C19.5,21.3 19.5,21.4 19.3,21.1C19.1,20.7 19.1,20.5 19.0,20.2C18.9,19.9 18.9,20.0 18.7,19.8C18.6,19.6 18.5,19.4 18.4,19.3" fill="none" stroke="#fbbf24" stroke-width="0.6" stroke-linecap="round" stroke-linejoin="round" opacity="0.7"/>
  <path d="M68.0,16.7C68.2,16.6 68.4,16.6 68.7,16.5C69.1,16.3 69.0,16.3 69.4,16.1C69.7,15.9 69.6,15.9 70.0,15.7C70.4,15.5 70.5,15.4 70.9,15.3C71.2,15.2 71.2,15.4 71.6,15.3C71.9,15.2 71.9,15.0 72.3,14.9C72.7,14.8 72.7,15.0 73.1,14.9C73.4,14.8 73.4,14.6 73.8,14.5C74.1,14.4 74.1,14.5 74.5,14.5C74.8,14.5 74.7,14.5 75.2,14.5C75.8,14.5 76.1,14.6 76.7,14.5C77.3,14.4 77.1,14.2 77.5,14.1C77.9,14.0 77.9,14.2 78.3,14.1C78.7,14.0 78.7,13.8 79.1,13.7C79.5,13.6 79.5,13.7 79.9,13.7C80.3,13.7 80.4,13.9 80.8,13.8C81.1,13.7 81.1,13.4 81.5,13.3C81.9,13.2 81.9,13.4 82.3,13.4C82.7,13.3 82.7,13.3 83.1,13.2C83.5,13.1 83.5,13.0 83.9,13.0C84.3,12.9 84.3,13.1 84.7,13.0C85.1,12.9 85.1,12.7 85.5,12.6C85.9,12.5 85.9,12.6 86.3,12.6C86.7,12.6 86.7,12.7 87.1,12.6C87.5,12.5 87.5,12.3 87.9,12.2C88.2,12.1 88.2,12.3 88.6,12.2C89.0,12.1 89.2,11.9 89.4,11.8" fill="none" stroke="#fbbf24" stroke-width="0.6" stroke-linecap="round" stroke-linejoin="round" opacity="0.7"/>
  <ellipse cx="51.9" cy="34.9" rx="3.5" ry="3.7" fill="#0c0c0c" stroke="#ef4444" stroke-width="0.4" opacity="0.95"/>
  <text x="51.9" y="36.2" text-anchor="middle" font-family="sans-serif" font-size="3.5" font-weight="700" fill="#ffffff" opacity="0.95">OR</text>
</svg>