<svg xmlns="http://www.w3.org/2000/svg" viewBox="0 0 102.27040591422573 107.44489710580129" preserveAspectRatio="none">
  <path d="M23.5,68.6L23.7,69.5L23.9,69.9L24.1,70.7L24.2,71.6L24.2,72.0L24.2,72.4L24.4,73.3L24.5,74.1L24.4,74.6L24.3,75.4L24.4,76.3L24.4,76.7L24.6,77.6L24.5,78.4L24.4,78.9L24.5,79.7L24.3,80.2L24.3,81.0" fill="none" stroke="#ef4444" stroke-width="0.8" stroke-linecap="round" opacity="0.9"/>
  <path d="M64.0,77.3L63.5,77.8L63.2,78.7L62.6,79.2L62.0,79.2L61.8,80.1L61.3,80.6L61.0,81.5L60.6,81.9L60.1,82.4L59.7,83.3L59.3,83.8L58.9,84.3L58.5,85.2" fill="none" stroke="#ef4444" stroke-width="0.8" stroke-linecap="round" opacity="0.9"/>
  <path d="M34.2,43.9L33.3,44.0L32.5,43.7L31.7,43.3L30.8,42.5L29.9,42.2" fill="none" stroke="#ef4444" stroke-width="0.8" stroke-linecap="round" opacity="0.9"/>
  <path d="M31.6,79.0L31.4,79.4L31.3,80.3L31.2,80.7L31.2,81.6L31.3,82.4L31.2,82.4L31.4,83.3L31.6,84.1L31.6,84.5L32.0,85.4L32.3,86.2L32.2,86.6L32.4,87.5L32.7,88.3L32.9,89.1L32.8,89.6" fill="none" stroke="#ef4444" stroke-width="0.8" stroke-linecap="round" opacity="0.9"/>
  <path d="M66.1,96.8L66.0,97.3L66.0,98.1L65.8,98.6L65.7,99.0L65.8,99.9L65.8,100.7" fill="none" stroke="#ef4444" stroke-width="0.8" stroke-linecap="round" opacity="0.9"/>
  <path d="M71.8,73.5L72.2,73.9L72.8,74.6L73.4,75.4L74.0,75.8L74.5,76.2L75.0,77.0L75.5,77.8L76.3,78.6L76.8,79.4L77.1,79.8L77.5,80.6L78.0,81.4L78.2,81.8L78.5,82.6L78.7,83.0L79.0,83.9" fill="none" stroke="#ef4444" stroke-width="0.8" stroke-linecap="round" opacity="0.9"/>
  <path d="M21.9,61.5L21.8,62.0L21.9,62.8L22.0,63.2L22.0,63.7L22.2,64.5L22.3,64.9L22.5,65.3L22.9,66.1L23.1,67.0L23.2,67.4L23.4,67.8" fill="none" stroke="#fbbf24" stroke-width="0.6" stroke-linecap="round" opacity="0.7"/>
  <path d="M24.3,81.0L24.1,81.5L24.1,81.9L24.2,82.8L24.3,83.2L24.4,83.6L24.5,84.4L24.6,85.3L24.8,85.7L25.0,86.5L25.5,87.3L25.7,87.3L25.9,88.2L26.2,89.0L26.6,89.4L27.0,89.8L27.4,90.1L27.8,91.0L28.1,91.4L28.4,91.8L28.7,92.2L29.1,93.0L29.2,93.4" fill="none" stroke="#fbbf24" stroke-width="0.6" stroke-linecap="round" opacity="0.7"/>
  <path d="M62.8,72.7L62.0,72.8L61.1,72.4L60.2,72.5L59.4,72.6L58.4,72.7L57.5,72.8L56.5,72.9L55.6,73.0L54.7,73.1L53.8,73.2L52.8,72.9L51.9,73.0L50.8,72.7L50.0,72.7L49.2,72.8L48.2,72.5L47.4,72.2L46.4,71.8L45.8,71.9L45.2,72.0L44.4,71.6L43.7,71.3" fill="none" stroke="#fbbf24" stroke-width="0.6" stroke-linecap="round" opacity="0.7"/>
  <path d="M83.3,99.7L84.1,99.7L85.0,100.0L85.8,100.3L86.8,100.7L87.5,100.6L88.4,100.9L89.2,100.8L90.2,101.6L91.0,101.5L92.0,101.8L92.9,102.2L93.6,102.5L94.3,102.5L95.0,102.8" fill="none" stroke="#fbbf24" stroke-width="0.6" stroke-linecap="round" opacity="0.7"/>
  <path d="M68.7,71.6L68.5,72.5L68.2,73.0L67.8,73.5L67.3,73.9L66.8,74.4L66.4,75.3L65.7,75.8L65.1,76.3L64.6,76.8" fill="none" stroke="#fbbf24" stroke-width="0.6" stroke-linecap="round" opacity="0.7"/>
  <path d="M58.5,85.2L58.1,85.6L58.0,86.1L57.7,86.5L57.3,87.0L57.2,87.9L56.9,88.3L56.7,88.8" fill="none" stroke="#fbbf24" stroke-width="0.6" stroke-linecap="round" opacity="0.7"/>
  <path d="M34.1,86.4L33.7,86.9L33.5,87.8L33.1,88.3L32.9,88.7L32.7,89.2L32.3,89.6L31.9,90.1L31.6,90.6" fill="none" stroke="#fbbf24" stroke-width="0.6" stroke-linecap="round" opacity="0.7"/>
  <path d="M58.9,77.8L58.0,77.5L57.3,77.6L56.4,77.6L55.6,77.7L54.9,77.8L53.9,77.5L53.1,77.6L52.2,77.2L51.4,77.3L50.5,77.0L49.7,77.1L48.8,76.7L47.9,76.8L46.9,76.5L45.8,76.2L45.0,76.3L44.0,76.4L43.2,76.5L42.3,76.1L41.4,76.2L40.5,75.9L39.5,75.6L38.5,75.2L37.7,74.9L37.0,74.5L36.3,74.6" fill="none" stroke="#fbbf24" stroke-width="0.6" stroke-linecap="round" opacity="0.7"/>
  <path d="M42.6,46.5L41.8,46.1L41.0,46.2L40.2,45.9L39.5,45.9L38.5,45.6L37.6,45.3L36.8,44.9L35.9,44.6L35.1,44.2L29.9,42.2L29.3,42.3L28.6,41.5L28.1,41.1L27.5,40.3L27.0,40.4" fill="none" stroke="#fbbf24" stroke-width="0.6" stroke-linecap="round" opacity="0.7"/>
  <path d="M47.6,98.8L46.9,98.8L46.3,99.3L45.6,99.8L45.0,100.3L44.1,100.4L43.5,100.9L42.7,101.4L41.8,101.5L40.9,101.6L40.0,101.7L39.1,101.8L38.3,101.9L37.4,102.0L36.7,102.1L35.9,102.1" fill="none" stroke="#fbbf24" stroke-width="0.6" stroke-linecap="round" opacity="0.7"/>
  <path d="M43.3,71.7L43.6,70.8L44.0,70.4L44.4,69.9L45.0,69.8L45.4,69.4L45.9,68.9" fill="none" stroke="#fbbf24" stroke-width="0.6" stroke-linecap="round" opacity="0.7"/>
  <path d="M60.8,72.0L60.6,72.5L60.3,72.9L60.0,73.4L59.7,74.3L59.3,74.8L58.9,75.2L58.4,75.7L57.9,76.2L57.4,76.7L57.1,77.2" fill="none" stroke="#fbbf24" stroke-width="0.6" stroke-linecap="round" opacity="0.7"/>
  <path d="M30.3,83.8L29.5,83.9L28.6,83.6L27.9,83.7L27.1,83.3L26.3,83.0L25.4,83.1L24.7,83.1L23.7,82.8L22.9,82.5L22.2,82.5L21.4,82.2" fill="none" stroke="#fbbf24" stroke-width="0.6" stroke-linecap="round" opacity="0.7"/>
  <path d="M57.3,77.6L56.9,77.6L56.6,78.1L56.6,78.9L56.4,79.4L56.1,79.8L55.8,80.3L55.6,81.2L55.3,81.6L55.2,82.1L54.9,83.0L54.6,83.4L54.3,83.9L54.0,84.4L53.8,84.8L53.6,85.2L53.5,86.1L53.0,86.6L52.5,87.1L52.2,87.5" fill="none" stroke="#fbbf24" stroke-width="0.6" stroke-linecap="round" opacity="0.7"/>
  <path d="M34.8,69.6L34.5,70.1L34.2,71.0L33.8,71.4L33.5,72.3L33.3,73.2L33.0,73.2L32.8,74.1L32.5,74.6L32.6,75.4L32.4,75.9L32.3,76.7L32.2,77.1L32.1,77.4L31.8,78.1" fill="none" stroke="#fbbf24" stroke-width="0.6" stroke-linecap="round" opacity="0.7"/>
  <path d="M56.1,99.2L57.0,99.5L57.8,99.4L58.6,99.3L59.6,99.7L60.3,99.6L61.1,99.5L61.9,99.4L62.6,99.3L63.6,99.2L64.4,99.1L65.2,99.1L66.1,99.0L66.8,98.9" fill="none" stroke="#fbbf24" stroke-width="0.6" stroke-linecap="round" opacity="0.7"/>
  <path d="M67.6,90.7L67.4,91.5L67.2,92.0L66.9,92.4L66.7,92.9L66.5,93.8L66.4,94.2L66.4,94.6L66.2,95.5L66.1,96.0" fill="none" stroke="#fbbf24" stroke-width="0.6" stroke-linecap="round" opacity="0.7"/>
  <path d="M47.4,65.3L48.3,65.6L49.0,65.5L49.9,65.9L50.7,65.8L51.4,65.7L52.3,66.1" fill="none" stroke="#fbbf24" stroke-width="0.6" stroke-linecap="round" opacity="0.7"/>
  <path d="M50.1,58.6L50.8,58.9L51.4,59.3L52.1,59.6L52.7,60.0L53.2,59.9L53.9,60.3L54.7,60.7L55.3,61.0L56.2,61.8L56.7,61.7L57.3,62.1L58.0,62.5L59.9,63.5L60.5,63.9L61.0,64.3L61.8,65.1L62.3,65.4L62.9,65.8L63.3,65.8L63.9,66.6L64.4,66.9L64.9,67.3L65.5,67.7L66.0,68.1L66.5,68.9L67.0,69.2L67.5,69.6L68.0,70.0L68.4,70.4L69.0,71.2L69.4,71.6L70.0,71.9L70.7,72.7L71.2,73.1" fill="none" stroke="#fbbf24" stroke-width="0.6" stroke-linecap="round" opacity="0.7"/>
  <path d="M79.0,83.9L79.1,84.3L79.2,85.1L79.3,86.0L79.2,86.4L79.4,86.8L79.5,87.7L79.5,88.5L79.3,88.6L79.2,89.4L79.3,89.8L79.5,90.7L79.6,91.1L79.7,91.5L79.8,92.4L79.7,92.8L79.7,93.2" fill="none" stroke="#fbbf24" stroke-width="0.6" stroke-linecap="round" opacity="0.7"/>
  <path d="M74.1,92.5L73.8,93.4L73.3,93.5L72.8,94.0L72.3,94.5L72.0,94.9L71.5,95.4L71.0,95.9L70.4,96.4L69.7,96.4L68.9,96.5L68.4,97.0L67.7,97.5L66.9,98.0L66.1,98.1L65.3,98.6L64.6,99.1L63.9,99.2L63.1,99.3L62.4,99.8L61.6,99.9L60.8,100.0L60.2,100.5L59.4,100.5L58.6,100.6" fill="none" stroke="#fbbf24" stroke-width="0.6" stroke-linecap="round" opacity="0.7"/>
  <path d="M76.0,73.0L76.3,73.0L76.8,73.8L77.2,74.6L77.5,75.0L77.8,75.4" fill="none" stroke="#fbbf24" stroke-width="0.6" stroke-linecap="round" opacity="0.7"/>
  <path d="M52.9,84.0L53.6,84.4L54.2,84.3L54.9,84.3L55.7,84.6L56.4,85.0L57.2,85.3L57.9,85.7L58.5,86.0L59.3,86.4L60.0,86.3L60.8,86.6L61.6,87.0L62.5,87.3L63.2,87.2L64.1,87.6L64.9,87.5L65.7,87.8L66.6,87.8L67.4,87.7L73.6,88.3L74.6,88.6L75.5,88.5L76.5,88.4L77.4,88.3L78.2,88.2L79.0,88.2L80.0,88.5L80.9,88.4L81.6,88.3L82.5,88.7L83.5,89.0L84.4,89.3L85.3,89.6L86.1,90.0L86.8,89.9L87.5,90.3L88.3,91.1L89.1,91.4L89.7,91.8L90.4,92.1L91.1,92.9L91.7,93.3L92.4,94.1L92.9,94.0L93.6,94.8L94.1,95.2L94.7,96.0L95.2,95.9L95.6,96.7L96.1,97.1L96.4,97.9L96.6,97.9L97.0,98.7L97.4,99.1" fill="none" stroke="#fbbf24" stroke-width="0.6" stroke-linecap="round" opacity="0.7"/>
  <circle cx="49.4" cy="74.9" r="2" fill="#ffffff" stroke="#ef4444" stroke-width="0.5" opacity="0.9"/>
</svg>