<svg xmlns="http://www.w3.org/2000/svg" viewBox="0 0 102.44941145180643 98.08150433173446" preserveAspectRatio="none">
  <path d="M82.7,23.2L83.5,22.3L84.1,21.9L84.8,21.4L85.5,21.0L86.2,20.3L86.9,19.7L87.6,19.2L88.2,18.8L89.2,17.5L89.8,17.1L90.3,16.2L90.7,15.4L91.1,14.9L91.5,14.3L91.9,13.6L92.5,12.8L92.8,12.4L93.1,11.5L93.4,11.1L93.7,10.2L94.1,9.8L94.4,8.9" fill="none" stroke="#ef4444" stroke-width="0.8" stroke-linecap="round" opacity="0.9"/>
  <path d="M57.8,55.5L57.8,56.3L57.8,57.0L57.9,57.6L57.9,58.0L57.8,58.5L57.8,59.3" fill="none" stroke="#fbbf24" stroke-width="0.6" stroke-linecap="round" opacity="0.7"/>
  <path d="M73.9,65.4L73.5,65.8L73.1,66.2L72.8,66.7L72.3,67.1L71.8,67.5" fill="none" stroke="#fbbf24" stroke-width="0.6" stroke-linecap="round" opacity="0.7"/>
  <path d="M76.2,29.7L77.0,30.1L77.7,30.1L78.4,30.5L79.2,30.4L79.9,30.4L80.5,30.8L81.2,31.3L81.8,31.7L82.4,32.1L83.2,32.5L83.8,32.9L84.4,32.9L85.1,33.3L85.7,33.7L86.3,34.1" fill="none" stroke="#fbbf24" stroke-width="0.6" stroke-linecap="round" opacity="0.7"/>
  <path d="M74.1,46.7L74.8,47.1L75.6,47.1L76.2,47.5L76.9,47.9L77.6,48.1L78.3,48.3L78.9,48.7" fill="none" stroke="#fbbf24" stroke-width="0.6" stroke-linecap="round" opacity="0.7"/>
  <path d="M35.2,40.6L35.4,40.2L35.6,39.8L35.8,38.9L35.9,38.5L36.2,38.1L36.5,37.6L36.8,37.2L37.2,36.4L37.4,36.1L38.2,35.1L38.6,34.6L39.1,34.2L39.6,33.8L40.1,33.3L40.5,32.9L41.0,32.5L41.6,32.0L42.0,31.6L42.3,31.2" fill="none" stroke="#fbbf24" stroke-width="0.6" stroke-linecap="round" opacity="0.7"/>
  <path d="M65.3,56.6L65.4,55.8L65.3,55.3L65.2,54.9L65.1,54.5L65.0,53.6L64.8,53.2L64.8,53.0L64.8,52.8" fill="none" stroke="#fbbf24" stroke-width="0.6" stroke-linecap="round" opacity="0.7"/>
  <path d="M56.5,39.4L57.0,38.9L57.5,38.5L58.1,38.1L58.7,37.8L59.4,37.6L60.0,36.8" fill="none" stroke="#fbbf24" stroke-width="0.6" stroke-linecap="round" opacity="0.7"/>
  <circle cx="63.8" cy="42.0" r="2" fill="#ffffff" stroke="#ef4444" stroke-width="0.5" opacity="0.9"/>
</svg>