<svg xmlns="http://www.w3.org/2000/svg" viewBox="0 0 102.44941145180643 98.08150433173446" preserveAspectRatio="none">
  <path d="M57.7,29.4L57.7,29.4L57.6,29.4L57.6,29.3L57.6,29.2L57.5,29.0L57.5,28.9L57.5,28.7L57.4,28.5L57.4,28.3L57.4,28.1L57.4,27.8L57.4,27.6L57.4,27.4L57.4,27.3L57.4,27.2L57.4,27.0L57.4,26.9L57.3,26.8L57.3,26.6L57.3,26.4L57.3,26.1L57.2,25.9L57.2,25.7L57.1,25.5L57.1,25.3L57.0,25.2L57.0,25.0L56.9,24.9L56.8,24.8L56.8,24.6L56.8,24.4L56.7,24.2L56.7,24.0L56.7,23.9L56.7,23.7L56.7,23.6L56.6,23.5L56.6,23.4L56.5,23.3L56.5,23.2L56.4,23.1L56.4,22.9L56.3,22.7L56.3,22.5L56.2,22.3L56.2,22.1L56.1,21.9L56.1,21.7L56.0,21.4L56.0,21.2L55.9,21.0L55.9,20.8L55.9,20.6L55.8,20.5L55.8,20.3L55.8,20.2L55.7,20.1L55.7,20.0L55.7,19.9L55.7,19.8L55.6,19.7L55.6,19.5L55.5,19.3L55.5,19.1L55.5,18.9L55.4,18.8L55.4,18.8" fill="none" stroke="#ef4444" stroke-width="0.8" stroke-linecap="round" stroke-linejoin="round" opacity="0.9"/>
  <path d="M42.8,6.2L42.9,6.2L43.0,6.2L43.2,6.2L43.5,6.2L43.7,6.2L44.0,6.3L44.3,6.3L44.5,6.3L44.8,6.3L45.0,6.4L45.3,6.4L45.5,6.5L45.8,6.6L46.0,6.7L46.3,6.7L46.6,6.7L46.8,6.7L47.1,6.7L47.4,6.7L47.6,6.7L47.9,6.8L48.2,6.8L48.5,6.8L48.7,6.8L49.0,6.8L49.3,6.9L49.5,6.9L49.8,7.1L50.0,7.1L50.2,7.2L50.5,7.2L50.8,7.2L51.1,7.2L51.3,7.2L51.6,7.2L51.8,7.3L52.0,7.3L52.3,7.3L52.6,7.3L52.8,7.3L53.1,7.3L53.4,7.3L53.6,7.3L53.9,7.3L54.1,7.3L54.4,7.3L54.6,7.3L54.9,7.3L55.1,7.3L55.3,7.4L55.5,7.5L55.7,7.6L55.9,7.7L56.0,7.7L56.0,7.8" fill="none" stroke="#ef4444" stroke-width="0.8" stroke-linecap="round" stroke-linejoin="round" opacity="0.9"/>
  <path d="M85.1,12.9L85.2,12.9L85.2,12.8L85.2,12.7L85.3,12.6L85.4,12.4L85.4,12.2L85.5,12.0L85.6,11.7L85.7,11.5L85.8,11.3L85.9,11.2L86.0,11.0L86.1,10.9L86.2,10.8L86.3,10.6L86.4,10.4L86.5,10.2L86.6,10.0L86.7,9.9L86.8,9.8L86.9,9.7L86.9,9.5L87.0,9.3L87.1,9.1L87.2,8.9L87.3,8.7L87.3,8.5L87.4,8.3L87.4,8.1L87.5,8.0L87.5,7.9L87.6,7.9L87.7,7.9L87.7,7.8L87.8,7.6L87.9,7.4L88.0,7.2L88.0,7.1L88.1,6.9L88.1,6.8L88.2,6.7L88.2,6.6L88.3,6.5L88.3,6.4L88.4,6.3L88.4,6.1L88.5,5.9L88.5,5.7L88.6,5.6L88.6,5.5L88.6,5.4" fill="none" stroke="#ef4444" stroke-width="0.8" stroke-linecap="round" stroke-linejoin="round" opacity="0.9"/>
  <path d="M30.1,33.1L30.1,33.1L30.0,33.0L29.9,32.8L29.7,32.6L29.5,32.4L29.4,32.3L29.2,32.1L29.0,32.0L28.8,31.9L28.7,31.7L28.5,31.5L28.3,31.3L28.0,31.1L27.8,31.0L27.6,31.0L27.5,31.0L27.3,30.9L27.1,30.9L26.9,30.8L26.8,30.7L26.6,30.6L26.5,30.4L26.3,30.2L26.2,30.0L26.0,29.8L25.9,29.6L25.7,29.5L25.6,29.4L25.5,29.3L25.4,29.3L25.4,29.2" fill="none" stroke="#ef4444" stroke-width="0.8" stroke-linecap="round" stroke-linejoin="round" opacity="0.9"/>
  <path d="M60.5,18.9L60.5,18.9L60.6,18.8L60.8,18.7L61.0,18.6L61.2,18.5L61.4,18.4L61.6,18.3L61.8,18.2L62.0,18.1L62.2,18.0L62.4,17.9L62.6,17.8L62.8,17.7L63.1,17.6L63.3,17.5L63.5,17.4L63.7,17.3L63.9,17.1L64.1,16.9L64.3,16.7L64.6,16.6L64.8,16.5L65.0,16.4L65.2,16.4L65.5,16.4L65.7,16.4L65.9,16.3L66.1,16.2L66.3,16.0L66.5,15.9L66.7,15.7L66.9,15.5L67.1,15.3L67.3,15.2L67.5,15.0L67.7,14.9L67.9,14.8L68.1,14.7L68.3,14.6L68.6,14.5L68.8,14.4L69.0,14.3L69.2,14.1L69.5,14.0L69.7,13.8L69.9,13.7L70.1,13.5L70.4,13.4L70.6,13.2L70.8,13.0L71.0,12.8L71.2,12.6L71.3,12.5L71.5,12.4L71.7,12.3L71.9,12.3L72.1,12.3L72.3,12.2L72.5,12.0L72.7,11.8L72.9,11.6L73.1,11.5L73.3,11.3L73.6,11.2L73.8,11.1L74.0,10.9L74.2,10.8L74.4,10.6L74.6,10.4L74.8,10.2L74.9,10.1L75.1,10.0L75.3,9.9L75.4,9.8L75.6,9.7L75.8,9.6L76.0,9.4L76.1,9.3L76.3,9.1L76.5,8.9L76.7,8.7L76.9,8.6L77.1,8.4L77.2,8.3L77.4,8.2L77.6,8.1L77.7,8.0L77.9,7.9L78.1,7.8L78.2,7.6L78.4,7.4L78.5,7.2L78.7,7.1L78.8,6.9L78.9,6.8L79.1,6.7L79.2,6.5L79.4,6.4L79.6,6.2L79.8,6.0L79.9,5.8L80.1,5.7L80.2,5.7L80.3,5.7L80.4,5.7L80.5,5.7L80.5,5.7" fill="none" stroke="#ef4444" stroke-width="0.8" stroke-linecap="round" stroke-linejoin="round" opacity="0.9"/>
  <path d="M22.9,26.6L22.9,26.6L22.8,26.5L22.7,26.3L22.5,26.1L22.4,25.9L22.3,25.8L22.2,25.6L22.1,25.5L22.0,25.4L21.9,25.2L21.8,25.0L21.7,24.8L21.6,24.6L21.5,24.5L21.5,24.3L21.4,24.2L21.3,24.1L21.3,24.0L21.2,23.9L21.1,23.8L21.1,23.7L21.1,23.7L21.0,23.6" fill="none" stroke="#ef4444" stroke-width="0.8" stroke-linecap="round" stroke-linejoin="round" opacity="0.9"/>
  <path d="M56.5,37.9L56.5,37.9L56.5,37.7L56.6,37.6L56.6,37.4L56.7,37.2L56.8,37.0L56.8,36.9L56.9,36.8L56.9,36.7L57.0,36.6L57.0,36.5L57.0,36.4L57.1,36.2L57.1,36.1L57.2,35.9L57.2,35.7L57.3,35.5L57.3,35.3L57.3,35.1L57.3,34.8L57.4,34.7L57.4,34.5L57.4,34.4L57.5,34.3L57.5,34.2L57.6,34.1L57.6,33.9L57.6,33.8L57.7,33.7L57.7,33.6L57.7,33.4L57.7,33.2L57.7,32.9L57.7,32.7L57.7,32.5L57.8,32.3L57.8,32.1L57.8,32.0L57.8,31.8L57.8,31.7L57.7,31.6L57.7,31.4L57.7,31.2L57.8,31.0L57.8,30.8L57.8,30.7L57.8,30.6L57.8,30.4L57.8,30.4L57.8,30.3L57.8,30.3" fill="none" stroke="#fbbf24" stroke-width="0.6" stroke-linecap="round" stroke-linejoin="round" opacity="0.7"/>
  <path d="M72.4,20.8L72.4,20.8L72.4,20.8L72.5,20.8L72.6,20.8L72.7,20.8L72.8,20.7L72.9,20.7L73.0,20.6L73.1,20.4L73.2,20.3L73.3,20.1L73.4,19.9L73.5,19.7L73.6,19.5L73.7,19.4L73.7,19.3L73.8,19.2L73.9,19.1L74.0,19.0L74.0,18.9L74.1,18.8L74.2,18.7L74.2,18.6L74.3,18.5L74.4,18.4L74.4,18.3L74.4,18.3" fill="none" stroke="#fbbf24" stroke-width="0.6" stroke-linecap="round" stroke-linejoin="round" opacity="0.7"/>
  <path d="M25.6,38.6L25.5,38.6L25.4,38.5L25.3,38.4L25.1,38.3L24.9,38.2L24.8,38.1L24.6,38.0L24.4,37.9L24.2,37.8L24.0,37.7L23.8,37.7L23.7,37.7L23.5,37.7L23.3,37.7L23.1,37.7L22.9,37.7L22.7,37.6L22.5,37.6L22.3,37.5L22.2,37.4L22.0,37.3L21.9,37.2L21.7,37.1L21.5,37.0L21.4,36.9L21.3,36.8L21.3,36.8" fill="none" stroke="#fbbf24" stroke-width="0.6" stroke-linecap="round" stroke-linejoin="round" opacity="0.7"/>
  <path d="M11.4,28.1L11.4,28.1L11.4,28.0L11.3,28.0L11.2,27.8L11.2,27.7L11.1,27.6L11.0,27.4L10.9,27.2L10.8,27.0L10.7,26.8L10.6,26.7L10.5,26.6L10.5,26.5L10.4,26.3L10.4,26.2L10.3,26.1L10.3,26.0L10.2,25.8L10.2,25.7L10.2,25.4L10.2,25.2L10.2,25.0L10.1,24.8L10.1,24.6L10.0,24.4L10.0,24.3L9.9,24.3L9.8,24.3L9.8,24.2L9.8,24.1L9.8,23.9L9.8,23.7L9.8,23.5L9.9,23.4L9.9,23.3L10.0,23.2L10.0,23.0L10.0,22.9L10.1,22.7L10.1,22.5L10.2,22.3L10.2,22.1L10.2,22.0L10.2,21.9L10.2,21.8L10.2,21.7L10.2,21.6L10.3,21.5L10.3,21.3L10.4,21.2L10.4,21.0L10.5,20.8L10.5,20.6L10.6,20.4L10.6,20.1L10.7,19.9L10.7,19.8L10.7,19.7L10.8,19.6L10.8,19.6L10.8,19.6L10.9,19.5L10.9,19.3L11.0,19.1L11.0,18.9L11.0,18.7L11.0,18.5L11.1,18.2L11.1,18.1L11.1,17.9L11.1,17.8L11.1,17.7L11.1,17.6L11.1,17.4L11.1,17.3L11.1,17.2L11.2,17.1L11.2,16.9L11.2,16.8L11.1,16.5L11.1,16.4L11.1,16.2L11.1,16.1L11.2,16.0L11.2,15.9L11.2,15.7L11.1,15.6L11.1,15.5L11.1,15.4L11.0,15.2L11.0,15.1L11.0,14.8L11.0,14.7L11.0,14.5L11.0,14.4L11.0,14.3L11.0,14.2L10.9,14.0L10.9,13.9L10.8,13.8L10.7,13.8L10.7,13.7L10.7,13.7" fill="none" stroke="#fbbf24" stroke-width="0.6" stroke-linecap="round" stroke-linejoin="round" opacity="0.7"/>
  <path d="M31.3,7.7L31.4,7.7L31.5,7.7L31.6,7.7L31.8,7.7L32.0,7.7L32.2,7.6L32.4,7.6L32.6,7.5L32.8,7.4L33.0,7.3L33.2,7.2L33.4,7.1L33.6,7.0L33.8,6.9L34.0,6.9L34.2,6.9L34.4,6.9L34.6,6.9L34.8,6.9L35.0,6.9L35.2,6.9L35.4,6.9L35.6,6.8L35.9,6.7L36.1,6.6L36.3,6.6L36.5,6.5L36.7,6.5L37.0,6.5L37.2,6.5L37.4,6.5L37.6,6.6L37.9,6.5L38.1,6.5L38.4,6.4L38.6,6.3L38.8,6.2L39.1,6.2L39.3,6.2L39.5,6.2L39.8,6.2L40.0,6.2L40.2,6.2L40.5,6.2L40.7,6.2L41.0,6.2L41.2,6.2L41.4,6.2L41.6,6.2L41.7,6.2L41.8,6.2" fill="none" stroke="#fbbf24" stroke-width="0.6" stroke-linecap="round" stroke-linejoin="round" opacity="0.7"/>
  <path d="M56.0,7.8L56.1,7.8L56.2,7.8L56.3,7.8L56.5,7.8L56.7,7.8L57.0,7.9L57.2,7.9L57.4,8.1L57.6,8.1L57.9,8.2L58.1,8.2L58.3,8.2L58.5,8.3L58.7,8.3L58.9,8.4L59.1,8.5L59.3,8.6L59.5,8.7L59.8,8.8L60.0,8.9L60.2,9.1L60.4,9.2L60.5,9.3L60.7,9.4L60.9,9.5L61.1,9.5L61.4,9.6L61.6,9.6L61.8,9.6L62.0,9.6L62.3,9.6L62.5,9.6L62.7,9.6L62.9,9.7L63.1,9.8L63.3,9.9L63.6,9.9L63.8,10.0L64.0,10.0L64.2,10.0L64.4,10.1L64.7,10.1L64.9,10.2L65.1,10.3L65.3,10.4L65.5,10.5L65.7,10.5L66.0,10.5L66.2,10.5L66.4,10.5L66.7,10.5L67.0,10.5L67.2,10.5L67.5,10.6L67.7,10.7L68.0,10.8L68.2,10.9L68.5,10.9L68.7,11.0L68.9,11.0L69.1,11.0L69.3,11.1L69.6,11.2L69.8,11.3L70.0,11.3L70.2,11.4L70.4,11.4L70.7,11.4L70.9,11.4L71.2,11.4L71.5,11.5L71.9,11.5L72.2,11.5L72.5,11.6L72.9,11.6L73.2,11.8L73.4,11.8L73.7,11.9L74.0,11.9L74.2,11.9L74.4,12.0L74.6,12.0L74.8,12.1L74.9,12.2L75.1,12.3L75.2,12.3L75.4,12.4L75.6,12.4L75.9,12.4L76.1,12.4L76.4,12.4L76.6,12.4L76.9,12.4L77.1,12.5L77.3,12.6L77.5,12.7L77.7,12.8L77.9,12.8L78.0,12.9L78.2,12.9L78.4,12.9L78.6,12.9L78.7,13.0L78.9,13.1L79.1,13.2L79.3,13.4L79.5,13.5L79.7,13.6L79.9,13.7L80.1,13.7L80.3,13.7L80.5,13.8L80.7,13.8L80.9,13.8L81.1,13.9L81.3,14.0L81.4,14.1L81.5,14.2L81.5,14.2" fill="none" stroke="#fbbf24" stroke-width="0.6" stroke-linecap="round" stroke-linejoin="round" opacity="0.7"/>
  <path d="M56.1,22.6L56.1,22.6L56.2,22.5L56.3,22.3L56.3,22.1L56.4,21.9L56.5,21.7L56.6,21.6L56.6,21.5L56.7,21.4L56.7,21.2L56.8,21.0L56.8,20.8L56.9,20.6L56.9,20.5L56.9,20.4L57.0,20.2L57.0,20.1L57.0,20.0L57.1,19.8L57.2,19.6L57.2,19.4L57.3,19.2L57.3,19.1L57.4,19.0L57.4,18.9L57.5,18.8L57.6,18.7L57.7,18.6L57.8,18.4L57.9,18.3L58.0,18.1L58.0,17.9L58.1,17.7L58.2,17.5L58.2,17.2L58.3,17.0L58.3,16.8L58.4,16.7L58.5,16.6L58.6,16.5L58.7,16.4L58.8,16.2L58.9,16.1L58.9,16.0L59.0,15.9L59.0,15.8L59.1,15.7L59.2,15.6L59.2,15.5L59.3,15.5L59.3,15.5" fill="none" stroke="#fbbf24" stroke-width="0.6" stroke-linecap="round" stroke-linejoin="round" opacity="0.7"/>
  <path d="M66.4,11.4L66.4,11.3L66.5,11.3L66.7,11.2L67.0,11.1L67.2,11.0L67.4,11.0L67.6,11.0L67.8,11.0L67.9,11.0L68.1,11.0L68.4,11.1L68.6,11.2L68.8,11.3L69.0,11.4L69.2,11.4L69.4,11.4L69.6,11.4L69.8,11.4L70.0,11.4L70.2,11.4L70.4,11.4L70.6,11.4L70.8,11.4L71.0,11.4L71.2,11.4L71.4,11.5L71.6,11.5L71.8,11.5L72.0,11.5L72.2,11.5L72.4,11.5L72.6,11.5L72.8,11.5L72.9,11.5L72.9,11.5" fill="none" stroke="#fbbf24" stroke-width="0.6" stroke-linecap="round" stroke-linejoin="round" opacity="0.7"/>
  <path d="M74.3,32.7L74.3,32.7L74.3,32.7L74.3,32.6L74.4,32.5L74.4,32.4L74.4,32.3L74.5,32.2L74.5,32.0L74.6,31.9L74.6,31.8L74.7,31.6L74.8,31.4L74.8,31.2L74.9,31.0L75.0,30.9L75.0,30.8L75.1,30.7L75.1,30.6L75.2,30.5L75.2,30.4L75.2,30.3L75.3,30.2L75.3,30.0L75.3,29.9L75.4,29.8L75.4,29.7L75.5,29.6L75.5,29.5L75.5,29.4L75.6,29.2L75.6,29.0L75.7,28.8L75.7,28.6L75.8,28.5L75.9,28.4L75.9,28.3L76.0,28.1L76.1,28.0L76.1,27.9L76.2,27.8L76.2,27.7L76.3,27.6L76.3,27.5L76.4,27.4L76.4,27.3L76.5,27.1L76.5,26.9L76.6,26.7L76.6,26.5L76.7,26.4L76.8,26.3L76.8,26.1L77.1,25.8L77.6,25.2L78.2,24.3L79.0,23.1L79.7,22.2L80.1,21.6L80.4,21.2L80.5,21.1L80.5,21.0L80.6,21.0L80.7,21.0L80.7,21.0L80.8,20.9L80.9,20.8L81.0,20.7L81.1,20.4L81.1,20.3L81.2,20.1L81.3,20.0L81.4,19.9L81.5,19.8L81.6,19.7L81.6,19.6L81.7,19.5L81.8,19.3L81.9,19.2L81.9,19.1L82.0,19.0L82.1,18.8L82.2,18.6L82.3,18.2L82.4,17.8L82.6,17.5L82.7,17.2L82.8,17.0L82.9,16.9L82.9,16.8L83.0,16.7L83.1,16.6L83.2,16.5L83.3,16.4L83.4,16.3L83.5,16.2L83.6,16.1L83.6,16.0L83.7,15.8L83.8,15.6L83.8,15.4L83.9,15.2L84.0,15.1L84.0,14.9L84.1,14.8L84.2,14.7L84.2,14.5L84.3,14.4L84.4,14.1L84.5,14.0L84.6,13.8L84.7,13.7L84.8,13.6L84.8,13.5L84.9,13.4L84.9,13.4" fill="none" stroke="#fbbf24" stroke-width="0.6" stroke-linecap="round" stroke-linejoin="round" opacity="0.7"/>
  <path d="M88.6,5.4L88.6,5.4L88.6,5.3L88.7,5.1L88.7,4.9L88.7,4.7L88.8,4.5L88.8,4.3L88.8,4.0L88.8,3.9L88.8,3.8L88.9,3.7L88.9,3.7L88.9,3.7L89.0,3.6L89.0,3.4L89.1,3.2L89.1,3.0L89.1,2.8L89.1,2.6L89.1,2.4L89.0,2.1L89.0,1.9L89.0,1.7L89.0,1.5L89.0,1.3L89.0,1.2L88.9,1.2L88.9,1.2L88.8,1.2L88.8,1.2L88.8,1.2" fill="none" stroke="#fbbf24" stroke-width="0.6" stroke-linecap="round" stroke-linejoin="round" opacity="0.7"/>
  <path d="M60.7,50.7L60.8,50.7L60.9,50.6L61.1,50.6L61.3,50.5L61.4,50.4L61.6,50.3L61.8,50.3L62.0,50.3L62.2,50.3L62.4,50.2L62.6,50.2L62.8,50.1L63.0,50.0L63.3,49.9L63.5,49.9L63.7,49.9L63.9,49.9L64.1,49.9L64.3,49.9L64.5,49.9L64.7,49.9L64.9,49.9L65.1,49.8L65.4,49.7L65.6,49.6L65.8,49.6L66.0,49.6L66.2,49.6L66.5,49.6L66.7,49.6L66.9,49.6L67.1,49.6L67.3,49.6L67.5,49.6L67.7,49.6L67.9,49.6L68.2,49.6L68.4,49.6L68.6,49.6L68.8,49.6L69.0,49.6L69.2,49.5L69.4,49.5L69.6,49.4L69.9,49.3L70.1,49.2L70.3,49.0L70.5,48.9L70.7,48.9L70.9,48.8L71.1,48.8L71.3,48.8L71.5,48.8L71.7,48.7L71.8,48.7L72.0,48.6L72.2,48.5L72.4,48.4L72.6,48.4L72.8,48.4L73.0,48.4L73.2,48.3L73.4,48.3L73.6,48.2L73.8,48.1L74.0,48.0L74.1,48.0L74.3,48.0L74.5,48.0L74.7,47.9L74.9,47.9L75.0,47.8L75.2,47.7L75.4,47.6L75.6,47.6L75.7,47.6L75.8,47.6L75.9,47.6L75.9,47.6" fill="none" stroke="#fbbf24" stroke-width="0.6" stroke-linecap="round" stroke-linejoin="round" opacity="0.7"/>
  <path d="M51.4,56.9L51.4,56.9L51.3,57.0L51.1,57.1L50.9,57.2L50.7,57.2L50.5,57.3L50.3,57.3L50.1,57.3L49.9,57.3L49.7,57.3L49.5,57.3L49.3,57.3L49.0,57.3L48.8,57.4L48.6,57.4L48.4,57.5L48.2,57.6L48.0,57.7L47.7,57.7L47.5,57.7L47.3,57.7L47.1,57.7L46.9,57.7L46.7,57.7L46.5,57.7L46.3,57.7L46.1,57.8L45.9,57.9L45.6,58.0L45.4,58.0L45.2,58.1L45.0,58.1L44.8,58.1L44.6,58.0L44.4,58.0L44.2,58.0L44.0,58.0L43.8,58.0L43.6,58.0L43.4,58.0L43.2,58.0L43.0,58.0L42.8,58.0L42.6,58.0L42.4,58.0L42.2,58.0L41.9,58.0L41.7,58.0L41.5,58.0L41.3,58.0L41.1,58.0L40.9,58.0L40.7,58.0L40.5,58.0L40.2,58.0L40.0,58.0L39.8,58.0L39.6,58.0L39.4,57.9L39.2,57.9L39.0,57.9L38.8,57.9L38.6,57.9L38.4,57.9L38.2,57.9L38.0,57.9L37.8,57.9L37.6,57.9L37.4,57.9L37.2,57.9L37.0,57.9L36.8,57.9L36.6,57.9L36.4,57.9L36.2,57.9L36.0,57.9L35.9,57.9L35.8,57.9L35.7,57.9" fill="none" stroke="#fbbf24" stroke-width="0.6" stroke-linecap="round" stroke-linejoin="round" opacity="0.7"/>
  <path d="M76.3,39.1L76.2,39.1L76.1,39.1L76.0,39.1L75.8,39.1L75.6,39.1L75.4,39.1L75.2,39.1L75.0,39.1L74.8,39.1L74.6,39.1L74.4,39.1L74.2,39.1L73.9,39.1L73.7,39.1L73.5,39.1L73.3,39.1L73.0,39.1L72.8,39.1L72.6,39.1L72.4,39.1L72.2,39.1L72.0,39.1L71.8,39.1L71.6,39.0L71.4,39.0L71.2,39.0L71.0,38.9L70.8,38.8L70.6,38.7L70.4,38.6L70.2,38.6L70.0,38.6L69.8,38.6L69.6,38.6L69.4,38.6L69.2,38.6L68.9,38.6L68.7,38.6L68.5,38.6L68.3,38.6L68.1,38.6L67.9,38.6L67.7,38.5L67.5,38.5L67.3,38.5L67.1,38.5L66.9,38.5L66.7,38.5L66.5,38.5L66.3,38.5L66.1,38.5L65.9,38.5L65.7,38.5L65.4,38.5L65.2,38.5L65.0,38.5L64.8,38.5L64.6,38.5L64.3,38.5L64.1,38.5L63.9,38.5L63.7,38.5L63.5,38.5L63.3,38.5L63.1,38.4L62.8,38.4L62.6,38.3L62.4,38.2L62.2,38.1L62.0,38.0L61.8,38.0L61.6,38.0L61.4,38.0L61.2,38.0L61.0,38.0L60.8,38.0L60.6,38.0L60.4,37.9L60.2,37.8L60.0,37.7L59.8,37.6L59.7,37.6L59.7,37.5" fill="none" stroke="#fbbf24" stroke-width="0.6" stroke-linecap="round" stroke-linejoin="round" opacity="0.7"/>
  <path d="M39.1,38.0L39.1,38.0L39.0,38.0L38.8,38.0L38.6,38.0L38.4,38.0L38.2,37.9L38.1,37.8L37.9,37.7L37.7,37.6L37.6,37.5L37.4,37.4L37.2,37.3L37.0,37.2L36.9,37.0L36.7,36.9L36.6,36.8L36.4,36.7L36.2,36.6L36.1,36.5L35.9,36.4L35.7,36.3L35.6,36.2L35.4,36.1L35.2,36.0L35.0,35.9L34.8,35.8L34.6,35.8L34.5,35.8L34.3,35.7L34.1,35.7L33.9,35.6L33.8,35.5L33.6,35.4L33.4,35.2L33.3,35.0L33.2,34.8L33.0,34.6L32.8,34.4L32.7,34.3L32.5,34.2L32.3,34.1L32.2,34.0L32.0,33.9L31.8,33.8L31.6,33.7L31.4,33.6L31.2,33.6L31.0,33.6L30.6,33.3L29.8,32.8L28.7,32.0L27.4,30.9L26.3,30.0L25.6,29.4L25.2,29.1L25.0,29.0L24.9,28.9L24.8,28.7L24.7,28.6L24.6,28.5L24.5,28.4L24.5,28.3L24.4,28.2L24.3,28.1L24.3,28.0L24.2,27.8L24.1,27.6L24.0,27.4L23.9,27.2L23.9,27.1L23.8,26.9L23.8,26.8L23.7,26.7L23.7,26.6L23.6,26.5L23.6,26.4L23.5,26.3L23.4,26.2L23.3,26.1L23.2,26.0L23.2,25.8L23.1,25.7L23.1,25.5L23.1,25.3L23.0,25.1L23.0,24.9L23.0,24.8L23.0,24.7L22.9,24.6L22.9,24.5L22.9,24.4L22.9,24.3L22.8,24.1L22.8,24.0L22.7,23.9L22.7,23.8L22.6,23.7L22.6,23.7L22.5,23.7" fill="none" stroke="#fbbf24" stroke-width="0.6" stroke-linecap="round" stroke-linejoin="round" opacity="0.7"/>
  <path d="M50.7,23.8L50.7,23.8L50.8,23.7L50.9,23.6L51.0,23.5L51.2,23.4L51.4,23.3L51.5,23.2L51.7,23.1L51.9,23.0L52.1,23.0L52.2,23.0L52.4,23.0L52.6,22.9L52.8,22.9L53.0,22.8L53.2,22.7L53.4,22.6L53.5,22.5L53.7,22.4L53.9,22.3L54.1,22.2L54.3,22.0L54.5,21.8L54.7,21.6L54.9,21.5L55.0,21.3L55.2,21.2L55.4,21.1L55.5,21.0L55.7,20.9L55.9,20.8L56.1,20.7L56.3,20.6L56.5,20.5L56.8,20.5L57.0,20.5L57.2,20.5L57.5,20.4L57.7,20.4L57.9,20.3L58.0,20.2L58.3,20.1L58.5,20.0L58.7,19.9L58.9,19.8L59.1,19.6L59.3,19.5L59.5,19.4L59.6,19.4L59.7,19.3L59.7,19.3" fill="none" stroke="#fbbf24" stroke-width="0.6" stroke-linecap="round" stroke-linejoin="round" opacity="0.7"/>
  <path d="M80.5,5.7L80.6,5.6L80.6,5.5L80.7,5.4L80.8,5.2L80.9,5.0L81.0,4.8L81.1,4.7L81.2,4.6L81.3,4.5L81.4,4.3L81.5,4.1L81.6,3.9L81.8,3.7L81.9,3.6L82.0,3.6L82.1,3.6L82.2,3.6L82.3,3.5L82.4,3.4L82.4,3.2L82.5,3.0L82.5,2.9L82.6,2.7L82.7,2.6L82.7,2.4L82.8,2.3L82.8,2.2L82.8,2.1L82.8,1.9L82.9,1.8L82.9,1.6L83.0,1.4L83.0,1.2L83.1,1.1L83.1,1.1L83.1,1.1L83.1,1.1L83.1,1.1L83.2,1.1" fill="none" stroke="#fbbf24" stroke-width="0.6" stroke-linecap="round" stroke-linejoin="round" opacity="0.7"/>
  <path d="M28.1,32.7L28.1,32.6L28.0,32.5L27.9,32.4L27.8,32.1L27.7,32.0L27.6,31.8L27.4,31.7L27.3,31.6L27.2,31.4L27.1,31.3L26.9,31.2L26.7,31.1L26.6,31.0L26.5,31.0L26.4,31.0L26.3,31.0L26.2,30.9L26.1,30.9L26.0,30.8L25.8,30.7L25.7,30.5L25.6,30.4L25.5,30.2L25.4,30.0L25.4,29.8L25.3,29.6L25.2,29.5L25.1,29.4L24.9,29.3L24.8,29.2L24.7,29.1L24.6,29.0L24.4,28.8L24.3,28.7L24.2,28.6L24.1,28.5L24.0,28.4L23.9,28.2L23.8,28.0L23.7,27.8L23.6,27.6L23.5,27.5L23.4,27.3L23.3,27.2L23.1,26.9L22.8,26.5L22.4,25.8L21.8,24.9L21.4,24.2L21.1,23.7L20.9,23.3L20.8,23.1L20.7,22.9L20.6,22.7L20.5,22.6L20.4,22.5L20.3,22.4L20.2,22.3L20.1,22.2L20.1,22.1L20.0,22.0L19.9,21.9L19.9,21.8L19.8,21.6L19.7,21.5L19.6,21.4L19.5,21.3L19.4,21.2L19.4,21.1L19.3,20.9L19.2,20.7L19.1,20.5L19.0,20.3L19.0,20.2L18.9,20.0L18.8,19.9L18.8,19.8L18.7,19.7L18.6,19.6L18.5,19.5L18.4,19.4L18.4,19.4L18.4,19.3" fill="none" stroke="#fbbf24" stroke-width="0.6" stroke-linecap="round" stroke-linejoin="round" opacity="0.7"/>
  <path d="M68.0,16.7L68.1,16.7L68.1,16.7L68.3,16.6L68.5,16.6L68.6,16.5L68.8,16.4L69.0,16.3L69.1,16.2L69.3,16.1L69.4,16.0L69.6,15.9L69.8,15.8L70.0,15.7L70.1,15.6L70.3,15.5L70.5,15.4L70.7,15.3L70.9,15.3L71.1,15.3L71.3,15.3L71.5,15.2L71.7,15.2L71.8,15.1L72.0,15.0L72.2,14.9L72.4,14.9L72.6,14.9L72.8,14.9L73.0,14.9L73.1,14.8L73.3,14.7L73.5,14.6L73.7,14.5L73.9,14.5L74.0,14.5L74.2,14.5L74.4,14.5L74.6,14.5L74.7,14.5L74.9,14.5L75.2,14.5L75.4,14.5L75.8,14.5L76.1,14.5L76.5,14.5L76.8,14.4L77.0,14.4L77.2,14.3L77.4,14.2L77.6,14.1L77.8,14.1L78.0,14.1L78.2,14.1L78.4,14.1L78.6,14.0L78.8,13.9L79.0,13.8L79.2,13.8L79.4,13.7L79.6,13.7L79.8,13.7L80.0,13.7L80.2,13.7L80.4,13.8L80.6,13.7L80.8,13.7L81.0,13.6L81.2,13.5L81.4,13.4L81.6,13.4L81.8,13.4L82.0,13.4L82.2,13.3L82.4,13.3L82.6,13.3L82.8,13.2L83.0,13.2L83.2,13.1L83.4,13.1L83.6,13.0L83.8,13.0L84.0,13.0L84.2,13.0L84.4,13.0L84.6,13.0L84.8,12.9L85.0,12.8L85.2,12.7L85.4,12.7L85.6,12.6L85.8,12.6L86.0,12.6L86.2,12.6L86.4,12.6L86.6,12.6L86.8,12.6L87.0,12.6L87.2,12.5L87.4,12.5L87.6,12.3L87.8,12.3L88.0,12.2L88.1,12.2L88.3,12.2L88.5,12.2L88.7,12.1L88.9,12.1L89.1,12.0L89.3,11.9L89.4,11.8L89.4,11.8" fill="none" stroke="#fbbf24" stroke-width="0.6" stroke-linecap="round" stroke-linejoin="round" opacity="0.7"/>
  <ellipse cx="51.9" cy="34.9" rx="3.5" ry="2.2" fill="#0c0c0c" stroke="#ef4444" stroke-width="0.4" opacity="0.95"/>
  <text x="51.9" y="35.8" text-anchor="middle" font-family="sans-serif" font-size="2.4" font-weight="700" fill="#ffffff" opacity="0.95">OR</text>
</svg>