<svg xmlns="http://www.w3.org/2000/svg" viewBox="0 0 102.27040591422573 107.44489710580129" preserveAspectRatio="none">
  <path d="M83.3,70.8L83.3,70.9L83.3,70.9L83.2,71.0L83.1,71.1L83.1,71.2L83.0,71.3L82.9,71.4L82.8,71.5L82.7,71.6L82.6,71.8L82.5,71.9L82.4,72.1L82.3,72.3L82.2,72.5L82.1,72.6L82.0,72.7L81.8,72.8L81.7,73.0L81.6,73.1L81.5,73.3L81.4,73.5L81.3,73.7L81.2,73.9L81.1,74.2L81.0,74.3L80.9,74.5L80.8,74.6L80.8,74.7L80.7,74.8L80.6,75.0L80.5,75.2L80.4,75.4L80.3,75.5L80.2,75.6L80.2,75.7" fill="none" stroke="#ef4444" stroke-width="0.8" stroke-linecap="round" stroke-linejoin="round" opacity="0.9"/>
  <path d="M73.4,23.8L73.3,23.8L73.3,23.7L73.2,23.5L73.1,23.3L73.0,23.1L72.9,22.9L72.7,22.8L72.6,22.6L72.5,22.5L72.3,22.4L72.2,22.3L72.1,22.1L72.0,22.0L71.9,21.9L71.8,21.8L71.7,21.7L71.6,21.5L71.5,21.4L71.4,21.2L71.3,20.9L71.3,20.8L71.2,20.7L71.2,20.6" fill="none" stroke="#ef4444" stroke-width="0.8" stroke-linecap="round" stroke-linejoin="round" opacity="0.9"/>
  <path d="M93.2,81.3L93.2,81.4L93.1,81.5L93.0,81.6L92.8,81.8L92.6,82.0L92.5,82.1L92.3,82.3L92.2,82.3L92.0,82.4L91.9,82.5L91.8,82.6L91.6,82.7L91.5,82.8L91.3,83.0L91.2,83.2L91.0,83.4L90.9,83.5L90.7,83.7L90.6,83.8L90.4,83.9L90.2,84.0L90.0,84.1L89.9,84.3L89.6,84.5L89.4,84.6L89.3,84.7L89.1,84.8L89.0,84.7L88.8,84.8L88.6,84.9L88.5,85.0L88.3,85.2L88.1,85.4L87.9,85.6L87.7,85.8L87.6,86.0L87.4,86.2L87.2,86.3L87.0,86.4L86.8,86.5L86.6,86.6L86.4,86.7L86.1,86.8L85.9,86.8L85.7,86.9L85.5,87.0L85.3,87.1L85.1,87.2L84.9,87.3L84.7,87.4L84.5,87.6L84.2,87.8L84.0,88.0L83.8,88.1L83.6,88.2L83.4,88.3L83.2,88.4L83.0,88.4L82.8,88.4L82.6,88.4L82.4,88.4L82.1,88.5L81.9,88.6L81.6,88.8L81.3,89.0L81.1,89.1L80.9,89.2L80.6,89.3L80.4,89.4L80.2,89.5L79.9,89.5L79.7,89.6L79.4,89.7L79.2,89.8L79.0,89.9L78.7,90.0L78.5,90.0L78.3,90.1L78.0,90.2L77.8,90.3L77.6,90.4L77.4,90.5L77.2,90.5L77.0,90.6L76.9,90.7L76.8,90.7L76.7,90.8" fill="none" stroke="#ef4444" stroke-width="0.8" stroke-linecap="round" stroke-linejoin="round" opacity="0.9"/>
  <path d="M93.5,45.7L93.5,45.8L93.4,45.9L93.4,46.0L93.3,46.2L93.3,46.4L93.2,46.6L93.1,46.9L93.1,47.1L93.0,47.2L93.0,47.4L92.9,47.5L92.8,47.6L92.7,47.7L92.7,47.8L92.6,47.9L92.5,48.0L92.4,48.1L92.3,48.3L92.3,48.5L92.2,48.7L92.1,48.9L92.1,49.0L92.0,49.2L92.0,49.3L91.9,49.4L91.8,49.5L91.8,49.7L91.7,49.9L91.6,50.1L91.5,50.3L91.4,50.5L91.3,50.7L91.2,50.9L91.1,51.1L91.0,51.2L90.9,51.3L90.9,51.4L90.8,51.6L90.7,51.7L90.6,52.0L90.5,52.2L90.4,52.4L90.4,52.6L90.3,52.8L90.2,53.0L90.2,53.1L90.1,53.2L90.1,53.4L90.0,53.5L89.9,53.6L89.9,53.8L89.8,54.0L89.7,54.2L89.6,54.4L89.5,54.6L89.4,54.8L89.3,55.1L89.1,55.4L89.0,55.8L88.8,56.2L88.7,56.5L88.5,56.8L88.4,57.1L88.3,57.3L88.2,57.5L88.1,57.6L88.0,57.8L87.9,57.9L87.9,58.0L87.8,58.1L87.7,58.3L87.6,58.5L87.5,58.7L87.4,58.8L87.3,59.0L87.2,59.1L87.1,59.2L87.0,59.3L86.9,59.5L86.8,59.7L86.7,59.9L86.7,60.1L86.6,60.3L86.5,60.5L86.4,60.7L86.3,61.0L86.2,61.2L86.1,61.4L86.0,61.5L85.9,61.7L85.8,61.8L85.7,61.9L85.6,62.0L85.5,62.1L85.4,62.2L85.2,62.3L85.1,62.4L85.0,62.6L84.9,62.7L84.8,62.9L84.8,63.2L84.7,63.4L84.6,63.6L84.5,63.8L84.4,63.9L84.3,64.0L84.3,64.1" fill="none" stroke="#ef4444" stroke-width="0.8" stroke-linecap="round" stroke-linejoin="round" opacity="0.9"/>
  <path d="M80.2,71.8L80.2,71.9L80.2,72.0L80.1,72.1L80.1,72.3L80.0,72.5L80.0,72.7L79.9,72.8L79.9,72.9L79.9,73.0L79.9,73.2L79.8,73.4L79.8,73.6L79.8,73.8L79.8,73.9L79.8,74.1L79.8,74.2L79.8,74.3L79.8,74.4L79.8,74.5L79.8,74.6L79.8,74.7L79.8,74.9L79.7,75.1L79.7,75.3L79.6,75.4L79.6,75.5L79.6,75.6" fill="none" stroke="#ef4444" stroke-width="0.8" stroke-linecap="round" stroke-linejoin="round" opacity="0.9"/>
  <path d="M73.3,72.4L73.3,72.4L73.3,72.4L73.2,72.5L73.2,72.6L73.2,72.8L73.1,72.9L73.0,73.1L72.9,73.3L72.8,73.5L72.7,73.6L72.7,73.8L72.6,73.9L72.6,74.0L72.5,74.1L72.5,74.3L72.4,74.5L72.4,74.7L72.3,74.9L72.3,75.2L72.2,75.4L72.2,75.6L72.2,75.7L72.2,75.8L72.2,76.0L72.1,76.1L72.1,76.2L72.1,76.4L72.0,76.6L72.0,76.8L72.0,77.0L71.9,77.1L71.9,77.2L71.9,77.3L71.9,77.5L71.8,77.7L71.7,77.9L71.7,78.1L71.7,78.2L71.7,78.4L71.7,78.5L71.7,78.6L71.7,78.6L71.7,78.6" fill="none" stroke="#ef4444" stroke-width="0.8" stroke-linecap="round" stroke-linejoin="round" opacity="0.9"/>
  <path d="M84.6,82.1L84.6,82.1L84.7,82.2L84.9,82.2L85.2,82.2L85.4,82.2L85.6,82.3L85.9,82.3L86.1,82.3L86.3,82.3L86.6,82.4L86.9,82.4L87.1,82.4L87.4,82.4L87.7,82.5L87.9,82.5L88.2,82.5L88.4,82.5L88.7,82.6L89.0,82.6L89.3,82.6L89.5,82.6L89.8,82.6L90.1,82.6L90.4,82.5L90.6,82.4L90.9,82.4L91.1,82.4L91.3,82.4L91.6,82.4L91.8,82.5L92.1,82.5L92.3,82.5L92.6,82.6L92.9,82.6L93.1,82.6L93.4,82.6L93.7,82.7L93.9,82.7L94.2,82.7L94.5,82.8L94.7,82.8L95.0,82.8L95.2,82.8L95.4,82.9L95.6,82.9L95.7,82.9L95.8,82.9" fill="none" stroke="#ef4444" stroke-width="0.8" stroke-linecap="round" stroke-linejoin="round" opacity="0.9"/>
  <path d="M83.4,73.0L83.4,73.0L83.4,73.1L83.3,73.2L83.3,73.3L83.3,73.4L83.2,73.5L83.1,73.7L83.0,73.9L83.0,74.1L82.9,74.3L82.8,74.4L82.7,74.5L82.7,74.6L82.6,74.7L82.5,74.8L82.4,74.9L82.3,75.0L82.3,75.1L82.2,75.2L82.1,75.3L82.0,75.4L81.9,75.5L81.8,75.7L81.7,75.9L81.7,76.1L81.6,76.3L81.6,76.4L81.5,76.5L81.4,76.6L81.4,76.7L81.3,76.8L81.2,76.9L81.1,77.0L81.1,77.2L80.9,77.4L80.8,77.6L80.7,77.7L80.6,77.9L80.5,78.0L80.4,78.1L80.3,78.2L80.2,78.4L80.1,78.6L80.0,78.8L79.9,78.9L79.9,79.1L79.8,79.2L79.8,79.3L79.8,79.4L79.7,79.5L79.7,79.6L79.7,79.7L79.6,79.8L79.6,80.0L79.6,80.1L79.5,80.2L79.5,80.3L79.4,80.4L79.3,80.6L79.2,80.8L79.1,81.0L79.0,81.2L79.0,81.3L78.9,81.4L78.9,81.5L78.8,81.6L78.8,81.7L78.8,81.8L78.7,81.9L78.6,82.1L78.6,82.3L78.5,82.5L78.4,82.6L78.4,82.7L78.4,82.8" fill="none" stroke="#fbbf24" stroke-width="0.6" stroke-linecap="round" stroke-linejoin="round" opacity="0.7"/>
  <path d="M88.9,62.8L88.9,62.9L88.8,62.9L88.7,63.0L88.6,63.1L88.5,63.2L88.4,63.3L88.3,63.5L88.2,63.7L88.1,63.9L88.0,64.1L87.9,64.2L87.9,64.3L87.8,64.4L87.7,64.5L87.7,64.6L87.6,64.7L87.6,64.8L87.5,65.0L87.4,65.2L87.3,65.4L87.3,65.5L87.2,65.7L87.1,65.8L87.0,65.9L86.9,66.0L86.9,66.1L86.8,66.2L86.7,66.3L86.6,66.4L86.5,66.5L86.4,66.6L86.3,66.7L86.2,66.8L86.1,67.0L86.0,67.1L85.9,67.4L85.7,67.6L85.6,67.8L85.5,68.0L85.3,68.2L85.2,68.3L85.1,68.5L85.0,68.6L84.9,68.7L84.8,68.8L84.7,68.9L84.6,69.0L84.5,69.1L84.4,69.2L84.2,69.4L84.1,69.5L84.0,69.7L83.7,70.2L83.2,71.0L82.5,72.1L81.6,73.6L80.9,74.6L80.4,75.4L80.1,75.8L80.0,75.9L79.9,76.0L79.8,76.2L79.8,76.4L79.7,76.6L79.7,76.8L79.6,76.9L79.5,77.0L79.5,77.1L79.4,77.3L79.3,77.4L79.3,77.6L79.2,77.8L79.1,78.0L79.0,78.2L79.0,78.4L78.9,78.6L78.8,78.8L78.7,79.0L78.7,79.1L78.6,79.2L78.5,79.3L78.5,79.4L78.4,79.5L78.4,79.6L78.3,79.7L78.2,79.8L78.2,79.9L78.2,80.0L78.1,80.1L78.0,80.3L78.0,80.5L77.9,80.7L77.8,80.9L77.8,81.0L77.7,81.2L77.7,81.3L77.6,81.4L77.6,81.5L77.6,81.6L77.5,81.7L77.5,81.7L77.4,81.8L77.4,81.8" fill="none" stroke="#fbbf24" stroke-width="0.6" stroke-linecap="round" stroke-linejoin="round" opacity="0.7"/>
  <path d="M88.6,47.3L88.6,47.3L88.6,47.3L88.5,47.2L88.5,47.1L88.4,47.0L88.4,46.8L88.4,46.7L88.4,46.6L88.4,46.5L88.4,46.3L88.4,46.1L88.4,45.9L88.4,45.7L88.4,45.6L88.4,45.4L88.3,45.3L88.3,45.2L88.3,45.0L88.3,44.8L88.3,44.6L88.3,44.5L88.2,44.4L88.2,44.3L88.1,44.3L88.0,44.2L88.0,44.1L87.9,43.9L87.9,43.7L87.9,43.5L87.9,43.4L87.8,43.2L87.8,43.1L87.8,43.0L87.7,42.8L87.6,42.6L87.5,42.4L87.4,42.2L87.3,42.0L87.2,41.9L87.1,41.8L87.1,41.7L87.0,41.5L86.9,41.4L86.8,41.3L86.8,41.2L86.7,41.0L86.6,40.8L86.5,40.6L86.5,40.4L86.4,40.2L86.3,40.1L86.3,40.0L86.2,39.9L86.1,39.8L86.0,39.8L85.9,39.8L85.8,39.7L85.7,39.6L85.6,39.4L85.6,39.2L85.5,39.0L85.4,38.8L85.4,38.7L85.3,38.6L85.2,38.5L85.1,38.3L85.0,38.2L84.9,38.1L84.8,38.0L84.7,37.9L84.6,37.7L84.5,37.6L84.4,37.5L84.3,37.4L84.3,37.3L84.2,37.2L84.1,37.1L84.0,36.9L83.9,36.8L83.8,36.7L83.7,36.6L83.6,36.5L83.5,36.3L83.4,36.2L83.3,36.1L83.2,36.0L83.1,35.9L82.9,35.7L82.8,35.6L82.7,35.5L82.6,35.4L82.5,35.3L82.4,35.1L82.2,35.0L82.1,34.9L82.0,34.8L81.9,34.6L81.8,34.5L81.7,34.3L81.6,34.0L81.5,33.8L81.4,33.7L81.3,33.5L81.2,33.4L81.1,33.3L81.0,33.1L80.9,32.9L80.8,32.7L80.7,32.5L80.5,32.4L80.4,32.3L80.2,32.3L80.1,32.3L80.0,32.2L79.8,32.1L79.7,32.0L79.6,31.8L79.5,31.7L79.4,31.5L79.4,31.2L79.3,31.0L79.2,30.9L79.1,30.7L78.9,30.6L78.8,30.5L78.7,30.4L78.6,30.2L78.5,30.1L78.3,30.0L78.2,29.9L78.1,29.8L78.0,29.6L77.9,29.5L77.8,29.3L77.7,29.1L77.6,28.9L77.4,28.7L77.3,28.5L77.2,28.4L77.1,28.3L77.0,28.1L76.9,28.0L76.8,27.9L76.7,27.8L76.6,27.7L76.5,27.6L76.4,27.4L76.3,27.3L76.1,27.2L76.0,27.1L75.9,26.9L75.7,26.8L75.6,26.7L75.5,26.5L75.4,26.3L75.3,26.1L75.2,25.9L75.1,25.7L75.0,25.6L74.9,25.4L74.8,25.4L74.6,25.3L74.5,25.3L74.4,25.2L74.3,25.2L74.2,25.1L74.1,24.9L74.0,24.7L73.8,24.3L73.4,23.7L72.9,22.9L72.2,22.0L71.7,21.3L71.3,20.7L71.0,20.4L70.8,20.3L70.7,20.2L70.6,20.1L70.5,19.9L70.3,19.8L70.2,19.7L70.1,19.6L70.0,19.5L69.9,19.3L69.8,19.2L69.7,19.0L69.6,18.8L69.5,18.6L69.4,18.4L69.4,18.2L69.3,18.1L69.2,18.0L69.0,17.9L68.9,17.8L68.8,17.8L68.6,17.8L68.5,17.7L68.4,17.6L68.3,17.4L68.2,17.2L68.1,17.0L68.0,16.8L67.9,16.7L67.8,16.5L67.7,16.4L67.6,16.2L67.5,16.0L67.4,15.8L67.3,15.6L67.2,15.5L67.1,15.5L67.0,15.4L66.9,15.4L66.8,15.3L66.7,15.2L66.6,15.1L66.5,15.0L66.5,14.8L66.4,14.6L66.3,14.4L66.3,14.2L66.2,14.0L66.1,13.9L66.0,13.8L65.9,13.7L65.8,13.5L65.7,13.4L65.6,13.3L65.4,13.2L65.4,13.1L65.3,13.0L65.2,12.8L65.1,12.7L65.0,12.6L64.9,12.5L64.8,12.4L64.7,12.2L64.6,12.1L64.5,12.0L64.4,11.9L64.3,11.8L64.2,11.7L64.2,11.7" fill="none" stroke="#fbbf24" stroke-width="0.6" stroke-linecap="round" stroke-linejoin="round" opacity="0.7"/>
  <path d="M66.3,5.1L66.3,5.0L66.4,5.0L66.5,4.9L66.7,4.8L66.9,4.7L67.1,4.7L67.3,4.6L67.5,4.5L67.7,4.4L67.9,4.4L68.1,4.4L68.2,4.4L68.4,4.4L68.6,4.4L68.8,4.5L69.0,4.5L69.1,4.5L69.3,4.4L69.5,4.4L69.8,4.3L70.0,4.2L70.2,4.1L70.4,4.0L70.6,4.0L70.8,3.9L71.0,3.8L71.2,3.7L71.4,3.6L71.6,3.5L71.9,3.4L72.1,3.4L72.3,3.3L72.6,3.2L72.8,3.2L73.0,3.2L73.2,3.2L73.4,3.2L73.7,3.2L73.9,3.1L74.1,3.0L74.3,3.0L74.6,2.9L74.8,2.9L75.0,3.0L75.2,3.0L75.4,3.0L75.6,3.0L75.8,3.1L76.1,3.1L76.3,3.0L76.5,3.0L76.8,2.9L77.0,2.8L77.3,2.8L77.5,2.8L77.7,2.8L78.0,2.8L78.2,2.8L78.5,2.7L78.7,2.7L79.0,2.6L79.2,2.6L79.5,2.6L79.7,2.6L79.9,2.6L80.2,2.6L80.4,2.5L80.6,2.4L80.8,2.4L81.1,2.3L81.3,2.3L81.5,2.4L81.7,2.4L81.9,2.3L82.2,2.3L82.4,2.2L82.6,2.1L82.8,2.1L83.0,2.1L83.2,2.1L83.4,2.1L83.6,2.1L83.8,2.0L84.1,1.9L84.2,1.9L84.3,1.8L84.4,1.8" fill="none" stroke="#fbbf24" stroke-width="0.6" stroke-linecap="round" stroke-linejoin="round" opacity="0.7"/>
  <path d="M90.0,78.8L90.0,78.9L90.0,78.9L89.9,79.0L89.9,79.1L89.9,79.2L89.9,79.4L89.9,79.6L89.9,79.8L89.8,80.0L89.8,80.1L89.8,80.3L89.8,80.4L89.7,80.5L89.7,80.6L89.7,80.7L89.6,80.8L89.6,80.9L89.6,81.0L89.6,81.1L89.6,81.2L89.6,81.4L89.6,81.5L89.6,81.7L89.6,81.9L89.6,82.1L89.6,82.2L89.6,82.2" fill="none" stroke="#fbbf24" stroke-width="0.6" stroke-linecap="round" stroke-linejoin="round" opacity="0.7"/>
  <path d="M96.4,77.8L96.3,77.8L96.3,77.9L96.2,78.1L96.1,78.3L96.0,78.5L95.9,78.5L95.8,78.6L95.7,78.6L95.7,78.6L95.5,78.7L95.4,78.9L95.3,79.1L95.2,79.3L95.0,79.4L94.9,79.5L94.8,79.6L94.7,79.7L94.6,79.9L94.4,80.1L94.3,80.3L94.2,80.4L94.1,80.6L93.9,80.7L93.9,80.8L93.8,80.9L93.7,80.9L93.7,81.0" fill="none" stroke="#fbbf24" stroke-width="0.6" stroke-linecap="round" stroke-linejoin="round" opacity="0.7"/>
  <path d="M95.1,37.3L95.1,37.3L95.1,37.5L95.1,37.6L95.1,37.8L95.1,38.0L95.1,38.2L95.1,38.3L95.1,38.4L95.1,38.5L95.1,38.6L95.1,38.6L95.1,38.6L95.2,38.6L95.2,38.7L95.1,38.9L95.1,39.1L95.1,39.3L95.1,39.5L95.1,39.8L95.1,40.0L95.0,40.2L95.0,40.3L95.0,40.4L95.0,40.5L94.9,40.7L94.9,40.8L94.9,40.9L94.8,41.0L94.8,41.1L94.7,41.2L94.7,41.4L94.6,41.6L94.6,41.8L94.6,41.9L94.6,42.0" fill="none" stroke="#fbbf24" stroke-width="0.6" stroke-linecap="round" stroke-linejoin="round" opacity="0.7"/>
  <path d="M82.4,67.7L82.4,67.8L82.3,67.8L82.3,67.9L82.3,68.0L82.3,68.1L82.3,68.2L82.2,68.3L82.2,68.4L82.1,68.5L82.0,68.7L81.9,68.9L81.8,69.1L81.7,69.3L81.6,69.5L81.5,69.7L81.3,69.9L81.2,70.1L81.1,70.2L81.0,70.3L80.9,70.4L80.8,70.5L80.7,70.6L80.6,70.7L80.5,70.8L80.4,71.2L80.3,71.8L80.1,72.7L79.9,73.9L79.7,74.8L79.6,75.5L79.5,75.9L79.4,76.1L79.4,76.3L79.3,76.5L79.3,76.6L79.3,76.7L79.3,76.8L79.3,76.9L79.3,77.0L79.3,77.1L79.3,77.2L79.3,77.3L79.3,77.4L79.3,77.6L79.2,77.7L79.2,77.8L79.2,78.0L79.1,78.2L79.1,78.4L79.1,78.5L79.0,78.6" fill="none" stroke="#fbbf24" stroke-width="0.6" stroke-linecap="round" stroke-linejoin="round" opacity="0.7"/>
  <path d="M99.4,65.2L99.5,65.2L99.5,65.2L99.6,65.1L99.7,65.0L99.8,64.9L99.9,64.8L100.0,64.7L100.2,64.6L100.3,64.5L100.4,64.3L100.5,64.2L100.6,64.0L100.7,63.8L100.8,63.7L100.9,63.7L101.0,63.7L101.1,63.6L101.2,63.5L101.3,63.4L101.5,63.2L101.6,63.0L101.7,62.8L101.7,62.6L101.8,62.4L101.9,62.2L101.9,62.1L101.9,62.1" fill="none" stroke="#fbbf24" stroke-width="0.6" stroke-linecap="round" stroke-linejoin="round" opacity="0.7"/>
  <path d="M90.1,80.6L90.2,80.6L90.2,80.6L90.4,80.6L90.6,80.6L90.8,80.6L91.0,80.7L91.2,80.7L91.4,80.7L91.6,80.7L91.8,80.8L92.0,80.8L92.2,80.8L92.4,80.8L92.6,80.8L92.8,80.9L93.0,80.9L93.2,80.9L93.4,80.9L93.6,80.9L93.8,81.0L94.0,81.0L94.2,81.0L94.5,81.0L94.6,81.1L94.9,81.0L95.1,81.0L95.3,81.0L95.5,80.9L95.7,80.8L95.9,80.8L96.1,80.8L96.3,80.8L96.5,80.8L96.7,80.8L96.9,80.9L97.1,80.9L97.3,80.9L97.5,80.9L97.7,80.9L97.9,81.0L98.1,81.0L98.3,81.0L98.5,81.0L98.7,81.0L98.8,81.1L98.9,81.1L99.0,81.1" fill="none" stroke="#fbbf24" stroke-width="0.6" stroke-linecap="round" stroke-linejoin="round" opacity="0.7"/>
  <path d="M75.1,68.3L75.1,68.3L75.0,68.4L75.0,68.6L74.9,68.8L74.8,69.0L74.8,69.1L74.7,69.2L74.7,69.3L74.7,69.4L74.6,69.6L74.6,69.7L74.6,69.8L74.5,69.9L74.5,70.0L74.4,70.1L74.3,70.2L74.2,70.3L74.2,70.4L74.1,70.6L74.0,70.8L73.9,71.0L73.8,71.2L73.8,71.4L73.7,71.7L73.6,71.8L73.6,71.9L73.5,72.0" fill="none" stroke="#fbbf24" stroke-width="0.6" stroke-linecap="round" stroke-linejoin="round" opacity="0.7"/>
  <ellipse cx="68.3" cy="58.5" rx="3.5" ry="2.4" fill="#0c0c0c" stroke="#ef4444" stroke-width="0.4" opacity="0.95"/>
  <text x="68.3" y="59.5" text-anchor="middle" font-family="sans-serif" font-size="2.6" font-weight="700" fill="#ffffff" opacity="0.95">OR</text>
</svg>