<svg xmlns="http://www.w3.org/2000/svg" viewBox="0 0 102.44941145180643 98.08150433173446" preserveAspectRatio="none">
  <path d="M57.7,29.4C57.6,29.4 57.6,29.2 57.5,29.0C57.5,28.8 57.4,28.4 57.4,28.2C57.4,27.9 57.4,27.5 57.4,27.3C57.4,27.1 57.4,27.1 57.4,26.9C57.3,26.7 57.3,26.3 57.3,26.0C57.2,25.8 57.1,25.4 57.1,25.2C57.0,25.0 56.9,25.0 56.8,24.8C56.7,24.5 56.7,24.1 56.7,23.9C56.7,23.7 56.7,23.6 56.6,23.5C56.6,23.3 56.5,23.3 56.4,23.0C56.3,22.8 56.3,22.5 56.2,22.2C56.1,21.9 56.1,21.6 56.0,21.3C55.9,21.1 55.9,20.7 55.9,20.5C55.8,20.3 55.8,20.2 55.7,20.1C55.7,19.9 55.7,19.8 55.6,19.6C55.6,19.4 55.4,18.9 55.4,18.8" fill="none" stroke="#ef4444" stroke-width="0.8" stroke-linecap="round" stroke-linejoin="round" opacity="0.9"/>
  <path d="M42.8,6.2C43.0,6.2 43.5,6.2 43.9,6.2C44.2,6.3 44.5,6.2 44.9,6.3C45.2,6.3 45.6,6.6 45.9,6.7C46.3,6.8 46.6,6.7 46.9,6.7C47.3,6.7 47.7,6.7 48.0,6.8C48.4,6.8 48.8,6.7 49.2,6.8C49.5,6.9 49.8,7.1 50.1,7.2C50.4,7.3 50.9,7.2 51.2,7.2C51.5,7.2 51.8,7.3 52.2,7.3C52.5,7.3 52.9,7.3 53.2,7.3C53.6,7.3 54.0,7.3 54.3,7.3C54.6,7.3 55.0,7.2 55.3,7.3C55.5,7.4 55.9,7.7 56.0,7.8" fill="none" stroke="#ef4444" stroke-width="0.8" stroke-linecap="round" stroke-linejoin="round" opacity="0.9"/>
  <path d="M85.1,12.9C85.2,12.8 85.3,12.6 85.4,12.4C85.5,12.1 85.7,11.6 85.8,11.3C85.9,11.1 86.0,11.1 86.1,10.9C86.3,10.7 86.4,10.3 86.5,10.0C86.6,9.8 86.8,9.8 86.9,9.6C87.0,9.4 87.1,9.1 87.2,8.8C87.3,8.5 87.4,8.1 87.4,7.9C87.5,7.8 87.6,8.1 87.7,7.9C87.8,7.8 87.9,7.3 88.0,7.1C88.1,6.9 88.1,6.8 88.2,6.7C88.3,6.5 88.3,6.5 88.4,6.3C88.5,6.1 88.6,5.6 88.6,5.4" fill="none" stroke="#ef4444" stroke-width="0.8" stroke-linecap="round" stroke-linejoin="round" opacity="0.9"/>
  <path d="M30.1,33.1C30.0,33.0 29.7,32.5 29.5,32.3C29.2,32.1 29.0,32.1 28.8,31.8C28.5,31.6 28.2,31.1 27.9,31.0C27.7,30.8 27.4,31.0 27.2,31.0C26.9,30.9 26.8,30.7 26.6,30.5C26.4,30.3 26.1,29.9 25.9,29.7C25.7,29.5 25.5,29.3 25.4,29.2" fill="none" stroke="#ef4444" stroke-width="0.8" stroke-linecap="round" stroke-linejoin="round" opacity="0.9"/>
  <path d="M60.5,18.9C60.6,18.8 61.0,18.6 61.3,18.5C61.5,18.3 61.8,18.2 62.1,18.1C62.3,17.9 62.7,17.8 63.0,17.7C63.3,17.5 63.5,17.5 63.8,17.2C64.1,17.0 64.4,16.6 64.7,16.4C65.0,16.3 65.3,16.5 65.6,16.4C65.9,16.4 66.1,16.2 66.4,16.0C66.7,15.8 66.9,15.4 67.2,15.2C67.5,15.0 67.7,14.9 68.0,14.8C68.3,14.6 68.6,14.5 68.9,14.4C69.2,14.2 69.5,14.0 69.8,13.8C70.1,13.5 70.4,13.4 70.7,13.1C71.0,12.9 71.2,12.4 71.4,12.3C71.7,12.2 71.9,12.5 72.2,12.3C72.4,12.2 72.7,11.7 73.0,11.5C73.3,11.3 73.6,11.3 73.9,11.1C74.2,10.9 74.4,10.5 74.7,10.2C74.9,10.0 75.1,10.0 75.4,9.8C75.6,9.7 75.8,9.6 76.0,9.4C76.3,9.2 76.6,8.8 76.8,8.6C77.1,8.4 77.3,8.3 77.5,8.2C77.7,8.0 77.9,8.0 78.1,7.8C78.4,7.6 78.5,7.1 78.7,6.9C78.9,6.7 79.1,6.7 79.3,6.5C79.5,6.3 79.8,5.8 80.0,5.7C80.2,5.5 80.4,5.7 80.5,5.7" fill="none" stroke="#ef4444" stroke-width="0.8" stroke-linecap="round" stroke-linejoin="round" opacity="0.9"/>
  <path d="M22.9,26.6C22.8,26.5 22.5,26.0 22.3,25.8C22.2,25.6 22.0,25.6 21.9,25.3C21.8,25.1 21.7,24.7 21.6,24.5C21.5,24.3 21.4,24.2 21.3,24.1C21.2,23.9 21.1,23.7 21.0,23.6" fill="none" stroke="#ef4444" stroke-width="0.8" stroke-linecap="round" stroke-linejoin="round" opacity="0.9"/>
  <path d="M56.5,37.9C56.5,37.8 56.7,37.3 56.7,37.1C56.8,36.9 56.9,36.8 56.9,36.6C57.0,36.5 57.1,36.4 57.1,36.2C57.2,36.0 57.2,35.7 57.3,35.4C57.3,35.1 57.3,34.7 57.4,34.5C57.4,34.3 57.5,34.2 57.6,34.1C57.6,34.0 57.7,33.9 57.7,33.7C57.7,33.5 57.7,33.1 57.7,32.8C57.7,32.6 57.8,32.2 57.8,32.0C57.8,31.8 57.7,31.8 57.7,31.6C57.7,31.3 57.8,30.9 57.8,30.7C57.8,30.5 57.8,30.4 57.8,30.3" fill="none" stroke="#fbbf24" stroke-width="0.6" stroke-linecap="round" stroke-linejoin="round" opacity="0.7"/>
  <path d="M72.4,20.8C72.4,20.8 72.6,20.9 72.8,20.8C72.9,20.7 73.1,20.6 73.2,20.4C73.3,20.2 73.4,19.8 73.5,19.6C73.6,19.3 73.8,19.3 73.9,19.1C74.0,19.0 74.0,18.9 74.1,18.7C74.2,18.6 74.4,18.4 74.4,18.3" fill="none" stroke="#fbbf24" stroke-width="0.6" stroke-linecap="round" stroke-linejoin="round" opacity="0.7"/>
  <path d="M25.6,38.6C25.5,38.5 25.1,38.3 24.8,38.1C24.6,38.0 24.4,37.8 24.1,37.7C23.9,37.6 23.6,37.7 23.4,37.7C23.1,37.7 22.8,37.7 22.6,37.7C22.3,37.6 22.2,37.4 21.9,37.2C21.7,37.1 21.4,36.9 21.3,36.8" fill="none" stroke="#fbbf24" stroke-width="0.6" stroke-linecap="round" stroke-linejoin="round" opacity="0.7"/>
  <path d="M11.4,28.1C11.4,28.0 11.2,27.9 11.1,27.7C11.0,27.5 10.8,27.0 10.7,26.8C10.6,26.6 10.5,26.5 10.5,26.4C10.4,26.3 10.3,26.2 10.2,26.0C10.2,25.8 10.2,25.4 10.2,25.1C10.2,24.8 10.1,24.4 10.0,24.3C10.0,24.1 9.8,24.4 9.7,24.3C9.7,24.1 9.8,23.6 9.9,23.4C9.9,23.2 10.0,23.2 10.0,23.0C10.1,22.8 10.2,22.4 10.2,22.1C10.2,21.9 10.1,21.9 10.1,21.7C10.2,21.6 10.3,21.5 10.3,21.3C10.4,21.1 10.5,20.7 10.6,20.5C10.6,20.2 10.7,19.8 10.7,19.6C10.8,19.5 10.8,19.8 10.9,19.6C10.9,19.5 11.0,19.1 11.0,18.8C11.1,18.5 11.1,18.1 11.1,17.9C11.1,17.7 11.1,17.6 11.1,17.5C11.1,17.4 11.2,17.3 11.2,17.1C11.2,16.9 11.1,16.4 11.1,16.2C11.1,16.0 11.2,15.9 11.2,15.8C11.2,15.7 11.1,15.6 11.0,15.4C11.0,15.2 11.0,14.7 11.0,14.5C11.0,14.3 11.1,14.2 11.0,14.1C10.9,14.0 10.7,13.7 10.7,13.7" fill="none" stroke="#fbbf24" stroke-width="0.6" stroke-linecap="round" stroke-linejoin="round" opacity="0.7"/>
  <path d="M31.3,7.7C31.5,7.7 31.9,7.8 32.1,7.7C32.4,7.7 32.7,7.4 32.9,7.3C33.2,7.2 33.5,7.0 33.7,6.9C34.0,6.8 34.3,6.9 34.6,6.9C34.8,6.9 35.0,7.0 35.3,6.9C35.6,6.9 35.9,6.6 36.2,6.5C36.5,6.5 36.8,6.5 37.1,6.5C37.4,6.5 37.7,6.6 38.0,6.6C38.3,6.5 38.6,6.2 39.0,6.2C39.3,6.1 39.6,6.2 39.9,6.2C40.2,6.2 40.5,6.2 40.9,6.2C41.2,6.2 41.6,6.2 41.8,6.2" fill="none" stroke="#fbbf24" stroke-width="0.6" stroke-linecap="round" stroke-linejoin="round" opacity="0.7"/>
  <path d="M56.0,7.8C56.2,7.8 56.6,7.7 56.8,7.8C57.1,7.9 57.5,8.1 57.8,8.2C58.1,8.3 58.4,8.2 58.6,8.2C58.9,8.3 59.2,8.5 59.4,8.7C59.7,8.8 60.0,9.0 60.3,9.1C60.5,9.3 60.7,9.5 61.0,9.6C61.3,9.6 61.6,9.6 61.9,9.6C62.2,9.6 62.5,9.5 62.8,9.6C63.1,9.7 63.4,10.0 63.7,10.0C64.0,10.1 64.3,10.0 64.5,10.0C64.8,10.1 65.1,10.4 65.4,10.5C65.7,10.6 65.9,10.5 66.3,10.5C66.6,10.5 67.0,10.4 67.4,10.5C67.7,10.6 68.1,10.9 68.4,11.0C68.7,11.0 69.0,10.9 69.2,11.0C69.5,11.1 69.8,11.4 70.1,11.4C70.4,11.5 70.6,11.4 71.0,11.4C71.4,11.5 72.0,11.4 72.4,11.5C72.8,11.6 73.3,11.8 73.6,11.9C74.0,12.0 74.3,11.9 74.6,11.9C74.8,12.0 74.9,12.3 75.1,12.4C75.4,12.4 75.6,12.4 76.0,12.4C76.3,12.4 76.7,12.3 77.0,12.4C77.3,12.5 77.5,12.8 77.8,12.8C78.0,12.9 78.3,12.8 78.5,12.9C78.7,12.9 78.9,13.2 79.2,13.3C79.4,13.4 79.7,13.7 80.0,13.7C80.2,13.8 80.6,13.7 80.8,13.8C81.1,13.8 81.4,14.1 81.5,14.2" fill="none" stroke="#fbbf24" stroke-width="0.6" stroke-linecap="round" stroke-linejoin="round" opacity="0.7"/>
  <path d="M56.1,22.6C56.2,22.5 56.4,22.0 56.5,21.8C56.6,21.6 56.6,21.6 56.7,21.4C56.8,21.1 56.8,20.7 56.9,20.5C56.9,20.3 56.9,20.3 57.0,20.1C57.1,19.9 57.2,19.5 57.3,19.2C57.4,19.0 57.3,19.0 57.4,18.8C57.5,18.7 57.7,18.6 57.9,18.4C58.0,18.2 58.0,17.8 58.1,17.6C58.2,17.3 58.2,16.9 58.3,16.7C58.5,16.5 58.7,16.4 58.8,16.3C58.9,16.2 58.9,16.0 59.0,15.9C59.1,15.7 59.2,15.5 59.3,15.5" fill="none" stroke="#fbbf24" stroke-width="0.6" stroke-linecap="round" stroke-linejoin="round" opacity="0.7"/>
  <path d="M66.4,11.4C66.5,11.3 67.0,11.0 67.3,10.9C67.6,10.9 67.8,10.9 68.0,11.0C68.3,11.0 68.6,11.3 68.9,11.4C69.2,11.5 69.4,11.4 69.7,11.4C70.0,11.4 70.3,11.4 70.5,11.4C70.8,11.4 71.1,11.4 71.3,11.5C71.6,11.5 71.8,11.5 72.1,11.5C72.4,11.5 72.8,11.5 72.9,11.5" fill="none" stroke="#fbbf24" stroke-width="0.6" stroke-linecap="round" stroke-linejoin="round" opacity="0.7"/>
  <path d="M74.3,32.7C74.3,32.7 74.4,32.5 74.4,32.3C74.5,32.2 74.5,32.1 74.6,31.9C74.7,31.7 74.8,31.3 74.9,31.0C75.0,30.8 75.0,30.8 75.1,30.6C75.2,30.5 75.2,30.3 75.3,30.2C75.3,30.1 75.4,29.9 75.4,29.8C75.4,29.6 75.5,29.6 75.5,29.4C75.6,29.1 75.7,28.7 75.8,28.5C75.8,28.3 75.9,28.2 76.0,28.1C76.1,28.0 76.2,27.8 76.3,27.7C76.3,27.5 76.4,27.5 76.5,27.3C76.5,27.0 76.5,26.6 76.6,26.4C76.7,26.2 76.4,26.8 77.0,26.0C77.6,25.2 79.7,22.2 80.3,21.4C80.9,20.6 80.5,21.0 80.6,21.0C80.7,20.9 80.7,21.1 80.8,21.0C80.9,20.8 81.1,20.3 81.2,20.1C81.3,19.9 81.4,19.9 81.5,19.7C81.6,19.6 81.8,19.4 81.9,19.3C82.0,19.2 81.9,19.2 82.1,18.9C82.2,18.5 82.5,17.5 82.7,17.2C82.8,16.8 82.9,16.9 83.0,16.8C83.1,16.6 83.3,16.5 83.4,16.4C83.5,16.2 83.6,16.1 83.7,15.9C83.8,15.7 83.9,15.3 83.9,15.1C84.0,14.9 84.1,14.9 84.2,14.7C84.3,14.5 84.4,14.0 84.5,13.8C84.6,13.6 84.8,13.5 84.9,13.4" fill="none" stroke="#fbbf24" stroke-width="0.6" stroke-linecap="round" stroke-linejoin="round" opacity="0.7"/>
  <path d="M88.6,5.4C88.6,5.3 88.7,4.9 88.7,4.6C88.8,4.3 88.8,3.9 88.8,3.7C88.9,3.6 88.9,3.9 88.9,3.7C89.0,3.6 89.1,3.2 89.1,2.9C89.1,2.6 89.0,2.3 89.0,2.0C89.0,1.7 89.0,1.3 89.0,1.2C88.9,1.0 88.8,1.2 88.8,1.2" fill="none" stroke="#fbbf24" stroke-width="0.6" stroke-linecap="round" stroke-linejoin="round" opacity="0.7"/>
  <path d="M60.7,50.7C60.9,50.7 61.3,50.4 61.6,50.3C61.8,50.2 62.0,50.4 62.3,50.3C62.5,50.3 62.9,50.0 63.2,49.9C63.5,49.9 63.8,49.9 64.0,49.9C64.3,49.9 64.5,50.0 64.8,50.0C65.1,49.9 65.4,49.6 65.7,49.5C66.0,49.5 66.3,49.6 66.6,49.6C66.9,49.6 67.1,49.6 67.4,49.6C67.7,49.6 68.0,49.6 68.3,49.6C68.6,49.6 68.8,49.7 69.1,49.6C69.4,49.5 69.7,49.3 70.0,49.2C70.3,49.1 70.6,48.9 70.8,48.8C71.1,48.7 71.3,48.9 71.6,48.8C71.8,48.7 72.1,48.5 72.3,48.4C72.6,48.3 72.8,48.5 73.1,48.4C73.3,48.3 73.6,48.1 73.9,48.0C74.1,47.9 74.3,48.1 74.6,48.0C74.8,48.0 75.1,47.7 75.3,47.6C75.5,47.5 75.8,47.6 75.9,47.6" fill="none" stroke="#fbbf24" stroke-width="0.6" stroke-linecap="round" stroke-linejoin="round" opacity="0.7"/>
  <path d="M51.4,56.9C51.3,57.0 50.9,57.3 50.6,57.3C50.3,57.4 50.1,57.3 49.8,57.3C49.6,57.3 49.2,57.2 48.9,57.3C48.6,57.3 48.3,57.6 48.0,57.7C47.8,57.8 47.5,57.7 47.3,57.7C47.0,57.7 46.6,57.6 46.4,57.7C46.1,57.7 45.8,58.0 45.5,58.1C45.3,58.1 45.0,58.1 44.8,58.1C44.5,58.0 44.2,58.0 43.9,58.0C43.6,58.0 43.3,58.0 43.0,58.0C42.8,58.0 42.5,58.0 42.3,58.0C42.0,58.0 41.7,58.0 41.4,58.0C41.1,58.0 40.8,58.0 40.6,58.0C40.3,58.0 40.0,58.0 39.7,58.0C39.4,57.9 39.1,57.9 38.9,57.9C38.6,57.9 38.4,57.9 38.1,57.9C37.9,57.9 37.5,57.9 37.3,57.9C37.0,57.9 36.7,57.9 36.5,57.9C36.2,57.9 35.9,57.9 35.7,57.9" fill="none" stroke="#fbbf24" stroke-width="0.6" stroke-linecap="round" stroke-linejoin="round" opacity="0.7"/>
  <path d="M76.3,39.1C76.2,39.1 75.7,39.1 75.5,39.1C75.2,39.1 75.0,39.1 74.7,39.1C74.4,39.1 74.1,39.1 73.8,39.1C73.5,39.1 73.2,39.1 72.9,39.1C72.6,39.1 72.4,39.1 72.1,39.1C71.9,39.1 71.6,39.1 71.3,39.0C71.0,39.0 70.8,38.7 70.5,38.6C70.3,38.5 70.0,38.6 69.7,38.6C69.4,38.6 69.1,38.6 68.8,38.6C68.6,38.6 68.3,38.6 68.0,38.6C67.8,38.5 67.5,38.5 67.2,38.5C66.9,38.5 66.7,38.5 66.4,38.5C66.1,38.5 65.8,38.5 65.6,38.5C65.3,38.5 65.0,38.5 64.7,38.5C64.4,38.5 64.0,38.5 63.8,38.5C63.5,38.5 63.2,38.5 63.0,38.5C62.7,38.4 62.4,38.1 62.1,38.0C61.8,37.9 61.6,38.0 61.3,38.0C61.0,38.0 60.7,38.1 60.5,38.0C60.2,37.9 59.8,37.6 59.7,37.5" fill="none" stroke="#fbbf24" stroke-width="0.6" stroke-linecap="round" stroke-linejoin="round" opacity="0.7"/>
  <path d="M39.1,38.0C39.0,38.0 38.6,38.1 38.3,38.0C38.1,37.9 37.9,37.7 37.6,37.5C37.4,37.4 37.2,37.2 37.0,37.1C36.7,37.0 36.5,36.8 36.3,36.7C36.1,36.5 35.9,36.4 35.7,36.2C35.4,36.1 35.2,35.9 34.9,35.8C34.7,35.7 34.4,35.8 34.2,35.8C34.0,35.7 33.7,35.6 33.5,35.3C33.3,35.1 33.1,34.7 32.9,34.5C32.7,34.3 32.5,34.2 32.2,34.0C32.0,33.9 31.7,33.7 31.5,33.6C31.3,33.5 31.8,34.3 30.8,33.6C29.7,32.9 26.4,30.0 25.4,29.2C24.4,28.4 24.9,28.9 24.8,28.8C24.7,28.7 24.6,28.5 24.5,28.4C24.4,28.2 24.3,28.2 24.2,27.9C24.1,27.7 24.0,27.3 23.9,27.1C23.8,26.9 23.8,26.8 23.7,26.7C23.7,26.5 23.6,26.4 23.5,26.2C23.4,26.1 23.2,26.0 23.1,25.8C23.0,25.6 23.1,25.2 23.0,24.9C23.0,24.7 22.9,24.7 22.9,24.5C22.9,24.4 22.9,24.2 22.8,24.1C22.8,24.0 22.6,23.7 22.5,23.7" fill="none" stroke="#fbbf24" stroke-width="0.6" stroke-linecap="round" stroke-linejoin="round" opacity="0.7"/>
  <path d="M50.7,23.8C50.8,23.7 51.0,23.5 51.3,23.4C51.5,23.2 51.7,23.0 52.0,23.0C52.2,22.9 52.4,23.0 52.7,23.0C52.9,22.9 53.2,22.7 53.5,22.6C53.7,22.4 54.0,22.4 54.2,22.2C54.5,21.9 54.7,21.5 55.0,21.3C55.2,21.1 55.4,21.0 55.6,20.9C55.9,20.8 56.1,20.6 56.4,20.5C56.7,20.4 57.1,20.6 57.4,20.5C57.7,20.5 57.9,20.2 58.1,20.1C58.4,20.0 58.7,19.8 59.0,19.7C59.3,19.6 59.6,19.4 59.7,19.3" fill="none" stroke="#fbbf24" stroke-width="0.6" stroke-linecap="round" stroke-linejoin="round" opacity="0.7"/>
  <path d="M80.5,5.7C80.6,5.5 80.8,5.1 81.0,4.8C81.1,4.6 81.2,4.6 81.3,4.4C81.5,4.2 81.7,3.7 81.8,3.6C82.0,3.5 82.2,3.7 82.3,3.6C82.4,3.5 82.4,3.2 82.5,3.0C82.6,2.8 82.7,2.5 82.7,2.3C82.8,2.2 82.8,2.1 82.8,1.9C82.9,1.7 83.0,1.2 83.1,1.1C83.1,0.9 83.1,1.1 83.2,1.1" fill="none" stroke="#fbbf24" stroke-width="0.6" stroke-linecap="round" stroke-linejoin="round" opacity="0.7"/>
  <path d="M28.1,32.7C28.0,32.5 27.8,32.0 27.6,31.8C27.5,31.6 27.3,31.5 27.1,31.4C26.9,31.2 26.7,31.0 26.5,31.0C26.3,30.9 26.3,31.0 26.1,30.9C26.0,30.9 25.8,30.7 25.7,30.5C25.5,30.3 25.4,29.9 25.3,29.7C25.2,29.4 25.1,29.4 24.9,29.2C24.7,29.1 24.5,28.9 24.3,28.8C24.2,28.6 24.1,28.6 24.0,28.4C23.8,28.1 23.7,27.7 23.5,27.5C23.4,27.3 23.6,27.7 23.2,27.1C22.7,26.4 21.5,24.3 21.0,23.6C20.6,22.9 20.7,23.0 20.6,22.8C20.5,22.6 20.3,22.5 20.2,22.3C20.1,22.2 20.0,22.1 20.0,21.9C19.9,21.8 19.8,21.6 19.7,21.5C19.6,21.3 19.4,21.3 19.3,21.1C19.2,20.8 19.1,20.4 19.0,20.2C18.9,20.0 18.8,19.9 18.7,19.8C18.6,19.6 18.4,19.4 18.4,19.3" fill="none" stroke="#fbbf24" stroke-width="0.6" stroke-linecap="round" stroke-linejoin="round" opacity="0.7"/>
  <path d="M68.0,16.7C68.1,16.7 68.5,16.6 68.7,16.5C69.0,16.4 69.1,16.2 69.4,16.1C69.6,15.9 69.8,15.8 70.0,15.7C70.3,15.5 70.6,15.3 70.9,15.3C71.1,15.2 71.3,15.3 71.6,15.3C71.8,15.2 72.0,14.9 72.3,14.9C72.5,14.8 72.8,14.9 73.1,14.9C73.3,14.8 73.5,14.5 73.8,14.5C74.0,14.4 74.2,14.5 74.5,14.5C74.7,14.5 74.8,14.5 75.2,14.5C75.6,14.5 76.3,14.6 76.7,14.5C77.1,14.5 77.3,14.2 77.5,14.1C77.8,14.1 78.0,14.2 78.3,14.1C78.6,14.1 78.9,13.8 79.1,13.7C79.4,13.7 79.7,13.7 79.9,13.7C80.2,13.7 80.5,13.8 80.8,13.8C81.0,13.7 81.3,13.4 81.5,13.3C81.8,13.3 82.0,13.4 82.3,13.4C82.6,13.3 82.8,13.2 83.1,13.2C83.4,13.1 83.6,13.0 83.9,13.0C84.2,12.9 84.5,13.1 84.7,13.0C85.0,12.9 85.2,12.6 85.5,12.6C85.7,12.5 86.0,12.6 86.3,12.6C86.5,12.6 86.8,12.7 87.1,12.6C87.4,12.5 87.6,12.3 87.9,12.2C88.1,12.1 88.4,12.3 88.6,12.2C88.9,12.1 89.3,11.9 89.4,11.8" fill="none" stroke="#fbbf24" stroke-width="0.6" stroke-linecap="round" stroke-linejoin="round" opacity="0.7"/>
  <circle cx="51.9" cy="34.9" r="3.5" fill="#0c0c0c" stroke="#ef4444" stroke-width="0.4" opacity="0.95"/>
  <text x="51.9" y="36.1" text-anchor="middle" font-family="sans-serif" font-size="3.5" font-weight="700" fill="#ffffff" opacity="0.95">OR</text>
</svg>