<svg xmlns="http://www.w3.org/2000/svg" viewBox="0 0 102.27040591422573 107.44489710580129" preserveAspectRatio="none">
  <path d="M78.7,68.6L78.7,68.7L78.7,68.8L78.7,69.0L78.6,69.2L78.6,69.4L78.5,69.5L78.5,69.6L78.5,69.7L78.4,69.9L78.4,70.0L78.3,70.2L78.3,70.4L78.2,70.6L78.2,70.8L78.1,71.1L78.1,71.3L78.1,71.5L78.1,71.6L78.1,71.7L78.1,71.9L78.1,72.0L78.1,72.1L78.1,72.2L78.1,72.3L78.1,72.4L78.1,72.6L78.0,72.8L78.0,73.0L77.9,73.2L77.9,73.4L77.8,73.6L77.8,73.8L77.8,74.0L77.8,74.2L77.8,74.3L77.9,74.4L77.9,74.5L77.9,74.7L77.9,74.9L77.9,75.1L77.9,75.3L77.9,75.5L77.9,75.8L77.9,76.0L77.9,76.2L77.9,76.3L77.9,76.5L77.9,76.6L77.9,76.7L77.8,76.9L77.8,77.0L77.8,77.2L77.8,77.5L77.7,77.7L77.8,77.9L77.8,78.1L77.8,78.3L77.8,78.5L77.8,78.6L77.9,78.7L77.9,78.8L77.9,79.0L77.8,79.2L77.8,79.4L77.8,79.6L77.8,79.7L77.8,79.9L77.9,80.0L77.9,80.1L78.0,80.3L78.0,80.5L78.0,80.7L78.0,80.9L78.0,81.0L78.0,81.0" fill="none" stroke="#ef4444" stroke-width="0.8" stroke-linecap="round" stroke-linejoin="round" opacity="0.9"/>
  <path d="M38.2,77.3L38.3,77.3L38.3,77.4L38.4,77.5L38.6,77.6L38.7,77.7L38.8,77.9L38.9,78.1L39.0,78.3L39.1,78.5L39.2,78.7L39.3,78.8L39.5,79.0L39.6,79.1L39.8,79.1L39.9,79.2L40.1,79.2L40.2,79.3L40.3,79.4L40.4,79.5L40.4,79.8L40.5,80.0L40.6,80.1L40.7,80.3L40.8,80.4L40.9,80.5L41.0,80.7L41.1,80.9L41.2,81.1L41.3,81.3L41.4,81.5L41.4,81.6L41.5,81.8L41.6,81.9L41.8,82.0L41.9,82.1L42.0,82.2L42.1,82.4L42.2,82.6L42.3,82.8L42.4,83.0L42.6,83.2L42.6,83.4L42.7,83.5L42.8,83.6L42.9,83.7L43.0,83.9L43.1,84.0L43.2,84.1L43.3,84.2L43.4,84.4L43.5,84.6L43.6,84.8L43.7,85.0L43.8,85.1L43.8,85.2" fill="none" stroke="#ef4444" stroke-width="0.8" stroke-linecap="round" stroke-linejoin="round" opacity="0.9"/>
  <path d="M68.1,43.9L68.2,43.9L68.3,43.9L68.4,43.9L68.6,44.0L68.8,44.0L69.0,43.9L69.2,43.9L69.4,43.8L69.6,43.7L69.9,43.6L70.1,43.5L70.3,43.4L70.5,43.3L70.7,43.2L70.9,43.0L71.1,42.8L71.4,42.7L71.6,42.5L71.8,42.4L72.0,42.3L72.2,42.3L72.3,42.2L72.4,42.2" fill="none" stroke="#ef4444" stroke-width="0.8" stroke-linecap="round" stroke-linejoin="round" opacity="0.9"/>
  <path d="M70.7,79.0L70.7,79.0L70.7,79.1L70.7,79.1L70.8,79.3L70.8,79.4L70.9,79.6L70.9,79.7L70.9,80.0L70.9,80.2L71.0,80.3L71.0,80.5L71.1,80.6L71.1,80.7L71.1,80.9L71.1,81.1L71.1,81.3L71.1,81.5L71.0,81.7L71.0,81.9L71.0,82.1L71.0,82.3L71.0,82.4L71.0,82.4L71.0,82.4L71.0,82.5L71.0,82.6L71.0,82.8L70.9,83.0L70.9,83.2L70.9,83.4L70.8,83.6L70.8,83.8L70.7,84.0L70.7,84.2L70.7,84.3L70.7,84.4L70.6,84.5L70.6,84.7L70.5,84.9L70.4,85.1L70.3,85.3L70.3,85.5L70.2,85.7L70.1,85.9L70.1,86.1L70.0,86.2L70.0,86.4L70.0,86.5L70.0,86.6L70.0,86.8L70.0,86.9L69.9,87.2L69.9,87.4L69.8,87.6L69.8,87.8L69.7,88.0L69.6,88.2L69.6,88.4L69.5,88.6L69.5,88.8L69.4,89.0L69.4,89.2L69.4,89.3L69.5,89.4L69.5,89.5L69.5,89.6L69.5,89.6" fill="none" stroke="#ef4444" stroke-width="0.8" stroke-linecap="round" stroke-linejoin="round" opacity="0.9"/>
  <path d="M36.1,96.8L36.1,96.8L36.1,96.9L36.2,97.0L36.2,97.1L36.2,97.2L36.2,97.4L36.3,97.6L36.3,97.8L36.3,98.0L36.3,98.2L36.4,98.3L36.4,98.4L36.4,98.5L36.5,98.6L36.5,98.7L36.5,98.8L36.5,99.0L36.5,99.1L36.5,99.3L36.5,99.5L36.5,99.8L36.5,100.0L36.5,100.2L36.5,100.4L36.5,100.6L36.5,100.7L36.5,100.7" fill="none" stroke="#ef4444" stroke-width="0.8" stroke-linecap="round" stroke-linejoin="round" opacity="0.9"/>
  <path d="M30.5,73.5L30.5,73.5L30.4,73.5L30.4,73.6L30.3,73.7L30.1,73.8L30.0,74.0L29.9,74.1L29.7,74.3L29.6,74.5L29.4,74.7L29.2,74.9L29.1,75.1L28.9,75.3L28.8,75.5L28.6,75.6L28.5,75.7L28.4,75.8L28.2,75.9L28.1,76.0L28.0,76.0L27.9,76.2L27.7,76.3L27.6,76.5L27.5,76.7L27.4,76.9L27.2,77.1L27.1,77.3L27.0,77.5L26.8,77.7L26.7,77.9L26.5,78.1L26.3,78.3L26.1,78.5L25.9,78.7L25.8,78.9L25.6,79.1L25.5,79.2L25.4,79.4L25.3,79.5L25.3,79.6L25.2,79.8L25.1,79.9L25.0,80.1L24.9,80.3L24.8,80.5L24.7,80.7L24.6,80.9L24.5,81.1L24.4,81.3L24.3,81.4L24.2,81.6L24.2,81.7L24.1,81.8L24.0,81.9L23.9,82.1L23.9,82.3L23.8,82.5L23.7,82.7L23.7,82.8L23.6,82.9L23.6,83.0L23.5,83.2L23.5,83.4L23.4,83.6L23.3,83.7L23.3,83.8L23.3,83.9" fill="none" stroke="#ef4444" stroke-width="0.8" stroke-linecap="round" stroke-linejoin="round" opacity="0.9"/>
  <path d="M80.4,61.5L80.4,61.5L80.4,61.6L80.4,61.7L80.4,61.8L80.4,61.9L80.4,62.1L80.4,62.3L80.4,62.5L80.4,62.7L80.3,62.8L80.3,63.0L80.3,63.1L80.3,63.2L80.3,63.3L80.3,63.4L80.3,63.5L80.3,63.6L80.2,63.8L80.2,64.0L80.2,64.2L80.1,64.4L80.1,64.5L80.0,64.7L80.0,64.8L80.0,64.9L80.0,65.0L79.9,65.1L79.9,65.2L79.8,65.3L79.8,65.5L79.7,65.6L79.6,65.8L79.5,66.0L79.4,66.3L79.3,66.5L79.3,66.7L79.2,66.9L79.2,67.0L79.2,67.1L79.1,67.2L79.1,67.3L79.1,67.4L79.0,67.6L79.0,67.7L79.0,67.7L78.9,67.8L78.9,67.8" fill="none" stroke="#fbbf24" stroke-width="0.6" stroke-linecap="round" stroke-linejoin="round" opacity="0.7"/>
  <path d="M78.0,81.0L78.0,81.1L78.0,81.1L78.1,81.2L78.1,81.3L78.1,81.4L78.1,81.5L78.2,81.6L78.2,81.7L78.2,81.9L78.2,82.0L78.1,82.2L78.1,82.4L78.1,82.6L78.1,82.8L78.0,82.9L78.0,83.0L78.0,83.1L78.0,83.2L78.0,83.3L77.9,83.4L77.9,83.6L77.8,83.7L77.8,83.9L77.8,84.1L77.8,84.3L77.7,84.5L77.7,84.8L77.7,85.0L77.7,85.2L77.6,85.3L77.6,85.4L77.5,85.5L77.5,85.7L77.4,85.8L77.4,86.0L77.3,86.2L77.2,86.4L77.2,86.6L77.1,86.8L77.0,87.0L76.9,87.2L76.8,87.3L76.7,87.3L76.7,87.3L76.6,87.4L76.6,87.5L76.5,87.6L76.5,87.8L76.4,88.1L76.4,88.3L76.3,88.5L76.2,88.7L76.1,88.9L76.0,89.0L75.9,89.1L75.8,89.2L75.7,89.3L75.6,89.4L75.5,89.5L75.4,89.6L75.3,89.7L75.2,89.8L75.1,89.9L75.0,90.0L74.9,90.1L74.8,90.3L74.7,90.5L74.6,90.7L74.5,90.8L74.4,91.0L74.3,91.1L74.3,91.2L74.2,91.3L74.1,91.4L74.0,91.5L74.0,91.6L73.9,91.7L73.8,91.8L73.8,91.9L73.7,92.0L73.6,92.1L73.5,92.3L73.4,92.5L73.3,92.7L73.2,92.8L73.2,93.0L73.1,93.1L73.1,93.2L73.1,93.3L73.1,93.4L73.1,93.4" fill="none" stroke="#fbbf24" stroke-width="0.6" stroke-linecap="round" stroke-linejoin="round" opacity="0.7"/>
  <path d="M39.4,72.7L39.5,72.7L39.6,72.7L39.7,72.7L39.9,72.7L40.2,72.7L40.4,72.7L40.6,72.6L40.8,72.6L41.1,72.5L41.3,72.5L41.5,72.5L41.7,72.5L41.9,72.5L42.1,72.5L42.3,72.6L42.5,72.6L42.8,72.6L43.0,72.6L43.2,72.7L43.5,72.7L43.7,72.7L44.0,72.7L44.2,72.8L44.4,72.8L44.7,72.8L44.9,72.8L45.1,72.9L45.4,72.9L45.6,72.9L45.9,72.9L46.1,73.0L46.3,73.0L46.6,73.0L46.8,73.0L47.0,73.0L47.2,73.1L47.4,73.1L47.7,73.1L47.9,73.1L48.1,73.2L48.4,73.2L48.6,73.1L48.9,73.1L49.1,73.0L49.4,72.9L49.6,72.9L49.8,72.9L50.1,72.9L50.3,72.9L50.5,72.9L50.8,72.9L51.1,72.8L51.3,72.7L51.6,72.7L51.8,72.7L52.0,72.7L52.1,72.7L52.4,72.8L52.6,72.8L52.8,72.8L53.0,72.8L53.2,72.8L53.5,72.7L53.7,72.6L54.0,72.5L54.2,72.5L54.4,72.4L54.6,72.3L54.8,72.2L55.0,72.1L55.2,72.0L55.5,72.0L55.7,71.9L55.9,71.9L56.1,71.9L56.3,71.9L56.4,71.9L56.6,71.9L56.7,71.9L56.9,71.9L57.0,71.9L57.2,71.9L57.4,71.8L57.6,71.7L57.8,71.7L58.0,71.6L58.2,71.5L58.3,71.4L58.5,71.3L58.5,71.3L58.6,71.3" fill="none" stroke="#fbbf24" stroke-width="0.6" stroke-linecap="round" stroke-linejoin="round" opacity="0.7"/>
  <path d="M19.0,99.7L18.9,99.7L18.8,99.7L18.7,99.7L18.5,99.7L18.3,99.7L18.0,99.7L17.8,99.8L17.6,99.9L17.4,100.0L17.2,100.0L17.0,100.1L16.8,100.2L16.5,100.3L16.3,100.4L16.1,100.5L15.8,100.5L15.6,100.6L15.4,100.6L15.2,100.6L15.0,100.6L14.8,100.6L14.6,100.7L14.4,100.7L14.2,100.8L14.0,100.9L13.7,100.9L13.5,100.9L13.3,100.9L13.1,100.9L12.9,101.0L12.7,101.1L12.4,101.3L12.2,101.4L12.0,101.5L11.8,101.6L11.6,101.5L11.4,101.5L11.1,101.6L10.9,101.6L10.7,101.7L10.4,101.8L10.2,101.9L10.0,102.0L9.7,102.0L9.5,102.1L9.3,102.2L9.1,102.3L8.9,102.4L8.7,102.5L8.6,102.5L8.4,102.5L8.2,102.5L8.1,102.5L7.9,102.5L7.7,102.6L7.5,102.7L7.4,102.7L7.3,102.8L7.3,102.8" fill="none" stroke="#fbbf24" stroke-width="0.6" stroke-linecap="round" stroke-linejoin="round" opacity="0.7"/>
  <path d="M33.5,71.6L33.5,71.7L33.6,71.8L33.6,72.0L33.7,72.2L33.7,72.4L33.8,72.5L33.9,72.7L33.9,72.8L34.0,72.9L34.1,73.0L34.2,73.2L34.3,73.3L34.5,73.4L34.6,73.5L34.7,73.6L34.8,73.8L34.9,73.9L35.0,74.0L35.2,74.1L35.3,74.2L35.4,74.4L35.5,74.6L35.6,74.8L35.8,75.0L35.9,75.2L36.0,75.4L36.1,75.5L36.3,75.6L36.5,75.8L36.6,75.9L36.8,76.0L36.9,76.1L37.1,76.3L37.3,76.4L37.4,76.5L37.5,76.6L37.6,76.7L37.7,76.8L37.7,76.8" fill="none" stroke="#fbbf24" stroke-width="0.6" stroke-linecap="round" stroke-linejoin="round" opacity="0.7"/>
  <path d="M43.8,85.2L43.8,85.2L43.9,85.3L43.9,85.3L44.0,85.5L44.1,85.6L44.1,85.7L44.2,85.8L44.2,85.9L44.2,86.0L44.3,86.1L44.4,86.2L44.4,86.4L44.5,86.5L44.6,86.6L44.7,86.7L44.8,86.8L44.9,87.0L44.9,87.1L45.0,87.3L45.0,87.5L45.0,87.7L45.1,87.9L45.2,88.0L45.2,88.2L45.3,88.3L45.4,88.4L45.4,88.5L45.5,88.6L45.6,88.7L45.6,88.8L45.6,88.8" fill="none" stroke="#fbbf24" stroke-width="0.6" stroke-linecap="round" stroke-linejoin="round" opacity="0.7"/>
  <path d="M68.2,86.4L68.2,86.5L68.3,86.5L68.4,86.6L68.4,86.7L68.5,86.9L68.6,87.0L68.7,87.2L68.7,87.5L68.8,87.7L68.8,87.8L68.9,88.0L69.0,88.1L69.1,88.2L69.2,88.3L69.2,88.4L69.3,88.5L69.3,88.7L69.4,88.8L69.4,88.9L69.5,89.0L69.6,89.1L69.7,89.2L69.8,89.3L69.8,89.5L69.9,89.6L70.0,89.7L70.1,89.8L70.2,89.9L70.3,90.0L70.4,90.2L70.5,90.3L70.6,90.4L70.6,90.5L70.6,90.5L70.7,90.6" fill="none" stroke="#fbbf24" stroke-width="0.6" stroke-linecap="round" stroke-linejoin="round" opacity="0.7"/>
  <path d="M43.4,77.8L43.4,77.8L43.5,77.8L43.7,77.7L43.9,77.6L44.2,77.6L44.4,77.5L44.6,77.5L44.7,77.5L44.9,77.6L45.1,77.6L45.3,77.6L45.5,77.6L45.7,77.6L45.9,77.7L46.1,77.7L46.3,77.7L46.5,77.7L46.7,77.7L46.9,77.8L47.1,77.8L47.3,77.8L47.5,77.7L47.8,77.7L48.0,77.6L48.3,77.6L48.5,77.5L48.7,77.5L48.9,77.5L49.1,77.5L49.3,77.5L49.5,77.4L49.7,77.4L49.9,77.3L50.2,77.3L50.4,77.3L50.6,77.3L50.8,77.3L51.0,77.3L51.2,77.2L51.5,77.1L51.7,77.1L51.9,77.0L52.1,77.0L52.3,77.0L52.5,77.0L52.7,77.0L52.9,76.9L53.2,76.9L53.4,76.8L53.6,76.8L53.8,76.8L54.1,76.8L54.3,76.8L54.5,76.8L54.7,76.7L55.0,76.6L55.3,76.5L55.5,76.5L55.8,76.4L56.0,76.3L56.3,76.3L56.5,76.2L56.8,76.2L57.0,76.2L57.2,76.3L57.4,76.3L57.6,76.3L57.9,76.3L58.1,76.4L58.3,76.4L58.5,76.4L58.7,76.4L59.0,76.4L59.2,76.4L59.4,76.3L59.6,76.3L59.9,76.2L60.1,76.2L60.3,76.2L60.6,76.2L60.8,76.2L61.0,76.2L61.2,76.1L61.5,76.0L61.7,75.9L61.9,75.9L62.2,75.8L62.4,75.7L62.7,75.6L62.9,75.5L63.2,75.4L63.4,75.4L63.7,75.3L63.9,75.2L64.1,75.1L64.3,75.0L64.4,74.9L64.6,74.8L64.8,74.8L65.0,74.7L65.2,74.6L65.4,74.6L65.6,74.6L65.7,74.6L65.9,74.6L66.0,74.6L66.0,74.6" fill="none" stroke="#fbbf24" stroke-width="0.6" stroke-linecap="round" stroke-linejoin="round" opacity="0.7"/>
  <path d="M59.6,46.5L59.7,46.4L59.8,46.4L59.9,46.3L60.2,46.2L60.4,46.2L60.6,46.2L60.8,46.1L61.0,46.2L61.2,46.2L61.4,46.1L61.6,46.1L61.8,46.0L62.0,45.9L62.2,45.9L62.4,45.9L62.5,45.9L62.7,45.9L62.9,45.9L63.1,45.8L63.4,45.7L63.6,45.6L63.8,45.6L64.1,45.5L64.3,45.4L64.5,45.3L64.7,45.2L64.9,45.1L65.1,45.0L65.3,45.0L65.6,44.9L65.8,44.8L66.0,44.7L66.3,44.6L66.5,44.5L66.7,44.5L66.9,44.4L67.4,44.2L68.1,43.9L69.1,43.5L70.4,43.0L71.4,42.6L72.1,42.3L72.6,42.2L72.7,42.2L72.9,42.2L73.0,42.1L73.2,42.0L73.4,41.8L73.6,41.6L73.7,41.5L73.9,41.4L74.0,41.3L74.1,41.1L74.3,41.0L74.4,40.8L74.6,40.6L74.7,40.5L74.8,40.4L75.0,40.3L75.1,40.4L75.2,40.4L75.3,40.4L75.3,40.4" fill="none" stroke="#fbbf24" stroke-width="0.6" stroke-linecap="round" stroke-linejoin="round" opacity="0.7"/>
  <path d="M54.7,98.8L54.8,98.8L54.8,98.8L54.9,98.8L55.1,98.8L55.3,98.9L55.4,98.9L55.6,99.0L55.7,99.1L55.9,99.3L56.0,99.4L56.2,99.5L56.4,99.6L56.6,99.8L56.7,99.9L56.9,100.0L57.1,100.1L57.2,100.2L57.4,100.3L57.6,100.4L57.8,100.4L58.0,100.4L58.2,100.5L58.4,100.6L58.6,100.7L58.7,100.9L58.9,101.0L59.1,101.1L59.3,101.2L59.5,101.3L59.7,101.4L59.9,101.5L60.1,101.5L60.3,101.5L60.6,101.5L60.8,101.6L61.0,101.6L61.2,101.6L61.4,101.6L61.7,101.6L61.9,101.7L62.1,101.7L62.3,101.7L62.6,101.7L62.8,101.8L63.0,101.8L63.2,101.8L63.5,101.8L63.7,101.9L63.9,101.9L64.1,101.9L64.3,101.9L64.5,101.9L64.7,102.0L64.9,102.0L65.1,102.0L65.3,102.0L65.5,102.1L65.7,102.1L65.9,102.1L66.1,102.1L66.2,102.1L66.3,102.1L66.3,102.1" fill="none" stroke="#fbbf24" stroke-width="0.6" stroke-linecap="round" stroke-linejoin="round" opacity="0.7"/>
  <path d="M58.9,71.7L58.9,71.7L58.9,71.6L58.9,71.4L58.8,71.2L58.7,71.0L58.7,70.8L58.6,70.7L58.5,70.5L58.4,70.4L58.3,70.3L58.1,70.2L58.0,70.1L57.9,70.0L57.8,69.9L57.6,69.9L57.5,69.9L57.4,69.8L57.2,69.7L57.1,69.7L57.0,69.5L56.9,69.4L56.8,69.3L56.7,69.2L56.5,69.1L56.4,69.0L56.4,68.9L56.3,68.9" fill="none" stroke="#fbbf24" stroke-width="0.6" stroke-linecap="round" stroke-linejoin="round" opacity="0.7"/>
  <path d="M41.5,72.0L41.5,72.1L41.5,72.1L41.6,72.2L41.6,72.3L41.7,72.4L41.7,72.5L41.8,72.7L41.8,72.8L41.9,72.9L42.0,73.0L42.1,73.1L42.2,73.2L42.2,73.4L42.3,73.6L42.4,73.7L42.5,74.0L42.6,74.2L42.7,74.3L42.7,74.5L42.8,74.6L42.9,74.7L43.0,74.8L43.1,74.9L43.2,75.1L43.3,75.2L43.4,75.3L43.6,75.4L43.7,75.5L43.8,75.7L43.9,75.8L44.1,75.9L44.2,76.0L44.3,76.2L44.4,76.3L44.6,76.4L44.7,76.5L44.8,76.6L44.9,76.7L45.0,76.9L45.1,77.0L45.1,77.1L45.2,77.1L45.2,77.2" fill="none" stroke="#fbbf24" stroke-width="0.6" stroke-linecap="round" stroke-linejoin="round" opacity="0.7"/>
  <path d="M72.0,83.8L72.1,83.8L72.2,83.9L72.3,83.9L72.5,83.9L72.7,83.9L72.9,83.9L73.1,83.8L73.3,83.7L73.5,83.6L73.7,83.6L73.9,83.6L74.1,83.6L74.3,83.6L74.5,83.6L74.7,83.5L74.9,83.4L75.1,83.3L75.3,83.3L75.5,83.2L75.7,83.1L75.9,83.0L76.1,83.0L76.3,83.0L76.5,83.0L76.7,83.0L76.9,83.1L77.1,83.1L77.3,83.1L77.5,83.1L77.7,83.1L77.9,83.0L78.2,82.9L78.4,82.8L78.6,82.8L78.9,82.7L79.1,82.6L79.3,82.5L79.5,82.5L79.6,82.5L79.8,82.5L80.0,82.5L80.2,82.5L80.4,82.4L80.6,82.3L80.7,82.3L80.8,82.2L80.9,82.2" fill="none" stroke="#fbbf24" stroke-width="0.6" stroke-linecap="round" stroke-linejoin="round" opacity="0.7"/>
  <path d="M45.0,77.6L45.0,77.6L45.0,77.6L45.1,77.6L45.2,77.6L45.3,77.6L45.4,77.7L45.4,77.8L45.5,77.9L45.6,78.0L45.6,78.2L45.7,78.4L45.7,78.6L45.7,78.8L45.7,79.0L45.8,79.1L45.8,79.2L45.9,79.3L45.9,79.4L46.0,79.5L46.1,79.7L46.1,79.8L46.2,79.9L46.3,80.0L46.4,80.1L46.4,80.3L46.5,80.4L46.5,80.6L46.6,80.8L46.6,81.0L46.7,81.2L46.7,81.3L46.8,81.5L46.9,81.6L46.9,81.7L47.0,81.8L47.0,81.9L47.1,82.0L47.1,82.2L47.2,82.4L47.2,82.6L47.3,82.8L47.4,83.0L47.5,83.1L47.5,83.3L47.6,83.4L47.7,83.5L47.8,83.6L47.9,83.7L48.0,83.8L48.0,83.9L48.1,84.1L48.2,84.2L48.2,84.3L48.3,84.4L48.4,84.5L48.4,84.6L48.5,84.7L48.5,84.9L48.5,85.0L48.6,85.1L48.6,85.2L48.7,85.4L48.7,85.6L48.7,85.8L48.8,86.0L48.9,86.2L49.0,86.3L49.1,86.4L49.2,86.5L49.3,86.7L49.5,86.8L49.6,86.9L49.7,87.0L49.8,87.1L49.9,87.3L49.9,87.4L50.0,87.5L50.0,87.5L50.1,87.5" fill="none" stroke="#fbbf24" stroke-width="0.6" stroke-linecap="round" stroke-linejoin="round" opacity="0.7"/>
  <path d="M67.4,69.6L67.5,69.6L67.5,69.7L67.6,69.8L67.6,69.9L67.7,70.0L67.8,70.2L67.9,70.4L68.0,70.6L68.0,70.8L68.1,71.0L68.2,71.1L68.3,71.3L68.4,71.4L68.5,71.6L68.6,71.8L68.7,72.0L68.8,72.2L68.8,72.4L68.9,72.7L68.9,72.9L68.9,73.0L69.0,73.2L69.1,73.2L69.2,73.2L69.2,73.3L69.3,73.4L69.4,73.6L69.4,73.8L69.4,74.0L69.5,74.1L69.6,74.3L69.6,74.4L69.7,74.5L69.7,74.7L69.7,74.9L69.7,75.1L69.7,75.3L69.7,75.5L69.7,75.6L69.8,75.7L69.8,75.8L69.9,76.0L69.9,76.2L69.9,76.4L69.9,76.6L70.0,76.8L70.0,76.9L70.0,77.0L70.0,77.0L70.1,77.1L70.1,77.2L70.1,77.3L70.2,77.4L70.2,77.5L70.3,77.7L70.3,77.8L70.4,78.0L70.4,78.0L70.4,78.1" fill="none" stroke="#fbbf24" stroke-width="0.6" stroke-linecap="round" stroke-linejoin="round" opacity="0.7"/>
  <path d="M46.1,99.2L46.1,99.2L46.0,99.2L45.8,99.3L45.6,99.4L45.4,99.4L45.2,99.5L45.0,99.5L44.8,99.4L44.6,99.4L44.4,99.4L44.2,99.4L44.0,99.4L43.7,99.4L43.5,99.4L43.3,99.4L43.0,99.5L42.8,99.6L42.6,99.6L42.4,99.6L42.2,99.6L42.1,99.6L41.9,99.6L41.7,99.5L41.5,99.5L41.2,99.5L41.0,99.5L40.8,99.5L40.6,99.4L40.5,99.4L40.3,99.4L40.1,99.4L39.9,99.4L39.7,99.3L39.5,99.3L39.3,99.3L39.0,99.3L38.8,99.2L38.6,99.2L38.4,99.2L38.2,99.2L38.0,99.2L37.8,99.1L37.6,99.1L37.4,99.1L37.2,99.1L37.0,99.1L36.8,99.0L36.5,99.0L36.3,99.0L36.1,99.0L35.9,98.9L35.7,98.9L35.6,98.9L35.5,98.9L35.4,98.9" fill="none" stroke="#fbbf24" stroke-width="0.6" stroke-linecap="round" stroke-linejoin="round" opacity="0.7"/>
  <path d="M34.7,90.7L34.7,90.7L34.7,90.8L34.8,91.0L34.8,91.2L34.9,91.4L34.9,91.6L34.9,91.7L35.0,91.8L35.0,91.9L35.1,92.0L35.2,92.2L35.2,92.3L35.3,92.4L35.4,92.5L35.5,92.6L35.5,92.7L35.6,92.9L35.6,93.0L35.7,93.2L35.7,93.4L35.7,93.6L35.7,93.8L35.8,93.9L35.8,94.0L35.8,94.2L35.8,94.3L35.9,94.4L35.9,94.5L35.9,94.6L35.9,94.8L36.0,95.0L36.0,95.2L36.1,95.4L36.1,95.6L36.1,95.7L36.1,95.8L36.2,95.9L36.2,95.9L36.2,96.0" fill="none" stroke="#fbbf24" stroke-width="0.6" stroke-linecap="round" stroke-linejoin="round" opacity="0.7"/>
  <path d="M54.9,65.3L54.8,65.3L54.7,65.3L54.5,65.4L54.3,65.5L54.1,65.6L53.9,65.6L53.7,65.6L53.5,65.6L53.3,65.6L53.1,65.6L52.9,65.7L52.7,65.8L52.5,65.8L52.3,65.8L52.1,65.8L51.9,65.8L51.7,65.8L51.5,65.8L51.3,65.8L51.1,65.8L50.9,65.8L50.7,65.8L50.5,65.9L50.3,65.9L50.2,66.0L50.1,66.0L50.0,66.1" fill="none" stroke="#fbbf24" stroke-width="0.6" stroke-linecap="round" stroke-linejoin="round" opacity="0.7"/>
  <path d="M52.2,58.6L52.1,58.6L52.0,58.6L51.9,58.7L51.7,58.8L51.6,58.9L51.4,59.0L51.3,59.1L51.1,59.1L51.0,59.2L50.8,59.3L50.6,59.4L50.5,59.5L50.3,59.6L50.1,59.7L50.0,59.8L49.8,59.9L49.6,59.9L49.5,60.0L49.3,60.0L49.2,60.0L49.1,60.0L48.9,60.0L48.8,60.1L48.6,60.2L48.4,60.3L48.2,60.3L48.1,60.4L47.9,60.5L47.7,60.6L47.5,60.7L47.4,60.8L47.2,60.9L47.0,61.0L46.8,61.1L46.6,61.3L46.4,61.5L46.2,61.6L46.1,61.7L45.9,61.8L45.8,61.8L45.6,61.8L45.5,61.8L45.3,61.9L45.2,62.0L45.0,62.0L44.8,62.1L44.7,62.2L44.5,62.3L44.3,62.5L43.9,62.6L43.5,62.9L43.1,63.1L42.7,63.4L42.4,63.5L42.1,63.7L42.0,63.8L41.9,63.9L41.7,64.0L41.6,64.1L41.5,64.1L41.3,64.3L41.1,64.4L41.0,64.6L40.8,64.8L40.6,64.9L40.4,65.1L40.3,65.2L40.2,65.3L40.0,65.4L39.9,65.5L39.8,65.6L39.6,65.7L39.5,65.7L39.4,65.8L39.2,65.8L39.1,65.8L39.0,65.8L38.9,65.9L38.8,66.1L38.6,66.3L38.5,66.4L38.3,66.6L38.2,66.7L38.1,66.8L37.9,66.9L37.8,67.0L37.7,67.1L37.6,67.2L37.4,67.3L37.3,67.4L37.2,67.5L37.0,67.5L36.9,67.6L36.8,67.7L36.6,67.8L36.5,67.9L36.4,68.0L36.2,68.2L36.1,68.4L36.0,68.6L35.9,68.7L35.7,68.9L35.6,69.0L35.5,69.1L35.3,69.2L35.2,69.3L35.1,69.4L34.9,69.5L34.8,69.6L34.7,69.7L34.6,69.8L34.5,69.9L34.4,70.0L34.3,70.0L34.1,70.1L34.0,70.2L33.9,70.4L33.8,70.5L33.7,70.7L33.5,70.9L33.4,71.1L33.3,71.2L33.1,71.3L33.0,71.4L32.9,71.5L32.8,71.6L32.6,71.7L32.5,71.8L32.4,71.9L32.2,72.1L32.0,72.2L31.9,72.4L31.7,72.6L31.5,72.7L31.4,72.9L31.3,73.0L31.2,73.0L31.1,73.1L31.0,73.1" fill="none" stroke="#fbbf24" stroke-width="0.6" stroke-linecap="round" stroke-linejoin="round" opacity="0.7"/>
  <path d="M23.3,83.9L23.3,83.9L23.3,84.0L23.2,84.0L23.2,84.1L23.2,84.3L23.1,84.4L23.1,84.6L23.1,84.8L23.1,85.0L23.0,85.2L23.0,85.5L23.0,85.7L23.0,85.9L23.0,86.0L23.0,86.2L23.0,86.3L23.0,86.4L23.0,86.5L23.0,86.6L23.0,86.7L22.9,86.8L22.9,87.0L22.9,87.2L22.8,87.4L22.8,87.6L22.8,87.8L22.8,88.0L22.8,88.2L22.8,88.4L22.8,88.5L22.9,88.6L22.9,88.6L23.0,88.6L23.0,88.7L23.0,88.9L23.0,89.1L23.0,89.3L23.0,89.5L23.0,89.6L23.0,89.7L22.9,89.8L22.9,90.0L22.9,90.2L22.8,90.4L22.8,90.6L22.8,90.7L22.7,90.8L22.7,91.0L22.7,91.1L22.7,91.2L22.7,91.3L22.6,91.4L22.6,91.5L22.6,91.7L22.6,91.9L22.5,92.1L22.5,92.2L22.5,92.4L22.5,92.5L22.5,92.7L22.5,92.8L22.6,92.9L22.6,93.0L22.6,93.1L22.6,93.2L22.6,93.2L22.6,93.2" fill="none" stroke="#fbbf24" stroke-width="0.6" stroke-linecap="round" stroke-linejoin="round" opacity="0.7"/>
  <path d="M28.2,92.5L28.2,92.6L28.3,92.7L28.3,92.9L28.4,93.1L28.5,93.3L28.6,93.4L28.7,93.5L28.8,93.5L28.9,93.5L29.1,93.6L29.2,93.7L29.3,93.8L29.4,93.9L29.5,94.0L29.7,94.2L29.8,94.3L29.9,94.4L30.0,94.5L30.1,94.6L30.2,94.7L30.3,94.9L30.4,95.0L30.5,95.1L30.6,95.2L30.7,95.3L30.8,95.5L31.0,95.6L31.1,95.7L31.2,95.8L31.4,95.9L31.5,96.1L31.7,96.2L31.8,96.3L32.0,96.4L32.1,96.4L32.3,96.4L32.5,96.4L32.7,96.5L32.9,96.5L33.0,96.5L33.2,96.5L33.4,96.6L33.5,96.7L33.7,96.8L33.8,97.0L34.0,97.1L34.1,97.2L34.3,97.3L34.5,97.5L34.7,97.6L34.9,97.7L35.1,97.8L35.3,97.9L35.5,98.0L35.7,98.1L35.9,98.1L36.1,98.1L36.3,98.2L36.5,98.3L36.7,98.4L36.9,98.6L37.1,98.7L37.3,98.8L37.4,98.9L37.6,99.0L37.8,99.1L38.0,99.2L38.1,99.2L38.3,99.2L38.5,99.2L38.7,99.2L38.9,99.3L39.1,99.3L39.3,99.4L39.4,99.5L39.6,99.6L39.8,99.7L40.0,99.8L40.2,99.8L40.4,99.8L40.6,99.9L40.8,99.9L41.0,99.9L41.2,99.9L41.4,100.0L41.6,100.0L41.7,100.1L41.9,100.3L42.0,100.4L42.2,100.4L42.4,100.5L42.6,100.5L42.8,100.5L43.0,100.5L43.2,100.6L43.4,100.6L43.5,100.6L43.6,100.6L43.7,100.6" fill="none" stroke="#fbbf24" stroke-width="0.6" stroke-linecap="round" stroke-linejoin="round" opacity="0.7"/>
  <path d="M26.3,73.0L26.2,73.0L26.2,73.0L26.1,73.0L26.1,73.0L26.0,73.0L25.9,73.1L25.7,73.3L25.6,73.5L25.5,73.7L25.4,73.9L25.3,74.1L25.2,74.3L25.1,74.5L25.0,74.6L24.9,74.8L24.9,74.9L24.8,75.0L24.7,75.1L24.6,75.2L24.6,75.3L24.5,75.3L24.5,75.4L24.5,75.4" fill="none" stroke="#fbbf24" stroke-width="0.6" stroke-linecap="round" stroke-linejoin="round" opacity="0.7"/>
  <path d="M49.4,84.0L49.3,84.1L49.3,84.1L49.1,84.2L48.9,84.3L48.8,84.3L48.6,84.4L48.4,84.4L48.3,84.4L48.1,84.3L48.0,84.3L47.8,84.3L47.6,84.3L47.4,84.3L47.3,84.3L47.1,84.4L46.9,84.5L46.7,84.6L46.5,84.6L46.3,84.7L46.1,84.8L45.9,84.9L45.7,85.0L45.5,85.1L45.4,85.2L45.2,85.3L45.0,85.3L44.8,85.4L44.6,85.5L44.5,85.6L44.3,85.7L44.1,85.8L44.0,85.9L43.8,86.0L43.6,86.1L43.4,86.2L43.3,86.2L43.1,86.3L42.9,86.3L42.7,86.3L42.6,86.3L42.4,86.3L42.2,86.4L42.0,86.4L41.8,86.5L41.6,86.6L41.4,86.7L41.2,86.8L41.0,86.9L40.8,86.9L40.6,87.0L40.3,87.1L40.1,87.2L39.9,87.3L39.7,87.3L39.5,87.3L39.4,87.3L39.2,87.3L39.0,87.3L38.7,87.4L38.5,87.5L38.3,87.5L38.1,87.5L37.9,87.6L37.7,87.5L37.5,87.5L37.3,87.6L37.1,87.6L36.9,87.7L36.7,87.8L36.4,87.8L36.2,87.8L36.0,87.8L35.8,87.8L35.6,87.7L35.4,87.7L35.2,87.7L34.6,87.7L33.7,87.8L32.5,87.9L31.0,88.1L29.7,88.2L28.8,88.3L28.3,88.4L28.0,88.5L27.8,88.6L27.6,88.6L27.3,88.6L27.1,88.6L26.9,88.5L26.6,88.5L26.4,88.5L26.1,88.5L25.9,88.4L25.7,88.4L25.5,88.4L25.2,88.4L25.0,88.4L24.8,88.3L24.6,88.3L24.4,88.3L24.2,88.3L23.9,88.2L23.7,88.2L23.5,88.2L23.3,88.2L23.1,88.2L22.9,88.3L22.6,88.4L22.4,88.4L22.2,88.5L21.9,88.5L21.7,88.4L21.5,88.4L21.3,88.4L21.1,88.4L20.9,88.3L20.7,88.4L20.5,88.4L20.3,88.4L20.1,88.5L19.9,88.6L19.6,88.7L19.4,88.8L19.2,88.9L18.9,88.9L18.7,89.0L18.5,89.1L18.2,89.2L18.0,89.3L17.8,89.4L17.5,89.4L17.3,89.5L17.1,89.6L16.8,89.7L16.6,89.8L16.5,89.9L16.3,89.9L16.1,90.0L15.9,90.0L15.7,90.0L15.6,90.0L15.4,90.0L15.2,90.1L15.0,90.1L14.8,90.3L14.7,90.4L14.5,90.6L14.3,90.8L14.0,90.9L13.9,91.1L13.7,91.2L13.5,91.3L13.3,91.4L13.1,91.4L13.0,91.5L12.8,91.6L12.6,91.7L12.5,91.8L12.3,91.9L12.1,92.0L12.0,92.1L11.8,92.2L11.6,92.4L11.4,92.6L11.3,92.8L11.1,92.9L11.0,93.0L10.8,93.1L10.7,93.3L10.5,93.4L10.3,93.6L10.2,93.8L10.0,93.9L9.8,94.0L9.7,94.0L9.6,94.0L9.4,94.1L9.3,94.2L9.1,94.3L8.9,94.5L8.8,94.7L8.6,94.8L8.5,94.9L8.4,95.0L8.3,95.2L8.1,95.3L8.0,95.5L7.8,95.7L7.7,95.8L7.5,95.9L7.4,95.9L7.3,95.9L7.2,96.0L7.0,96.1L6.9,96.2L6.8,96.4L6.7,96.6L6.6,96.7L6.5,96.9L6.3,97.0L6.2,97.1L6.1,97.2L6.1,97.4L6.0,97.6L5.9,97.8L5.8,97.9L5.8,97.9L5.7,97.9L5.7,98.0L5.6,98.1L5.5,98.2L5.4,98.4L5.3,98.6L5.2,98.8L5.1,98.9L5.0,99.0L5.0,99.1L4.9,99.1L4.9,99.1" fill="none" stroke="#fbbf24" stroke-width="0.6" stroke-linecap="round" stroke-linejoin="round" opacity="0.7"/>
  <ellipse cx="52.9" cy="74.9" rx="3.5" ry="2.4" fill="#0c0c0c" stroke="#ef4444" stroke-width="0.4" opacity="0.95"/>
  <text x="52.9" y="75.9" text-anchor="middle" font-family="sans-serif" font-size="2.6" font-weight="700" fill="#ffffff" opacity="0.95">OR</text>
</svg>