<svg xmlns="http://www.w3.org/2000/svg" viewBox="0 0 102.44941145180643 98.08150433173446" preserveAspectRatio="none">
  <path d="M57.7,68.6L57.5,69.1L57.4,69.9L57.4,70.8L57.4,71.2L57.3,72.0L57.1,72.9L56.8,73.3L56.7,74.2L56.6,74.6L56.4,75.0L56.2,75.9L56.0,76.7L55.9,77.6L55.7,78.0L55.6,78.4L55.4,79.3" fill="none" stroke="#ef4444" stroke-width="0.8" stroke-linecap="round" opacity="0.9"/>
  <path d="M42.8,91.9L43.9,91.8L44.9,91.8L45.9,91.4L46.9,91.3L48.0,91.3L49.2,91.3L50.1,90.9L51.2,90.8L52.2,90.8L53.2,90.8L54.3,90.8L55.3,90.8L56.0,90.3" fill="none" stroke="#ef4444" stroke-width="0.8" stroke-linecap="round" opacity="0.9"/>
  <path d="M85.1,85.2L85.4,85.7L85.8,86.8L86.1,87.2L86.5,88.0L86.9,88.5L87.2,89.3L87.4,90.1L87.7,90.1L88.0,91.0L88.2,91.4L88.4,91.8L88.6,92.7" fill="none" stroke="#ef4444" stroke-width="0.8" stroke-linecap="round" opacity="0.9"/>
  <path d="M30.1,64.9L29.5,65.8L28.8,66.2L27.9,67.1L27.2,67.1L26.6,67.5L25.9,68.4L25.4,68.8" fill="none" stroke="#ef4444" stroke-width="0.8" stroke-linecap="round" opacity="0.9"/>
  <path d="M60.5,79.2L61.3,79.6L62.1,80.0L63.0,80.4L63.8,80.8L64.7,81.7L65.6,81.6L66.4,82.1L67.2,82.9L68.0,83.3L68.9,83.7L69.8,84.3L70.7,84.9L71.4,85.8L72.2,85.8L73.0,86.6L73.9,87.0L74.7,87.8L75.4,88.3L76.0,88.7L76.8,89.5L77.5,89.9L78.1,90.3L78.7,91.2L79.3,91.6L80.0,92.4L80.5,92.4" fill="none" stroke="#ef4444" stroke-width="0.8" stroke-linecap="round" opacity="0.9"/>
  <path d="M22.9,71.4L22.3,72.3L21.9,72.7L21.6,73.6L21.3,74.0L21.0,74.4" fill="none" stroke="#ef4444" stroke-width="0.8" stroke-linecap="round" opacity="0.9"/>
  <path d="M56.5,60.2L56.7,61.0L56.9,61.4L57.1,61.9L57.3,62.7L57.4,63.6L57.6,64.0L57.7,64.4L57.7,65.2L57.8,66.1L57.7,66.5L57.8,67.4L57.8,67.8" fill="none" stroke="#fbbf24" stroke-width="0.6" stroke-linecap="round" opacity="0.7"/>
  <path d="M72.4,77.3L72.8,77.3L73.2,77.7L73.5,78.5L73.9,78.9L74.1,79.4L74.4,79.8" fill="none" stroke="#fbbf24" stroke-width="0.6" stroke-linecap="round" opacity="0.7"/>
  <path d="M25.6,59.5L24.8,59.9L24.1,60.4L23.4,60.4L22.6,60.4L21.9,60.8L21.3,61.3" fill="none" stroke="#fbbf24" stroke-width="0.6" stroke-linecap="round" opacity="0.7"/>
  <path d="M11.4,70.0L11.1,70.4L10.7,71.3L10.5,71.7L10.2,72.1L10.2,73.0L10.0,73.8L9.7,73.8L9.9,74.7L10.0,75.1L10.2,75.9L10.1,76.4L10.3,76.8L10.6,77.6L10.7,78.5L10.9,78.5L11.0,79.3L11.1,80.2L11.1,80.6L11.2,81.0L11.1,81.9L11.2,82.3L11.0,82.7L11.0,83.6L11.0,84.0L10.7,84.4" fill="none" stroke="#fbbf24" stroke-width="0.6" stroke-linecap="round" opacity="0.7"/>
  <path d="M31.3,90.4L32.1,90.4L32.9,90.8L33.7,91.2L34.6,91.2L35.3,91.1L36.2,91.6L37.1,91.5L38.0,91.5L39.0,91.9L39.9,91.9L40.9,91.9L41.8,91.9" fill="none" stroke="#fbbf24" stroke-width="0.6" stroke-linecap="round" opacity="0.7"/>
  <path d="M56.0,90.3L56.8,90.3L57.8,89.9L58.6,89.8L59.4,89.4L60.3,89.0L61.0,88.5L61.9,88.5L62.8,88.5L63.7,88.1L64.5,88.0L65.4,87.6L66.3,87.6L67.4,87.6L68.4,87.1L69.2,87.1L70.1,86.7L71.0,86.6L72.4,86.6L73.6,86.2L74.6,86.1L75.1,85.7L76.0,85.7L77.0,85.7L77.8,85.2L78.5,85.2L79.2,84.8L80.0,84.3L80.8,84.3L81.5,83.9" fill="none" stroke="#fbbf24" stroke-width="0.6" stroke-linecap="round" opacity="0.7"/>
  <path d="M56.1,75.5L56.5,76.3L56.7,76.7L56.9,77.6L57.0,78.0L57.3,78.8L57.4,79.3L57.9,79.7L58.1,80.5L58.3,81.4L58.8,81.8L59.0,82.2L59.3,82.6" fill="none" stroke="#fbbf24" stroke-width="0.6" stroke-linecap="round" opacity="0.7"/>
  <path d="M66.4,86.7L67.3,87.1L68.0,87.1L68.9,86.7L69.7,86.7L70.5,86.6L71.3,86.6L72.1,86.6L72.9,86.6" fill="none" stroke="#fbbf24" stroke-width="0.6" stroke-linecap="round" opacity="0.7"/>
  <path d="M74.3,65.3L74.4,65.8L74.6,66.2L74.9,67.0L75.1,67.5L75.3,67.9L75.4,68.3L75.5,68.7L75.8,69.6L76.0,70.0L76.3,70.4L76.5,70.8L76.6,71.7L77.0,72.1L80.3,76.7L80.6,77.1L80.8,77.1L81.2,77.9L81.5,78.4L81.9,78.8L82.1,79.2L82.7,80.9L83.0,81.3L83.4,81.7L83.7,82.1L83.9,83.0L84.2,83.4L84.5,84.3L84.9,84.7" fill="none" stroke="#fbbf24" stroke-width="0.6" stroke-linecap="round" opacity="0.7"/>
  <path d="M88.6,92.7L88.7,93.5L88.8,94.4L88.9,94.4L89.1,95.2L89.0,96.1L89.0,96.9L88.8,96.9" fill="none" stroke="#fbbf24" stroke-width="0.6" stroke-linecap="round" opacity="0.7"/>
  <path d="M60.7,47.4L61.6,47.8L62.3,47.8L63.2,48.2L64.0,48.1L64.8,48.1L65.7,48.5L66.6,48.5L67.4,48.5L68.3,48.5L69.1,48.5L70.0,48.9L70.8,49.3L71.6,49.3L72.3,49.7L73.1,49.7L73.9,50.1L74.6,50.1L75.3,50.5L75.9,50.5" fill="none" stroke="#fbbf24" stroke-width="0.6" stroke-linecap="round" opacity="0.7"/>
  <path d="M51.4,41.2L50.6,40.8L49.8,40.8L48.9,40.8L48.0,40.4L47.3,40.4L46.4,40.4L45.5,40.0L44.8,40.0L43.9,40.0L43.0,40.1L42.3,40.1L41.4,40.1L40.6,40.1L39.7,40.1L38.9,40.1L38.1,40.2L37.3,40.2L36.5,40.2L35.7,40.2" fill="none" stroke="#fbbf24" stroke-width="0.6" stroke-linecap="round" opacity="0.7"/>
  <path d="M76.3,58.9L75.5,59.0L74.7,59.0L73.8,59.0L72.9,59.0L72.1,59.0L71.3,59.0L70.5,59.5L69.7,59.5L68.8,59.5L68.0,59.5L67.2,59.5L66.4,59.6L65.6,59.6L64.7,59.6L63.8,59.6L63.0,59.6L62.1,60.1L61.3,60.1L60.5,60.1L59.7,60.5" fill="none" stroke="#fbbf24" stroke-width="0.6" stroke-linecap="round" opacity="0.7"/>
  <path d="M39.1,60.1L38.3,60.1L37.6,60.5L37.0,61.0L36.3,61.4L35.7,61.9L34.9,62.3L34.2,62.3L33.5,62.7L32.9,63.6L32.2,64.0L31.5,64.5L30.8,64.5L25.4,68.8L24.8,69.3L24.5,69.7L24.2,70.1L23.9,71.0L23.7,71.4L23.5,71.9L23.1,72.3L23.0,73.1L22.9,73.6L22.8,74.0L22.5,74.4" fill="none" stroke="#fbbf24" stroke-width="0.6" stroke-linecap="round" opacity="0.7"/>
  <path d="M50.7,74.3L51.3,74.7L52.0,75.1L52.7,75.1L53.5,75.5L54.2,75.9L55.0,76.8L55.6,77.2L56.4,77.6L57.4,77.6L58.1,78.0L59.0,78.4L59.7,78.8" fill="none" stroke="#fbbf24" stroke-width="0.6" stroke-linecap="round" opacity="0.7"/>
  <path d="M80.5,92.4L81.0,93.2L81.3,93.7L81.8,94.5L82.3,94.5L82.5,95.1L82.7,95.7L82.8,96.2L83.1,97.0L83.2,97.0" fill="none" stroke="#fbbf24" stroke-width="0.6" stroke-linecap="round" opacity="0.7"/>
  <path d="M28.1,65.4L27.6,66.3L27.1,66.7L26.5,67.1L26.1,67.1L25.7,67.6L25.3,68.4L24.9,68.9L24.3,69.3L24.0,69.7L23.5,70.6L23.2,71.0L21.0,74.4L20.6,75.3L20.2,75.7L20.0,76.2L19.7,76.6L19.3,77.0L19.0,77.9L18.7,78.3L18.4,78.7" fill="none" stroke="#fbbf24" stroke-width="0.6" stroke-linecap="round" opacity="0.7"/>
  <path d="M68.0,81.4L68.7,81.6L69.4,82.0L70.0,82.4L70.9,82.8L71.6,82.8L72.3,83.2L73.1,83.2L73.8,83.6L74.5,83.6L75.2,83.6L76.7,83.6L77.5,84.0L78.3,83.9L79.1,84.4L79.9,84.3L80.8,84.3L81.5,84.7L82.3,84.7L83.1,84.9L83.9,85.1L84.7,85.1L85.5,85.5L86.3,85.5L87.1,85.5L87.9,85.9L88.6,85.9L89.4,86.3" fill="none" stroke="#fbbf24" stroke-width="0.6" stroke-linecap="round" opacity="0.7"/>
  <circle cx="51.9" cy="63.1" r="2" fill="#ffffff" stroke="#ef4444" stroke-width="0.5" opacity="0.9"/>
</svg>