<svg xmlns="http://www.w3.org/2000/svg" viewBox="0 0 102.27040591422573 107.44489710580129" preserveAspectRatio="none">
  <path d="M83.3,70.8C83.3,70.9 83.2,71.0 83.0,71.2C82.9,71.4 82.9,71.3 82.7,71.6C82.5,71.9 82.5,72.1 82.2,72.4C82.0,72.7 82.0,72.5 81.8,72.8C81.6,73.1 81.6,73.2 81.4,73.6C81.2,74.1 81.1,74.2 80.9,74.5C80.8,74.8 80.8,74.6 80.6,74.9C80.5,75.2 80.3,75.5 80.2,75.7" fill="none" stroke="#ef4444" stroke-width="0.8" stroke-linecap="round" stroke-linejoin="round" opacity="0.9"/>
  <path d="M73.4,23.8C73.3,23.6 73.2,23.3 73.0,22.9C72.7,22.6 72.6,22.7 72.4,22.4C72.1,22.2 72.1,22.2 71.9,22.0C71.7,21.7 71.7,21.8 71.5,21.5C71.4,21.2 71.3,20.8 71.2,20.6" fill="none" stroke="#ef4444" stroke-width="0.8" stroke-linecap="round" stroke-linejoin="round" opacity="0.9"/>
  <path d="M93.2,81.3C93.1,81.5 92.9,81.8 92.6,82.1C92.2,82.4 92.3,82.3 92.0,82.5C91.7,82.7 91.7,82.6 91.4,82.9C91.1,83.1 91.1,83.4 90.8,83.7C90.5,83.9 90.5,83.7 90.2,84.0C89.8,84.3 89.7,84.6 89.3,84.8C89.0,85.0 89.1,84.5 88.7,84.7C88.4,84.9 88.4,85.1 88.0,85.5C87.7,85.9 87.7,86.0 87.3,86.3C86.9,86.6 86.9,86.5 86.5,86.6C86.0,86.8 86.0,86.8 85.6,87.0C85.2,87.1 85.3,87.0 84.8,87.3C84.4,87.6 84.3,87.8 83.9,88.1C83.4,88.4 83.5,88.4 83.1,88.4C82.7,88.5 82.7,88.2 82.3,88.3C81.8,88.5 81.7,88.8 81.2,89.1C80.7,89.4 80.8,89.3 80.3,89.4C79.8,89.6 79.8,89.6 79.3,89.7C78.8,89.9 78.8,89.9 78.4,90.1C77.9,90.2 77.9,90.2 77.5,90.4C77.1,90.6 76.9,90.7 76.7,90.8" fill="none" stroke="#ef4444" stroke-width="0.8" stroke-linecap="round" stroke-linejoin="round" opacity="0.9"/>
  <path d="M93.5,45.7C93.4,45.9 93.3,46.1 93.2,46.5C93.1,47.0 93.1,47.1 93.0,47.4C92.9,47.7 92.9,47.6 92.7,47.8C92.5,48.0 92.5,47.9 92.4,48.2C92.2,48.5 92.2,48.7 92.1,49.0C92.0,49.3 92.0,49.1 91.9,49.4C91.8,49.7 91.8,49.8 91.6,50.2C91.4,50.6 91.4,50.8 91.2,51.1C91.0,51.4 91.0,51.1 90.8,51.4C90.6,51.7 90.6,51.8 90.5,52.3C90.3,52.7 90.3,52.8 90.2,53.1C90.1,53.4 90.1,53.2 90.0,53.5C89.8,53.8 89.8,53.9 89.6,54.3C89.5,54.7 89.5,54.5 89.2,55.1C88.9,55.8 88.8,56.2 88.6,56.8C88.3,57.4 88.3,57.3 88.2,57.6C88.0,57.9 88.0,57.7 87.8,58.0C87.6,58.3 87.6,58.5 87.4,58.8C87.2,59.1 87.2,58.9 87.0,59.2C86.8,59.5 86.9,59.6 86.7,60.0C86.5,60.4 86.5,60.4 86.3,60.9C86.2,61.3 86.1,61.4 85.9,61.7C85.7,62.0 85.8,61.9 85.5,62.1C85.3,62.2 85.3,62.1 85.1,62.4C84.9,62.7 84.9,62.8 84.7,63.3C84.5,63.7 84.4,63.9 84.3,64.1" fill="none" stroke="#ef4444" stroke-width="0.8" stroke-linecap="round" stroke-linejoin="round" opacity="0.9"/>
  <path d="M80.2,71.8C80.2,72.0 80.1,72.3 80.0,72.6C79.9,72.9 79.9,72.7 79.9,73.1C79.8,73.4 79.8,73.6 79.8,73.9C79.8,74.2 79.8,74.1 79.8,74.3C79.8,74.6 79.9,74.5 79.8,74.8C79.8,75.1 79.6,75.4 79.6,75.6" fill="none" stroke="#ef4444" stroke-width="0.8" stroke-linecap="round" stroke-linejoin="round" opacity="0.9"/>
  <path d="M73.3,72.4C73.3,72.5 73.3,72.5 73.2,72.8C73.0,73.1 72.9,73.3 72.7,73.6C72.6,73.9 72.7,73.7 72.6,74.0C72.5,74.3 72.5,74.4 72.4,74.8C72.3,75.3 72.2,75.4 72.2,75.7C72.1,76.0 72.2,75.8 72.2,76.1C72.1,76.4 72.0,76.6 72.0,77.0C71.9,77.3 72.0,77.1 71.9,77.4C71.8,77.7 71.7,77.9 71.7,78.2C71.6,78.5 71.7,78.5 71.7,78.6" fill="none" stroke="#ef4444" stroke-width="0.8" stroke-linecap="round" stroke-linejoin="round" opacity="0.9"/>
  <path d="M84.6,82.1C84.8,82.2 85.0,82.2 85.5,82.2C86.0,82.3 85.9,82.3 86.4,82.3C86.9,82.4 87.0,82.4 87.5,82.5C88.1,82.5 88.0,82.5 88.5,82.6C89.1,82.6 89.1,82.7 89.7,82.7C90.2,82.6 90.3,82.4 90.8,82.4C91.3,82.3 91.2,82.4 91.7,82.5C92.2,82.5 92.2,82.5 92.7,82.6C93.2,82.6 93.3,82.6 93.8,82.7C94.4,82.7 94.4,82.7 94.9,82.8C95.4,82.8 95.6,82.9 95.8,82.9" fill="none" stroke="#ef4444" stroke-width="0.8" stroke-linecap="round" stroke-linejoin="round" opacity="0.9"/>
  <path d="M83.4,73.0C83.4,73.1 83.4,73.1 83.2,73.4C83.1,73.7 83.1,73.9 82.9,74.2C82.8,74.5 82.8,74.4 82.6,74.6C82.5,74.8 82.5,74.8 82.3,75.0C82.1,75.2 82.1,75.1 81.9,75.4C81.7,75.7 81.8,75.9 81.6,76.2C81.5,76.6 81.5,76.5 81.4,76.7C81.3,76.9 81.3,76.7 81.1,77.1C80.9,77.4 80.9,77.6 80.7,77.9C80.5,78.2 80.5,78.0 80.3,78.3C80.1,78.6 80.0,78.8 79.8,79.1C79.7,79.4 79.8,79.3 79.7,79.5C79.7,79.7 79.7,79.7 79.6,79.9C79.5,80.1 79.6,80.0 79.5,80.3C79.3,80.6 79.2,80.8 79.1,81.1C78.9,81.4 79.0,81.3 78.9,81.5C78.8,81.7 78.8,81.6 78.7,82.0C78.6,82.3 78.4,82.6 78.4,82.8" fill="none" stroke="#fbbf24" stroke-width="0.6" stroke-linecap="round" stroke-linejoin="round" opacity="0.7"/>
  <path d="M88.9,62.8C88.8,62.9 88.7,62.9 88.4,63.2C88.2,63.5 88.2,63.7 88.0,64.0C87.8,64.3 87.9,64.2 87.8,64.4C87.7,64.6 87.7,64.5 87.5,64.8C87.4,65.1 87.4,65.4 87.2,65.7C87.1,66.0 87.1,65.9 86.9,66.1C86.7,66.3 86.7,66.3 86.5,66.5C86.3,66.6 86.4,66.5 86.2,66.8C86.0,67.1 85.9,67.3 85.7,67.7C85.4,68.1 85.4,68.2 85.1,68.5C84.9,68.8 84.9,68.6 84.7,68.8C84.5,69.0 84.5,68.9 84.3,69.2C84.1,69.5 84.8,68.4 83.8,70.0C82.8,71.6 81.2,74.2 80.2,75.7C79.2,77.2 80.0,75.8 79.9,76.1C79.7,76.4 79.8,76.6 79.6,76.9C79.5,77.2 79.5,77.0 79.4,77.3C79.2,77.6 79.2,77.7 79.1,78.1C78.9,78.5 78.9,78.6 78.8,79.0C78.6,79.3 78.6,79.2 78.5,79.4C78.4,79.6 78.4,79.6 78.3,79.8C78.2,80.0 78.2,79.9 78.1,80.2C78.0,80.5 77.9,80.7 77.8,81.0C77.6,81.3 77.7,81.2 77.6,81.4C77.5,81.6 77.5,81.7 77.4,81.8" fill="none" stroke="#fbbf24" stroke-width="0.6" stroke-linecap="round" stroke-linejoin="round" opacity="0.7"/>
  <path d="M88.6,47.3C88.5,47.2 88.5,47.1 88.4,46.9C88.4,46.7 88.4,46.8 88.4,46.5C88.4,46.1 88.4,45.9 88.4,45.6C88.4,45.3 88.3,45.5 88.3,45.2C88.3,44.8 88.4,44.5 88.3,44.3C88.2,44.1 88.1,44.5 88.0,44.3C87.9,44.0 87.9,43.7 87.9,43.4C87.8,43.1 87.9,43.3 87.8,43.0C87.6,42.6 87.5,42.4 87.3,42.1C87.1,41.7 87.2,41.8 87.1,41.6C86.9,41.4 86.9,41.5 86.7,41.1C86.5,40.8 86.6,40.6 86.4,40.2C86.3,39.9 86.3,39.9 86.1,39.8C86.0,39.7 85.9,40.0 85.7,39.7C85.6,39.5 85.6,39.2 85.5,38.9C85.3,38.5 85.4,38.6 85.2,38.4C85.0,38.2 85.0,38.2 84.8,37.9C84.6,37.7 84.5,37.7 84.4,37.4C84.2,37.2 84.3,37.2 84.1,37.0C83.9,36.8 83.9,36.8 83.6,36.5C83.4,36.3 83.5,36.3 83.2,36.0C83.0,35.8 83.0,35.8 82.8,35.6C82.5,35.3 82.5,35.3 82.3,35.1C82.1,34.8 82.0,35.0 81.8,34.6C81.6,34.3 81.6,34.1 81.4,33.7C81.2,33.4 81.2,33.6 81.0,33.2C80.8,32.9 80.9,32.6 80.6,32.3C80.4,32.1 80.3,32.4 80.0,32.3C79.7,32.1 79.7,32.1 79.5,31.8C79.3,31.4 79.4,31.2 79.2,30.9C79.0,30.6 79.0,30.7 78.8,30.4C78.5,30.2 78.5,30.2 78.3,29.9C78.0,29.7 78.0,29.8 77.8,29.5C77.6,29.1 77.6,28.9 77.4,28.6C77.2,28.2 77.2,28.3 77.0,28.1C76.8,27.9 76.8,27.9 76.6,27.6C76.4,27.4 76.3,27.4 76.1,27.1C75.8,26.9 75.8,27.0 75.5,26.6C75.3,26.3 75.4,26.1 75.2,25.7C74.9,25.4 74.9,25.4 74.7,25.3C74.5,25.1 74.4,25.5 74.2,25.2C74.0,25.0 74.6,25.5 73.9,24.3C73.1,23.2 72.0,21.7 71.2,20.6C70.4,19.6 70.9,20.4 70.6,20.1C70.4,19.9 70.4,19.9 70.1,19.6C69.9,19.4 69.9,19.5 69.7,19.2C69.5,18.8 69.6,18.6 69.4,18.3C69.3,17.9 69.3,17.9 69.0,17.8C68.7,17.7 68.6,18.0 68.4,17.7C68.2,17.5 68.2,17.2 68.1,16.8C67.9,16.5 67.8,16.7 67.6,16.4C67.4,16.0 67.5,15.7 67.3,15.5C67.1,15.2 67.0,15.5 66.8,15.4C66.6,15.3 66.6,15.3 66.5,15.0C66.3,14.6 66.4,14.4 66.2,14.1C66.1,13.7 66.0,13.8 65.8,13.6C65.6,13.4 65.6,13.4 65.4,13.1C65.2,12.9 65.2,12.9 65.1,12.7C64.9,12.4 64.9,12.4 64.6,12.2C64.4,12.0 64.3,11.8 64.2,11.7" fill="none" stroke="#fbbf24" stroke-width="0.6" stroke-linecap="round" stroke-linejoin="round" opacity="0.7"/>
  <path d="M66.3,5.1C66.4,5.0 66.6,4.9 67.0,4.7C67.3,4.5 67.4,4.4 67.8,4.4C68.2,4.3 68.1,4.4 68.5,4.4C68.9,4.5 68.8,4.6 69.2,4.5C69.6,4.4 69.7,4.3 70.1,4.2C70.5,4.0 70.5,4.0 70.9,3.8C71.3,3.7 71.3,3.7 71.7,3.5C72.2,3.3 72.3,3.2 72.7,3.2C73.2,3.1 73.1,3.3 73.5,3.2C74.0,3.2 74.0,3.0 74.5,2.9C74.9,2.8 74.9,3.0 75.3,3.0C75.7,3.0 75.7,3.1 76.1,3.1C76.6,3.0 76.7,2.8 77.2,2.8C77.6,2.7 77.6,2.9 78.1,2.9C78.5,2.8 78.6,2.6 79.1,2.5C79.6,2.5 79.6,2.7 80.0,2.6C80.5,2.6 80.5,2.4 81.0,2.3C81.4,2.2 81.4,2.5 81.8,2.4C82.3,2.3 82.3,2.1 82.7,2.1C83.1,2.0 83.1,2.2 83.5,2.1C83.9,2.1 84.2,1.9 84.4,1.8" fill="none" stroke="#fbbf24" stroke-width="0.6" stroke-linecap="round" stroke-linejoin="round" opacity="0.7"/>
  <path d="M90.0,78.8C90.0,78.9 89.9,78.9 89.9,79.3C89.9,79.6 89.9,79.8 89.8,80.1C89.8,80.4 89.8,80.3 89.7,80.5C89.7,80.7 89.6,80.7 89.5,80.9C89.5,81.2 89.6,81.1 89.6,81.4C89.6,81.7 89.6,82.0 89.6,82.2" fill="none" stroke="#fbbf24" stroke-width="0.6" stroke-linecap="round" stroke-linejoin="round" opacity="0.7"/>
  <path d="M96.4,77.8C96.3,78.0 96.1,78.4 95.9,78.6C95.7,78.8 95.8,78.4 95.6,78.6C95.4,78.8 95.3,79.1 95.1,79.4C94.8,79.7 94.9,79.5 94.6,79.8C94.4,80.1 94.3,80.3 94.1,80.6C93.9,80.9 93.8,80.9 93.7,81.0" fill="none" stroke="#fbbf24" stroke-width="0.6" stroke-linecap="round" stroke-linejoin="round" opacity="0.7"/>
  <path d="M95.1,37.3C95.1,37.5 95.1,37.8 95.1,38.1C95.0,38.5 95.0,38.5 95.1,38.6C95.1,38.7 95.2,38.4 95.2,38.6C95.2,38.8 95.1,39.0 95.1,39.4C95.1,39.9 95.1,40.0 95.0,40.3C95.0,40.6 95.0,40.5 94.9,40.7C94.9,40.9 94.8,40.8 94.8,41.1C94.7,41.4 94.6,41.7 94.6,42.0" fill="none" stroke="#fbbf24" stroke-width="0.6" stroke-linecap="round" stroke-linejoin="round" opacity="0.7"/>
  <path d="M82.4,67.7C82.3,67.8 82.4,68.0 82.3,68.2C82.2,68.4 82.2,68.3 82.1,68.6C81.9,68.9 81.9,69.0 81.7,69.4C81.4,69.8 81.3,69.9 81.1,70.2C80.9,70.5 80.9,70.4 80.7,70.6C80.6,70.8 80.7,69.7 80.4,71.0C80.1,72.2 79.8,74.2 79.6,75.6C79.3,77.0 79.4,76.1 79.3,76.4C79.2,76.7 79.3,76.6 79.3,76.9C79.3,77.1 79.3,77.1 79.3,77.3C79.3,77.5 79.3,77.4 79.3,77.7C79.2,78.0 79.1,78.3 79.0,78.6" fill="none" stroke="#fbbf24" stroke-width="0.6" stroke-linecap="round" stroke-linejoin="round" opacity="0.7"/>
  <path d="M99.4,65.2C99.5,65.1 99.6,65.0 99.8,64.8C100.1,64.7 100.1,64.8 100.3,64.5C100.6,64.2 100.6,63.9 100.8,63.7C101.0,63.5 100.9,63.9 101.1,63.7C101.3,63.5 101.5,63.3 101.7,62.9C101.9,62.5 101.8,62.3 101.9,62.1" fill="none" stroke="#fbbf24" stroke-width="0.6" stroke-linecap="round" stroke-linejoin="round" opacity="0.7"/>
  <path d="M90.1,80.6C90.3,80.6 90.4,80.6 90.9,80.7C91.3,80.7 91.3,80.7 91.7,80.7C92.2,80.8 92.2,80.8 92.5,80.8C92.9,80.9 92.9,80.9 93.3,80.9C93.7,80.9 93.7,81.0 94.2,81.0C94.6,81.0 94.5,81.1 94.9,81.1C95.4,81.0 95.4,80.8 95.8,80.7C96.3,80.7 96.2,80.8 96.6,80.8C97.0,80.9 97.0,80.9 97.4,80.9C97.8,80.9 97.8,81.0 98.2,81.0C98.6,81.0 98.8,81.1 99.0,81.1" fill="none" stroke="#fbbf24" stroke-width="0.6" stroke-linecap="round" stroke-linejoin="round" opacity="0.7"/>
  <path d="M75.1,68.3C75.0,68.5 74.9,68.8 74.8,69.1C74.7,69.4 74.7,69.3 74.6,69.5C74.6,69.7 74.6,69.7 74.5,69.9C74.4,70.1 74.3,70.0 74.2,70.3C74.0,70.6 74.1,70.7 73.9,71.1C73.7,71.6 73.6,71.8 73.5,72.0" fill="none" stroke="#fbbf24" stroke-width="0.6" stroke-linecap="round" stroke-linejoin="round" opacity="0.7"/>
  <ellipse cx="68.3" cy="58.5" rx="3.5" ry="3.3" fill="#0c0c0c" stroke="#ef4444" stroke-width="0.4" opacity="0.95"/>
  <text x="68.3" y="59.7" text-anchor="middle" font-family="sans-serif" font-size="3.1" font-weight="700" fill="#ffffff" opacity="0.95">OR</text>
</svg>