<svg xmlns="http://www.w3.org/2000/svg" viewBox="0 0 102.27040591422573 107.44489710580129" preserveAspectRatio="none">
  <path d="M83.3,70.8C83.3,70.9 83.1,71.1 83.0,71.2C82.9,71.4 82.9,71.4 82.7,71.6C82.6,71.8 82.4,72.2 82.2,72.4C82.1,72.6 81.9,72.6 81.8,72.8C81.6,73.0 81.5,73.4 81.4,73.6C81.2,73.9 81.1,74.3 80.9,74.5C80.8,74.7 80.8,74.7 80.6,74.9C80.5,75.1 80.3,75.5 80.2,75.7" fill="none" stroke="#ef4444" stroke-width="0.8" stroke-linecap="round" stroke-linejoin="round" opacity="0.9"/>
  <path d="M73.4,23.8C73.3,23.7 73.1,23.2 73.0,22.9C72.8,22.7 72.6,22.6 72.4,22.4C72.2,22.3 72.0,22.1 71.9,22.0C71.7,21.8 71.6,21.7 71.5,21.5C71.4,21.3 71.2,20.8 71.2,20.6" fill="none" stroke="#ef4444" stroke-width="0.8" stroke-linecap="round" stroke-linejoin="round" opacity="0.9"/>
  <path d="M93.2,81.3C93.1,81.5 92.8,81.9 92.6,82.1C92.3,82.3 92.2,82.4 92.0,82.5C91.8,82.6 91.6,82.7 91.4,82.9C91.2,83.1 91.0,83.5 90.8,83.7C90.6,83.8 90.4,83.8 90.2,84.0C89.9,84.2 89.6,84.7 89.3,84.8C89.1,84.9 89.0,84.6 88.7,84.7C88.5,84.8 88.3,85.2 88.0,85.5C87.8,85.8 87.5,86.1 87.3,86.3C87.0,86.5 86.7,86.5 86.5,86.6C86.2,86.7 85.9,86.9 85.6,87.0C85.3,87.1 85.1,87.1 84.8,87.3C84.5,87.5 84.2,87.9 83.9,88.1C83.6,88.3 83.3,88.4 83.1,88.4C82.8,88.5 82.6,88.2 82.3,88.3C82.0,88.4 81.5,88.9 81.2,89.1C80.9,89.3 80.6,89.3 80.3,89.4C80.0,89.5 79.6,89.6 79.3,89.7C79.0,89.9 78.7,90.0 78.4,90.1C78.1,90.2 77.8,90.3 77.5,90.4C77.2,90.5 76.9,90.7 76.7,90.8" fill="none" stroke="#ef4444" stroke-width="0.8" stroke-linecap="round" stroke-linejoin="round" opacity="0.9"/>
  <path d="M93.5,45.7C93.4,45.8 93.3,46.3 93.2,46.5C93.1,46.8 93.1,47.2 93.0,47.4C92.9,47.6 92.8,47.6 92.7,47.8C92.6,47.9 92.5,48.0 92.4,48.2C92.3,48.4 92.2,48.8 92.1,49.0C92.0,49.2 92.0,49.2 91.9,49.4C91.8,49.6 91.7,50.0 91.6,50.2C91.5,50.5 91.3,50.9 91.2,51.1C91.1,51.3 90.9,51.2 90.8,51.4C90.7,51.6 90.5,52.0 90.5,52.3C90.4,52.5 90.3,52.9 90.2,53.1C90.1,53.3 90.1,53.3 90.0,53.5C89.9,53.7 89.8,54.1 89.6,54.3C89.5,54.6 89.4,54.7 89.2,55.1C89.0,55.6 88.7,56.4 88.6,56.8C88.4,57.2 88.3,57.4 88.2,57.6C88.0,57.8 87.9,57.8 87.8,58.0C87.7,58.2 87.5,58.6 87.4,58.8C87.3,59.0 87.1,59.0 87.0,59.2C86.9,59.4 86.8,59.8 86.7,60.0C86.6,60.3 86.5,60.6 86.3,60.9C86.2,61.1 86.1,61.5 85.9,61.7C85.8,61.9 85.7,61.9 85.5,62.1C85.4,62.2 85.2,62.2 85.1,62.4C84.9,62.6 84.8,63.0 84.7,63.3C84.6,63.5 84.4,63.9 84.3,64.1" fill="none" stroke="#ef4444" stroke-width="0.8" stroke-linecap="round" stroke-linejoin="round" opacity="0.9"/>
  <path d="M80.2,71.8C80.2,71.9 80.0,72.4 80.0,72.6C79.9,72.8 79.9,72.8 79.9,73.1C79.8,73.3 79.8,73.7 79.8,73.9C79.8,74.1 79.8,74.2 79.8,74.3C79.8,74.5 79.9,74.6 79.8,74.8C79.8,75.0 79.6,75.5 79.6,75.6" fill="none" stroke="#ef4444" stroke-width="0.8" stroke-linecap="round" stroke-linejoin="round" opacity="0.9"/>
  <path d="M73.3,72.4C73.3,72.4 73.3,72.6 73.2,72.8C73.1,73.0 72.8,73.4 72.7,73.6C72.7,73.8 72.6,73.8 72.6,74.0C72.5,74.2 72.4,74.6 72.4,74.8C72.3,75.1 72.2,75.5 72.2,75.7C72.1,75.9 72.2,75.9 72.2,76.1C72.1,76.3 72.0,76.7 72.0,77.0C71.9,77.2 71.9,77.2 71.9,77.4C71.8,77.6 71.7,78.0 71.7,78.2C71.6,78.4 71.7,78.6 71.7,78.6" fill="none" stroke="#ef4444" stroke-width="0.8" stroke-linecap="round" stroke-linejoin="round" opacity="0.9"/>
  <path d="M84.6,82.1C84.7,82.2 85.2,82.2 85.5,82.2C85.8,82.3 86.1,82.3 86.4,82.3C86.8,82.4 87.2,82.4 87.5,82.5C87.9,82.5 88.2,82.5 88.5,82.6C88.9,82.6 89.3,82.7 89.7,82.7C90.1,82.6 90.4,82.4 90.8,82.4C91.1,82.3 91.4,82.4 91.7,82.5C92.0,82.5 92.4,82.5 92.7,82.6C93.1,82.6 93.5,82.6 93.8,82.7C94.2,82.7 94.6,82.8 94.9,82.8C95.2,82.8 95.6,82.9 95.8,82.9" fill="none" stroke="#ef4444" stroke-width="0.8" stroke-linecap="round" stroke-linejoin="round" opacity="0.9"/>
  <path d="M83.4,73.0C83.4,73.1 83.3,73.2 83.2,73.4C83.2,73.6 83.0,74.0 82.9,74.2C82.8,74.4 82.7,74.5 82.6,74.6C82.5,74.8 82.4,74.9 82.3,75.0C82.2,75.2 82.0,75.2 81.9,75.4C81.8,75.6 81.7,76.0 81.6,76.2C81.6,76.5 81.5,76.5 81.4,76.7C81.3,76.8 81.2,76.9 81.1,77.1C81.0,77.3 80.8,77.7 80.7,77.9C80.5,78.1 80.4,78.1 80.3,78.3C80.2,78.5 79.9,78.9 79.8,79.1C79.8,79.3 79.8,79.3 79.7,79.5C79.7,79.6 79.7,79.8 79.6,79.9C79.6,80.0 79.6,80.1 79.5,80.3C79.4,80.5 79.2,80.9 79.1,81.1C79.0,81.3 78.9,81.4 78.9,81.5C78.8,81.7 78.8,81.7 78.7,82.0C78.6,82.2 78.4,82.6 78.4,82.8" fill="none" stroke="#fbbf24" stroke-width="0.6" stroke-linecap="round" stroke-linejoin="round" opacity="0.7"/>
  <path d="M88.9,62.8C88.8,62.9 88.6,63.0 88.4,63.2C88.3,63.4 88.1,63.8 88.0,64.0C87.9,64.2 87.8,64.3 87.8,64.4C87.7,64.6 87.6,64.6 87.5,64.8C87.4,65.0 87.3,65.5 87.2,65.7C87.1,65.9 87.0,65.9 86.9,66.1C86.8,66.2 86.6,66.3 86.5,66.5C86.4,66.6 86.3,66.6 86.2,66.8C86.0,67.0 85.9,67.4 85.7,67.7C85.5,67.9 85.3,68.3 85.1,68.5C85.0,68.7 84.8,68.7 84.7,68.8C84.6,69.0 84.5,69.0 84.3,69.2C84.2,69.4 84.5,69.0 83.8,70.0C83.1,71.1 80.9,74.7 80.2,75.7C79.6,76.7 80.0,75.9 79.9,76.1C79.8,76.3 79.7,76.7 79.6,76.9C79.6,77.1 79.5,77.1 79.4,77.3C79.3,77.5 79.2,77.9 79.1,78.1C79.0,78.4 78.8,78.7 78.8,79.0C78.7,79.2 78.6,79.2 78.5,79.4C78.4,79.5 78.3,79.6 78.3,79.8C78.2,79.9 78.2,80.0 78.1,80.2C78.0,80.4 77.8,80.8 77.8,81.0C77.7,81.2 77.7,81.3 77.6,81.4C77.6,81.5 77.5,81.8 77.4,81.8" fill="none" stroke="#fbbf24" stroke-width="0.6" stroke-linecap="round" stroke-linejoin="round" opacity="0.7"/>
  <path d="M88.6,47.3C88.6,47.3 88.4,47.0 88.4,46.9C88.4,46.7 88.4,46.7 88.4,46.5C88.4,46.2 88.4,45.8 88.4,45.6C88.4,45.4 88.3,45.4 88.3,45.2C88.3,44.9 88.3,44.5 88.3,44.3C88.2,44.2 88.1,44.4 88.0,44.3C87.9,44.1 87.9,43.6 87.9,43.4C87.8,43.2 87.9,43.2 87.8,43.0C87.7,42.7 87.4,42.3 87.3,42.1C87.2,41.8 87.2,41.8 87.1,41.6C87.0,41.4 86.8,41.4 86.7,41.1C86.6,40.9 86.5,40.5 86.4,40.2C86.3,40.0 86.3,39.9 86.1,39.8C86.0,39.7 85.9,39.9 85.7,39.7C85.6,39.6 85.6,39.1 85.5,38.9C85.4,38.6 85.3,38.6 85.2,38.4C85.1,38.2 84.9,38.1 84.8,37.9C84.6,37.8 84.5,37.6 84.4,37.4C84.2,37.3 84.2,37.2 84.1,37.0C84.0,36.8 83.8,36.7 83.6,36.5C83.5,36.4 83.4,36.2 83.2,36.0C83.1,35.9 82.9,35.7 82.8,35.6C82.6,35.4 82.5,35.2 82.3,35.1C82.1,34.9 82.0,34.8 81.8,34.6C81.7,34.4 81.6,33.9 81.4,33.7C81.3,33.5 81.1,33.5 81.0,33.2C80.9,33.0 80.8,32.5 80.6,32.3C80.5,32.2 80.2,32.4 80.0,32.3C79.8,32.2 79.7,32.0 79.5,31.8C79.4,31.6 79.4,31.1 79.2,30.9C79.1,30.7 78.9,30.6 78.8,30.4C78.6,30.3 78.4,30.1 78.3,29.9C78.1,29.8 78.0,29.7 77.8,29.5C77.7,29.2 77.5,28.8 77.4,28.6C77.3,28.3 77.1,28.2 77.0,28.1C76.9,27.9 76.7,27.8 76.6,27.6C76.4,27.5 76.2,27.3 76.1,27.1C75.9,27.0 75.7,26.9 75.5,26.6C75.4,26.4 75.3,26.0 75.2,25.7C75.0,25.5 74.9,25.4 74.7,25.3C74.5,25.2 74.3,25.4 74.2,25.2C74.1,25.1 74.4,25.1 73.9,24.3C73.4,23.6 71.7,21.3 71.2,20.6C70.7,19.9 70.8,20.3 70.6,20.1C70.5,20.0 70.3,19.8 70.1,19.6C70.0,19.5 69.8,19.4 69.7,19.2C69.6,18.9 69.5,18.5 69.4,18.3C69.3,18.0 69.2,17.9 69.0,17.8C68.8,17.7 68.6,17.9 68.4,17.7C68.2,17.6 68.2,17.1 68.1,16.8C67.9,16.6 67.7,16.6 67.6,16.4C67.5,16.1 67.4,15.6 67.3,15.5C67.1,15.3 66.9,15.5 66.8,15.4C66.7,15.3 66.6,15.2 66.5,15.0C66.4,14.7 66.3,14.3 66.2,14.1C66.1,13.8 66.0,13.8 65.8,13.6C65.7,13.4 65.5,13.3 65.4,13.1C65.3,13.0 65.2,12.8 65.1,12.7C64.9,12.5 64.8,12.3 64.6,12.2C64.5,12.0 64.3,11.8 64.2,11.7" fill="none" stroke="#fbbf24" stroke-width="0.6" stroke-linecap="round" stroke-linejoin="round" opacity="0.7"/>
  <path d="M66.3,5.1C66.4,5.0 66.7,4.8 67.0,4.7C67.2,4.6 67.5,4.4 67.8,4.4C68.0,4.3 68.3,4.4 68.5,4.4C68.7,4.5 69.0,4.6 69.2,4.5C69.5,4.5 69.8,4.3 70.1,4.2C70.4,4.1 70.6,3.9 70.9,3.8C71.2,3.7 71.4,3.6 71.7,3.5C72.0,3.4 72.4,3.2 72.7,3.2C73.0,3.1 73.3,3.3 73.5,3.2C73.8,3.2 74.2,3.0 74.5,2.9C74.8,2.9 75.0,3.0 75.3,3.0C75.6,3.0 75.8,3.1 76.1,3.1C76.5,3.0 76.9,2.8 77.2,2.8C77.5,2.7 77.7,2.9 78.1,2.9C78.4,2.8 78.8,2.6 79.1,2.5C79.4,2.5 79.7,2.7 80.0,2.6C80.3,2.6 80.7,2.3 81.0,2.3C81.3,2.3 81.5,2.4 81.8,2.4C82.1,2.4 82.4,2.1 82.7,2.1C83.0,2.0 83.3,2.2 83.5,2.1C83.8,2.1 84.2,1.9 84.4,1.8" fill="none" stroke="#fbbf24" stroke-width="0.6" stroke-linecap="round" stroke-linejoin="round" opacity="0.7"/>
  <path d="M90.0,78.8C90.0,78.9 89.9,79.1 89.9,79.3C89.9,79.5 89.9,79.9 89.8,80.1C89.8,80.3 89.8,80.4 89.7,80.5C89.7,80.7 89.6,80.8 89.5,80.9C89.5,81.1 89.6,81.2 89.6,81.4C89.6,81.6 89.6,82.1 89.6,82.2" fill="none" stroke="#fbbf24" stroke-width="0.6" stroke-linecap="round" stroke-linejoin="round" opacity="0.7"/>
  <path d="M96.4,77.8C96.3,77.9 96.0,78.5 95.9,78.6C95.8,78.7 95.8,78.4 95.6,78.6C95.5,78.7 95.3,79.2 95.1,79.4C94.9,79.6 94.8,79.6 94.6,79.8C94.5,80.0 94.2,80.4 94.1,80.6C93.9,80.8 93.8,80.9 93.7,81.0" fill="none" stroke="#fbbf24" stroke-width="0.6" stroke-linecap="round" stroke-linejoin="round" opacity="0.7"/>
  <path d="M95.1,37.3C95.1,37.4 95.1,37.9 95.1,38.1C95.1,38.4 95.1,38.5 95.1,38.6C95.1,38.6 95.2,38.4 95.2,38.6C95.2,38.7 95.1,39.2 95.1,39.4C95.1,39.7 95.1,40.1 95.0,40.3C95.0,40.5 95.0,40.6 94.9,40.7C94.9,40.8 94.8,40.9 94.8,41.1C94.7,41.3 94.6,41.8 94.6,42.0" fill="none" stroke="#fbbf24" stroke-width="0.6" stroke-linecap="round" stroke-linejoin="round" opacity="0.7"/>
  <path d="M82.4,67.7C82.3,67.8 82.4,68.0 82.3,68.2C82.3,68.3 82.2,68.4 82.1,68.6C82.0,68.8 81.8,69.1 81.7,69.4C81.5,69.6 81.2,70.0 81.1,70.2C80.9,70.4 80.8,70.4 80.7,70.6C80.6,70.7 80.6,70.1 80.4,71.0C80.2,71.8 79.8,74.7 79.6,75.6C79.4,76.5 79.4,76.2 79.3,76.4C79.3,76.6 79.3,76.7 79.3,76.9C79.3,77.0 79.3,77.1 79.3,77.3C79.3,77.4 79.3,77.5 79.3,77.7C79.2,77.9 79.1,78.4 79.0,78.6" fill="none" stroke="#fbbf24" stroke-width="0.6" stroke-linecap="round" stroke-linejoin="round" opacity="0.7"/>
  <path d="M99.4,65.2C99.5,65.2 99.7,65.0 99.8,64.8C100.0,64.7 100.2,64.7 100.3,64.5C100.5,64.3 100.7,63.8 100.8,63.7C100.9,63.5 101.0,63.8 101.1,63.7C101.3,63.6 101.5,63.2 101.7,62.9C101.8,62.6 101.9,62.2 101.9,62.1" fill="none" stroke="#fbbf24" stroke-width="0.6" stroke-linecap="round" stroke-linejoin="round" opacity="0.7"/>
  <path d="M90.1,80.6C90.2,80.6 90.6,80.6 90.9,80.7C91.1,80.7 91.5,80.7 91.7,80.7C92.0,80.8 92.3,80.8 92.5,80.8C92.8,80.9 93.0,80.9 93.3,80.9C93.5,80.9 93.9,81.0 94.2,81.0C94.4,81.0 94.7,81.1 94.9,81.1C95.2,81.0 95.6,80.8 95.8,80.7C96.1,80.7 96.4,80.8 96.6,80.8C96.9,80.9 97.1,80.9 97.4,80.9C97.6,80.9 97.9,81.0 98.2,81.0C98.4,81.0 98.8,81.1 99.0,81.1" fill="none" stroke="#fbbf24" stroke-width="0.6" stroke-linecap="round" stroke-linejoin="round" opacity="0.7"/>
  <path d="M75.1,68.3C75.0,68.4 74.9,68.9 74.8,69.1C74.7,69.3 74.7,69.4 74.6,69.5C74.6,69.6 74.6,69.8 74.5,69.9C74.4,70.1 74.3,70.1 74.2,70.3C74.1,70.5 74.0,70.9 73.9,71.1C73.8,71.4 73.6,71.8 73.5,72.0" fill="none" stroke="#fbbf24" stroke-width="0.6" stroke-linecap="round" stroke-linejoin="round" opacity="0.7"/>
  <circle cx="68.3" cy="58.5" r="3.5" fill="#0c0c0c" stroke="#ef4444" stroke-width="0.4" opacity="0.95"/>
  <text x="68.3" y="59.7" text-anchor="middle" font-family="sans-serif" font-size="3.5" font-weight="700" fill="#ffffff" opacity="0.95">OR</text>
</svg>