<svg xmlns="http://www.w3.org/2000/svg" viewBox="0 0 102.27040591422573 107.44489710580129" preserveAspectRatio="none">
  <path d="M83.3,36.6L83.0,36.2L82.7,35.8L82.2,35.0L81.8,34.6L81.4,33.8L80.9,33.0L80.6,32.6L80.2,31.8" fill="none" stroke="#ef4444" stroke-width="0.8" stroke-linecap="round" opacity="0.9"/>
  <path d="M73.4,83.6L73.0,84.5L72.4,85.0L71.9,85.5L71.5,85.9L71.2,86.8" fill="none" stroke="#ef4444" stroke-width="0.8" stroke-linecap="round" opacity="0.9"/>
  <path d="M93.2,26.1L92.6,25.3L92.0,25.0L91.4,24.6L90.8,23.8L90.2,23.4L89.3,22.7L88.7,22.7L88.0,21.9L87.3,21.2L86.5,20.8L85.6,20.5L84.8,20.1L83.9,19.4L83.1,19.0L82.3,19.1L81.2,18.4L80.3,18.0L79.3,17.7L78.4,17.4L77.5,17.0L76.7,16.7" fill="none" stroke="#ef4444" stroke-width="0.8" stroke-linecap="round" opacity="0.9"/>
  <path d="M93.5,61.7L93.2,60.9L93.0,60.1L92.7,59.7L92.4,59.3L92.1,58.4L91.9,58.0L91.6,57.2L91.2,56.4L90.8,56.0L90.5,55.2L90.2,54.3L90.0,53.9L89.6,53.1L89.2,52.3L88.6,50.7L88.2,49.8L87.8,49.4L87.4,48.6L87.0,48.2L86.7,47.4L86.3,46.6L85.9,45.8L85.5,45.4L85.1,45.0L84.7,44.2L84.3,43.4" fill="none" stroke="#ef4444" stroke-width="0.8" stroke-linecap="round" opacity="0.9"/>
  <path d="M80.2,35.6L80.0,34.8L79.9,34.4L79.8,33.5L79.8,33.1L79.8,32.7L79.6,31.8" fill="none" stroke="#ef4444" stroke-width="0.8" stroke-linecap="round" opacity="0.9"/>
  <path d="M73.3,35.1L73.2,34.7L72.7,33.8L72.6,33.4L72.4,32.6L72.2,31.8L72.2,31.3L72.0,30.5L71.9,30.1L71.7,29.2L71.7,28.8" fill="none" stroke="#ef4444" stroke-width="0.8" stroke-linecap="round" opacity="0.9"/>
  <path d="M84.6,25.3L85.5,25.2L86.4,25.1L87.5,25.0L88.5,24.9L89.7,24.8L90.8,25.1L91.7,25.0L92.7,24.9L93.8,24.8L94.9,24.7L95.8,24.6" fill="none" stroke="#ef4444" stroke-width="0.8" stroke-linecap="round" opacity="0.9"/>
  <path d="M83.4,34.4L83.2,34.0L82.9,33.2L82.6,32.8L82.3,32.4L81.9,32.0L81.6,31.2L81.4,30.8L81.1,30.4L80.7,29.6L80.3,29.2L79.8,28.4L79.7,28.0L79.6,27.5L79.5,27.1L79.1,26.3L78.9,25.9L78.7,25.5L78.4,24.7" fill="none" stroke="#fbbf24" stroke-width="0.6" stroke-linecap="round" opacity="0.7"/>
  <path d="M88.9,44.6L88.4,44.2L88.0,43.4L87.8,43.0L87.5,42.6L87.2,41.8L86.9,41.4L86.5,41.0L86.2,40.6L85.7,39.8L85.1,39.0L84.7,38.6L84.3,38.2L83.8,37.4L80.2,31.8L79.9,31.4L79.6,30.5L79.4,30.1L79.1,29.3L78.8,28.5L78.5,28.1L78.3,27.7L78.1,27.3L77.8,26.5L77.6,26.0L77.4,25.6" fill="none" stroke="#fbbf24" stroke-width="0.6" stroke-linecap="round" opacity="0.7"/>
  <path d="M88.6,60.1L88.4,60.6L88.4,61.0L88.4,61.8L88.3,62.3L88.3,63.1L88.0,63.2L87.9,64.0L87.8,64.5L87.3,65.4L87.1,65.8L86.7,66.3L86.4,67.2L86.1,67.7L85.7,67.7L85.5,68.6L85.2,69.0L84.8,69.5L84.4,70.0L84.1,70.4L83.6,70.9L83.2,71.4L82.8,71.9L82.3,72.4L81.8,72.8L81.4,73.7L81.0,74.2L80.6,75.1L80.0,75.2L79.5,75.7L79.2,76.5L78.8,77.0L78.3,77.5L77.8,78.0L77.4,78.9L77.0,79.4L76.6,79.8L76.1,80.3L75.5,80.8L75.2,81.7L74.7,82.2L74.2,82.2L73.9,83.1L71.2,86.8L70.6,87.3L70.1,87.8L69.7,88.3L69.4,89.2L69.0,89.6L68.4,89.7L68.1,90.6L67.6,91.1L67.3,92.0L66.8,92.0L66.5,92.5L66.2,93.4L65.8,93.8L65.4,94.3L65.1,94.8L64.6,95.3L64.2,95.7" fill="none" stroke="#fbbf24" stroke-width="0.6" stroke-linecap="round" opacity="0.7"/>
  <path d="M66.3,102.4L67.0,102.7L67.8,103.1L68.5,103.0L69.2,102.9L70.1,103.3L70.9,103.6L71.7,104.0L72.7,104.3L73.5,104.2L74.5,104.5L75.3,104.4L76.1,104.4L77.2,104.7L78.1,104.6L79.1,104.9L80.0,104.8L81.0,105.1L81.8,105.0L82.7,105.4L83.5,105.3L84.4,105.6" fill="none" stroke="#fbbf24" stroke-width="0.6" stroke-linecap="round" opacity="0.7"/>
  <path d="M90.0,28.6L89.9,28.2L89.8,27.3L89.7,26.9L89.5,26.5L89.6,26.1L89.6,25.2" fill="none" stroke="#fbbf24" stroke-width="0.6" stroke-linecap="round" opacity="0.7"/>
  <path d="M96.4,29.7L95.9,28.8L95.6,28.9L95.1,28.1L94.6,27.7L94.1,26.9L93.7,26.5" fill="none" stroke="#fbbf24" stroke-width="0.6" stroke-linecap="round" opacity="0.7"/>
  <path d="M95.1,70.2L95.1,69.3L95.1,68.9L95.2,68.9L95.1,68.0L95.0,67.2L94.9,66.7L94.8,66.3L94.6,65.5" fill="none" stroke="#fbbf24" stroke-width="0.6" stroke-linecap="round" opacity="0.7"/>
  <path d="M82.4,39.7L82.3,39.3L82.1,38.9L81.7,38.1L81.1,37.3L80.7,36.9L80.4,36.5L79.6,31.8L79.3,31.0L79.3,30.6L79.3,30.2L79.3,29.7L79.0,28.9" fill="none" stroke="#fbbf24" stroke-width="0.6" stroke-linecap="round" opacity="0.7"/>
  <path d="M99.4,42.2L99.8,42.6L100.3,43.0L100.8,43.8L101.1,43.8L101.7,44.6L101.9,45.4" fill="none" stroke="#fbbf24" stroke-width="0.6" stroke-linecap="round" opacity="0.7"/>
  <path d="M90.1,26.9L90.9,26.8L91.7,26.7L92.5,26.6L93.3,26.5L94.2,26.4L94.9,26.4L95.8,26.7L96.6,26.6L97.4,26.5L98.2,26.5L99.0,26.4" fill="none" stroke="#fbbf24" stroke-width="0.6" stroke-linecap="round" opacity="0.7"/>
  <path d="M75.1,39.2L74.8,38.4L74.6,37.9L74.5,37.5L74.2,37.1L73.9,36.3L73.5,35.5" fill="none" stroke="#fbbf24" stroke-width="0.6" stroke-linecap="round" opacity="0.7"/>
  <circle cx="68.3" cy="48.9" r="2" fill="#ffffff" stroke="#ef4444" stroke-width="0.5" opacity="0.9"/>
</svg>