<svg xmlns="http://www.w3.org/2000/svg" viewBox="0 0 102.44941145180643 98.08150433173446" preserveAspectRatio="none">
  <path d="M82.7,74.9C82.9,75.1 83.2,75.5 83.5,75.8C83.8,76.1 83.8,76.0 84.1,76.2C84.4,76.4 84.5,76.4 84.8,76.7C85.1,76.9 85.1,76.8 85.5,77.1C85.8,77.4 85.8,77.4 86.2,77.7C86.5,78.1 86.6,78.1 86.9,78.4C87.3,78.7 87.3,78.6 87.6,78.8C87.9,79.1 87.8,78.8 88.2,79.3C88.6,79.7 88.8,80.1 89.2,80.6C89.6,81.0 89.6,80.7 89.8,81.0C90.1,81.3 90.1,81.4 90.3,81.9C90.5,82.3 90.5,82.4 90.7,82.7C90.9,83.0 90.9,82.9 91.1,83.1C91.3,83.4 91.3,83.5 91.5,83.8C91.7,84.1 91.7,84.1 91.9,84.4C92.2,84.8 92.2,85.0 92.5,85.3C92.7,85.6 92.6,85.4 92.8,85.7C92.9,86.0 92.9,86.3 93.1,86.6C93.3,86.9 93.3,86.7 93.4,87.0C93.6,87.3 93.5,87.5 93.7,87.9C93.9,88.2 94.0,88.0 94.1,88.3C94.3,88.6 94.3,88.9 94.4,89.2" fill="none" stroke="#ef4444" stroke-width="0.8" stroke-linecap="round" stroke-linejoin="round" opacity="0.9"/>
  <path d="M57.8,42.6C57.8,42.4 57.8,42.1 57.8,41.8C57.8,41.4 57.8,41.4 57.8,41.1C57.8,40.8 57.9,40.7 57.9,40.5C57.9,40.2 57.9,40.3 57.9,40.1C57.8,39.8 57.8,39.9 57.8,39.6C57.7,39.3 57.8,39.0 57.8,38.8" fill="none" stroke="#fbbf24" stroke-width="0.6" stroke-linecap="round" stroke-linejoin="round" opacity="0.7"/>
  <path d="M73.9,32.7C73.8,32.6 73.7,32.5 73.5,32.3C73.3,32.1 73.3,32.1 73.1,31.9C72.9,31.6 73.0,31.6 72.8,31.4C72.5,31.2 72.5,31.2 72.3,31.0C72.0,30.8 71.9,30.7 71.8,30.6" fill="none" stroke="#fbbf24" stroke-width="0.6" stroke-linecap="round" stroke-linejoin="round" opacity="0.7"/>
  <path d="M76.2,68.4C76.4,68.3 76.6,68.1 77.0,68.0C77.4,67.9 77.4,68.1 77.7,68.0C78.1,67.9 78.1,67.7 78.4,67.6C78.8,67.5 78.8,67.6 79.2,67.6C79.5,67.6 79.5,67.7 79.9,67.6C80.2,67.5 80.2,67.4 80.5,67.2C80.8,67.0 80.8,67.0 81.2,66.8C81.5,66.6 81.5,66.6 81.8,66.4C82.1,66.2 82.1,66.2 82.4,66.0C82.8,65.8 82.8,65.8 83.2,65.6C83.5,65.4 83.5,65.3 83.8,65.2C84.2,65.1 84.1,65.3 84.4,65.2C84.7,65.1 84.8,65.0 85.1,64.8C85.4,64.6 85.3,64.6 85.7,64.4C86.0,64.2 86.2,64.1 86.3,64.0" fill="none" stroke="#fbbf24" stroke-width="0.6" stroke-linecap="round" stroke-linejoin="round" opacity="0.7"/>
  <path d="M74.1,51.4C74.3,51.3 74.5,51.1 74.8,51.0C75.2,50.9 75.2,51.1 75.6,51.0C75.9,50.9 75.9,50.8 76.2,50.6C76.6,50.4 76.6,50.3 76.9,50.2C77.3,50.0 77.2,50.1 77.6,50.0C77.9,49.9 77.9,49.9 78.3,49.8C78.6,49.6 78.8,49.5 78.9,49.4" fill="none" stroke="#fbbf24" stroke-width="0.6" stroke-linecap="round" stroke-linejoin="round" opacity="0.7"/>
  <path d="M35.2,57.4C35.3,57.5 35.3,57.7 35.4,57.9C35.5,58.1 35.5,58.0 35.6,58.3C35.7,58.6 35.7,58.8 35.8,59.2C35.9,59.5 35.8,59.4 35.9,59.6C36.0,59.8 36.1,59.8 36.2,60.0C36.4,60.2 36.3,60.2 36.5,60.4C36.6,60.7 36.7,60.5 36.8,60.9C37.0,61.2 37.0,61.5 37.2,61.7C37.3,62.0 37.2,61.6 37.4,61.9C37.7,62.3 37.9,62.6 38.2,63.0C38.5,63.4 38.4,63.2 38.6,63.5C38.9,63.7 38.9,63.7 39.1,63.9C39.4,64.1 39.4,64.1 39.6,64.3C39.9,64.5 39.9,64.5 40.1,64.8C40.3,65.0 40.2,65.0 40.5,65.2C40.7,65.4 40.7,65.4 41.0,65.6C41.3,65.8 41.4,65.8 41.6,66.1C41.8,66.3 41.8,66.3 42.0,66.5C42.2,66.7 42.2,66.8 42.3,66.9" fill="none" stroke="#fbbf24" stroke-width="0.6" stroke-linecap="round" stroke-linejoin="round" opacity="0.7"/>
  <path d="M65.3,41.5C65.3,41.7 65.4,42.0 65.4,42.3C65.3,42.6 65.3,42.5 65.3,42.7C65.3,43.0 65.3,43.0 65.2,43.2C65.2,43.4 65.2,43.3 65.1,43.6C65.1,43.9 65.0,44.1 65.0,44.4C64.9,44.8 64.9,44.7 64.8,44.9C64.8,45.0 64.8,45.0 64.8,45.1C64.8,45.2 64.8,45.2 64.8,45.3" fill="none" stroke="#fbbf24" stroke-width="0.6" stroke-linecap="round" stroke-linejoin="round" opacity="0.7"/>
  <path d="M56.5,58.7C56.6,58.8 56.8,58.9 57.0,59.1C57.3,59.4 57.2,59.4 57.5,59.6C57.8,59.8 57.8,59.8 58.1,60.0C58.4,60.2 58.4,60.1 58.7,60.2C59.0,60.3 59.1,60.2 59.4,60.5C59.7,60.7 59.8,61.1 60.0,61.3" fill="none" stroke="#fbbf24" stroke-width="0.6" stroke-linecap="round" stroke-linejoin="round" opacity="0.7"/>
  <ellipse cx="63.8" cy="56.1" rx="3.5" ry="3.7" fill="#0c0c0c" stroke="#ef4444" stroke-width="0.4" opacity="0.95"/>
  <text x="63.8" y="57.4" text-anchor="middle" font-family="sans-serif" font-size="3.5" font-weight="700" fill="#ffffff" opacity="0.95">OR</text>
</svg>