<svg xmlns="http://www.w3.org/2000/svg" viewBox="0 0 102.27040591422573 107.44489710580129" preserveAspectRatio="none">
  <path d="M23.5,38.8C23.6,38.6 23.6,38.3 23.7,38.0C23.8,37.6 23.8,37.9 23.9,37.5C24.0,37.2 24.0,37.1 24.1,36.7C24.2,36.3 24.1,36.2 24.2,35.9C24.2,35.5 24.2,35.6 24.2,35.4C24.2,35.2 24.1,35.3 24.2,35.0C24.2,34.7 24.3,34.6 24.4,34.2C24.5,33.7 24.5,33.6 24.5,33.3C24.5,33.0 24.4,33.2 24.4,32.9C24.3,32.5 24.3,32.4 24.3,32.0C24.3,31.6 24.4,31.5 24.4,31.2C24.4,30.8 24.3,31.0 24.4,30.7C24.4,30.4 24.5,30.3 24.6,29.9C24.6,29.5 24.5,29.3 24.5,29.0C24.4,28.7 24.4,28.9 24.4,28.6C24.4,28.3 24.5,28.1 24.5,27.7C24.5,27.4 24.4,27.6 24.3,27.3C24.2,26.9 24.3,26.6 24.3,26.4" fill="none" stroke="#ef4444" stroke-width="0.8" stroke-linecap="round" stroke-linejoin="round" opacity="0.9"/>
  <path d="M64.0,30.2C63.9,30.0 63.7,30.0 63.5,29.7C63.3,29.3 63.4,29.1 63.2,28.8C62.9,28.4 62.8,28.4 62.6,28.3C62.3,28.2 62.2,28.5 62.0,28.2C61.8,28.0 61.9,27.7 61.8,27.3C61.6,27.0 61.5,27.2 61.3,26.9C61.1,26.5 61.1,26.3 61.0,26.0C60.8,25.6 60.8,25.7 60.6,25.5C60.4,25.3 60.3,25.4 60.1,25.0C59.8,24.7 59.9,24.5 59.7,24.1C59.5,23.8 59.5,23.9 59.3,23.7C59.1,23.4 59.1,23.5 58.9,23.2C58.7,22.8 58.6,22.5 58.5,22.3" fill="none" stroke="#ef4444" stroke-width="0.8" stroke-linecap="round" stroke-linejoin="round" opacity="0.9"/>
  <path d="M34.2,63.5C34.0,63.5 33.8,63.4 33.3,63.4C32.9,63.5 32.9,63.6 32.5,63.8C32.1,64.0 32.1,63.9 31.7,64.1C31.2,64.4 31.2,64.6 30.8,64.9C30.4,65.2 30.1,65.1 29.9,65.2" fill="none" stroke="#ef4444" stroke-width="0.8" stroke-linecap="round" stroke-linejoin="round" opacity="0.9"/>
  <path d="M31.6,28.5C31.6,28.4 31.5,28.4 31.4,28.0C31.3,27.7 31.4,27.5 31.3,27.2C31.2,26.8 31.2,27.0 31.2,26.7C31.1,26.4 31.2,26.3 31.2,25.9C31.3,25.4 31.3,25.2 31.3,25.0C31.3,24.8 31.2,25.2 31.2,25.0C31.3,24.8 31.3,24.6 31.4,24.2C31.5,23.7 31.5,23.6 31.6,23.3C31.6,23.0 31.5,23.2 31.6,22.9C31.7,22.6 31.8,22.5 32.0,22.1C32.1,21.7 32.2,21.6 32.3,21.2C32.3,20.9 32.2,21.1 32.2,20.8C32.3,20.5 32.3,20.4 32.4,20.0C32.5,19.6 32.5,19.6 32.7,19.1C32.8,18.7 32.8,18.6 32.9,18.3C32.9,18.0 32.8,18.0 32.8,17.9" fill="none" stroke="#ef4444" stroke-width="0.8" stroke-linecap="round" stroke-linejoin="round" opacity="0.9"/>
  <path d="M66.1,10.6C66.1,10.5 66.1,10.5 66.0,10.2C66.0,9.9 66.0,9.7 66.0,9.3C65.9,9.0 65.9,9.1 65.8,8.9C65.7,8.7 65.7,8.8 65.7,8.4C65.7,8.1 65.8,8.0 65.8,7.6C65.8,7.2 65.8,6.9 65.8,6.7" fill="none" stroke="#ef4444" stroke-width="0.8" stroke-linecap="round" stroke-linejoin="round" opacity="0.9"/>
  <path d="M71.8,34.0C71.9,33.9 71.9,33.9 72.2,33.6C72.4,33.3 72.5,33.2 72.8,32.8C73.1,32.4 73.1,32.3 73.4,32.0C73.7,31.7 73.7,31.8 74.0,31.6C74.2,31.4 74.2,31.6 74.5,31.3C74.7,31.0 74.7,30.9 75.0,30.4C75.2,30.0 75.1,30.0 75.5,29.6C75.8,29.3 76.0,29.3 76.3,28.9C76.7,28.5 76.6,28.4 76.8,28.1C77.0,27.8 76.9,28.0 77.1,27.7C77.3,27.4 77.3,27.3 77.5,26.9C77.8,26.4 77.8,26.3 78.0,26.0C78.1,25.7 78.0,25.9 78.2,25.6C78.3,25.3 78.4,25.1 78.5,24.8C78.7,24.5 78.6,24.7 78.7,24.4C78.8,24.1 78.9,23.8 79.0,23.6" fill="none" stroke="#ef4444" stroke-width="0.8" stroke-linecap="round" stroke-linejoin="round" opacity="0.9"/>
  <path d="M21.9,45.9C21.9,45.8 21.8,45.8 21.8,45.5C21.8,45.2 21.9,45.0 21.9,44.6C22.0,44.3 21.9,44.4 22.0,44.2C22.0,44.0 21.9,44.1 22.0,43.8C22.1,43.5 22.1,43.3 22.2,42.9C22.3,42.6 22.2,42.7 22.3,42.5C22.4,42.3 22.3,42.4 22.5,42.1C22.6,41.8 22.7,41.7 22.9,41.3C23.0,40.9 23.0,40.8 23.1,40.5C23.1,40.2 23.1,40.3 23.2,40.0C23.3,39.8 23.3,39.7 23.4,39.6" fill="none" stroke="#fbbf24" stroke-width="0.6" stroke-linecap="round" stroke-linejoin="round" opacity="0.7"/>
  <path d="M24.3,26.4C24.2,26.3 24.2,26.2 24.1,26.0C24.1,25.8 24.1,25.9 24.1,25.5C24.1,25.2 24.2,25.0 24.2,24.7C24.3,24.4 24.2,24.5 24.3,24.3C24.3,24.1 24.3,24.2 24.4,23.9C24.5,23.5 24.5,23.4 24.5,23.0C24.6,22.6 24.5,22.5 24.6,22.2C24.7,21.8 24.7,22.1 24.8,21.7C24.9,21.4 24.9,21.3 25.0,20.9C25.2,20.5 25.3,20.3 25.5,20.1C25.6,19.9 25.6,20.3 25.7,20.1C25.8,19.9 25.7,19.7 25.9,19.3C26.0,18.9 26.0,18.8 26.2,18.5C26.4,18.2 26.4,18.3 26.6,18.1C26.9,17.9 26.9,17.9 27.0,17.7C27.2,17.5 27.2,17.6 27.4,17.3C27.6,17.0 27.6,16.8 27.8,16.5C28.0,16.2 28.0,16.3 28.1,16.1C28.3,15.9 28.3,15.9 28.4,15.7C28.5,15.5 28.5,15.6 28.7,15.3C28.9,15.0 29.0,14.8 29.1,14.5C29.3,14.2 29.2,14.2 29.2,14.0" fill="none" stroke="#fbbf24" stroke-width="0.6" stroke-linecap="round" stroke-linejoin="round" opacity="0.7"/>
  <path d="M62.8,34.8C62.6,34.7 62.5,34.6 62.0,34.7C61.6,34.7 61.5,34.9 61.1,35.0C60.6,35.1 60.6,35.0 60.2,34.9C59.8,34.9 59.9,34.9 59.4,34.8C59.0,34.8 58.9,34.8 58.4,34.7C57.9,34.7 57.9,34.7 57.5,34.6C57.0,34.6 57.0,34.6 56.5,34.5C56.1,34.5 56.0,34.5 55.6,34.4C55.1,34.4 55.2,34.4 54.7,34.3C54.3,34.3 54.3,34.2 53.8,34.2C53.3,34.3 53.2,34.5 52.8,34.6C52.3,34.6 52.4,34.4 51.9,34.5C51.4,34.5 51.2,34.7 50.8,34.8C50.3,34.8 50.4,34.7 50.0,34.7C49.6,34.7 49.6,34.6 49.2,34.6C48.7,34.7 48.6,34.8 48.2,34.9C47.7,35.1 47.8,35.1 47.4,35.3C47.0,35.5 46.8,35.6 46.4,35.6C46.0,35.7 46.1,35.6 45.8,35.5C45.5,35.5 45.5,35.4 45.2,35.5C44.8,35.6 44.7,35.7 44.4,35.8C44.0,36.0 43.9,36.1 43.7,36.2" fill="none" stroke="#fbbf24" stroke-width="0.6" stroke-linecap="round" stroke-linejoin="round" opacity="0.7"/>
  <path d="M83.3,7.7C83.5,7.7 83.7,7.9 84.1,7.8C84.5,7.7 84.5,7.6 85.0,7.4C85.4,7.3 85.4,7.3 85.8,7.1C86.3,6.9 86.4,6.8 86.8,6.8C87.3,6.7 87.1,6.9 87.5,6.9C87.9,6.8 88.0,6.6 88.4,6.5C88.9,6.5 88.8,6.8 89.2,6.6C89.7,6.4 89.7,6.0 90.2,5.8C90.6,5.7 90.6,6.0 91.0,5.9C91.5,5.9 91.5,5.8 92.0,5.6C92.4,5.4 92.5,5.4 92.9,5.3C93.3,5.1 93.3,5.0 93.6,4.9C94.0,4.9 93.9,5.1 94.3,5.0C94.6,4.9 94.8,4.7 95.0,4.6" fill="none" stroke="#fbbf24" stroke-width="0.6" stroke-linecap="round" stroke-linejoin="round" opacity="0.7"/>
  <path d="M68.7,35.8C68.7,35.6 68.7,35.3 68.5,34.9C68.4,34.6 68.4,34.7 68.2,34.5C68.0,34.2 68.0,34.2 67.8,34.0C67.5,33.7 67.6,33.8 67.3,33.5C67.1,33.3 67.0,33.4 66.8,33.0C66.6,32.7 66.6,32.5 66.4,32.1C66.1,31.8 66.1,31.9 65.7,31.6C65.4,31.4 65.4,31.4 65.1,31.1C64.8,30.9 64.7,30.8 64.6,30.6" fill="none" stroke="#fbbf24" stroke-width="0.6" stroke-linecap="round" stroke-linejoin="round" opacity="0.7"/>
  <path d="M58.5,22.3C58.4,22.2 58.3,22.0 58.1,21.8C58.0,21.6 58.1,21.6 58.0,21.4C57.9,21.1 57.9,21.1 57.7,20.9C57.5,20.7 57.5,20.8 57.3,20.4C57.2,20.1 57.3,19.9 57.2,19.6C57.1,19.2 57.1,19.3 56.9,19.1C56.8,18.9 56.7,18.8 56.7,18.7" fill="none" stroke="#fbbf24" stroke-width="0.6" stroke-linecap="round" stroke-linejoin="round" opacity="0.7"/>
  <path d="M34.1,21.0C34.0,20.9 33.8,20.9 33.7,20.5C33.5,20.2 33.6,20.0 33.5,19.7C33.3,19.3 33.3,19.4 33.1,19.2C33.0,19.0 33.0,19.0 32.9,18.7C32.8,18.5 32.8,18.5 32.7,18.3C32.5,18.0 32.5,18.0 32.3,17.8C32.1,17.6 32.0,17.6 31.9,17.3C31.7,17.1 31.7,17.0 31.6,16.9" fill="none" stroke="#fbbf24" stroke-width="0.6" stroke-linecap="round" stroke-linejoin="round" opacity="0.7"/>
  <path d="M58.9,29.6C58.7,29.7 58.4,29.9 58.0,30.0C57.6,30.0 57.6,29.9 57.3,29.9C56.9,29.8 56.9,29.8 56.4,29.8C56.0,29.8 56.0,29.7 55.6,29.7C55.2,29.7 55.3,29.6 54.9,29.6C54.4,29.7 54.3,29.9 53.9,30.0C53.4,30.0 53.5,29.8 53.1,29.9C52.7,29.9 52.6,30.1 52.2,30.2C51.8,30.3 51.8,30.1 51.4,30.1C50.9,30.2 50.9,30.4 50.5,30.5C50.1,30.5 50.1,30.3 49.7,30.4C49.3,30.4 49.2,30.6 48.8,30.7C48.3,30.8 48.4,30.6 47.9,30.6C47.4,30.7 47.4,30.8 46.9,30.9C46.4,31.1 46.3,31.2 45.8,31.3C45.4,31.3 45.4,31.2 45.0,31.2C44.5,31.1 44.5,31.1 44.0,31.1C43.6,31.0 43.7,30.9 43.2,31.0C42.8,31.0 42.7,31.3 42.3,31.3C41.8,31.4 41.8,31.2 41.4,31.2C40.9,31.3 40.9,31.4 40.5,31.6C40.0,31.7 40.0,31.7 39.5,31.9C39.0,32.0 38.9,32.0 38.5,32.2C38.0,32.4 38.1,32.4 37.7,32.6C37.4,32.7 37.3,32.8 37.0,32.9C36.6,33.0 36.4,32.8 36.3,32.8" fill="none" stroke="#fbbf24" stroke-width="0.6" stroke-linecap="round" stroke-linejoin="round" opacity="0.7"/>
  <path d="M42.6,61.0C42.4,61.1 42.2,61.3 41.8,61.3C41.4,61.4 41.4,61.2 41.0,61.2C40.6,61.3 40.5,61.5 40.2,61.6C39.8,61.7 39.9,61.4 39.5,61.5C39.1,61.6 39.0,61.7 38.5,61.8C38.1,62.0 38.0,62.0 37.6,62.2C37.2,62.3 37.3,62.4 36.8,62.5C36.4,62.7 36.3,62.7 35.9,62.9C35.4,63.0 36.6,62.6 35.1,63.2C33.6,63.8 31.3,64.7 29.9,65.2C28.5,65.7 29.7,65.0 29.3,65.2C29.0,65.4 28.9,65.7 28.6,66.0C28.3,66.2 28.3,66.0 28.1,66.3C27.8,66.6 27.8,66.9 27.5,67.1C27.2,67.3 27.1,67.1 27.0,67.1" fill="none" stroke="#fbbf24" stroke-width="0.6" stroke-linecap="round" stroke-linejoin="round" opacity="0.7"/>
  <path d="M47.6,8.7C47.4,8.7 47.2,8.8 46.9,8.6C46.6,8.5 46.7,8.4 46.3,8.1C46.0,7.9 46.0,7.9 45.6,7.6C45.3,7.4 45.3,7.3 45.0,7.1C44.6,7.0 44.5,7.2 44.1,7.0C43.8,6.9 43.8,6.8 43.5,6.5C43.1,6.3 43.1,6.2 42.7,6.0C42.3,5.9 42.3,6.0 41.8,5.9C41.4,5.9 41.4,5.9 40.9,5.8C40.5,5.8 40.5,5.8 40.0,5.7C39.6,5.7 39.5,5.7 39.1,5.6C38.7,5.6 38.7,5.6 38.3,5.6C37.9,5.5 37.9,5.5 37.4,5.5C37.0,5.4 37.0,5.4 36.7,5.4C36.3,5.3 36.1,5.3 35.9,5.3" fill="none" stroke="#fbbf24" stroke-width="0.6" stroke-linecap="round" stroke-linejoin="round" opacity="0.7"/>
  <path d="M43.3,35.7C43.4,35.9 43.4,36.3 43.6,36.6C43.7,36.9 43.7,36.8 44.0,37.1C44.2,37.3 44.2,37.4 44.4,37.6C44.7,37.7 44.7,37.5 45.0,37.6C45.2,37.7 45.2,37.8 45.4,38.1C45.7,38.3 45.8,38.4 45.9,38.6" fill="none" stroke="#fbbf24" stroke-width="0.6" stroke-linecap="round" stroke-linejoin="round" opacity="0.7"/>
  <path d="M60.8,35.4C60.7,35.3 60.7,35.2 60.6,35.0C60.5,34.7 60.5,34.7 60.3,34.5C60.2,34.3 60.2,34.4 60.0,34.0C59.8,33.7 59.8,33.5 59.7,33.1C59.5,32.8 59.5,32.9 59.3,32.7C59.1,32.4 59.1,32.4 58.9,32.2C58.6,32.0 58.6,32.0 58.4,31.7C58.1,31.5 58.1,31.5 57.9,31.2C57.6,31.0 57.6,31.0 57.4,30.8C57.2,30.5 57.2,30.4 57.1,30.3" fill="none" stroke="#fbbf24" stroke-width="0.6" stroke-linecap="round" stroke-linejoin="round" opacity="0.7"/>
  <path d="M30.3,23.6C30.1,23.6 29.9,23.5 29.5,23.5C29.1,23.6 29.0,23.8 28.6,23.9C28.3,23.9 28.3,23.7 27.9,23.8C27.5,23.9 27.5,24.0 27.1,24.1C26.7,24.3 26.7,24.4 26.3,24.5C25.9,24.5 25.8,24.4 25.4,24.4C25.0,24.3 25.1,24.2 24.7,24.3C24.3,24.4 24.2,24.5 23.7,24.6C23.3,24.8 23.3,24.9 22.9,25.0C22.5,25.0 22.6,24.8 22.2,24.9C21.8,25.0 21.6,25.2 21.4,25.3" fill="none" stroke="#fbbf24" stroke-width="0.6" stroke-linecap="round" stroke-linejoin="round" opacity="0.7"/>
  <path d="M57.3,29.9C57.2,29.9 57.1,30.0 56.9,29.8C56.8,29.7 56.7,29.7 56.6,29.4C56.5,29.1 56.6,28.8 56.6,28.5C56.5,28.2 56.5,28.3 56.4,28.1C56.3,27.8 56.2,27.8 56.1,27.6C55.9,27.4 55.9,27.5 55.8,27.1C55.7,26.8 55.7,26.6 55.6,26.3C55.5,25.9 55.5,26.0 55.3,25.8C55.2,25.6 55.3,25.7 55.2,25.4C55.1,25.0 55.1,24.8 54.9,24.5C54.8,24.1 54.8,24.3 54.6,24.0C54.4,23.8 54.4,23.8 54.3,23.6C54.1,23.3 54.1,23.3 54.0,23.1C53.9,22.9 53.9,22.9 53.8,22.6C53.7,22.4 53.7,22.5 53.6,22.2C53.6,21.9 53.6,21.7 53.5,21.3C53.3,21.0 53.2,21.1 53.0,20.8C52.7,20.6 52.7,20.6 52.5,20.4C52.3,20.1 52.3,20.0 52.2,19.9" fill="none" stroke="#fbbf24" stroke-width="0.6" stroke-linecap="round" stroke-linejoin="round" opacity="0.7"/>
  <path d="M34.8,37.8C34.8,37.7 34.7,37.7 34.5,37.4C34.3,37.0 34.4,36.8 34.2,36.5C34.0,36.1 34.0,36.3 33.8,36.0C33.6,35.7 33.6,35.6 33.5,35.1C33.3,34.7 33.4,34.5 33.3,34.2C33.2,34.0 33.1,34.4 33.0,34.2C32.9,34.0 32.9,33.7 32.8,33.3C32.7,33.0 32.6,33.2 32.5,32.9C32.5,32.5 32.6,32.3 32.6,32.0C32.6,31.7 32.5,31.9 32.4,31.6C32.3,31.2 32.4,31.0 32.3,30.7C32.3,30.4 32.3,30.5 32.2,30.4C32.2,30.2 32.2,30.3 32.1,30.0C32.0,29.8 31.9,29.5 31.8,29.4" fill="none" stroke="#fbbf24" stroke-width="0.6" stroke-linecap="round" stroke-linejoin="round" opacity="0.7"/>
  <path d="M56.1,8.3C56.4,8.2 56.6,8.0 57.0,8.0C57.5,7.9 57.4,8.0 57.8,8.0C58.1,8.1 58.2,8.2 58.6,8.1C59.1,8.1 59.2,7.9 59.6,7.8C60.0,7.7 59.9,7.8 60.3,7.9C60.7,7.9 60.7,7.9 61.1,8.0C61.5,8.0 61.5,8.0 61.9,8.0C62.3,8.1 62.2,8.1 62.6,8.1C63.1,8.2 63.2,8.2 63.6,8.2C64.0,8.3 64.0,8.3 64.4,8.3C64.8,8.3 64.8,8.3 65.2,8.4C65.6,8.4 65.6,8.4 66.1,8.5C66.5,8.5 66.6,8.5 66.8,8.6" fill="none" stroke="#fbbf24" stroke-width="0.6" stroke-linecap="round" stroke-linejoin="round" opacity="0.7"/>
  <path d="M67.6,16.8C67.5,16.6 67.5,16.2 67.4,15.9C67.3,15.6 67.3,15.7 67.2,15.5C67.1,15.2 67.0,15.2 66.9,15.0C66.8,14.8 66.8,14.9 66.7,14.5C66.6,14.2 66.6,14.0 66.5,13.7C66.5,13.3 66.5,13.5 66.4,13.2C66.4,13.0 66.4,13.1 66.4,12.8C66.3,12.5 66.2,12.2 66.2,11.9C66.1,11.6 66.1,11.6 66.1,11.5" fill="none" stroke="#fbbf24" stroke-width="0.6" stroke-linecap="round" stroke-linejoin="round" opacity="0.7"/>
  <path d="M47.4,42.2C47.6,42.1 47.9,41.9 48.3,41.8C48.7,41.8 48.6,42.0 49.0,41.9C49.4,41.8 49.5,41.6 49.9,41.6C50.4,41.5 50.3,41.6 50.7,41.6C51.1,41.7 51.0,41.8 51.4,41.7C51.8,41.7 52.0,41.5 52.3,41.4" fill="none" stroke="#fbbf24" stroke-width="0.6" stroke-linecap="round" stroke-linejoin="round" opacity="0.7"/>
  <path d="M50.1,48.9C50.3,48.8 50.5,48.7 50.8,48.5C51.1,48.3 51.0,48.3 51.4,48.2C51.7,48.0 51.7,48.0 52.1,47.8C52.4,47.6 52.5,47.5 52.7,47.4C53.0,47.4 52.9,47.6 53.2,47.5C53.5,47.4 53.6,47.3 53.9,47.1C54.3,47.0 54.3,47.0 54.7,46.8C55.0,46.6 54.9,46.7 55.3,46.4C55.7,46.1 55.8,45.8 56.2,45.7C56.5,45.5 56.4,45.8 56.7,45.7C57.0,45.6 57.0,45.5 57.3,45.4C57.7,45.2 57.4,45.4 58.0,45.0C58.7,44.6 59.3,44.3 59.9,43.9C60.5,43.5 60.2,43.7 60.5,43.5C60.8,43.3 60.7,43.4 61.0,43.2C61.3,42.9 61.4,42.7 61.8,42.4C62.1,42.1 62.0,42.2 62.3,42.0C62.6,41.8 62.6,41.7 62.9,41.6C63.1,41.6 63.0,41.9 63.3,41.7C63.5,41.5 63.6,41.2 63.9,40.9C64.1,40.6 64.1,40.7 64.4,40.5C64.6,40.3 64.6,40.3 64.9,40.1C65.2,39.9 65.2,39.9 65.5,39.8C65.7,39.6 65.7,39.7 66.0,39.4C66.2,39.1 66.2,38.9 66.5,38.6C66.7,38.3 66.8,38.4 67.0,38.2C67.3,38.0 67.3,38.0 67.5,37.8C67.8,37.6 67.7,37.6 68.0,37.4C68.2,37.3 68.1,37.4 68.4,37.1C68.7,36.8 68.7,36.6 69.0,36.3C69.2,36.0 69.2,36.1 69.4,35.9C69.7,35.7 69.7,35.8 70.0,35.5C70.3,35.2 70.4,35.0 70.7,34.7C71.0,34.4 71.1,34.4 71.2,34.4" fill="none" stroke="#fbbf24" stroke-width="0.6" stroke-linecap="round" stroke-linejoin="round" opacity="0.7"/>
  <path d="M79.0,23.6C79.0,23.5 79.1,23.5 79.1,23.2C79.2,22.8 79.2,22.7 79.2,22.3C79.3,21.9 79.3,21.8 79.3,21.5C79.3,21.1 79.2,21.2 79.2,21.0C79.2,20.8 79.3,20.9 79.4,20.6C79.4,20.3 79.5,20.2 79.5,19.8C79.5,19.3 79.5,19.1 79.5,18.9C79.4,18.7 79.3,19.1 79.3,18.9C79.2,18.7 79.2,18.3 79.2,18.0C79.3,17.7 79.3,17.9 79.3,17.6C79.4,17.3 79.4,17.1 79.5,16.8C79.6,16.4 79.5,16.5 79.6,16.3C79.6,16.1 79.6,16.2 79.7,15.9C79.7,15.6 79.8,15.4 79.8,15.1C79.8,14.7 79.7,14.8 79.7,14.6C79.7,14.4 79.7,14.3 79.7,14.2" fill="none" stroke="#fbbf24" stroke-width="0.6" stroke-linecap="round" stroke-linejoin="round" opacity="0.7"/>
  <path d="M74.1,14.9C74.0,14.7 74.0,14.2 73.8,14.0C73.5,13.8 73.5,14.1 73.3,14.0C73.0,13.8 73.1,13.7 72.8,13.5C72.6,13.2 72.5,13.2 72.3,13.0C72.1,12.8 72.2,12.8 72.0,12.5C71.8,12.3 71.7,12.3 71.5,12.0C71.2,11.8 71.2,11.8 71.0,11.6C70.7,11.3 70.7,11.2 70.4,11.1C70.1,10.9 70.1,11.0 69.7,11.0C69.3,11.0 69.3,11.1 68.9,10.9C68.6,10.8 68.7,10.7 68.4,10.4C68.1,10.2 68.1,10.2 67.7,9.9C67.3,9.7 67.3,9.6 66.9,9.4C66.5,9.3 66.5,9.5 66.1,9.3C65.7,9.2 65.7,9.1 65.3,8.8C64.9,8.6 64.9,8.5 64.6,8.3C64.2,8.2 64.3,8.3 63.9,8.2C63.5,8.2 63.5,8.3 63.1,8.2C62.7,8.0 62.8,7.8 62.4,7.7C62.0,7.5 62.0,7.6 61.6,7.6C61.2,7.5 61.1,7.6 60.8,7.5C60.4,7.3 60.5,7.1 60.2,7.0C59.8,6.8 59.8,7.0 59.4,6.9C59.0,6.9 58.8,6.9 58.6,6.8" fill="none" stroke="#fbbf24" stroke-width="0.6" stroke-linecap="round" stroke-linejoin="round" opacity="0.7"/>
  <path d="M76.0,34.4C76.1,34.4 76.1,34.7 76.3,34.5C76.5,34.3 76.6,34.1 76.8,33.7C77.0,33.2 77.0,33.1 77.2,32.8C77.4,32.5 77.4,32.6 77.5,32.4C77.7,32.2 77.7,32.1 77.8,32.0" fill="none" stroke="#fbbf24" stroke-width="0.6" stroke-linecap="round" stroke-linejoin="round" opacity="0.7"/>
  <path d="M52.9,23.4C53.1,23.3 53.3,23.1 53.6,23.1C53.9,23.0 53.9,23.1 54.2,23.1C54.5,23.1 54.5,23.3 54.9,23.2C55.3,23.1 55.3,23.0 55.7,22.8C56.1,22.7 56.1,22.7 56.4,22.5C56.8,22.3 56.8,22.3 57.2,22.1C57.6,22.0 57.6,22.0 57.9,21.8C58.2,21.6 58.2,21.6 58.5,21.4C58.9,21.2 58.9,21.1 59.3,21.1C59.7,21.0 59.6,21.2 60.0,21.1C60.3,21.1 60.3,21.0 60.8,20.8C61.2,20.6 61.2,20.6 61.6,20.5C62.0,20.3 62.1,20.2 62.5,20.1C62.9,20.1 62.8,20.3 63.2,20.2C63.6,20.1 63.7,19.9 64.1,19.9C64.5,19.8 64.5,20.0 64.9,19.9C65.3,19.9 65.3,19.7 65.7,19.6C66.1,19.5 66.1,19.6 66.6,19.7C67.0,19.7 65.6,19.9 67.4,19.8C69.2,19.6 71.8,19.4 73.6,19.1C75.4,18.9 74.1,18.9 74.6,18.8C75.1,18.8 75.1,18.9 75.5,18.9C76.0,19.0 76.0,19.0 76.5,19.0C76.9,19.1 76.9,19.1 77.4,19.1C77.8,19.2 77.8,19.2 78.2,19.2C78.6,19.2 78.6,19.3 79.0,19.3C79.5,19.2 79.6,19.0 80.0,19.0C80.5,18.9 80.5,19.0 80.9,19.0C81.3,19.1 81.2,19.2 81.6,19.1C82.0,19.1 82.1,19.0 82.5,18.8C83.0,18.6 83.0,18.6 83.5,18.5C83.9,18.3 83.9,18.3 84.4,18.1C84.9,18.0 84.9,18.0 85.3,17.8C85.8,17.6 85.7,17.5 86.1,17.4C86.5,17.4 86.5,17.6 86.8,17.5C87.2,17.5 87.1,17.4 87.5,17.2C87.9,16.9 87.9,16.7 88.3,16.4C88.7,16.1 88.7,16.2 89.1,16.0C89.4,15.9 89.4,15.9 89.7,15.7C90.0,15.5 90.1,15.6 90.4,15.3C90.7,15.0 90.8,14.8 91.1,14.5C91.4,14.2 91.3,14.5 91.7,14.2C92.0,13.9 92.1,13.6 92.4,13.4C92.7,13.2 92.6,13.6 92.9,13.4C93.2,13.3 93.3,12.9 93.6,12.7C93.9,12.4 93.8,12.6 94.1,12.3C94.3,12.0 94.4,11.7 94.7,11.5C95.0,11.3 94.9,11.7 95.2,11.5C95.4,11.3 95.4,11.0 95.6,10.7C95.9,10.4 95.9,10.6 96.1,10.3C96.3,10.0 96.3,9.7 96.4,9.5C96.5,9.3 96.4,9.7 96.6,9.5C96.8,9.3 96.9,9.0 97.0,8.7C97.2,8.4 97.3,8.4 97.4,8.3" fill="none" stroke="#fbbf24" stroke-width="0.6" stroke-linecap="round" stroke-linejoin="round" opacity="0.7"/>
  <ellipse cx="49.4" cy="32.6" rx="3.5" ry="3.3" fill="#0c0c0c" stroke="#ef4444" stroke-width="0.4" opacity="0.95"/>
  <text x="49.4" y="33.8" text-anchor="middle" font-family="sans-serif" font-size="3.1" font-weight="700" fill="#ffffff" opacity="0.95">OR</text>
</svg>